<svg width="284" height="222" viewBox="0 0 284 222" fill="none" xmlns="http://www.w3.org/2000/svg">
<path d="M271.27 221.813H29.4677C22.5548 221.813 16.9507 216.208 16.9507 209.293V45.0696H283.787V209.293C283.787 216.208 278.183 221.813 271.27 221.813Z" fill="#736D9B"/>
<path d="M138.167 70.4612L140.023 71.0372C139.607 72.1572 139.079 73.2932 138.487 74.3652V85.3252H136.567V77.3252C136.231 77.7252 135.895 78.1252 135.575 78.4772C135.399 78.0132 134.855 76.9252 134.519 76.4452C135.975 75.0052 137.367 72.7332 138.167 70.4612ZM145.527 83.0372H149.655V84.8452H139.335V83.0372H143.591V79.8212H140.215V78.0292H143.591V75.2132H139.687V73.4052H143.991C143.799 72.7332 143.319 71.7092 142.855 70.9252L144.615 70.3332C145.095 71.0852 145.655 72.1252 145.879 72.8132L144.231 73.4052H149.431V75.2132H145.527V78.0292H148.983V79.8212H145.527V83.0372ZM153.559 73.6132V75.4212H151.623V71.8052H157.559C157.415 71.4372 157.239 71.0532 157.079 70.7332L158.967 70.1732C159.271 70.6692 159.575 71.2932 159.735 71.8052H165.303V75.4212H163.271V73.6132H153.559ZM159.991 83.1972H162.711C163.575 83.1972 163.719 82.8452 163.847 80.9732C164.295 81.3092 165.159 81.6452 165.751 81.7732C165.479 84.3332 164.887 85.0692 162.871 85.0692H159.783C157.447 85.0692 156.807 84.4452 156.807 82.4132V80.6692L151.511 81.2132L151.271 79.3732L156.807 78.8292V77.0692C155.623 77.2452 154.407 77.3892 153.271 77.5012C153.191 77.0212 152.919 76.2532 152.695 75.8372C155.959 75.5012 159.495 74.8772 161.623 74.0132L163.095 75.5812C161.863 76.0452 160.407 76.4132 158.887 76.7012V78.6212L165.351 77.9812L165.575 79.7412L158.887 80.4452V82.3972C158.887 83.1012 159.047 83.1972 159.991 83.1972Z" fill="white"/>
<path d="M141.425 188.331H144.849C145.169 187.723 145.505 186.987 145.697 186.395H141.777C142.049 186.907 142.385 187.531 142.561 187.931L141.425 188.331ZM148.321 191.771V189.867H145.745C146.593 190.475 147.649 191.227 148.321 191.771ZM141.217 192.331H146.401C145.761 191.787 144.961 191.211 144.353 190.731L145.201 189.867H142.065L143.329 190.491C142.769 191.099 141.985 191.755 141.217 192.331ZM145.217 194.923V193.643H142.113V194.923H145.217ZM150.817 184.795V186.395H146.113L147.761 186.731C147.441 187.291 147.089 187.851 146.769 188.331H150.081V196.427C150.081 197.275 149.873 197.643 149.281 197.867C148.705 198.091 147.841 198.107 146.561 198.107C146.481 197.691 146.257 197.099 146.033 196.715C146.817 196.747 147.729 196.747 147.969 196.731C148.225 196.731 148.321 196.651 148.321 196.411V192.139L147.377 193.179C147.201 193.019 146.993 192.811 146.737 192.603V196.219H142.113V196.891H140.529V192.827C140.321 192.971 140.113 193.099 139.921 193.211C139.825 192.923 139.441 192.027 139.217 191.659C140.129 191.195 141.297 190.507 142.017 189.867H139.169V198.155H137.345V188.331H140.625C140.433 187.851 140.129 187.227 139.889 186.731L140.961 186.395H136.593V184.795H142.961C142.817 184.395 142.641 183.995 142.481 183.643L144.401 183.179C144.657 183.675 144.929 184.283 145.137 184.795H150.817ZM156.369 195.083L158.065 194.155C158.129 194.651 158.289 195.339 158.401 195.707C155.489 197.435 154.977 197.835 154.673 198.171C154.545 197.707 154.145 196.907 153.825 196.523C154.193 196.299 154.657 195.803 154.657 195.115V192.747H152.705V191.051H154.657V189.483H153.633V188.059C153.441 188.283 153.249 188.491 153.041 188.683C152.913 188.299 152.497 187.355 152.225 186.955C153.169 186.059 154.001 184.715 154.481 183.307L156.033 183.771C155.905 184.091 155.777 184.443 155.633 184.779H158.145V186.475H154.753C154.465 186.955 154.177 187.387 153.857 187.787H157.921V189.483H156.369V191.051H158.273V192.747H156.369V195.083ZM165.073 190.491V189.403H163.569V190.491H165.073ZM163.569 193.179H165.073V192.027H163.569V193.179ZM160.497 193.179H162.017V192.027H160.497V193.179ZM162.017 189.403H160.497V190.491H162.017V189.403ZM167.089 186.811H163.665V187.803H166.753V196.379C166.753 197.099 166.673 197.547 166.225 197.835C165.809 198.123 165.265 198.155 164.545 198.155C164.481 197.691 164.289 196.971 164.081 196.523C164.433 196.539 164.769 196.539 164.897 196.539C165.041 196.539 165.073 196.491 165.073 196.347V194.731H163.569V198.075H162.017V194.731H160.497V198.171H158.897V187.803H161.937V186.811H158.577V185.211H161.937V183.259H163.665V185.211H165.265C164.897 184.843 164.401 184.411 164.001 184.059L165.137 183.195C165.665 183.611 166.417 184.235 166.801 184.619L166.065 185.211H167.089V186.811Z" fill="white"/>
<path d="M138.167 128.838L140.023 129.414C139.607 130.534 139.079 131.67 138.487 132.742V143.702H136.567V135.702C136.231 136.102 135.895 136.502 135.575 136.854C135.399 136.39 134.855 135.302 134.519 134.822C135.975 133.382 137.367 131.11 138.167 128.838ZM145.527 141.414H149.655V143.222H139.335V141.414H143.591V138.198H140.215V136.406H143.591V133.59H139.687V131.782H143.991C143.799 131.11 143.319 130.086 142.855 129.302L144.615 128.71C145.095 129.462 145.655 130.502 145.879 131.19L144.231 131.782H149.431V133.59H145.527V136.406H148.983V138.198H145.527V141.414ZM153.559 131.99V133.798H151.623V130.182H157.559C157.415 129.814 157.239 129.43 157.079 129.11L158.967 128.55C159.271 129.046 159.575 129.67 159.735 130.182H165.303V133.798H163.271V131.99H153.559ZM159.991 141.574H162.711C163.575 141.574 163.719 141.222 163.847 139.35C164.295 139.686 165.159 140.022 165.751 140.15C165.479 142.71 164.887 143.446 162.871 143.446H159.783C157.447 143.446 156.807 142.822 156.807 140.79V139.046L151.511 139.59L151.271 137.75L156.807 137.206V135.446C155.623 135.622 154.407 135.766 153.271 135.878C153.191 135.398 152.919 134.63 152.695 134.214C155.959 133.878 159.495 133.254 161.623 132.39L163.095 133.958C161.863 134.422 160.407 134.79 158.887 135.078V136.998L165.351 136.358L165.575 138.118L158.887 138.822V140.774C158.887 141.478 159.047 141.574 159.991 141.574Z" fill="white"/>
<path d="M16.6859 92.1816C8.63246 92.1816 2.08057 85.6282 2.08057 77.5729C2.08057 69.5175 8.63246 62.9641 16.6859 62.9641C24.7397 62.9641 31.2916 69.5175 31.2916 77.5729C31.2916 85.6282 24.7397 92.1816 16.6859 92.1816Z" fill="#746D9C"/>
<path d="M13.286 86.3928L19.0198 74.0872L22.879 73.5138L17.2114 86.3928H13.286ZM11.7422 74.2195V70.9557H22.879V73.5138L19.0859 74.2195H11.7422Z" fill="white"/>
<path d="M16.6873 61.5918C7.87828 61.5918 0.711914 68.7602 0.711914 77.5709C0.711914 86.382 7.87828 93.55 16.6873 93.55C25.4964 93.55 32.6627 86.382 32.6627 77.5709C32.6627 68.7602 25.4964 61.5918 16.6873 61.5918ZM16.6873 64.3325C23.9969 64.3325 29.9226 70.2597 29.9226 77.5709C29.9226 84.8825 23.9969 90.8093 16.6873 90.8093C9.37745 90.8093 3.452 84.8825 3.452 77.5709C3.452 70.2597 9.37745 64.3325 16.6873 64.3325Z" fill="white"/>
<path d="M16.6859 150.584C8.63246 150.584 2.08057 144.03 2.08057 135.975C2.08057 127.919 8.63246 121.366 16.6859 121.366C24.7397 121.366 31.2916 127.919 31.2916 135.975C31.2916 144.03 24.7397 150.584 16.6859 150.584Z" fill="#746D9C"/>
<path d="M17.0356 143.997C15.7419 143.997 14.6539 143.82 13.7718 143.468C12.8897 143.1 12.2207 142.6 11.765 141.968C11.3239 141.321 11.1034 140.571 11.1034 139.719C11.1034 138.792 11.3239 137.984 11.765 137.293C12.2207 136.587 12.8897 136.036 13.7718 135.639C14.6539 135.242 15.7419 135.043 17.0356 135.043C18.3441 135.043 19.4321 135.242 20.2995 135.639C21.1816 136.036 21.8506 136.587 22.3063 137.293C22.7621 137.984 22.99 138.792 22.99 139.719C22.99 140.571 22.7621 141.321 22.3063 141.968C21.8506 142.6 21.1816 143.1 20.2995 143.468C19.4321 143.82 18.3441 143.997 17.0356 143.997ZM17.0356 141.064C17.7119 141.064 18.2633 140.895 18.6896 140.557C19.1307 140.204 19.3512 139.763 19.3512 139.233C19.3512 138.616 19.1307 138.123 18.6896 137.756C18.2633 137.374 17.7119 137.182 17.0356 137.182C16.5946 137.182 16.1976 137.271 15.8448 137.447C15.5066 137.609 15.2346 137.844 15.0288 138.153C14.8377 138.461 14.7421 138.822 14.7421 139.233C14.7421 139.586 14.8377 139.902 15.0288 140.182C15.2346 140.446 15.5066 140.659 15.8448 140.821C16.1976 140.983 16.5946 141.064 17.0356 141.064ZM17.0356 136.3C15.8595 136.3 14.8671 136.131 14.0585 135.793C13.2499 135.44 12.6324 134.962 12.206 134.36C11.7797 133.742 11.5665 133.029 11.5665 132.22C11.5665 131.397 11.7797 130.669 12.206 130.037C12.6324 129.405 13.2499 128.913 14.0585 128.56C14.8671 128.207 15.8595 128.03 17.0356 128.03C18.1971 128.03 19.1821 128.207 19.9908 128.56C20.8141 128.913 21.4389 129.405 21.8653 130.037C22.3063 130.669 22.5269 131.397 22.5269 132.22C22.5269 133.029 22.3063 133.742 21.8653 134.36C21.4389 134.962 20.8141 135.44 19.9908 135.793C19.1821 136.131 18.1971 136.3 17.0356 136.3ZM17.0356 134.47C17.6237 134.47 18.1089 134.301 18.4912 133.963C18.8734 133.61 19.0645 133.169 19.0645 132.639C19.0645 132.11 18.8734 131.684 18.4912 131.36C18.1089 131.022 17.6237 130.853 17.0356 130.853C16.4476 130.853 15.9624 131.022 15.5801 131.36C15.2126 131.684 15.0288 132.11 15.0288 132.639C15.0288 133.169 15.2126 133.61 15.5801 133.963C15.9624 134.301 16.4476 134.47 17.0356 134.47Z" fill="white"/>
<path d="M16.6873 119.993C7.87828 119.993 0.711914 127.162 0.711914 135.972C0.711914 144.783 7.87828 151.951 16.6873 151.951C25.4964 151.951 32.6627 144.783 32.6627 135.972C32.6627 127.162 25.4964 119.993 16.6873 119.993ZM16.6873 122.734C23.9969 122.734 29.9226 128.661 29.9226 135.972C29.9226 143.284 23.9969 149.211 16.6873 149.211C9.37745 149.211 3.452 143.284 3.452 135.972C3.452 128.661 9.37745 122.734 16.6873 122.734Z" fill="white"/>
<path d="M16.6859 204.231C8.63246 204.231 2.08057 197.678 2.08057 189.623C2.08057 181.567 8.63246 175.014 16.6859 175.014C24.7397 175.014 31.2916 181.567 31.2916 189.623C31.2916 197.678 24.7397 204.231 16.6859 204.231Z" fill="#746D9C"/>
<path d="M17.2171 181.758C18.2462 181.758 19.1283 181.942 19.8635 182.309C20.5986 182.662 21.2013 183.162 21.6718 183.809C22.1423 184.456 22.4878 185.213 22.7083 186.08C22.9435 186.933 23.0611 187.867 23.0611 188.881C23.0611 189.999 22.9435 191.086 22.7083 192.145C22.4731 193.189 22.1055 194.137 21.6056 194.99C21.1058 195.828 20.4368 196.497 19.5988 196.997C18.7755 197.482 17.7684 197.724 16.5775 197.724C15.7395 197.724 14.9309 197.607 14.1517 197.372C13.3725 197.136 12.6668 196.798 12.0346 196.357L13.7327 193.755C14.1885 194.064 14.6736 194.284 15.1882 194.416C15.7028 194.549 16.1585 194.615 16.5555 194.615C17.5258 194.615 18.305 194.174 18.8931 193.292C19.4959 192.41 19.7826 190.991 19.7532 189.036L20.4809 189.455C20.1281 190.204 19.6135 190.822 18.9372 191.307C18.2756 191.777 17.4744 192.013 16.5334 192.013C15.5631 192.013 14.6957 191.777 13.9312 191.307C13.1814 190.837 12.5933 190.204 12.1669 189.41C11.7406 188.602 11.5274 187.712 11.5274 186.742C11.5274 185.772 11.7553 184.912 12.211 184.162C12.6815 183.412 13.3431 182.824 14.1958 182.398C15.0485 181.971 16.0556 181.758 17.2171 181.758ZM17.195 184.735C16.7834 184.735 16.4158 184.831 16.0924 185.022C15.7689 185.213 15.5116 185.47 15.3205 185.794C15.1441 186.117 15.0559 186.492 15.0559 186.918C15.0559 187.33 15.1441 187.712 15.3205 188.065C15.5116 188.403 15.7689 188.675 16.0924 188.881C16.4158 189.072 16.7834 189.168 17.195 189.168C17.6067 189.168 17.9742 189.072 18.2977 188.881C18.6211 188.675 18.8784 188.403 19.0695 188.065C19.2607 187.712 19.3562 187.33 19.3562 186.918C19.3562 186.492 19.2607 186.117 19.0695 185.794C18.8784 185.47 18.6211 185.213 18.2977 185.022C17.9742 184.831 17.6067 184.735 17.195 184.735Z" fill="white"/>
<path d="M16.6873 173.647C7.87828 173.647 0.711914 180.815 0.711914 189.626C0.711914 198.437 7.87828 205.605 16.6873 205.605C25.4964 205.605 32.6627 198.437 32.6627 189.626C32.6627 180.815 25.4964 173.647 16.6873 173.647ZM16.6873 176.387C23.9969 176.387 29.9226 182.315 29.9226 189.626C29.9226 196.937 23.9969 202.864 16.6873 202.864C9.37745 202.864 3.452 196.937 3.452 189.626C3.452 182.315 9.37745 176.387 16.6873 176.387Z" fill="white"/>
<path d="M283.967 48.7184H16.9507V15.5792C16.9507 7.40535 23.5752 0.779297 31.7472 0.779297H269.171C277.343 0.779297 283.967 7.40535 283.967 15.5792V48.7184Z" fill="#EEEFEF"/>
<path d="M131.066 26.9262H125.246C126.78 28.8838 129.179 30.7533 131.524 31.7762C131.031 32.1994 130.36 33.046 130.008 33.5927C127.927 32.5169 125.881 30.7533 124.276 28.7427V34.3511H122.036V28.8485C120.431 30.7885 118.368 32.4993 116.304 33.5751C115.952 33.046 115.264 32.1994 114.77 31.7585C117.116 30.7533 119.514 28.8838 121.066 26.9262H115.352V24.8451H122.036V22.5876H116.675V20.5066H122.036V17.8788H124.276V20.5066H129.796V22.5876H124.276V24.8451H131.066V26.9262ZM140.043 21.794H137.168C137.785 22.7464 138.438 23.9986 138.667 24.8627L136.992 25.5153H140.043V21.794ZM145.246 21.794H142.265V25.5153H145.228L143.746 25.0038C144.258 24.1396 144.893 22.8169 145.246 21.794ZM149.037 27.5258H143.517C145.034 29.36 147.291 31.0531 149.496 31.9702C149.02 32.3934 148.35 33.2223 148.032 33.7338C145.916 32.6756 143.852 30.912 142.265 28.9014V34.3158H140.043V28.9367C138.438 30.912 136.374 32.6403 134.258 33.6985C133.923 33.1871 133.27 32.3582 132.777 31.9349C134.999 31.0178 137.274 29.3424 138.808 27.5258H133.27V25.5153H136.604C136.41 24.6687 135.845 23.4342 135.281 22.4818L137.098 21.794H134.099V19.7835H140.043V17.8611H142.265V19.7835H148.367V21.794H145.44L147.468 22.3936C146.85 23.54 146.18 24.7216 145.616 25.5153H149.037V27.5258ZM157.573 21.7764H160.131C160.272 21.3355 160.43 20.8769 160.571 20.4007H157.097V18.5313H167.273V20.4007H163.041C162.794 20.8946 162.547 21.3531 162.317 21.7764H166.391V29.9949H164.24V23.6106H159.637V30.0654H157.573V21.7764ZM156.921 27.4905L157.185 29.2542C155.104 29.9773 152.917 30.7533 151.207 31.3353L150.695 29.1131C151.348 28.9544 152.141 28.7604 153.023 28.5311V21.7411H150.995V19.7658H156.85V21.7411H155.104V27.9667L156.921 27.4905ZM163.005 24.2984V27.8962C163.005 30.33 161.894 32.8696 156.938 34.3863C156.692 33.9454 156.074 33.1694 155.616 32.7814C160.307 31.5998 160.907 29.6069 160.907 27.8609V24.2984H163.005ZM162.406 31.494L163.693 30.2418C164.945 30.9825 166.656 32.076 167.485 32.852L166.092 34.2805C165.316 33.4869 163.658 32.3053 162.406 31.494ZM172.952 31.0002H181.118V28.9191H172.952V31.0002ZM181.118 24.8627H172.952V26.9438H181.118V24.8627ZM181.118 20.8593H172.952V22.8875H181.118V20.8593ZM170.836 18.8135H183.34V34.1394H181.118V33.046H172.952V34.1394H170.836V18.8135Z" fill="#736D9B"/>
<path d="M16.8638 106.434H283.701" stroke="white" stroke-width="0.719912" stroke-miterlimit="10"/>
<path d="M16.8638 164.1H283.701" stroke="white" stroke-width="0.719912" stroke-miterlimit="10"/>
</svg>
