<svg width="281" height="101" viewBox="0 0 281 101" fill="none" xmlns="http://www.w3.org/2000/svg">
<path d="M270.299 100.779H26.1227C20.4981 100.779 15.9387 96.5715 15.9387 91.3808L15.9388 48.9077H280.483V91.3808C280.483 96.5715 275.924 100.779 270.299 100.779Z" fill="#F57921"/>
<path d="M66.0406 80.6447C65.4174 80.6447 64.8354 80.5683 64.2946 80.4155C63.7537 80.2626 63.2717 80.051 62.8484 79.7806C62.4251 79.4984 62.0724 79.1868 61.7902 78.8458C61.5198 78.5049 61.3434 78.1463 61.2611 77.77L63.6244 77.0646C63.7773 77.4643 64.0477 77.8112 64.4357 78.1051C64.8237 78.3873 65.3116 78.5343 65.8995 78.546C66.5226 78.5578 67.0282 78.4226 67.4162 78.1404C67.816 77.8582 68.0159 77.4937 68.0159 77.0469C68.0159 76.6589 67.8571 76.3356 67.5397 76.0769C67.234 75.8065 66.8107 75.6008 66.2699 75.4597L64.665 75.0364C64.0653 74.8835 63.5362 74.6543 63.0777 74.3486C62.6191 74.0311 62.2605 73.6431 62.0019 73.1846C61.7432 72.726 61.6139 72.1911 61.6139 71.5797C61.6139 70.4157 61.996 69.5103 62.7602 68.8637C63.5362 68.2053 64.6297 67.8761 66.0406 67.8761C66.8283 67.8761 67.5162 67.9936 68.104 68.2288C68.7037 68.4522 69.2034 68.7755 69.6031 69.1988C70.0029 69.622 70.3086 70.1217 70.5202 70.6979L68.1746 71.4209C68.0335 71.0212 67.7748 70.6802 67.3986 70.398C67.0223 70.1159 66.5462 69.9748 65.97 69.9748C65.3822 69.9748 64.9177 70.11 64.5768 70.3804C64.2476 70.6508 64.083 71.033 64.083 71.5268C64.083 71.9148 64.2123 72.2205 64.471 72.4439C64.7414 72.6672 65.1059 72.8377 65.5644 72.9553L67.1869 73.3609C68.2451 73.6196 69.0682 74.084 69.656 74.7542C70.2439 75.4244 70.5378 76.171 70.5378 76.994C70.5378 77.723 70.3615 78.3638 70.0088 78.9164C69.656 79.4572 69.1446 79.8805 68.4744 80.1862C67.8042 80.4919 66.9929 80.6447 66.0406 80.6447ZM80.7391 80.4331V68.0877H83.1553V80.4331H80.7391ZM72.6087 80.4331V68.07H75.0249V80.4331H72.6087ZM74.4076 75.2304V73.0082H81.8854V75.2304H74.4076ZM91.4796 80.6447C90.2333 80.6447 89.1281 80.3743 88.164 79.8335C87.2116 79.2809 86.465 78.5284 85.9242 77.576C85.3833 76.6119 85.1129 75.5126 85.1129 74.278C85.1129 73.02 85.3833 71.9148 85.9242 70.9624C86.465 69.9983 87.2057 69.2458 88.1463 68.705C89.0987 68.1641 90.1921 67.8937 91.4267 67.8937C92.673 67.8937 93.7664 68.17 94.707 68.7226C95.6594 69.2634 96.406 70.0159 96.9468 70.98C97.4877 71.9324 97.7581 73.0317 97.7581 74.278C97.7581 75.5126 97.4877 76.6119 96.9468 77.576C96.4178 78.5284 95.677 79.2809 94.7247 79.8335C93.7841 80.3743 92.7024 80.6447 91.4796 80.6447ZM91.4796 78.4402C92.2321 78.4402 92.8905 78.2638 93.4549 77.9111C94.031 77.5466 94.4778 77.0528 94.7952 76.4297C95.1244 75.8065 95.289 75.0893 95.289 74.278C95.289 73.455 95.1244 72.7319 94.7952 72.1088C94.466 71.4856 94.0133 70.9977 93.4372 70.645C92.8611 70.2805 92.1909 70.0982 91.4267 70.0982C90.686 70.0982 90.0217 70.2805 89.4338 70.645C88.8577 70.9977 88.405 71.4856 88.0758 72.1088C87.7466 72.7319 87.582 73.455 87.582 74.278C87.582 75.0893 87.7466 75.8065 88.0758 76.4297C88.405 77.0528 88.8635 77.5466 89.4514 77.9111C90.0393 78.2638 90.7153 78.4402 91.4796 78.4402ZM99.7177 80.4331V68.0877H104.303C105.173 68.0877 105.943 68.264 106.613 68.6168C107.284 68.9577 107.807 69.4398 108.183 70.063C108.559 70.6743 108.747 71.3857 108.747 72.1969C108.747 72.9965 108.565 73.7078 108.201 74.3309C107.836 74.9541 107.337 75.4479 106.702 75.8124C106.067 76.1651 105.332 76.3415 104.497 76.3415H102.134V80.4331H99.7177ZM102.134 74.1193H104.444C104.985 74.1193 105.426 73.9429 105.767 73.5902C106.12 73.2257 106.296 72.7613 106.296 72.1969C106.296 71.6326 106.102 71.174 105.714 70.8213C105.338 70.4686 104.85 70.2922 104.25 70.2922H102.134V74.1193ZM117.686 80.6624C116.957 80.6624 116.31 80.5213 115.746 80.2391C115.182 79.9569 114.741 79.5689 114.423 79.0751C114.106 78.5813 113.947 78.0111 113.947 77.3644C113.947 76.9176 114.029 76.5061 114.194 76.1298C114.359 75.7536 114.588 75.4068 114.882 75.0893C115.176 74.7601 115.505 74.472 115.869 74.2251L118.197 72.6202C118.385 72.4909 118.585 72.3439 118.797 72.1793C119.02 72.0147 119.214 71.8207 119.379 71.5973C119.555 71.3622 119.644 71.0976 119.644 70.8037C119.644 70.4627 119.52 70.1982 119.273 70.01C119.026 69.8102 118.715 69.7102 118.338 69.7102C117.986 69.7102 117.686 69.8102 117.439 70.01C117.204 70.2099 117.086 70.4686 117.086 70.786C117.086 71.0917 117.18 71.3622 117.368 71.5973C117.557 71.8207 117.774 72.0853 118.021 72.3909L120.367 75.2128L124.688 80.4331H121.972L118.691 76.5178L116.222 73.5197C115.905 73.1082 115.64 72.7496 115.428 72.4439C115.229 72.1264 115.082 71.8383 114.988 71.5797C114.893 71.3093 114.846 71.0388 114.846 70.7684C114.846 70.204 114.993 69.7043 115.287 69.2693C115.593 68.8343 115.999 68.4933 116.504 68.2464C117.022 67.9877 117.598 67.8584 118.233 67.8584C118.926 67.8584 119.544 67.9877 120.084 68.2464C120.625 68.4933 121.049 68.8402 121.354 69.287C121.672 69.7337 121.83 70.257 121.83 70.8566C121.83 71.3386 121.707 71.7854 121.46 72.1969C121.213 72.5967 120.849 73.0023 120.367 73.4139C119.896 73.8254 119.32 74.2663 118.638 74.7366L117.386 75.6008C117.198 75.7301 117.022 75.8771 116.857 76.0417C116.704 76.2063 116.581 76.3944 116.487 76.606C116.393 76.8059 116.346 77.0411 116.346 77.3115C116.346 77.7112 116.481 78.0404 116.751 78.2991C117.033 78.5578 117.392 78.6871 117.827 78.6871C118.321 78.6871 118.809 78.6107 119.291 78.4578C119.773 78.305 120.208 78.0757 120.596 77.77C120.996 77.4643 121.307 77.0881 121.531 76.6413C121.754 76.1945 121.866 75.6831 121.866 75.1069H124.035C124.035 76.1886 123.765 77.1528 123.224 77.9993C122.683 78.8341 121.936 79.4866 120.984 79.9569C120.032 80.4272 118.932 80.6624 117.686 80.6624ZM138.721 80.4331L133.995 68.0877H136.411L141.279 80.4331H138.721ZM128.969 80.4331L133.836 68.0877H136.252L131.526 80.4331H128.969ZM131.261 77.7171V75.5831H139.004V77.7171H131.261ZM142.758 80.4331V68.0877H147.343C148.213 68.0877 148.983 68.264 149.654 68.6168C150.324 68.9577 150.847 69.4398 151.223 70.063C151.6 70.6743 151.788 71.3857 151.788 72.1969C151.788 72.9965 151.605 73.7078 151.241 74.3309C150.876 74.9541 150.377 75.4479 149.742 75.8124C149.107 76.1651 148.372 76.3415 147.537 76.3415H145.174V80.4331H142.758ZM145.174 74.1193H147.484C148.025 74.1193 148.466 73.9429 148.807 73.5902C149.16 73.2257 149.336 72.7613 149.336 72.1969C149.336 71.6326 149.142 71.174 148.754 70.8213C148.378 70.4686 147.89 70.2922 147.29 70.2922H145.174V74.1193ZM161.938 80.4331L157.212 68.0877H159.628L164.495 80.4331H161.938ZM152.185 80.4331L157.053 68.0877H159.469L154.742 80.4331H152.185ZM154.478 77.7171V75.5831H162.22V77.7171H154.478ZM165.974 80.4331V68.0877H170.56C171.43 68.0877 172.2 68.2582 172.87 68.5991C173.54 68.9401 174.064 69.4104 174.44 70.01C174.816 70.5979 175.004 71.2857 175.004 72.0735C175.004 72.8495 174.804 73.5432 174.405 74.1546C174.017 74.7542 173.482 75.2245 172.8 75.5655C172.118 75.8947 171.342 76.0593 170.472 76.0593H168.391V80.4331H165.974ZM172.764 80.4331L169.907 75.4773L171.759 74.1546L175.498 80.4331H172.764ZM168.391 73.8548H170.577C170.942 73.8548 171.265 73.7783 171.547 73.6255C171.841 73.4726 172.071 73.261 172.235 72.9906C172.412 72.7202 172.5 72.4145 172.5 72.0735C172.5 71.5444 172.306 71.1153 171.918 70.786C171.542 70.4568 171.054 70.2922 170.454 70.2922H168.391V73.8548ZM179.745 80.4331V70.2922H176.041V68.0877H185.847V70.2922H182.161V80.4331H179.745ZM187.434 80.4331V68.0877H190.062L193.66 73.4139L197.258 68.0877H199.868V80.4331H197.469V71.8619L193.66 77.4702L189.85 71.8795V80.4331H187.434ZM202.556 80.4331V68.0877H210.369V70.2922H204.972V73.0964H209.628V75.248H204.972V78.2286H210.439V80.4331H202.556ZM212.941 80.4331V68.0877H215.463L221.495 76.3768V68.0877H223.894V80.4331H221.495L215.358 71.9853V80.4331H212.941ZM229.192 80.4331V70.2922H225.489V68.0877H235.294V70.2922H231.608V80.4331H229.192Z" fill="white"/>
<path d="M280.483 47.8702H15.9387V14.8813C15.9387 6.7448 22.5019 0.148438 30.5982 0.148438H265.824C273.92 0.148438 280.483 6.7448 280.483 14.8813V47.8702Z" fill="#EEEFEF"/>
<path d="M105.27 31.4159C104.247 31.4159 103.359 31.216 102.607 30.8162C101.854 30.4165 101.272 29.858 100.861 29.1408C100.461 28.4118 100.261 27.5535 100.261 26.5659V18.8235H102.677V26.5659C102.677 27.095 102.783 27.5594 102.995 27.9591C103.218 28.3471 103.524 28.647 103.912 28.8586C104.312 29.0702 104.776 29.176 105.305 29.176C105.834 29.176 106.293 29.0702 106.681 28.8586C107.08 28.647 107.386 28.3471 107.598 27.9591C107.821 27.5594 107.933 27.095 107.933 26.5659V18.8235H110.349V26.5659C110.349 27.5535 110.137 28.4118 109.714 29.1408C109.303 29.858 108.715 30.4165 107.951 30.8162C107.198 31.216 106.304 31.4159 105.27 31.4159ZM112.855 31.1689V18.8235H117.441C118.311 18.8235 119.081 18.9999 119.751 19.3526C120.421 19.6936 120.944 20.1756 121.321 20.7988C121.697 21.4102 121.885 22.1215 121.885 22.9328C121.885 23.7323 121.703 24.4436 121.338 25.0668C120.974 25.6899 120.474 26.1837 119.839 26.5482C119.204 26.901 118.469 27.0773 117.635 27.0773H115.271V31.1689H112.855ZM115.271 24.8551H117.582C118.123 24.8551 118.564 24.6788 118.904 24.3261C119.257 23.9616 119.434 23.4971 119.434 22.9328C119.434 22.3684 119.24 21.9099 118.852 21.5572C118.475 21.2044 117.987 21.0281 117.388 21.0281H115.271V24.8551ZM128.931 31.3806C127.732 31.3806 126.668 31.1102 125.739 30.5693C124.81 30.0167 124.081 29.2642 123.552 28.3119C123.023 27.3477 122.759 26.2425 122.759 24.9962C122.759 23.7499 123.023 22.6506 123.552 21.6982C124.081 20.7341 124.805 19.9816 125.722 19.4408C126.65 18.8882 127.715 18.6119 128.914 18.6119C129.76 18.6119 130.548 18.7647 131.277 19.0704C132.006 19.3644 132.641 19.7818 133.182 20.3226C133.734 20.8517 134.158 21.4631 134.452 22.1568L132.212 22.9857C132.012 22.5507 131.747 22.1744 131.418 21.857C131.089 21.5278 130.713 21.275 130.289 21.0986C129.866 20.9105 129.408 20.8164 128.914 20.8164C128.197 20.8164 127.556 20.9987 126.991 21.3632C126.439 21.7159 126.004 22.2038 125.686 22.827C125.381 23.4501 125.228 24.1732 125.228 24.9962C125.228 25.8193 125.387 26.5482 125.704 27.1831C126.021 27.8063 126.462 28.3001 127.027 28.6646C127.591 29.0173 128.238 29.1937 128.967 29.1937C129.472 29.1937 129.931 29.0996 130.342 28.9115C130.766 28.7116 131.136 28.4412 131.453 28.1002C131.783 27.7593 132.047 27.3654 132.247 26.9186L134.487 27.7299C134.193 28.4471 133.77 29.082 133.217 29.6346C132.676 30.1872 132.041 30.6163 131.312 30.922C130.583 31.2277 129.79 31.3806 128.931 31.3806ZM141.905 31.3806C140.659 31.3806 139.553 31.1102 138.589 30.5693C137.637 30.0167 136.89 29.2642 136.349 28.3119C135.809 27.3477 135.538 26.2484 135.538 25.0139C135.538 23.7558 135.809 22.6506 136.349 21.6982C136.89 20.7341 137.631 19.9816 138.572 19.4408C139.524 18.9 140.617 18.6295 141.852 18.6295C143.098 18.6295 144.192 18.9058 145.132 19.4584C146.085 19.9993 146.831 20.7518 147.372 21.7159C147.913 22.6682 148.183 23.7676 148.183 25.0139C148.183 26.2484 147.913 27.3477 147.372 28.3119C146.843 29.2642 146.102 30.0167 145.15 30.5693C144.209 31.1102 143.128 31.3806 141.905 31.3806ZM141.905 29.176C142.657 29.176 143.316 28.9997 143.88 28.647C144.456 28.2825 144.903 27.7887 145.22 27.1655C145.55 26.5424 145.714 25.8251 145.714 25.0139C145.714 24.1908 145.55 23.4678 145.22 22.8446C144.891 22.2215 144.439 21.7335 143.862 21.3808C143.286 21.0163 142.616 20.8341 141.852 20.8341C141.111 20.8341 140.447 21.0163 139.859 21.3808C139.283 21.7335 138.83 22.2215 138.501 22.8446C138.172 23.4678 138.007 24.1908 138.007 25.0139C138.007 25.8251 138.172 26.5424 138.501 27.1655C138.83 27.7887 139.289 28.2825 139.877 28.647C140.465 28.9997 141.141 29.176 141.905 29.176ZM150.143 31.1689V18.8235H152.771L156.369 24.1497L159.966 18.8235H162.577V31.1689H160.178V22.5977L156.369 28.206L152.559 22.6153V31.1689H150.143ZM165.265 31.1689V18.8235H167.681V31.1689H165.265ZM170.363 31.1689V18.8235H172.885L178.916 27.1126V18.8235H181.315V31.1689H178.916L172.779 22.7212V31.1689H170.363ZM189.735 31.3806C188.477 31.3806 187.36 31.1102 186.384 30.5693C185.42 30.0167 184.662 29.2642 184.109 28.3119C183.556 27.3477 183.28 26.2425 183.28 24.9962C183.28 23.7499 183.556 22.6506 184.109 21.6982C184.662 20.7341 185.42 19.9816 186.384 19.4408C187.36 18.8882 188.477 18.6119 189.735 18.6119C190.488 18.6119 191.181 18.7236 191.816 18.947C192.451 19.1704 193.01 19.4819 193.492 19.8817C193.985 20.2697 194.397 20.7165 194.726 21.2221L192.751 22.4566C192.551 22.1392 192.286 21.857 191.957 21.6101C191.64 21.3632 191.287 21.1692 190.899 21.0281C190.511 20.887 190.123 20.8164 189.735 20.8164C188.959 20.8164 188.271 20.9987 187.672 21.3632C187.072 21.7159 186.602 22.2038 186.261 22.827C185.92 23.4501 185.749 24.1732 185.749 24.9962C185.749 25.8075 185.914 26.5306 186.243 27.1655C186.584 27.8004 187.06 28.3001 187.672 28.6646C188.283 29.0173 188.988 29.1937 189.788 29.1937C190.411 29.1937 190.964 29.0702 191.446 28.8233C191.94 28.5764 192.328 28.2296 192.61 27.7828C192.892 27.336 193.033 26.8187 193.033 26.2308L195.326 25.8781C195.326 27.042 195.085 28.0356 194.603 28.8586C194.132 29.6816 193.474 30.3106 192.627 30.7457C191.793 31.1689 190.829 31.3806 189.735 31.3806ZM190.141 26.4424V24.5553H195.326V26.0544L194.021 26.4424H190.141Z" fill="#F57921"/>
<path d="M15.9295 88.563C7.96359 88.563 1.48291 82.0672 1.48291 74.0827C1.48291 66.0981 7.96359 59.6023 15.9295 59.6023C23.8958 59.6023 30.3765 66.0981 30.3765 74.0827C30.3765 82.0672 23.8958 88.563 15.9295 88.563Z" fill="#F57921"/>
<path d="M15.9324 58.2458C7.21908 58.2458 0.130615 65.3512 0.130615 74.0845C0.130615 82.8182 7.21908 89.9232 15.9324 89.9232C24.6457 89.9232 31.7341 82.8182 31.7341 74.0845C31.7341 65.3512 24.6457 58.2458 15.9324 58.2458ZM15.9324 60.9625C23.1625 60.9625 29.0238 66.8376 29.0238 74.0845C29.0238 81.3319 23.1625 87.2066 15.9324 87.2066C8.70196 87.2066 2.84092 81.3319 2.84092 74.0845C2.84092 66.8376 8.70196 60.9625 15.9324 60.9625Z" fill="white"/>
<path d="M15.8361 81.978C14.807 81.978 13.9249 81.7942 13.1898 81.4267C12.4547 81.0591 11.8519 80.5519 11.3814 79.905C10.9109 79.2581 10.5581 78.5083 10.3229 77.6556C10.1023 76.7882 9.99207 75.8546 9.99207 74.8549C9.99207 73.7375 10.1023 72.6496 10.3229 71.591C10.5581 70.5325 10.9256 69.5842 11.4255 68.7462C11.9401 67.9082 12.609 67.2466 13.4323 66.7614C14.2704 66.2615 15.2848 66.0116 16.4757 66.0116C17.3137 66.0116 18.1223 66.1292 18.9015 66.3644C19.6807 66.5997 20.3864 66.9378 21.0186 67.3789L19.2985 69.9811C18.8427 69.6724 18.3575 69.4519 17.843 69.3196C17.3284 69.1725 16.8726 69.099 16.4757 69.099C15.5053 69.099 14.7261 69.5474 14.138 70.4443C13.55 71.3264 13.2633 72.7451 13.278 74.7005L12.5723 74.2815C12.9104 73.517 13.4176 72.8995 14.0939 72.429C14.7702 71.9586 15.5715 71.7233 16.4977 71.7233C17.4828 71.7233 18.3502 71.9586 19.1 72.429C19.8498 72.8995 20.4379 73.5317 20.8642 74.3256C21.2906 75.1195 21.5038 76.009 21.5038 76.994C21.5038 77.9497 21.2685 78.8024 20.7981 79.5522C20.3423 80.302 19.6881 80.8974 18.8354 81.3385C17.9973 81.7648 16.9976 81.978 15.8361 81.978ZM15.8582 79.0009C16.2551 79.0009 16.6153 78.9053 16.9388 78.7142C17.2622 78.523 17.5122 78.2657 17.6886 77.9423C17.8797 77.6042 17.9753 77.2293 17.9753 76.8176C17.9753 76.3912 17.8797 76.009 17.6886 75.6708C17.5122 75.3327 17.2622 75.0681 16.9388 74.8769C16.6153 74.6711 16.2551 74.5682 15.8582 74.5682C15.4465 74.5682 15.0716 74.6711 14.7335 74.8769C14.41 75.0681 14.1527 75.3327 13.9616 75.6708C13.7705 76.009 13.6749 76.3912 13.6749 76.8176C13.6749 77.2293 13.7705 77.6042 13.9616 77.9423C14.1527 78.2657 14.41 78.523 14.7335 78.7142C15.0716 78.9053 15.4465 79.0009 15.8582 79.0009Z" fill="white"/>
</svg>
