<svg width="283" height="278" viewBox="0 0 283 278" fill="none" xmlns="http://www.w3.org/2000/svg">
<path d="M268.265 277.825H30.6365C22.6885 277.825 16.2456 271.389 16.2456 263.45V44.1592H282.656V263.45C282.656 271.389 276.213 277.825 268.265 277.825Z" fill="#84A83E"/>
<path d="M16.2005 92.1553C8.15959 92.1553 1.61816 85.6213 1.61816 77.5899C1.61816 69.5584 8.15959 63.0244 16.2005 63.0244C24.2414 63.0244 30.7829 69.5584 30.7829 77.5899C30.7829 85.6213 24.2414 92.1553 16.2005 92.1553Z" fill="#84A83E"/>
<path d="M16.1964 61.6567C7.40149 61.6567 0.246582 68.8039 0.246582 77.5885C0.246582 86.3734 7.40149 93.5202 16.1964 93.5202C24.9914 93.5202 32.1463 86.3734 32.1463 77.5885C32.1463 68.8039 24.9914 61.6567 16.1964 61.6567ZM16.1964 64.3893C23.4946 64.3893 29.4106 70.2989 29.4106 77.5885C29.4106 84.8784 23.4946 90.7876 16.1964 90.7876C8.8986 90.7876 2.98229 84.8784 2.98229 77.5885C2.98229 70.2989 8.8986 64.3893 16.1964 64.3893Z" fill="white"/>
<path d="M16.2005 150.041C8.15959 150.041 1.61816 143.507 1.61816 135.476C1.61816 127.444 8.15959 120.91 16.2005 120.91C24.2414 120.91 30.7829 127.444 30.7829 135.476C30.7829 143.507 24.2414 150.041 16.2005 150.041Z" fill="#84A83E"/>
<path d="M16.1964 119.543C7.40149 119.543 0.246582 126.69 0.246582 135.475C0.246582 144.26 7.40149 151.406 16.1964 151.406C24.9914 151.406 32.1463 144.26 32.1463 135.475C32.1463 126.69 24.9914 119.543 16.1964 119.543ZM16.1964 122.276C23.4946 122.276 29.4106 128.185 29.4106 135.475C29.4106 142.765 23.4946 148.674 16.1964 148.674C8.8986 148.674 2.98229 142.765 2.98229 135.475C2.98229 128.185 8.8986 122.276 16.1964 122.276Z" fill="white"/>
<path d="M16.2005 262.151C8.15959 262.151 1.61816 255.617 1.61816 247.585C1.61816 239.554 8.15959 233.019 16.2005 233.019C24.2414 233.019 30.7829 239.554 30.7829 247.585C30.7829 255.617 24.2414 262.151 16.2005 262.151Z" fill="#84A83E"/>
<path d="M16.1964 231.652C7.40149 231.652 0.246582 238.799 0.246582 247.584C0.246582 256.368 7.40149 263.516 16.1964 263.516C24.9914 263.516 32.1463 256.368 32.1463 247.584C32.1463 238.799 24.9914 231.652 16.1964 231.652ZM16.1964 234.385C23.4946 234.385 29.4106 240.294 29.4106 247.584C29.4106 254.873 23.4946 260.783 16.1964 260.783C8.8986 260.783 2.98229 254.873 2.98229 247.584C2.98229 240.294 8.8986 234.385 16.1964 234.385Z" fill="white"/>
<path d="M16.2005 206.264C8.15959 206.264 1.61816 199.73 1.61816 191.699C1.61816 183.668 8.15959 177.134 16.2005 177.134C24.2414 177.134 30.7829 183.668 30.7829 191.699C30.7829 199.73 24.2414 206.264 16.2005 206.264Z" fill="#84A83E"/>
<path d="M16.1964 175.77C7.40149 175.77 0.246582 182.917 0.246582 191.702C0.246582 200.487 7.40149 207.634 16.1964 207.634C24.9914 207.634 32.1463 200.487 32.1463 191.702C32.1463 182.917 24.9914 175.77 16.1964 175.77ZM16.1964 178.503C23.4946 178.503 29.4106 184.412 29.4106 191.702C29.4106 198.992 23.4946 204.901 16.1964 204.901C8.8986 204.901 2.98229 198.992 2.98229 191.702C2.98229 184.412 8.8986 178.503 16.1964 178.503Z" fill="white"/>
<path d="M282.967 47.7969H16.3774V14.756C16.3774 6.60674 22.9914 0 31.1503 0H268.194C276.353 0 282.967 6.60674 282.967 14.756V47.7969Z" fill="#EEEFEF"/>
<path d="M113.683 21.3365H122.836V23.2412H113.683V21.3365ZM110.403 24.511H126.205V26.5039H110.403V24.511ZM114.671 26.0983H116.964C116.628 29.3787 115.782 31.7067 111.126 32.9412C110.914 32.3768 110.368 31.495 109.891 31.0541C113.93 30.1547 114.406 28.5145 114.671 26.0983ZM119.221 25.7632H121.355V30.0665C121.355 30.6308 121.461 30.719 122.078 30.719C122.36 30.719 123.507 30.719 123.842 30.719C124.424 30.719 124.53 30.4192 124.6 28.5674C125.023 28.9025 125.94 29.2376 126.487 29.3787C126.276 31.9536 125.711 32.6237 124.036 32.6237C123.63 32.6237 122.184 32.6237 121.778 32.6237C119.715 32.6237 119.221 32.0065 119.221 30.1018V25.7632ZM117.122 16.3454H119.38V19.5376H117.122V16.3454ZM110.72 18.0385H125.87V22.236H123.595V20.0314H112.872V22.236H110.72V18.0385ZM130.314 22.959H134.388V24.899H130.314V22.959ZM133.577 22.959H135.64C135.64 22.959 135.623 23.4881 135.623 23.735C135.552 27.4739 135.464 29.0436 135.058 29.5903C134.706 30.0312 134.353 30.1899 133.841 30.2781C133.365 30.3487 132.607 30.3487 131.778 30.331C131.743 29.7138 131.513 28.8849 131.196 28.3558C131.831 28.4263 132.431 28.4263 132.713 28.4263C132.96 28.4263 133.118 28.391 133.259 28.2147C133.471 27.9325 133.542 26.6979 133.577 23.2765V22.959ZM138.885 17.4389L140.155 16.1514C141.125 16.6629 142.43 17.4742 143.065 18.0562L141.707 19.4847C141.125 18.8674 139.873 18.0032 138.885 17.4389ZM140.967 21.9714L143.101 22.4829C141.619 27.0859 139.027 30.6661 135.535 32.8177C135.217 32.3768 134.441 31.495 134 31.0718C137.386 29.2552 139.75 26.063 140.967 21.9714ZM130.438 18.9732H144.035V21.0543H130.438V18.9732ZM129.027 18.9732H131.249V24.1583C131.249 26.8038 130.949 30.719 129.344 33.0999C128.991 32.6767 128.039 31.9007 127.545 31.6538C128.903 29.5374 129.027 26.451 129.027 24.1407V18.9732ZM136.187 16.3454H138.409C138.286 23.541 139.908 30.6132 141.69 30.6132C142.095 30.6132 142.307 29.7138 142.413 27.4916C142.889 27.9854 143.647 28.4792 144.212 28.6909C143.877 31.9712 143.171 32.7648 141.513 32.7648C137.669 32.7648 136.24 24.3876 136.187 16.3454ZM149.238 31.5303C148.509 31.5303 147.862 31.3892 147.298 31.107C146.734 30.8248 146.293 30.4368 145.975 29.943C145.658 29.4492 145.499 28.879 145.499 28.2323C145.499 27.7855 145.581 27.374 145.746 26.9978C145.911 26.6215 146.14 26.2747 146.434 25.9572C146.728 25.628 147.057 25.34 147.421 25.093L149.749 23.4881C149.938 23.3588 150.137 23.2118 150.349 23.0472C150.572 22.8826 150.766 22.6886 150.931 22.4652C151.107 22.2301 151.196 21.9655 151.196 21.6716C151.196 21.3306 151.072 21.0661 150.825 20.878C150.578 20.6781 150.267 20.5781 149.891 20.5781C149.538 20.5781 149.238 20.6781 148.991 20.878C148.756 21.0778 148.638 21.3365 148.638 21.654C148.638 21.9597 148.732 22.2301 148.921 22.4652C149.109 22.6886 149.326 22.9532 149.573 23.2589L151.919 26.0807L156.24 31.301H153.524L150.243 27.3858L147.774 24.3876C147.457 23.9761 147.192 23.6175 146.981 23.3118C146.781 22.9943 146.634 22.7063 146.54 22.4476C146.446 22.1772 146.399 21.9067 146.399 21.6363C146.399 21.072 146.546 20.5723 146.839 20.1372C147.145 19.7022 147.551 19.3612 148.056 19.1143C148.574 18.8557 149.15 18.7263 149.785 18.7263C150.478 18.7263 151.096 18.8557 151.637 19.1143C152.177 19.3612 152.601 19.7081 152.906 20.1549C153.224 20.6017 153.383 21.1249 153.383 21.7245C153.383 22.2066 153.259 22.6534 153.012 23.0649C152.765 23.4646 152.401 23.8703 151.919 24.2818C151.448 24.6933 150.872 25.1342 150.19 25.6045L148.938 26.4687C148.75 26.598 148.574 26.745 148.409 26.9096C148.256 27.0742 148.133 27.2623 148.039 27.4739C147.945 27.6738 147.898 27.909 147.898 28.1794C147.898 28.5792 148.033 28.9084 148.303 29.167C148.585 29.4257 148.944 29.555 149.379 29.555C149.873 29.555 150.361 29.4786 150.843 29.3258C151.325 29.1729 151.76 28.9436 152.148 28.6379C152.548 28.3322 152.859 27.956 153.083 27.5092C153.306 27.0624 153.418 26.551 153.418 25.9749H155.587C155.587 27.0566 155.317 28.0207 154.776 28.8672C154.235 29.702 153.488 30.3545 152.536 30.8248C151.584 31.2951 150.484 31.5303 149.238 31.5303ZM160.269 30.6308H169.651V32.3063H160.269V30.6308ZM160.304 20.4194H171.027V21.7774H160.304V20.4194ZM160.304 22.5887H171.045V23.9643H160.304V22.5887ZM159.14 27.1565H171.203V32.9059H168.999V28.8319H161.239V32.9059H159.14V27.1565ZM165.295 16.3102L167.482 16.8216C166.988 17.8269 166.459 18.7969 166.036 19.4494L164.219 18.938C164.607 18.2149 165.066 17.1214 165.295 16.3102ZM160.48 16.2396L162.491 16.9098C161.398 19.2731 159.669 21.7421 157.994 23.2765C157.694 22.8356 156.971 21.9538 156.548 21.5481C158.1 20.2783 159.599 18.2678 160.48 16.2396ZM164.255 18.9203H166.318V25.6045H164.255V18.9203ZM160.286 18.1443H171.962V19.6258H159.546L160.286 18.1443ZM159.087 19.326H161.115V24.8638H172.632V26.4158H159.087V19.326ZM184.413 16.8392H188.081V18.2502H184.413V16.8392ZM182.826 20.6663H188.769V21.9538H182.826V20.6663ZM188.064 20.6663H188.399L188.699 20.6134L189.704 20.9661C188.646 23.6469 186.159 24.8461 183.055 25.4105C182.896 25.0225 182.543 24.4052 182.261 24.0701C184.977 23.7174 187.252 22.7474 188.064 20.8603V20.6663ZM184.836 21.8656C185.877 23.2236 188.117 24.0349 190.868 24.2994C190.497 24.6521 190.021 25.3576 189.792 25.8161C186.864 25.3576 184.625 24.1936 183.372 22.2889L184.836 21.8656ZM183.602 16.8392H185.224V18.0562C185.224 19.0967 184.907 20.2078 183.425 20.8956C183.178 20.5958 182.508 19.9961 182.155 19.7845C183.443 19.2554 183.602 18.6558 183.602 18.0032V16.8392ZM186.811 16.8392H188.54V18.6911C188.54 19.0614 188.557 19.0967 188.734 19.0967C188.804 19.0967 189.051 19.0967 189.122 19.0967C189.333 19.0967 189.386 18.9732 189.439 18.1972C189.739 18.4265 190.392 18.6558 190.833 18.744C190.691 20.0491 190.286 20.4371 189.351 20.4371C189.087 20.4371 188.663 20.4371 188.416 20.4371C187.164 20.4371 186.811 20.0314 186.811 18.7087V16.8392ZM174.748 17.2449H182.614V18.4971H174.748V17.2449ZM175.207 19.0614H182.103V20.296H175.207V19.0614ZM177.764 16.3278H179.598V19.6963H177.764V16.3278ZM181.521 26.1865H183.566V31.3892H181.521V26.1865ZM176.494 29.6785H178.505V32.9236H176.494V29.6785ZM186.776 29.6608H188.822V32.9059H186.776V29.6608ZM178.029 21.3189H179.369V23.5587H178.029V21.3189ZM176.194 20.8074H182.12V23.9114H176.194V22.8003H180.445V21.9185H176.194V20.8074ZM175.418 20.8074H177.023V22.2712C177.023 23.5763 176.741 25.2694 175.471 26.4158C175.242 26.0983 174.572 25.481 174.237 25.287C175.277 24.3523 175.418 23.1707 175.418 22.2183V20.8074ZM177.993 25.4281H188.505V26.9272H177.993V25.4281ZM177.27 30.8778H188.081V32.3768H177.27V30.8778ZM174.678 27.809H190.568V29.3434H174.678V27.809ZM178.187 24.1936L180.057 24.6874C179.439 25.9219 178.505 27.2623 177.517 28.0912C177.129 27.7561 176.477 27.2976 176.053 27.0507C176.953 26.3276 177.799 25.146 178.187 24.1936Z" fill="#84A83E"/>
<path d="M16.3735 105.342H282.784" stroke="white" stroke-width="0.708663" stroke-miterlimit="10"/>
<path d="M16.3735 162.836H282.784" stroke="white" stroke-width="0.708663" stroke-miterlimit="10"/>
<path d="M16.3735 220.378H282.784" stroke="white" stroke-width="0.708663" stroke-miterlimit="10"/>
<path d="M15.1138 85.6147V72.2857L15.4611 70.4188H18.4352V85.6147H15.1138ZM11.9878 75.6288V72.4594C12.3785 72.4883 12.7765 72.4015 13.1817 72.1989C13.6014 71.9963 14.0066 71.7285 14.3974 71.3957C14.8026 71.0483 15.1572 70.7082 15.4611 70.3754L17.6754 72.5245C17.1399 73.1324 16.5682 73.6895 15.9604 74.1961C15.3526 74.6881 14.723 75.0717 14.0718 75.3466C13.4205 75.6071 12.7258 75.7012 11.9878 75.6288Z" fill="white"/>
<path d="M10.3333 143.079V140.561C10.3333 140.17 10.478 139.722 10.7674 139.215C11.0569 138.694 11.4549 138.166 11.9614 137.631C12.4824 137.095 13.0685 136.603 13.7198 136.154L15.6301 134.852C15.9196 134.664 16.209 134.447 16.4985 134.201C16.7879 133.94 17.0267 133.665 17.2149 133.376C17.403 133.072 17.4971 132.768 17.4971 132.464C17.4971 132.145 17.4175 131.863 17.2583 131.617C17.1135 131.357 16.8892 131.161 16.5853 131.031C16.2959 130.886 15.9123 130.814 15.4348 130.814C15.0729 130.814 14.7473 130.894 14.4579 131.053C14.1829 131.198 13.9513 131.4 13.7632 131.661C13.5895 131.907 13.4593 132.182 13.3725 132.486L9.76884 131.878C9.91356 131.125 10.2247 130.423 10.7023 129.772C11.1944 129.121 11.8384 128.6 12.6344 128.209C13.4448 127.804 14.371 127.601 15.413 127.601C16.5998 127.601 17.6128 127.811 18.4522 128.231C19.2916 128.636 19.9357 129.2 20.3843 129.924C20.8474 130.648 21.079 131.487 21.079 132.442C21.079 133.455 20.7968 134.331 20.2323 135.069C19.6824 135.807 18.9515 136.487 18.0398 137.11L16.3682 138.26C16.0209 138.492 15.7025 138.752 15.413 139.042C15.1236 139.331 14.8703 139.657 14.6533 140.018H21.2526V143.079H10.3333Z" fill="white"/>
<path d="M16.8343 200.038C15.8791 200.038 15.0035 199.893 14.2075 199.604C13.426 199.314 12.7748 198.895 12.2538 198.345C11.7473 197.78 11.4144 197.093 11.2552 196.283L14.5549 195.479C14.6417 195.653 14.7503 195.863 14.8805 196.109C15.0252 196.355 15.2351 196.572 15.5101 196.76C15.785 196.934 16.1541 197.021 16.6172 197.021C17.225 197.021 17.7026 196.861 18.05 196.543C18.3973 196.21 18.571 195.776 18.571 195.241C18.571 194.922 18.4914 194.625 18.3322 194.35C18.1874 194.061 17.9125 193.837 17.5072 193.678C17.1165 193.504 16.5593 193.417 15.8357 193.417H14.7068V191.159H15.7054C16.5593 191.159 17.3625 191.268 18.1151 191.485C18.8821 191.688 19.5623 191.991 20.1557 192.397C20.749 192.802 21.2122 193.28 21.545 193.829C21.8924 194.379 22.066 195.002 22.066 195.696C22.066 196.623 21.82 197.411 21.3279 198.063C20.8359 198.714 20.1919 199.206 19.3959 199.539C18.5999 199.872 17.746 200.038 16.8343 200.038ZM14.7068 192.701V190.595H15.8357C16.7474 190.595 17.3915 190.443 17.7677 190.139C18.144 189.835 18.3322 189.423 18.3322 188.902C18.3322 188.598 18.2598 188.33 18.1151 188.098C17.9704 187.867 17.7677 187.686 17.5072 187.556C17.2467 187.411 16.9501 187.339 16.6172 187.339C16.3712 187.339 16.1179 187.382 15.8574 187.469C15.5969 187.556 15.3581 187.708 15.141 187.925C14.9239 188.142 14.7575 188.453 14.6417 188.858L11.3854 188.077C11.5446 187.252 11.892 186.564 12.4275 186.014C12.9774 185.45 13.6287 185.03 14.3812 184.755C15.1338 184.466 15.908 184.321 16.704 184.321C17.6592 184.321 18.5203 184.502 19.2873 184.864C20.0688 185.211 20.6839 185.703 21.1326 186.34C21.5957 186.962 21.8272 187.693 21.8272 188.533C21.8272 189.256 21.6463 189.879 21.2845 190.4C20.9372 190.921 20.4668 191.355 19.8735 191.702C19.2946 192.035 18.6433 192.288 17.9197 192.462C17.1961 192.621 16.458 192.701 15.7054 192.701H14.7068Z" fill="white"/>
<path d="M15.9775 255.71V253.04H8.87886V250.239L15.5217 240.514H19.2772V250.066H21.7086V253.04H19.2772V255.71H15.9775ZM12.3739 250.066H15.9775V244.791L12.3739 250.066Z" fill="white"/>
<path d="M109.161 246.099C108.138 246.099 107.251 245.899 106.498 245.499C105.746 245.099 105.164 244.541 104.752 243.824C104.352 243.095 104.152 242.236 104.152 241.249V233.506H106.569V241.249C106.569 241.778 106.674 242.242 106.886 242.642C107.109 243.03 107.415 243.33 107.803 243.541C108.203 243.753 108.667 243.859 109.196 243.859C109.726 243.859 110.184 243.753 110.572 243.541C110.972 243.33 111.278 243.03 111.489 242.642C111.713 242.242 111.824 241.778 111.824 241.249V233.506H114.24V241.249C114.24 242.236 114.029 243.095 113.606 243.824C113.194 244.541 112.606 245.099 111.842 245.499C111.089 245.899 110.196 246.099 109.161 246.099ZM116.747 245.852V233.506H121.332C122.202 233.506 122.972 233.683 123.642 234.035C124.313 234.376 124.836 234.859 125.212 235.482C125.588 236.093 125.776 236.804 125.776 237.616C125.776 238.415 125.594 239.126 125.23 239.75C124.865 240.373 124.365 240.867 123.731 241.231C123.096 241.584 122.361 241.76 121.526 241.76H119.163V245.852H116.747ZM119.163 239.538H121.473C122.014 239.538 122.455 239.362 122.796 239.009C123.149 238.644 123.325 238.18 123.325 237.616C123.325 237.051 123.131 236.593 122.743 236.24C122.367 235.887 121.879 235.711 121.279 235.711H119.163V239.538ZM129.983 245.852V235.711H126.28V233.506H136.085V235.711H132.399V245.852H129.983ZM143.316 246.063C142.07 246.063 140.965 245.793 140 245.252C139.048 244.7 138.301 243.947 137.761 242.995C137.22 242.031 136.949 240.931 136.949 239.697C136.949 238.439 137.22 237.333 137.761 236.381C138.301 235.417 139.042 234.665 139.983 234.124C140.935 233.583 142.029 233.312 143.263 233.312C144.509 233.312 145.603 233.589 146.544 234.141C147.496 234.682 148.242 235.435 148.783 236.399C149.324 237.351 149.595 238.45 149.595 239.697C149.595 240.931 149.324 242.031 148.783 242.995C148.254 243.947 147.514 244.7 146.561 245.252C145.621 245.793 144.539 246.063 143.316 246.063ZM143.316 243.859C144.069 243.859 144.727 243.683 145.291 243.33C145.867 242.965 146.314 242.472 146.632 241.848C146.961 241.225 147.126 240.508 147.126 239.697C147.126 238.874 146.961 238.151 146.632 237.527C146.303 236.904 145.85 236.416 145.274 236.064C144.698 235.699 144.027 235.517 143.263 235.517C142.522 235.517 141.858 235.699 141.27 236.064C140.694 236.416 140.241 236.904 139.912 237.527C139.583 238.151 139.418 238.874 139.418 239.697C139.418 240.508 139.583 241.225 139.912 241.848C140.241 242.472 140.7 242.965 141.288 243.33C141.876 243.683 142.552 243.859 143.316 243.859ZM161.104 245.852L164.649 233.506H167.1L163.414 245.852H161.104ZM153.661 245.852L150.01 233.506H152.462L155.972 245.852H153.661ZM153.979 245.852L157.347 233.506H159.534L156.183 245.852H153.979ZM160.874 245.852L157.559 233.506H159.746L163.185 245.852H160.874ZM168.588 245.852V233.506H171.11L177.141 241.795V233.506H179.54V245.852H177.141L171.004 237.404V245.852H168.588ZM185.99 245.852V244.071C185.99 243.73 186.096 243.353 186.307 242.942C186.519 242.53 186.813 242.119 187.189 241.707C187.565 241.296 188.006 240.914 188.512 240.561L190.381 239.221C190.64 239.044 190.881 238.844 191.104 238.621C191.339 238.398 191.528 238.156 191.669 237.898C191.822 237.627 191.898 237.369 191.898 237.122C191.898 236.816 191.822 236.54 191.669 236.293C191.528 236.046 191.316 235.852 191.034 235.711C190.752 235.57 190.405 235.499 189.993 235.499C189.64 235.499 189.323 235.57 189.041 235.711C188.77 235.852 188.547 236.04 188.371 236.275C188.194 236.51 188.071 236.763 188 237.034L185.514 236.61C185.631 236.023 185.884 235.476 186.272 234.97C186.66 234.465 187.166 234.059 187.789 233.753C188.424 233.436 189.141 233.277 189.94 233.277C190.857 233.277 191.645 233.442 192.304 233.771C192.962 234.1 193.468 234.553 193.82 235.129C194.185 235.693 194.367 236.352 194.367 237.104C194.367 237.868 194.155 238.55 193.732 239.15C193.321 239.738 192.75 240.29 192.021 240.808L190.346 242.025C190.005 242.26 189.711 242.519 189.464 242.801C189.217 243.083 189.029 243.394 188.9 243.735H194.526V245.852H185.99ZM69.7647 253.219H85.2671V255.124H69.7647V253.219ZM76.3255 251.879H78.5124V254.348H76.3255V251.879ZM70.3467 256.517H83.9091V258.333H72.3573V268.404H70.3467V256.517ZM82.8156 256.517H84.8614V266.146C84.8614 267.169 84.6498 267.769 83.962 268.086C83.2565 268.404 82.2689 268.457 80.8756 268.457C80.7874 267.892 80.47 266.958 80.1878 266.429C81.1049 266.481 82.1278 266.481 82.4276 266.464C82.7274 266.464 82.8156 266.376 82.8156 266.129V256.517ZM74.7911 258.104H76.6605C76.5195 260.221 75.9198 261.42 73.1156 262.055C72.9569 261.614 72.516 260.926 72.1457 260.591C74.3326 260.203 74.7029 259.515 74.7911 258.104ZM78.0538 258.104H79.888V259.445C79.888 259.833 79.9233 259.868 80.2407 259.868C80.3994 259.868 80.9814 259.868 81.1578 259.868C81.44 259.868 81.5105 259.744 81.5634 258.88C81.8985 259.127 82.6393 259.374 83.1154 259.48C82.9391 260.979 82.4805 261.385 81.3871 261.385C81.0696 261.385 80.2584 261.385 79.9585 261.385C78.3889 261.385 78.0538 260.926 78.0538 259.48V258.104ZM74.0856 262.055H75.9551V267.61H74.0856V262.055ZM75.2496 262.055H81.052V266.658H75.2496V265.106H79.1473V263.607H75.2496V262.055ZM72.9216 255.088L75.0204 254.736C75.3378 255.3 75.6729 256.058 75.814 256.57L73.6271 257.011C73.5213 256.499 73.2038 255.688 72.9216 255.088ZM79.8174 254.718L82.1631 255.071C81.7398 255.847 81.3694 256.482 81.052 256.958L78.9533 256.605C79.2531 256.058 79.6234 255.265 79.8174 254.718ZM91.7043 262.125L89.6056 262.866C89.2352 261.173 88.3005 258.351 87.4892 256.182L89.4116 255.617C90.2405 257.681 91.2634 260.45 91.7043 262.125ZM98.4767 265.476H103.044V267.575H87.2776V265.476H91.8278V252.143H93.997V265.476H96.3074V252.143H98.4767V261.861C99.3585 260.185 100.417 257.681 100.999 255.67L102.886 256.57C102.11 258.792 100.999 261.279 100.082 262.972L98.4767 262.161V265.476ZM113.961 257.875H120.628V259.744H113.961V257.875ZM110.187 265.935H118.476V267.804H110.187V265.935ZM112.956 256.217H115.108V262.76H112.956V256.217ZM109.076 261.667H119.605V268.421H117.436V263.536H111.14V268.439H109.076V261.667ZM112.233 251.879H114.438V255.088H112.233V251.879ZM106.942 253.942H120.875V255.953H106.942V253.942ZM105.902 253.942H108.018V258.404C108.018 261.261 107.753 265.635 106.148 268.404C105.76 268.051 104.826 267.434 104.314 267.222C105.796 264.683 105.902 260.961 105.902 258.404V253.942ZM126.589 264.947L128.458 263.924C128.529 264.471 128.705 265.229 128.829 265.635C125.619 267.54 125.055 267.981 124.719 268.351C124.578 267.839 124.137 266.958 123.785 266.534C124.19 266.287 124.702 265.741 124.702 264.982V262.372H122.55V260.503H124.702V258.774H123.573V257.205C123.362 257.452 123.15 257.681 122.921 257.893C122.78 257.469 122.321 256.429 122.021 255.988C123.062 255 123.979 253.519 124.508 251.967L126.219 252.478C126.077 252.831 125.936 253.219 125.778 253.589H128.547V255.459H124.808C124.49 255.988 124.173 256.464 123.82 256.905H128.3V258.774H126.589V260.503H128.688V262.372H126.589V264.947ZM136.183 259.885V258.686H134.525V259.885H136.183ZM134.525 262.848H136.183V261.579H134.525V262.848ZM131.139 262.848H132.815V261.579H131.139V262.848ZM132.815 258.686H131.139V259.885H132.815V258.686ZM138.405 255.829H134.631V256.923H138.035V266.376C138.035 267.169 137.947 267.663 137.453 267.981C136.994 268.298 136.395 268.333 135.601 268.333C135.531 267.822 135.319 267.028 135.09 266.534C135.478 266.552 135.848 266.552 135.989 266.552C136.148 266.552 136.183 266.499 136.183 266.34V264.559H134.525V268.245H132.815V264.559H131.139V268.351H129.375V256.923H132.726V255.829H129.023V254.065H132.726V251.914H134.631V254.065H136.395C135.989 253.66 135.442 253.184 135.001 252.796L136.254 251.843C136.836 252.302 137.665 252.99 138.088 253.413L137.277 254.065H138.405V255.829ZM147.916 267.081C147.187 267.081 146.541 266.94 145.976 266.658C145.412 266.376 144.971 265.988 144.653 265.494C144.336 265 144.177 264.43 144.177 263.783C144.177 263.336 144.26 262.925 144.424 262.549C144.589 262.172 144.818 261.825 145.112 261.508C145.406 261.179 145.735 260.891 146.1 260.644L148.428 259.039C148.616 258.91 148.816 258.763 149.027 258.598C149.251 258.433 149.445 258.239 149.609 258.016C149.786 257.781 149.874 257.516 149.874 257.222C149.874 256.881 149.75 256.617 149.503 256.429C149.257 256.229 148.945 256.129 148.569 256.129C148.216 256.129 147.916 256.229 147.669 256.429C147.434 256.629 147.317 256.887 147.317 257.205C147.317 257.51 147.411 257.781 147.599 258.016C147.787 258.239 148.004 258.504 148.251 258.81L150.597 261.631L154.918 266.852H152.202L148.921 262.937L146.452 259.938C146.135 259.527 145.87 259.168 145.659 258.863C145.459 258.545 145.312 258.257 145.218 257.998C145.124 257.728 145.077 257.458 145.077 257.187C145.077 256.623 145.224 256.123 145.518 255.688C145.823 255.253 146.229 254.912 146.735 254.665C147.252 254.406 147.828 254.277 148.463 254.277C149.157 254.277 149.774 254.406 150.315 254.665C150.856 254.912 151.279 255.259 151.585 255.706C151.902 256.152 152.061 256.676 152.061 257.275C152.061 257.757 151.937 258.204 151.69 258.616C151.443 259.015 151.079 259.421 150.597 259.833C150.127 260.244 149.551 260.685 148.869 261.155L147.616 262.019C147.428 262.149 147.252 262.296 147.087 262.46C146.934 262.625 146.811 262.813 146.717 263.025C146.623 263.225 146.576 263.46 146.576 263.73C146.576 264.13 146.711 264.459 146.981 264.718C147.264 264.976 147.622 265.106 148.057 265.106C148.551 265.106 149.039 265.029 149.521 264.877C150.003 264.724 150.438 264.494 150.826 264.189C151.226 263.883 151.538 263.507 151.761 263.06C151.984 262.613 152.096 262.102 152.096 261.526H154.265C154.265 262.607 153.995 263.571 153.454 264.418C152.913 265.253 152.167 265.905 151.214 266.376C150.262 266.846 149.163 267.081 147.916 267.081ZM176.271 263.219L174.19 264.065C173.908 262.725 173.22 260.591 172.567 258.88C172.338 264.083 172.056 266.182 171.439 266.975C170.945 267.663 170.433 267.875 169.675 267.998C169.005 268.104 167.894 268.086 166.835 268.051C166.8 267.416 166.483 266.446 166.112 265.811C167.171 265.899 168.141 265.899 168.599 265.899C168.952 265.899 169.146 265.847 169.375 265.6C169.851 265.071 170.098 262.672 170.292 257.046H167.523C167.365 260.82 166.377 265.494 161.421 268.527C161.033 267.998 160.222 267.152 159.675 266.799C164.102 264.189 165.054 260.256 165.231 257.046H160.539V254.93H165.266V251.967H167.559V254.93H172.691C172.691 254.93 172.691 255.706 172.673 255.988C172.638 256.87 172.62 257.681 172.585 258.404L174.331 257.804C175.072 259.515 175.918 261.825 176.271 263.219ZM161.897 257.998L163.837 258.81C163.202 260.379 162.338 262.372 161.421 263.73L159.446 262.637C160.398 261.402 161.333 259.603 161.897 257.998ZM183.749 258.316L186.288 258.933C185.124 261.702 183.555 264.806 182.25 266.834L180.292 266.217C181.562 264.083 182.99 260.838 183.749 258.316ZM178.246 265.564C181.579 265.459 186.747 265.212 191.368 264.982L191.315 267.046C186.782 267.363 181.879 267.628 178.528 267.804L178.246 265.564ZM187.17 262.213L189.234 261.261C190.786 263.166 192.443 265.67 193.29 267.363L191.103 268.527C190.362 266.834 188.652 264.153 187.17 262.213ZM181.879 252.284L184.295 252.954C183.167 255.741 181.315 258.475 179.516 260.168C179.057 259.727 178.034 258.951 177.452 258.598C179.287 257.152 180.962 254.736 181.879 252.284ZM188.987 252.302C190.027 254.383 192.038 256.852 193.66 258.333C193.078 258.774 192.267 259.621 191.861 260.185C190.204 258.404 188.175 255.617 186.87 253.166L188.987 252.302ZM198.828 260.626H202.038V259.409H198.828V260.626ZM198.828 256.623V257.822H202.038V256.623H198.828ZM207.54 257.822V256.623H204.207V257.822H207.54ZM207.54 260.626V259.409H204.207V260.626H207.54ZM211.12 263.501V265.459H204.207V268.333H202.038V265.459H195.23V263.501H202.038V262.355H196.782V254.912H199.621C199.269 254.242 198.687 253.431 198.175 252.796L199.974 252.002C200.662 252.743 201.456 253.819 201.808 254.542L201.05 254.912H204.824C205.388 254.048 206.006 252.937 206.341 252.055L208.669 252.725C208.193 253.501 207.663 254.242 207.187 254.912H209.709V262.355H204.207V263.501H211.12ZM222.196 252.108H224.33V256.252H222.196V252.108ZM218.034 255.071H228.774V257.064H218.034V255.071ZM219.251 258.21L221.155 257.875C221.755 260.115 222.302 262.972 222.407 264.7L220.326 265.141C220.256 263.413 219.815 260.485 219.251 258.21ZM225.212 257.769L227.504 258.139C226.922 260.997 226.058 264.277 225.335 266.358L223.43 265.952C224.136 263.783 224.877 260.344 225.212 257.769ZM217.663 265.688H229.127V267.698H217.663V265.688ZM216.446 251.914L218.439 252.566C217.24 255.547 215.282 258.686 213.289 260.661C213.113 260.15 212.531 258.986 212.178 258.457C213.854 256.905 215.494 254.418 216.446 251.914ZM214.753 256.799L216.746 254.789L216.764 254.806V268.386H214.753V256.799Z" fill="white"/>
<path d="M101.304 73.4575V61.1121H105.89C106.76 61.1121 107.53 61.2885 108.2 61.6412C108.87 61.9822 109.394 62.4642 109.77 63.0874C110.146 63.6988 110.334 64.4101 110.334 65.2214C110.334 66.0209 110.152 66.7322 109.788 67.3554C109.423 67.9785 108.923 68.4723 108.288 68.8368C107.654 69.1895 106.919 69.3659 106.084 69.3659H103.721V73.4575H101.304ZM103.721 67.1437H106.031C106.572 67.1437 107.013 66.9674 107.354 66.6146C107.706 66.2501 107.883 65.7857 107.883 65.2214C107.883 64.657 107.689 64.1985 107.301 63.8457C106.925 63.493 106.437 63.3166 105.837 63.3166H103.721V67.1437ZM111.931 73.4575V61.1121H116.516C117.387 61.1121 118.157 61.2826 118.827 61.6236C119.497 61.9645 120.02 62.4348 120.396 63.0345C120.773 63.6223 120.961 64.3102 120.961 65.0979C120.961 65.8739 120.761 66.5676 120.361 67.179C119.973 67.7786 119.438 68.2489 118.756 68.5899C118.074 68.9191 117.298 69.0837 116.428 69.0837H114.347V73.4575H111.931ZM118.721 73.4575L115.864 68.5017L117.716 67.179L121.455 73.4575H118.721ZM114.347 66.8792H116.534C116.899 66.8792 117.222 66.8028 117.504 66.6499C117.798 66.4971 118.027 66.2854 118.192 66.015C118.368 65.7446 118.456 65.4389 118.456 65.0979C118.456 64.5688 118.262 64.1397 117.874 63.8105C117.498 63.4812 117.01 63.3166 116.411 63.3166H114.347V66.8792ZM123.298 73.4575V61.1121H131.111V63.3166H125.714V66.1208H130.37V68.2724H125.714V71.253H131.182V73.4575H123.298ZM139.133 73.6692C137.934 73.6692 136.87 73.3987 135.941 72.8579C135.012 72.3053 134.283 71.5528 133.754 70.6004C133.225 69.6363 132.961 68.5311 132.961 67.2848C132.961 66.0385 133.225 64.9392 133.754 63.9868C134.283 63.0227 135.006 62.2702 135.923 61.7294C136.852 61.1768 137.916 60.9005 139.116 60.9005C139.962 60.9005 140.75 61.0533 141.479 61.359C142.208 61.6529 142.843 62.0703 143.384 62.6112C143.936 63.1403 144.359 63.7517 144.653 64.4454L142.414 65.2743C142.214 64.8392 141.949 64.463 141.62 64.1455C141.291 63.8163 140.915 63.5635 140.491 63.3872C140.068 63.1991 139.609 63.105 139.116 63.105C138.398 63.105 137.758 63.2872 137.193 63.6517C136.641 64.0045 136.206 64.4924 135.888 65.1155C135.582 65.7387 135.43 66.4618 135.43 67.2848C135.43 68.1078 135.588 68.8368 135.906 69.4717C136.223 70.0949 136.664 70.5887 137.229 70.9532C137.793 71.3059 138.44 71.4823 139.169 71.4823C139.674 71.4823 140.133 71.3882 140.544 71.2001C140.967 71.0002 141.338 70.7298 141.655 70.3888C141.984 70.0478 142.249 69.654 142.449 69.2072L144.689 70.0184C144.395 70.7356 143.971 71.3706 143.419 71.9232C142.878 72.4758 142.243 72.9049 141.514 73.2106C140.785 73.5163 139.992 73.6692 139.133 73.6692ZM146.463 73.4575V61.1121H148.879V73.4575H146.463ZM151.561 73.4575V61.1121H154.083L160.115 69.4012V61.1121H162.513V73.4575H160.115L153.977 65.0097V73.4575H151.561ZM170.651 73.6692C169.452 73.6692 168.388 73.3987 167.459 72.8579C166.53 72.3053 165.801 71.5528 165.272 70.6004C164.743 69.6363 164.479 68.5311 164.479 67.2848C164.479 66.0385 164.743 64.9392 165.272 63.9868C165.801 63.0227 166.524 62.2702 167.441 61.7294C168.37 61.1768 169.434 60.9005 170.634 60.9005C171.48 60.9005 172.268 61.0533 172.997 61.359C173.726 61.6529 174.361 62.0703 174.902 62.6112C175.454 63.1403 175.877 63.7517 176.171 64.4454L173.932 65.2743C173.732 64.8392 173.467 64.463 173.138 64.1455C172.809 63.8163 172.433 63.5635 172.009 63.3872C171.586 63.1991 171.127 63.105 170.634 63.105C169.916 63.105 169.276 63.2872 168.711 63.6517C168.159 64.0045 167.724 64.4924 167.406 65.1155C167.1 65.7387 166.948 66.4618 166.948 67.2848C166.948 68.1078 167.106 68.8368 167.424 69.4717C167.741 70.0949 168.182 70.5887 168.747 70.9532C169.311 71.3059 169.958 71.4823 170.687 71.4823C171.192 71.4823 171.651 71.3882 172.062 71.2001C172.485 71.0002 172.856 70.7298 173.173 70.3888C173.502 70.0478 173.767 69.654 173.967 69.2072L176.207 70.0184C175.913 70.7356 175.489 71.3706 174.937 71.9232C174.396 72.4758 173.761 72.9049 173.032 73.2106C172.303 73.5163 171.51 73.6692 170.651 73.6692ZM180.591 73.4575V63.3166H176.888V61.1121H186.693V63.3166H183.007V73.4575H180.591ZM194.582 73.4575V62.3996L194.811 61.1121H196.892V73.4575H194.582ZM191.971 65.0097V62.8228C192.265 62.8463 192.583 62.7758 192.924 62.6112C193.265 62.4348 193.6 62.2114 193.929 61.941C194.27 61.6588 194.564 61.3766 194.811 61.0945L196.345 62.5936C195.922 63.0639 195.475 63.493 195.005 63.881C194.535 64.2572 194.047 64.5512 193.541 64.7628C193.047 64.9745 192.524 65.0568 191.971 65.0097ZM115.077 80.8246H130.579V82.7294H115.077V80.8246ZM121.637 79.4843H123.824V81.9534H121.637V79.4843ZM115.659 84.1226H129.221V85.9392H117.669V96.0095H115.659V84.1226ZM128.127 84.1226H130.173V93.7521C130.173 94.775 129.962 95.3746 129.274 95.6921C128.568 96.0095 127.581 96.0624 126.188 96.0624C126.099 95.4981 125.782 94.5633 125.5 94.0342C126.417 94.0872 127.44 94.0872 127.74 94.0695C128.039 94.0695 128.127 93.9813 128.127 93.7344V84.1226ZM120.103 85.7099H121.972C121.831 87.8263 121.232 89.0255 118.428 89.6604C118.269 89.2195 117.828 88.5317 117.458 88.1966C119.644 87.8086 120.015 87.1208 120.103 85.7099ZM123.366 85.7099H125.2V87.0503C125.2 87.4383 125.235 87.4735 125.553 87.4735C125.711 87.4735 126.293 87.4735 126.47 87.4735C126.752 87.4735 126.822 87.3501 126.875 86.4859C127.21 86.7328 127.951 86.9797 128.427 87.0855C128.251 88.5846 127.792 88.9903 126.699 88.9903C126.382 88.9903 125.57 88.9903 125.27 88.9903C123.701 88.9903 123.366 88.5317 123.366 87.0855V85.7099ZM119.398 89.6604H121.267V95.2159H119.398V89.6604ZM120.562 89.6604H126.364V94.2635H120.562V92.7115H124.459V91.2124H120.562V89.6604ZM118.234 82.6941L120.332 82.3414C120.65 82.9057 120.985 83.6641 121.126 84.1755L118.939 84.6165C118.833 84.105 118.516 83.2937 118.234 82.6941ZM125.129 82.3237L127.475 82.6765C127.052 83.4525 126.681 84.0874 126.364 84.5635L124.265 84.2108C124.565 83.6641 124.935 82.8705 125.129 82.3237ZM137.016 89.731L134.917 90.4717C134.547 88.7786 133.612 85.9568 132.801 83.7876L134.723 83.2232C135.552 85.2866 136.575 88.0555 137.016 89.731ZM143.789 93.0819H148.356V95.1806H132.589V93.0819H137.14V79.7488H139.309V93.0819H141.619V79.7488H143.789V89.4664C144.67 87.791 145.729 85.2866 146.311 83.2761L148.198 84.1755C147.422 86.3977 146.311 88.8844 145.393 90.5775L143.789 89.7663V93.0819ZM159.273 85.4806H165.94V87.3501H159.273V85.4806ZM155.499 93.5404H163.788V95.4099H155.499V93.5404ZM158.268 83.8228H160.42V90.3659H158.268V83.8228ZM154.388 89.2724H164.917V96.0272H162.748V91.1419H156.451V96.0448H154.388V89.2724ZM157.545 79.4843H159.749V82.6941H157.545V79.4843ZM152.254 81.5477H166.187V83.5583H152.254V81.5477ZM151.213 81.5477H153.33V86.0097C153.33 88.8668 153.065 93.2406 151.46 96.0095C151.072 95.6568 150.138 95.0395 149.626 94.8279C151.108 92.2883 151.213 88.567 151.213 86.0097V81.5477ZM171.901 92.5528L173.77 91.5299C173.841 92.0766 174.017 92.835 174.141 93.2406C170.931 95.1453 170.366 95.5862 170.031 95.9566C169.89 95.4452 169.449 94.5633 169.097 94.1401C169.502 93.8932 170.014 93.3464 170.014 92.5881V89.9779H167.862V88.1084H170.014V86.3801H168.885V84.8105C168.673 85.0574 168.462 85.2866 168.232 85.4983C168.091 85.075 167.633 84.0345 167.333 83.5936C168.374 82.6059 169.291 81.1245 169.82 79.5725L171.53 80.0839C171.389 80.4367 171.248 80.8246 171.09 81.195H173.858V83.0645H170.12C169.802 83.5936 169.485 84.0697 169.132 84.5106H173.612V86.3801H171.901V88.1084H174V89.9779H171.901V92.5528ZM181.495 87.4912V86.2919H179.837V87.4912H181.495ZM179.837 90.4541H181.495V89.1843H179.837V90.4541ZM176.451 90.4541H178.126V89.1843H176.451V90.4541ZM178.126 86.2919H176.451V87.4912H178.126V86.2919ZM183.717 83.4348H179.943V84.5283H183.347V93.9813C183.347 94.775 183.259 95.2688 182.765 95.5862C182.306 95.9037 181.707 95.939 180.913 95.939C180.842 95.4275 180.631 94.6339 180.402 94.1401C180.79 94.1577 181.16 94.1577 181.301 94.1577C181.46 94.1577 181.495 94.1048 181.495 93.9461V92.1648H179.837V95.8508H178.126V92.1648H176.451V95.9566H174.687V84.5283H178.038V83.4348H174.335V81.6712H178.038V79.5196H179.943V81.6712H181.707C181.301 81.2656 180.754 80.7894 180.313 80.4014L181.566 79.449C182.148 79.9076 182.976 80.5954 183.4 81.0186L182.588 81.6712H183.717V83.4348Z" fill="white"/>
<path d="M99.418 131.689V119.343H104.003C104.874 119.343 105.644 119.52 106.314 119.872C106.984 120.213 107.507 120.695 107.883 121.319C108.26 121.93 108.448 122.641 108.448 123.453C108.448 124.252 108.266 124.963 107.901 125.587C107.537 126.21 107.037 126.704 106.402 127.068C105.767 127.421 105.032 127.597 104.197 127.597H101.834V131.689H99.418ZM101.834 125.375H104.145C104.685 125.375 105.126 125.199 105.467 124.846C105.82 124.481 105.996 124.017 105.996 123.453C105.996 122.888 105.802 122.43 105.414 122.077C105.038 121.724 104.55 121.548 103.951 121.548H101.834V125.375ZM110.045 131.689V119.343H114.63C115.5 119.343 116.27 119.514 116.94 119.855C117.611 120.196 118.134 120.666 118.51 121.266C118.886 121.854 119.074 122.541 119.074 123.329C119.074 124.105 118.874 124.799 118.475 125.41C118.087 126.01 117.552 126.48 116.87 126.821C116.188 127.15 115.412 127.315 114.542 127.315H112.461V131.689H110.045ZM116.835 131.689L113.977 126.733L115.829 125.41L119.568 131.689H116.835ZM112.461 125.11H114.648C115.012 125.11 115.335 125.034 115.618 124.881C115.912 124.728 116.141 124.517 116.305 124.246C116.482 123.976 116.57 123.67 116.57 123.329C116.57 122.8 116.376 122.371 115.988 122.042C115.612 121.712 115.124 121.548 114.524 121.548H112.461V125.11ZM121.412 131.689V119.343H129.225V121.548H123.828V124.352H128.484V126.504H123.828V129.484H129.295V131.689H121.412ZM137.247 131.9C136.048 131.9 134.983 131.63 134.055 131.089C133.126 130.536 132.397 129.784 131.868 128.832C131.339 127.868 131.074 126.762 131.074 125.516C131.074 124.27 131.339 123.17 131.868 122.218C132.397 121.254 133.12 120.501 134.037 119.961C134.966 119.408 136.03 119.132 137.229 119.132C138.076 119.132 138.863 119.285 139.592 119.59C140.321 119.884 140.956 120.302 141.497 120.842C142.05 121.371 142.473 121.983 142.767 122.677L140.527 123.505C140.327 123.07 140.063 122.694 139.734 122.377C139.404 122.048 139.028 121.795 138.605 121.618C138.182 121.43 137.723 121.336 137.229 121.336C136.512 121.336 135.871 121.518 135.307 121.883C134.754 122.236 134.319 122.724 134.002 123.347C133.696 123.97 133.543 124.693 133.543 125.516C133.543 126.339 133.702 127.068 134.019 127.703C134.337 128.326 134.778 128.82 135.342 129.184C135.906 129.537 136.553 129.713 137.282 129.713C137.788 129.713 138.246 129.619 138.658 129.431C139.081 129.231 139.451 128.961 139.769 128.62C140.098 128.279 140.363 127.885 140.562 127.438L142.802 128.25C142.508 128.967 142.085 129.602 141.532 130.154C140.992 130.707 140.357 131.136 139.628 131.442C138.899 131.748 138.105 131.9 137.247 131.9ZM144.577 131.689V119.343H146.993V131.689H144.577ZM149.675 131.689V119.343H152.197L158.228 127.632V119.343H160.627V131.689H158.228L152.091 123.241V131.689H149.675ZM168.765 131.9C167.566 131.9 166.501 131.63 165.573 131.089C164.644 130.536 163.915 129.784 163.386 128.832C162.857 127.868 162.592 126.762 162.592 125.516C162.592 124.27 162.857 123.17 163.386 122.218C163.915 121.254 164.638 120.501 165.555 119.961C166.484 119.408 167.548 119.132 168.747 119.132C169.594 119.132 170.381 119.285 171.11 119.59C171.839 119.884 172.474 120.302 173.015 120.842C173.568 121.371 173.991 121.983 174.285 122.677L172.045 123.505C171.845 123.07 171.581 122.694 171.252 122.377C170.922 122.048 170.546 121.795 170.123 121.618C169.7 121.43 169.241 121.336 168.747 121.336C168.03 121.336 167.389 121.518 166.825 121.883C166.272 122.236 165.837 122.724 165.52 123.347C165.214 123.97 165.061 124.693 165.061 125.516C165.061 126.339 165.22 127.068 165.537 127.703C165.855 128.326 166.296 128.82 166.86 129.184C167.424 129.537 168.071 129.713 168.8 129.713C169.306 129.713 169.764 129.619 170.176 129.431C170.599 129.231 170.969 128.961 171.287 128.62C171.616 128.279 171.881 127.885 172.08 127.438L174.32 128.25C174.026 128.967 173.603 129.602 173.05 130.154C172.51 130.707 171.875 131.136 171.146 131.442C170.417 131.748 169.623 131.9 168.765 131.9ZM178.705 131.689V121.548H175.001V119.343H184.807V121.548H181.121V131.689H178.705ZM190.155 131.689V129.907C190.155 129.566 190.261 129.19 190.473 128.779C190.685 128.367 190.978 127.956 191.355 127.544C191.731 127.133 192.172 126.751 192.677 126.398L194.547 125.057C194.806 124.881 195.047 124.681 195.27 124.458C195.505 124.234 195.693 123.993 195.834 123.735C195.987 123.464 196.064 123.206 196.064 122.959C196.064 122.653 195.987 122.377 195.834 122.13C195.693 121.883 195.482 121.689 195.199 121.548C194.917 121.407 194.57 121.336 194.159 121.336C193.806 121.336 193.489 121.407 193.207 121.548C192.936 121.689 192.713 121.877 192.536 122.112C192.36 122.347 192.237 122.6 192.166 122.871L189.679 122.447C189.797 121.859 190.05 121.313 190.438 120.807C190.826 120.302 191.331 119.896 191.954 119.59C192.589 119.273 193.306 119.114 194.106 119.114C195.023 119.114 195.811 119.279 196.469 119.608C197.128 119.937 197.633 120.39 197.986 120.966C198.35 121.53 198.533 122.189 198.533 122.941C198.533 123.705 198.321 124.387 197.898 124.987C197.486 125.575 196.916 126.127 196.187 126.645L194.512 127.862C194.171 128.097 193.877 128.355 193.63 128.638C193.383 128.92 193.195 129.231 193.065 129.572H198.691V131.689H190.155ZM114.577 139.056H130.079V140.961H114.577V139.056ZM121.137 137.715H123.324V140.185H121.137V137.715ZM115.159 142.354H128.721V144.17H117.169V154.241H115.159V142.354ZM127.627 142.354H129.673V151.983C129.673 153.006 129.462 153.606 128.774 153.923C128.068 154.241 127.081 154.294 125.688 154.294C125.599 153.729 125.282 152.795 125 152.265C125.917 152.318 126.94 152.318 127.24 152.301C127.539 152.301 127.627 152.213 127.627 151.966V142.354ZM119.603 143.941H121.472C121.331 146.057 120.732 147.257 117.928 147.892C117.769 147.451 117.328 146.763 116.958 146.428C119.144 146.04 119.515 145.352 119.603 143.941ZM122.866 143.941H124.7V145.281C124.7 145.669 124.735 145.705 125.053 145.705C125.211 145.705 125.793 145.705 125.97 145.705C126.252 145.705 126.322 145.581 126.375 144.717C126.71 144.964 127.451 145.211 127.927 145.317C127.751 146.816 127.292 147.221 126.199 147.221C125.882 147.221 125.07 147.221 124.77 147.221C123.201 147.221 122.866 146.763 122.866 145.317V143.941ZM118.898 147.892H120.767V153.447H118.898V147.892ZM120.062 147.892H125.864V152.495H120.062V150.943H123.959V149.444H120.062V147.892ZM117.734 140.925L119.832 140.573C120.15 141.137 120.485 141.895 120.626 142.407L118.439 142.848C118.333 142.336 118.016 141.525 117.734 140.925ZM124.629 140.555L126.975 140.908C126.552 141.684 126.181 142.319 125.864 142.795L123.765 142.442C124.065 141.895 124.435 141.102 124.629 140.555ZM136.516 147.962L134.417 148.703C134.047 147.01 133.112 144.188 132.301 142.019L134.223 141.454C135.052 143.518 136.075 146.287 136.516 147.962ZM143.289 151.313H147.856V153.412H132.089V151.313H136.64V137.98H138.809V151.313H141.119V137.98H143.289V147.698C144.17 146.022 145.229 143.518 145.811 141.507L147.698 142.407C146.922 144.629 145.811 147.116 144.893 148.809L143.289 147.997V151.313ZM158.773 143.712H165.44V145.581H158.773V143.712ZM154.999 151.772H163.288V153.641H154.999V151.772ZM157.768 142.054H159.92V148.597H157.768V142.054ZM153.888 147.504H164.417V154.258H162.248V149.373H155.951V154.276H153.888V147.504ZM157.045 137.715H159.249V140.925H157.045V137.715ZM151.754 139.779H165.687V141.789H151.754V139.779ZM150.713 139.779H152.83V144.241C152.83 147.098 152.565 151.472 150.96 154.241C150.572 153.888 149.638 153.271 149.126 153.059C150.608 150.519 150.713 146.798 150.713 144.241V139.779ZM171.401 150.784L173.27 149.761C173.341 150.308 173.517 151.066 173.641 151.472C170.431 153.377 169.866 153.817 169.531 154.188C169.39 153.676 168.949 152.795 168.597 152.371C169.002 152.124 169.514 151.578 169.514 150.819V148.209H167.362V146.34H169.514V144.611H168.385V143.042C168.173 143.289 167.962 143.518 167.732 143.729C167.591 143.306 167.133 142.266 166.833 141.825C167.874 140.837 168.791 139.356 169.32 137.804L171.03 138.315C170.889 138.668 170.748 139.056 170.59 139.426H173.358V141.296H169.62C169.302 141.825 168.985 142.301 168.632 142.742H173.112V144.611H171.401V146.34H173.5V148.209H171.401V150.784ZM180.995 145.722V144.523H179.337V145.722H180.995ZM179.337 148.685H180.995V147.415H179.337V148.685ZM175.951 148.685H177.626V147.415H175.951V148.685ZM177.626 144.523H175.951V145.722H177.626V144.523ZM183.217 141.666H179.443V142.759H182.847V152.213C182.847 153.006 182.759 153.5 182.265 153.817C181.806 154.135 181.207 154.17 180.413 154.17C180.342 153.659 180.131 152.865 179.902 152.371C180.29 152.389 180.66 152.389 180.801 152.389C180.96 152.389 180.995 152.336 180.995 152.177V150.396H179.337V154.082H177.626V150.396H175.951V154.188H174.187V142.759H177.538V141.666H173.835V139.902H177.538V137.751H179.443V139.902H181.207C180.801 139.497 180.254 139.021 179.813 138.633L181.066 137.68C181.648 138.139 182.476 138.827 182.9 139.25L182.088 139.902H183.217V141.666Z" fill="white"/>
<path d="M87.9984 187.832C86.7404 187.832 85.6234 187.562 84.6475 187.021C83.6834 186.468 82.925 185.716 82.3724 184.764C81.8198 183.799 81.5435 182.694 81.5435 181.448C81.5435 180.202 81.8198 179.102 82.3724 178.15C82.925 177.186 83.6834 176.433 84.6475 175.892C85.6234 175.34 86.7404 175.064 87.9984 175.064C88.7509 175.064 89.4446 175.175 90.0795 175.399C90.7144 175.622 91.2729 175.934 91.7549 176.333C92.2488 176.721 92.6603 177.168 92.9895 177.674L91.0142 178.908C90.8143 178.591 90.5498 178.309 90.2206 178.062C89.9031 177.815 89.5504 177.621 89.1624 177.48C88.7744 177.339 88.3864 177.268 87.9984 177.268C87.2224 177.268 86.5346 177.45 85.935 177.815C85.3353 178.168 84.865 178.655 84.5241 179.279C84.1831 179.902 84.0126 180.625 84.0126 181.448C84.0126 182.259 84.1772 182.982 84.5064 183.617C84.8474 184.252 85.3236 184.752 85.935 185.116C86.5464 185.469 87.2518 185.645 88.0513 185.645C88.6745 185.645 89.2271 185.522 89.7091 185.275C90.2029 185.028 90.5909 184.681 90.8731 184.234C91.1553 183.788 91.2964 183.27 91.2964 182.682L93.5891 182.33C93.5891 183.494 93.3481 184.487 92.866 185.31C92.3957 186.133 91.7373 186.762 90.8908 187.197C90.056 187.621 89.0919 187.832 87.9984 187.832ZM88.404 182.894V181.007H93.5891V182.506L92.284 182.894H88.404ZM103.496 187.621L98.7698 175.275H101.186L106.054 187.621H103.496ZM93.7434 187.621L98.6111 175.275H101.027L96.3007 187.621H93.7434ZM96.0362 184.905V182.771H103.779V184.905H96.0362ZM107.533 187.621V175.275H112.118C112.988 175.275 113.758 175.446 114.428 175.787C115.099 176.128 115.622 176.598 115.998 177.198C116.374 177.785 116.562 178.473 116.562 179.261C116.562 180.037 116.363 180.731 115.963 181.342C115.575 181.942 115.04 182.412 114.358 182.753C113.676 183.082 112.9 183.247 112.03 183.247H109.949V187.621H107.533ZM114.323 187.621L111.466 182.665L113.317 181.342L117.056 187.621H114.323ZM109.949 181.042H112.136C112.5 181.042 112.824 180.966 113.106 180.813C113.4 180.66 113.629 180.449 113.794 180.178C113.97 179.908 114.058 179.602 114.058 179.261C114.058 178.732 113.864 178.303 113.476 177.974C113.1 177.644 112.612 177.48 112.012 177.48H109.949V181.042ZM118.9 187.621V175.275H122.85C124.108 175.275 125.22 175.54 126.184 176.069C127.16 176.598 127.918 177.327 128.459 178.256C129.011 179.173 129.288 180.237 129.288 181.448C129.288 182.647 129.011 183.711 128.459 184.64C127.918 185.569 127.16 186.298 126.184 186.827C125.22 187.356 124.108 187.621 122.85 187.621H118.9ZM121.316 185.363H122.85C123.415 185.363 123.938 185.263 124.42 185.063C124.902 184.863 125.319 184.587 125.672 184.234C126.037 183.882 126.319 183.47 126.519 183C126.719 182.518 126.819 182.001 126.819 181.448C126.819 180.895 126.719 180.384 126.519 179.914C126.319 179.431 126.037 179.014 125.672 178.661C125.319 178.309 124.902 178.032 124.42 177.832C123.938 177.633 123.415 177.533 122.85 177.533H121.316V185.363ZM131.249 187.621V175.275H139.062V177.48H133.665V180.284H138.321V182.436H133.665V185.416H139.132V187.621H131.249ZM141.634 187.621V175.275H144.156L150.188 183.564V175.275H152.586V187.621H150.188L144.05 179.173V187.621H141.634ZM163.463 187.621L168.137 175.275H170.729L165.826 187.621H163.463ZM163.198 187.621L158.278 175.275H160.87L165.562 187.621H163.198ZM172.205 187.621V175.275H174.621V187.621H172.205ZM177.303 187.621V175.275H179.719V185.416H185.151V187.621H177.303ZM186.776 187.621V175.275H189.192V185.416H194.624V187.621H186.776ZM204.802 187.621L200.075 175.275H202.491L207.359 187.621H204.802ZM195.049 187.621L199.917 175.275H202.333L197.606 187.621H195.049ZM197.342 184.905V182.771H205.084V184.905H197.342ZM212.983 187.832C212.36 187.832 211.778 187.756 211.237 187.603C210.696 187.45 210.214 187.238 209.791 186.968C209.367 186.686 209.015 186.374 208.732 186.033C208.462 185.692 208.286 185.334 208.203 184.958L210.567 184.252C210.719 184.652 210.99 184.999 211.378 185.293C211.766 185.575 212.254 185.722 212.842 185.734C213.465 185.745 213.97 185.61 214.358 185.328C214.758 185.046 214.958 184.681 214.958 184.234C214.958 183.846 214.799 183.523 214.482 183.264C214.176 182.994 213.753 182.788 213.212 182.647L211.607 182.224C211.007 182.071 210.478 181.842 210.02 181.536C209.561 181.219 209.203 180.831 208.944 180.372C208.685 179.914 208.556 179.379 208.556 178.767C208.556 177.603 208.938 176.698 209.702 176.051C210.478 175.393 211.572 175.064 212.983 175.064C213.77 175.064 214.458 175.181 215.046 175.416C215.646 175.64 216.145 175.963 216.545 176.386C216.945 176.81 217.251 177.309 217.462 177.885L215.117 178.608C214.976 178.209 214.717 177.868 214.341 177.586C213.964 177.303 213.488 177.162 212.912 177.162C212.324 177.162 211.86 177.297 211.519 177.568C211.19 177.838 211.025 178.22 211.025 178.714C211.025 179.102 211.154 179.408 211.413 179.631C211.683 179.855 212.048 180.025 212.507 180.143L214.129 180.548C215.187 180.807 216.01 181.272 216.598 181.942C217.186 182.612 217.48 183.358 217.48 184.182C217.48 184.91 217.304 185.551 216.951 186.104C216.598 186.645 216.087 187.068 215.416 187.374C214.746 187.679 213.935 187.832 212.983 187.832ZM53.5737 195.34H67.0126V197.492H53.5737V195.34ZM54.7906 201.019H65.6017V203.153H54.7906V201.019ZM52.5684 206.98H67.9473V209.15H52.5684V206.98ZM82.85 196.205H73.2911V197.668H82.85V196.205ZM84.984 199.45H73.2911V199.608C73.2911 202.66 73.0442 207.192 71.4217 210.102C70.9984 209.767 70.0637 209.238 69.5346 209.062C71.0337 206.346 71.1571 202.395 71.1571 199.608V194.423H84.984V199.45ZM84.5607 202.36H74.5786V200.543H84.5607V202.36ZM85.7423 203.63V205.446H78.7231C78.194 206.31 77.5591 207.157 76.9418 207.915L81.9505 207.598C81.6684 207.104 81.3685 206.61 81.104 206.204L82.9558 205.446C83.7671 206.681 84.8782 208.409 85.3896 209.45L83.4143 210.349C83.2733 210.032 83.0793 209.661 82.8676 209.238C76.254 209.767 75.3016 209.838 74.6138 210.084C74.4727 209.714 74.1024 208.779 73.8731 208.25C74.1729 208.18 74.4904 207.915 74.8255 207.51C75.0724 207.227 75.6544 206.398 76.1482 205.446H73.6262V203.63H85.7423ZM89.0227 194.758L90.9627 194C91.7387 195.182 92.5852 196.769 92.885 197.845L90.804 198.691C90.5394 197.651 89.7634 195.993 89.0227 194.758ZM99.9748 193.912L102.25 194.635C101.562 196.064 100.733 197.563 100.081 198.568L98.1583 197.88C98.7932 196.84 99.5516 195.182 99.9748 193.912ZM88.6523 199.168H102.656V201.266H88.6523V199.168ZM87.5765 203.365H103.573V205.499H87.5765V203.365ZM94.3841 193.63H96.6239V210.19H94.3841V193.63ZM114.825 193.7H116.941V208.48H114.825V193.7ZM110.31 207.598C112.761 207.404 116.588 207.016 120.063 206.663L120.098 208.744C116.8 209.167 113.22 209.538 110.662 209.838L110.31 207.598ZM117.611 204.864L119.586 204.317C120.31 205.958 121.227 208.144 121.597 209.502L119.463 210.19C119.146 208.832 118.334 206.592 117.611 204.864ZM113.29 198.744V202.183H118.422V198.744H113.29ZM111.209 196.928H120.627V204H111.209V196.928ZM104.966 195.076L106.447 193.965C109.869 196.751 110.327 199.944 110.327 203.365C110.327 205.816 110.116 208.197 109.304 209.273C109.04 209.626 108.652 209.873 108.193 209.979C107.506 210.137 106.747 210.155 105.918 210.12C105.901 209.45 105.707 208.709 105.354 208.109C106.218 208.18 106.853 208.162 107.223 208.127C107.488 208.092 107.647 208.003 107.788 207.809C108.158 207.298 108.317 205.464 108.317 203.294C108.317 200.085 107.823 197.457 104.966 195.076ZM108.528 200.332L110.08 201.266C109.216 202.977 107.576 205.005 106.148 206.152C105.812 205.658 105.23 204.97 104.737 204.582C106.148 203.7 107.752 201.901 108.528 200.332ZM109.216 194.018L111.086 194.952C109.851 197.139 108.052 199.238 106.218 200.649C105.883 200.226 105.213 199.591 104.754 199.256C106.536 198.004 108.229 195.922 109.216 194.018ZM123.396 196.734H138.351V198.815H123.396V196.734ZM122.814 207.404H138.881V209.52H122.814V207.404ZM129.692 193.647H131.914V197.898H129.692V193.647ZM133.678 199.432L136.112 199.855C135.424 202.765 134.471 205.993 133.643 208.074L131.579 207.615C132.408 205.464 133.272 202.042 133.678 199.432ZM125.671 200.014L127.681 199.485C128.528 201.672 129.181 204.406 129.357 206.275L127.188 206.857C127.064 205.023 126.429 202.166 125.671 200.014ZM148.339 208.85C147.61 208.85 146.963 208.709 146.399 208.427C145.834 208.144 145.393 207.756 145.076 207.263C144.758 206.769 144.6 206.199 144.6 205.552C144.6 205.105 144.682 204.694 144.847 204.317C145.011 203.941 145.24 203.594 145.534 203.277C145.828 202.948 146.158 202.66 146.522 202.413L148.85 200.808C149.038 200.678 149.238 200.531 149.45 200.367C149.673 200.202 149.867 200.008 150.032 199.785C150.208 199.55 150.296 199.285 150.296 198.991C150.296 198.65 150.173 198.386 149.926 198.198C149.679 197.998 149.367 197.898 148.991 197.898C148.638 197.898 148.339 197.998 148.092 198.198C147.857 198.397 147.739 198.656 147.739 198.974C147.739 199.279 147.833 199.55 148.021 199.785C148.209 200.008 148.427 200.273 148.674 200.578L151.019 203.4L155.34 208.621H152.624L149.344 204.705L146.875 201.707C146.557 201.296 146.293 200.937 146.081 200.631C145.881 200.314 145.734 200.026 145.64 199.767C145.546 199.497 145.499 199.226 145.499 198.956C145.499 198.392 145.646 197.892 145.94 197.457C146.246 197.022 146.651 196.681 147.157 196.434C147.674 196.175 148.25 196.046 148.885 196.046C149.579 196.046 150.196 196.175 150.737 196.434C151.278 196.681 151.701 197.028 152.007 197.474C152.324 197.921 152.483 198.444 152.483 199.044C152.483 199.526 152.36 199.973 152.113 200.384C151.866 200.784 151.501 201.19 151.019 201.601C150.549 202.013 149.973 202.454 149.291 202.924L148.039 203.788C147.851 203.918 147.674 204.065 147.51 204.229C147.357 204.394 147.233 204.582 147.139 204.794C147.045 204.993 146.998 205.229 146.998 205.499C146.998 205.899 147.133 206.228 147.404 206.487C147.686 206.745 148.045 206.875 148.48 206.875C148.973 206.875 149.461 206.798 149.943 206.645C150.426 206.492 150.861 206.263 151.249 205.958C151.648 205.652 151.96 205.276 152.183 204.829C152.407 204.382 152.518 203.871 152.518 203.294H154.688C154.688 204.376 154.417 205.34 153.876 206.187C153.336 207.022 152.589 207.674 151.637 208.144C150.684 208.615 149.585 208.85 148.339 208.85ZM170.221 207.51V205.023H165.071V203.065H170.221V201.478H167.805C167.046 201.478 166.253 201.584 166.094 201.778C165.988 201.337 165.635 200.367 165.406 199.802C165.776 199.697 166.059 199.309 166.411 198.691C166.552 198.444 166.817 197.915 167.117 197.228H165.23V195.429H167.805C167.999 194.847 168.175 194.265 168.334 193.665L170.521 194.247C170.397 194.635 170.256 195.023 170.097 195.429H175.952V197.228H169.357C168.986 198.039 168.581 198.85 168.175 199.538H170.221V197.81H172.39V199.538H175.406L175.388 201.478H172.39V203.065H176.146V205.023H172.39V207.51H170.221ZM164.806 196.945L163.096 198.127C162.655 197.263 161.597 195.887 160.768 194.882L162.373 193.824C163.219 194.758 164.33 196.081 164.806 196.945ZM164.224 199.503V206.416C164.507 206.61 164.842 206.839 165.265 207.086C166.482 207.809 168.122 207.915 170.168 207.915C172.055 207.915 174.982 207.739 176.781 207.457C176.552 208.074 176.182 209.167 176.164 209.802C174.877 209.873 171.931 209.996 170.062 209.996C167.734 209.996 166.253 209.785 164.947 209.044C164.136 208.603 163.501 208.021 163.113 208.021C162.602 208.021 161.861 209.22 161.261 210.314L159.727 208.197C160.556 207.245 161.438 206.575 162.214 206.222V201.425H160.203V199.503H164.224ZM186.005 193.63H187.892V201.108C187.892 204.67 187.522 208.003 184.436 210.208C184.1 209.785 183.377 209.132 182.919 208.815C185.67 206.91 186.005 204.159 186.005 201.108V193.63ZM189.127 193.63H191.137V210.19H189.127V193.63ZM183.413 196.54H186.834V198.444H183.413V196.54ZM190.185 196.54H193.906V198.444H190.185V196.54ZM190.326 200.243H193.712V202.113H190.326V200.243ZM190.15 204.053H194.188V205.958H190.15V204.053ZM183.554 200.243H186.905V202.113H183.554V200.243ZM182.46 204.811C183.466 204.547 184.859 204.106 186.287 203.647L186.605 205.305C185.476 205.781 184.294 206.24 183.254 206.628L182.46 204.811ZM177.469 202.518C178.88 202.201 180.979 201.637 182.972 201.072L183.254 202.977C181.437 203.541 179.497 204.106 177.945 204.547L177.469 202.518ZM177.751 196.998H183.148V198.938H177.751V196.998ZM179.621 193.665H181.561V207.968C181.561 208.956 181.384 209.502 180.838 209.82C180.309 210.155 179.55 210.226 178.404 210.226C178.351 209.696 178.104 208.832 177.857 208.25C178.492 208.286 179.109 208.286 179.321 208.268C179.533 208.268 179.621 208.215 179.621 207.968V193.665ZM207.327 194.811L208.738 193.647C209.532 194.194 210.573 195.023 211.066 195.605L209.585 196.875C209.126 196.275 208.139 195.393 207.327 194.811ZM195.652 196.646H211.525V198.709H195.652V196.646ZM196.305 200.737H203.941V202.783H196.305V200.737ZM198.986 201.901H201.102V207.88H198.986V201.901ZM195.635 207.58C197.769 207.263 201.225 206.663 204.4 206.063L204.559 207.95C201.649 208.585 198.527 209.238 196.234 209.714L195.635 207.58ZM204.312 193.718H206.587C206.428 200.966 207.768 208.003 209.444 208.003C209.832 208.003 210.026 207.033 210.132 204.811C210.608 205.305 211.384 205.816 211.983 206.028C211.666 209.397 210.943 210.226 209.267 210.226C205.44 210.226 204.329 201.884 204.312 193.718ZM218.491 197.051H229.285V199.062H218.491V197.051ZM219.073 202.13H228.791V204.141H219.073V202.13ZM218.103 207.633H229.549V209.644H218.103V207.633ZM222.812 197.668H224.964V208.92H222.812V197.668ZM220.59 195.111L221.983 193.612C223.288 194.3 225.105 195.393 226.004 196.187L224.488 197.88C223.694 197.069 221.913 195.887 220.59 195.111ZM216.869 193.683L218.844 194.318C217.645 197.316 215.705 200.473 213.694 202.466C213.518 201.972 212.953 200.808 212.601 200.296C214.276 198.709 215.916 196.205 216.869 193.683ZM215.176 198.568L217.169 196.557L217.186 196.575V210.155H215.176V198.568ZM242.124 197.704L243.782 199.432C240.872 200.578 236.868 201.249 233.288 201.601C233.218 201.072 232.918 200.243 232.653 199.767C236.11 199.362 239.849 198.656 242.124 197.704ZM230.872 203.524L246.462 201.972L246.727 203.929L231.137 205.57L230.872 203.524ZM237.009 200.42H239.32V207.104C239.32 207.898 239.478 208.021 240.537 208.021C241.03 208.021 242.988 208.021 243.552 208.021C244.505 208.021 244.664 207.633 244.805 205.552C245.298 205.94 246.268 206.293 246.921 206.434C246.621 209.291 245.969 210.102 243.729 210.102C243.147 210.102 240.836 210.102 240.307 210.102C237.715 210.102 237.009 209.414 237.009 207.122V200.42ZM237.662 193.665H239.919V196.875H237.662V193.665ZM231.26 195.199H246.427V199.379H244.152V197.192H233.412V199.379H231.26V195.199Z" fill="white"/>
</svg>
