<svg width="284" height="222" viewBox="0 0 284 222" fill="none" xmlns="http://www.w3.org/2000/svg">
<path d="M271.27 221.813H29.4677C22.5548 221.813 16.9507 216.208 16.9507 209.293V45.0696H283.787V209.293C283.787 216.208 278.183 221.813 271.27 221.813Z" fill="#736D9B"/>
<path d="M116.945 82.8381V80.3514H111.795V78.3938H116.945V76.8065H114.529C113.771 76.8065 112.977 76.9123 112.818 77.1063C112.712 76.6654 112.36 75.6954 112.13 75.1311C112.501 75.0252 112.783 74.6372 113.136 74.02C113.277 73.7731 113.541 73.244 113.841 72.5562H111.954V70.7573H114.529C114.723 70.1753 114.899 69.5933 115.058 68.9936L117.245 69.5756C117.122 69.9636 116.98 70.3516 116.822 70.7573H122.677V72.5562H116.081C115.711 73.3674 115.305 74.1787 114.899 74.8665H116.945V73.1382H119.114V74.8665H122.13L122.113 76.8065H119.114V78.3938H122.871V80.3514H119.114V82.8381H116.945ZM111.531 72.274L109.82 73.4556C109.379 72.5914 108.321 71.2158 107.492 70.2105L109.097 69.1524C109.944 70.0871 111.055 71.4098 111.531 72.274ZM110.949 74.8312V81.7447C111.231 81.9387 111.566 82.168 111.989 82.4149C113.206 83.1379 114.846 83.2438 116.892 83.2438C118.779 83.2438 121.707 83.0674 123.506 82.7852C123.277 83.4025 122.906 84.4959 122.889 85.1309C121.601 85.2014 118.656 85.3249 116.786 85.3249C114.458 85.3249 112.977 85.1132 111.672 84.3725C110.861 83.9316 110.226 83.3496 109.838 83.3496C109.326 83.3496 108.586 84.5489 107.986 85.6423L106.452 83.5259C107.28 82.5736 108.162 81.9034 108.938 81.5507V76.7536H106.928V74.8312H110.949ZM132.73 68.9584H134.617V76.4361C134.617 79.9987 134.246 83.3319 131.16 85.5365C130.825 85.1132 130.102 84.4607 129.643 84.1432C132.395 82.2385 132.73 79.4872 132.73 76.4361V68.9584ZM135.851 68.9584H137.862V85.5189H135.851V68.9584ZM130.137 71.8683H133.559V73.7731H130.137V71.8683ZM136.909 71.8683H140.631V73.7731H136.909V71.8683ZM137.051 75.572H140.437V77.4414H137.051V75.572ZM136.874 79.3814H140.913V81.2861H136.874V79.3814ZM130.278 75.572H133.629V77.4414H130.278V75.572ZM129.185 80.1398C130.19 79.8752 131.583 79.4343 133.012 78.9758L133.329 80.6336C132.201 81.1098 131.019 81.5683 129.978 81.9563L129.185 80.1398ZM124.194 77.8471C125.605 77.5296 127.703 76.9652 129.696 76.4009L129.978 78.3056C128.162 78.87 126.222 79.4343 124.67 79.8752L124.194 77.8471ZM124.476 72.3269H129.873V74.2669H124.476V72.3269ZM126.345 68.9936H128.285V83.2967C128.285 84.2843 128.109 84.831 127.562 85.1485C127.033 85.4836 126.275 85.5541 125.128 85.5541C125.075 85.025 124.829 84.1609 124.582 83.5789C125.217 83.6141 125.834 83.6141 126.045 83.5965C126.257 83.5965 126.345 83.5436 126.345 83.2967V68.9936ZM154.052 70.14L155.463 68.976C156.256 69.5227 157.297 70.3516 157.791 70.9336L156.309 72.2034C155.851 71.6038 154.863 70.722 154.052 70.14ZM142.377 71.9742H158.249V74.0376H142.377V71.9742ZM143.029 76.0658H150.666V78.1116H143.029V76.0658ZM145.71 77.2298H147.826V83.2085H145.71V77.2298ZM142.359 82.9087C144.493 82.5912 147.95 81.9916 151.124 81.392L151.283 83.279C148.373 83.9139 145.251 84.5665 142.959 85.0427L142.359 82.9087ZM151.036 69.0465H153.311C153.152 76.2951 154.493 83.3319 156.168 83.3319C156.556 83.3319 156.75 82.362 156.856 80.1398C157.332 80.6336 158.108 81.145 158.708 81.3567C158.39 84.7252 157.667 85.5541 155.992 85.5541C152.165 85.5541 151.054 77.2121 151.036 69.0465ZM165.216 72.3798H176.009V74.3903H165.216V72.3798ZM165.798 77.4591H175.515V79.4696H165.798V77.4591ZM164.828 82.9616H176.274V84.9721H164.828V82.9616ZM169.537 72.9971H171.688V84.249H169.537V72.9971ZM167.314 70.4398L168.708 68.9407C170.013 69.6285 171.829 70.722 172.729 71.5156L171.212 73.2087C170.418 72.3974 168.637 71.2158 167.314 70.4398ZM163.593 69.0113L165.568 69.6462C164.369 72.6443 162.429 75.8012 160.419 77.7941C160.242 77.3003 159.678 76.1363 159.325 75.6249C161.001 74.0376 162.641 71.5333 163.593 69.0113ZM161.9 73.8965L163.893 71.886L163.911 71.9036V85.4836H161.9V73.8965ZM188.848 73.0323L190.506 74.7607C187.596 75.9071 183.593 76.5772 180.013 76.93C179.942 76.4009 179.642 75.572 179.378 75.0958C182.834 74.6902 186.573 73.9847 188.848 73.0323ZM177.596 78.8523L193.187 77.3003L193.451 79.258L177.861 80.8981L177.596 78.8523ZM183.734 75.7483H186.044V82.4325C186.044 83.2261 186.203 83.3496 187.261 83.3496C187.755 83.3496 189.713 83.3496 190.277 83.3496C191.229 83.3496 191.388 82.9616 191.529 80.8805C192.023 81.2685 192.993 81.6212 193.645 81.7623C193.346 84.6194 192.693 85.4307 190.453 85.4307C189.871 85.4307 187.561 85.4307 187.032 85.4307C184.439 85.4307 183.734 84.7429 183.734 82.4501V75.7483ZM184.386 68.9936H186.644V72.2034H184.386V68.9936ZM177.984 70.528H193.152V74.7078H190.877V72.5209H180.136V74.7078H177.984V70.528Z" fill="white"/>
<path d="M73.5435 182.42H86.6296V183.919H73.5435V182.42ZM74.7957 186.423H78.464V187.57H74.7957V186.423ZM76.8768 191.573H83.3846V192.949H76.8768V191.573ZM73.9139 193.636H84.7073V195.047H73.9139V193.636ZM74.4077 188.205H78.4817V189.404H74.4077V188.205ZM81.6562 188.205H85.7831V189.404H81.6562V188.205ZM81.6562 186.423H85.3598V187.57H81.6562V186.423ZM79.0284 183.055H81.0918V188.504H79.0284V183.055ZM77.9878 194.166H80.0337V198.398H77.9878V194.166ZM72.3442 184.519H87.9171V187.799H85.9595V185.841H74.2137V187.799H72.3442V184.519ZM80.0513 190.215C78.5346 191.661 75.5188 193.055 72.6793 193.76C72.5029 193.284 72.0973 192.543 71.7622 192.137C74.7075 191.52 77.5117 190.197 79.0107 188.716H80.9155C82.9084 190.48 85.7831 191.52 88.5167 191.943C88.1111 192.437 87.7231 193.16 87.4762 193.654C84.9895 193.107 81.7267 191.749 80.0513 190.215ZM83.7196 193.636H85.7655V195.77C85.7655 196.635 85.6067 197.076 84.9542 197.34C84.3193 197.605 83.508 197.605 82.4146 197.605C82.2911 197.093 81.9736 196.423 81.7091 195.982C82.4146 196.017 83.2082 196 83.4198 196C83.6491 196 83.7196 195.947 83.7196 195.753V193.636ZM93.0316 196.141H102.414V197.816H93.0316V196.141ZM93.0669 185.929H103.79V187.287H93.0669V185.929ZM93.0669 188.099H103.807V189.474H93.0669V188.099ZM91.9029 192.667H103.966V198.416H101.762V194.342H94.0016V198.416H91.9029V192.667ZM98.058 181.82L100.245 182.332C99.7511 183.337 99.222 184.307 98.7987 184.959L96.9822 184.448C97.3702 183.725 97.8287 182.631 98.058 181.82ZM93.2433 181.75L95.2538 182.42C94.1603 184.783 92.432 187.252 90.7565 188.787C90.4567 188.346 89.7336 187.464 89.3104 187.058C90.8624 185.788 92.3614 183.778 93.2433 181.75ZM97.0174 184.43H99.0809V191.115H97.0174V184.43ZM93.0493 183.654H104.724V185.136H92.3085L93.0493 183.654ZM91.85 184.836H93.8782V190.374H105.395V191.926H91.85V184.836ZM107.652 183.178H123.154V185.083H107.652V183.178ZM114.213 181.838H116.4V184.307H114.213V181.838ZM108.234 186.476H121.796V188.293H110.245V198.363H108.234V186.476ZM120.703 186.476H122.749V196.106C122.749 197.128 122.537 197.728 121.849 198.046C121.144 198.363 120.156 198.416 118.763 198.416C118.675 197.852 118.357 196.917 118.075 196.388C118.992 196.441 120.015 196.441 120.315 196.423C120.615 196.423 120.703 196.335 120.703 196.088V186.476ZM112.678 188.063H114.548C114.407 190.18 113.807 191.379 111.003 192.014C110.844 191.573 110.403 190.885 110.033 190.55C112.22 190.162 112.59 189.474 112.678 188.063ZM115.941 188.063H117.775V189.404C117.775 189.792 117.811 189.827 118.128 189.827C118.287 189.827 118.869 189.827 119.045 189.827C119.327 189.827 119.398 189.704 119.451 188.839C119.786 189.086 120.527 189.333 121.003 189.439C120.826 190.938 120.368 191.344 119.274 191.344C118.957 191.344 118.146 191.344 117.846 191.344C116.276 191.344 115.941 190.885 115.941 189.439V188.063ZM111.973 192.014H113.842V197.569H111.973V192.014ZM113.137 192.014H118.939V196.617H113.137V195.065H117.035V193.566H113.137V192.014ZM110.809 185.048L112.908 184.695C113.225 185.259 113.56 186.018 113.701 186.529L111.514 186.97C111.409 186.459 111.091 185.647 110.809 185.048ZM117.705 184.677L120.05 185.03C119.627 185.806 119.257 186.441 118.939 186.917L116.841 186.564C117.14 186.018 117.511 185.224 117.705 184.677ZM134.212 187.834H140.879V189.704H134.212V187.834ZM130.438 195.894H138.727V197.763H130.438V195.894ZM133.207 186.176H135.359V192.719H133.207V186.176ZM129.327 191.626H139.856V198.381H137.687V193.495H131.391V198.398H129.327V191.626ZM132.484 181.838H134.689V185.048H132.484V181.838ZM127.193 183.901H141.126V185.912H127.193V183.901ZM126.153 183.901H128.269V188.363C128.269 191.22 128.004 195.594 126.4 198.363C126.012 198.01 125.077 197.393 124.565 197.181C126.047 194.642 126.153 190.921 126.153 188.363V183.901ZM150.531 197.04C149.802 197.04 149.155 196.899 148.591 196.617C148.027 196.335 147.586 195.947 147.268 195.453C146.951 194.959 146.792 194.389 146.792 193.742C146.792 193.296 146.874 192.884 147.039 192.508C147.204 192.132 147.433 191.785 147.727 191.467C148.021 191.138 148.35 190.85 148.714 190.603L151.042 188.998C151.231 188.869 151.43 188.722 151.642 188.557C151.865 188.393 152.059 188.199 152.224 187.975C152.4 187.74 152.489 187.476 152.489 187.182C152.489 186.841 152.365 186.576 152.118 186.388C151.871 186.188 151.56 186.088 151.183 186.088C150.831 186.088 150.531 186.188 150.284 186.388C150.049 186.588 149.931 186.847 149.931 187.164C149.931 187.47 150.025 187.74 150.214 187.975C150.402 188.199 150.619 188.463 150.866 188.769L153.212 191.591L157.533 196.811H154.817L151.536 192.896L149.067 189.898C148.75 189.486 148.485 189.127 148.274 188.822C148.074 188.504 147.927 188.216 147.833 187.958C147.739 187.687 147.692 187.417 147.692 187.146C147.692 186.582 147.838 186.082 148.132 185.647C148.438 185.212 148.844 184.871 149.349 184.624C149.867 184.366 150.443 184.236 151.078 184.236C151.771 184.236 152.389 184.366 152.929 184.624C153.47 184.871 153.894 185.218 154.199 185.665C154.517 186.112 154.675 186.635 154.675 187.235C154.675 187.717 154.552 188.163 154.305 188.575C154.058 188.975 153.694 189.38 153.212 189.792C152.741 190.203 152.165 190.644 151.483 191.115L150.231 191.979C150.043 192.108 149.867 192.255 149.702 192.42C149.549 192.584 149.426 192.772 149.332 192.984C149.238 193.184 149.191 193.419 149.191 193.689C149.191 194.089 149.326 194.418 149.596 194.677C149.878 194.936 150.237 195.065 150.672 195.065C151.166 195.065 151.654 194.989 152.136 194.836C152.618 194.683 153.053 194.454 153.441 194.148C153.841 193.842 154.152 193.466 154.376 193.019C154.599 192.572 154.711 192.061 154.711 191.485H156.88C156.88 192.567 156.61 193.531 156.069 194.377C155.528 195.212 154.781 195.865 153.829 196.335C152.877 196.805 151.777 197.04 150.531 197.04ZM162.748 183.178H178.251V185.083H162.748V183.178ZM169.309 181.838H171.496V184.307H169.309V181.838ZM163.33 186.476H176.893V188.293H165.341V198.363H163.33V186.476ZM175.799 186.476H177.845V196.106C177.845 197.128 177.633 197.728 176.946 198.046C176.24 198.363 175.253 198.416 173.859 198.416C173.771 197.852 173.454 196.917 173.171 196.388C174.089 196.441 175.111 196.441 175.411 196.423C175.711 196.423 175.799 196.335 175.799 196.088V186.476ZM167.775 188.063H169.644C169.503 190.18 168.903 191.379 166.099 192.014C165.941 191.573 165.5 190.885 165.129 190.55C167.316 190.162 167.687 189.474 167.775 188.063ZM171.037 188.063H172.872V189.404C172.872 189.792 172.907 189.827 173.224 189.827C173.383 189.827 173.965 189.827 174.141 189.827C174.424 189.827 174.494 189.704 174.547 188.839C174.882 189.086 175.623 189.333 176.099 189.439C175.923 190.938 175.464 191.344 174.371 191.344C174.053 191.344 173.242 191.344 172.942 191.344C171.373 191.344 171.037 190.885 171.037 189.439V188.063ZM167.069 192.014H168.939V197.569H167.069V192.014ZM168.233 192.014H174.036V196.617H168.233V195.065H172.131V193.566H168.233V192.014ZM165.905 185.048L168.004 184.695C168.321 185.259 168.657 186.018 168.798 186.529L166.611 186.97C166.505 186.459 166.187 185.647 165.905 185.048ZM172.801 184.677L175.147 185.03C174.723 185.806 174.353 186.441 174.036 186.917L171.937 186.564C172.237 186.018 172.607 185.224 172.801 184.677ZM184.688 192.085L182.589 192.825C182.219 191.132 181.284 188.31 180.473 186.141L182.395 185.577C183.224 187.64 184.247 190.409 184.688 192.085ZM191.46 195.435H196.028V197.534H180.261V195.435H184.811V182.102H186.981V195.435H189.291V182.102H191.46V191.82C192.342 190.145 193.4 187.64 193.982 185.63L195.869 186.529C195.093 188.751 193.982 191.238 193.065 192.931L191.46 192.12V195.435ZM206.945 187.834H213.611V189.704H206.945V187.834ZM203.171 195.894H211.46V197.763H203.171V195.894ZM205.94 186.176H208.091V192.719H205.94V186.176ZM202.06 191.626H212.589V198.381H210.419V193.495H204.123V198.398H202.06V191.626ZM205.217 181.838H207.421V185.048H205.217V181.838ZM199.926 183.901H213.858V185.912H199.926V183.901ZM198.885 183.901H201.002V188.363C201.002 191.22 200.737 195.594 199.132 198.363C198.744 198.01 197.809 197.393 197.298 197.181C198.779 194.642 198.885 190.921 198.885 188.363V183.901ZM219.573 194.906L221.442 193.883C221.513 194.43 221.689 195.188 221.812 195.594C218.603 197.499 218.038 197.94 217.703 198.31C217.562 197.799 217.121 196.917 216.768 196.494C217.174 196.247 217.685 195.7 217.685 194.942V192.331H215.534V190.462H217.685V188.734H216.557V187.164C216.345 187.411 216.133 187.64 215.904 187.852C215.763 187.429 215.305 186.388 215.005 185.947C216.045 184.959 216.962 183.478 217.491 181.926L219.202 182.437C219.061 182.79 218.92 183.178 218.761 183.549H221.53V185.418H217.791C217.474 185.947 217.156 186.423 216.804 186.864H221.283V188.734H219.573V190.462H221.671V192.331H219.573V194.906ZM229.167 189.845V188.645H227.509V189.845H229.167ZM227.509 192.808H229.167V191.538H227.509V192.808ZM224.123 192.808H225.798V191.538H224.123V192.808ZM225.798 188.645H224.123V189.845H225.798V188.645ZM231.389 185.788H227.615V186.882H231.019V196.335C231.019 197.128 230.93 197.622 230.437 197.94C229.978 198.257 229.378 198.292 228.585 198.292C228.514 197.781 228.303 196.987 228.073 196.494C228.461 196.511 228.832 196.511 228.973 196.511C229.131 196.511 229.167 196.458 229.167 196.3V194.518H227.509V198.204H225.798V194.518H224.123V198.31H222.359V186.882H225.71V185.788H222.006V184.025H225.71V181.873H227.615V184.025H229.378C228.973 183.619 228.426 183.143 227.985 182.755L229.237 181.803C229.819 182.261 230.648 182.949 231.071 183.372L230.26 184.025H231.389V185.788Z" fill="white"/>
<path d="M116.945 141.215V138.728H111.795V136.771H116.945V135.183H114.529C113.771 135.183 112.977 135.289 112.818 135.483C112.712 135.042 112.36 134.072 112.13 133.508C112.501 133.402 112.783 133.014 113.136 132.397C113.277 132.15 113.541 131.621 113.841 130.933H111.954V129.134H114.529C114.723 128.552 114.899 127.97 115.058 127.371L117.245 127.953C117.122 128.341 116.98 128.729 116.822 129.134H122.677V130.933H116.081C115.711 131.744 115.305 132.556 114.899 133.243H116.945V131.515H119.114V133.243H122.13L122.113 135.183H119.114V136.771H122.871V138.728H119.114V141.215H116.945ZM111.531 130.651L109.82 131.833C109.379 130.968 108.321 129.593 107.492 128.587L109.097 127.529C109.944 128.464 111.055 129.787 111.531 130.651ZM110.949 133.208V140.122C111.231 140.316 111.566 140.545 111.989 140.792C113.206 141.515 114.846 141.621 116.892 141.621C118.779 141.621 121.707 141.444 123.506 141.162C123.277 141.779 122.906 142.873 122.889 143.508C121.601 143.578 118.656 143.702 116.786 143.702C114.458 143.702 112.977 143.49 111.672 142.749C110.861 142.309 110.226 141.727 109.838 141.727C109.326 141.727 108.586 142.926 107.986 144.019L106.452 141.903C107.28 140.951 108.162 140.28 108.938 139.928V135.131H106.928V133.208H110.949ZM132.73 127.335H134.617V134.813C134.617 138.376 134.246 141.709 131.16 143.913C130.825 143.49 130.102 142.838 129.643 142.52C132.395 140.615 132.73 137.864 132.73 134.813V127.335ZM135.851 127.335H137.862V143.896H135.851V127.335ZM130.137 130.245H133.559V132.15H130.137V130.245ZM136.909 130.245H140.631V132.15H136.909V130.245ZM137.051 133.949H140.437V135.818H137.051V133.949ZM136.874 137.758H140.913V139.663H136.874V137.758ZM130.278 133.949H133.629V135.818H130.278V133.949ZM129.185 138.517C130.19 138.252 131.583 137.811 133.012 137.353L133.329 139.011C132.201 139.487 131.019 139.945 129.978 140.333L129.185 138.517ZM124.194 136.224C125.605 135.907 127.703 135.342 129.696 134.778L129.978 136.683C128.162 137.247 126.222 137.811 124.67 138.252L124.194 136.224ZM124.476 130.704H129.873V132.644H124.476V130.704ZM126.345 127.371H128.285V141.674C128.285 142.661 128.109 143.208 127.562 143.525C127.033 143.861 126.275 143.931 125.128 143.931C125.075 143.402 124.829 142.538 124.582 141.956C125.217 141.991 125.834 141.991 126.045 141.973C126.257 141.973 126.345 141.921 126.345 141.674V127.371ZM154.052 128.517L155.463 127.353C156.256 127.9 157.297 128.729 157.791 129.311L156.309 130.58C155.851 129.981 154.863 129.099 154.052 128.517ZM142.377 130.351H158.249V132.415H142.377V130.351ZM143.029 134.443H150.666V136.489H143.029V134.443ZM145.71 135.607H147.826V141.585H145.71V135.607ZM142.359 141.286C144.493 140.968 147.95 140.369 151.124 139.769L151.283 141.656C148.373 142.291 145.251 142.943 142.959 143.42L142.359 141.286ZM151.036 127.423H153.311C153.152 134.672 154.493 141.709 156.168 141.709C156.556 141.709 156.75 140.739 156.856 138.517C157.332 139.011 158.108 139.522 158.708 139.734C158.39 143.102 157.667 143.931 155.992 143.931C152.165 143.931 151.054 135.589 151.036 127.423ZM165.216 130.757H176.009V132.767H165.216V130.757ZM165.798 135.836H175.515V137.847H165.798V135.836ZM164.828 141.339H176.274V143.349H164.828V141.339ZM169.537 131.374H171.688V142.626H169.537V131.374ZM167.314 128.817L168.708 127.318C170.013 128.005 171.829 129.099 172.729 129.893L171.212 131.586C170.418 130.774 168.637 129.593 167.314 128.817ZM163.593 127.388L165.568 128.023C164.369 131.021 162.429 134.178 160.419 136.171C160.242 135.677 159.678 134.513 159.325 134.002C161.001 132.415 162.641 129.91 163.593 127.388ZM161.9 132.273L163.893 130.263L163.911 130.281V143.861H161.9V132.273ZM188.848 131.409L190.506 133.138C187.596 134.284 183.593 134.954 180.013 135.307C179.942 134.778 179.642 133.949 179.378 133.473C182.834 133.067 186.573 132.362 188.848 131.409ZM177.596 137.229L193.187 135.677L193.451 137.635L177.861 139.275L177.596 137.229ZM183.734 134.125H186.044V140.809C186.044 141.603 186.203 141.727 187.261 141.727C187.755 141.727 189.713 141.727 190.277 141.727C191.229 141.727 191.388 141.339 191.529 139.257C192.023 139.645 192.993 139.998 193.645 140.139C193.346 142.996 192.693 143.808 190.453 143.808C189.871 143.808 187.561 143.808 187.032 143.808C184.439 143.808 183.734 143.12 183.734 140.827V134.125ZM184.386 127.371H186.644V130.58H184.386V127.371ZM177.984 128.905H193.152V133.085H190.877V130.898H180.136V133.085H177.984V128.905Z" fill="white"/>
<path d="M16.6859 92.1816C8.63246 92.1816 2.08057 85.6282 2.08057 77.5729C2.08057 69.5175 8.63246 62.9641 16.6859 62.9641C24.7397 62.9641 31.2916 69.5175 31.2916 77.5729C31.2916 85.6282 24.7397 92.1816 16.6859 92.1816Z" fill="#746D9C"/>
<path d="M13.286 86.3928L19.0198 74.0872L22.879 73.5138L17.2114 86.3928H13.286ZM11.7422 74.2195V70.9557H22.879V73.5138L19.0859 74.2195H11.7422Z" fill="white"/>
<path d="M16.6873 61.5918C7.87828 61.5918 0.711914 68.7602 0.711914 77.5709C0.711914 86.382 7.87828 93.55 16.6873 93.55C25.4964 93.55 32.6627 86.382 32.6627 77.5709C32.6627 68.7602 25.4964 61.5918 16.6873 61.5918ZM16.6873 64.3325C23.9969 64.3325 29.9226 70.2597 29.9226 77.5709C29.9226 84.8825 23.9969 90.8093 16.6873 90.8093C9.37745 90.8093 3.452 84.8825 3.452 77.5709C3.452 70.2597 9.37745 64.3325 16.6873 64.3325Z" fill="white"/>
<path d="M16.6859 150.584C8.63246 150.584 2.08057 144.03 2.08057 135.975C2.08057 127.919 8.63246 121.366 16.6859 121.366C24.7397 121.366 31.2916 127.919 31.2916 135.975C31.2916 144.03 24.7397 150.584 16.6859 150.584Z" fill="#746D9C"/>
<path d="M17.0356 143.997C15.7419 143.997 14.6539 143.82 13.7718 143.468C12.8897 143.1 12.2207 142.6 11.765 141.968C11.3239 141.321 11.1034 140.571 11.1034 139.719C11.1034 138.792 11.3239 137.984 11.765 137.293C12.2207 136.587 12.8897 136.036 13.7718 135.639C14.6539 135.242 15.7419 135.043 17.0356 135.043C18.3441 135.043 19.4321 135.242 20.2995 135.639C21.1816 136.036 21.8506 136.587 22.3063 137.293C22.7621 137.984 22.99 138.792 22.99 139.719C22.99 140.571 22.7621 141.321 22.3063 141.968C21.8506 142.6 21.1816 143.1 20.2995 143.468C19.4321 143.82 18.3441 143.997 17.0356 143.997ZM17.0356 141.064C17.7119 141.064 18.2633 140.895 18.6896 140.557C19.1307 140.204 19.3512 139.763 19.3512 139.233C19.3512 138.616 19.1307 138.123 18.6896 137.756C18.2633 137.374 17.7119 137.182 17.0356 137.182C16.5946 137.182 16.1976 137.271 15.8448 137.447C15.5066 137.609 15.2346 137.844 15.0288 138.153C14.8377 138.461 14.7421 138.822 14.7421 139.233C14.7421 139.586 14.8377 139.902 15.0288 140.182C15.2346 140.446 15.5066 140.659 15.8448 140.821C16.1976 140.983 16.5946 141.064 17.0356 141.064ZM17.0356 136.3C15.8595 136.3 14.8671 136.131 14.0585 135.793C13.2499 135.44 12.6324 134.962 12.206 134.36C11.7797 133.742 11.5665 133.029 11.5665 132.22C11.5665 131.397 11.7797 130.669 12.206 130.037C12.6324 129.405 13.2499 128.913 14.0585 128.56C14.8671 128.207 15.8595 128.03 17.0356 128.03C18.1971 128.03 19.1821 128.207 19.9908 128.56C20.8141 128.913 21.4389 129.405 21.8653 130.037C22.3063 130.669 22.5269 131.397 22.5269 132.22C22.5269 133.029 22.3063 133.742 21.8653 134.36C21.4389 134.962 20.8141 135.44 19.9908 135.793C19.1821 136.131 18.1971 136.3 17.0356 136.3ZM17.0356 134.47C17.6237 134.47 18.1089 134.301 18.4912 133.963C18.8734 133.61 19.0645 133.169 19.0645 132.639C19.0645 132.11 18.8734 131.684 18.4912 131.36C18.1089 131.022 17.6237 130.853 17.0356 130.853C16.4476 130.853 15.9624 131.022 15.5801 131.36C15.2126 131.684 15.0288 132.11 15.0288 132.639C15.0288 133.169 15.2126 133.61 15.5801 133.963C15.9624 134.301 16.4476 134.47 17.0356 134.47Z" fill="white"/>
<path d="M16.6873 119.993C7.87828 119.993 0.711914 127.162 0.711914 135.972C0.711914 144.783 7.87828 151.951 16.6873 151.951C25.4964 151.951 32.6627 144.783 32.6627 135.972C32.6627 127.162 25.4964 119.993 16.6873 119.993ZM16.6873 122.734C23.9969 122.734 29.9226 128.661 29.9226 135.972C29.9226 143.284 23.9969 149.211 16.6873 149.211C9.37745 149.211 3.452 143.284 3.452 135.972C3.452 128.661 9.37745 122.734 16.6873 122.734Z" fill="white"/>
<path d="M16.6859 204.231C8.63246 204.231 2.08057 197.678 2.08057 189.623C2.08057 181.567 8.63246 175.014 16.6859 175.014C24.7397 175.014 31.2916 181.567 31.2916 189.623C31.2916 197.678 24.7397 204.231 16.6859 204.231Z" fill="#746D9C"/>
<path d="M17.2171 181.758C18.2462 181.758 19.1283 181.942 19.8635 182.309C20.5986 182.662 21.2013 183.162 21.6718 183.809C22.1423 184.456 22.4878 185.213 22.7083 186.08C22.9435 186.933 23.0611 187.867 23.0611 188.881C23.0611 189.999 22.9435 191.086 22.7083 192.145C22.4731 193.189 22.1055 194.137 21.6056 194.99C21.1058 195.828 20.4368 196.497 19.5988 196.997C18.7755 197.482 17.7684 197.724 16.5775 197.724C15.7395 197.724 14.9309 197.607 14.1517 197.372C13.3725 197.136 12.6668 196.798 12.0346 196.357L13.7327 193.755C14.1885 194.064 14.6736 194.284 15.1882 194.416C15.7028 194.549 16.1585 194.615 16.5555 194.615C17.5258 194.615 18.305 194.174 18.8931 193.292C19.4959 192.41 19.7826 190.991 19.7532 189.036L20.4809 189.455C20.1281 190.204 19.6135 190.822 18.9372 191.307C18.2756 191.777 17.4744 192.013 16.5334 192.013C15.5631 192.013 14.6957 191.777 13.9312 191.307C13.1814 190.837 12.5933 190.204 12.1669 189.41C11.7406 188.602 11.5274 187.712 11.5274 186.742C11.5274 185.772 11.7553 184.912 12.211 184.162C12.6815 183.412 13.3431 182.824 14.1958 182.398C15.0485 181.971 16.0556 181.758 17.2171 181.758ZM17.195 184.735C16.7834 184.735 16.4158 184.831 16.0924 185.022C15.7689 185.213 15.5116 185.47 15.3205 185.794C15.1441 186.117 15.0559 186.492 15.0559 186.918C15.0559 187.33 15.1441 187.712 15.3205 188.065C15.5116 188.403 15.7689 188.675 16.0924 188.881C16.4158 189.072 16.7834 189.168 17.195 189.168C17.6067 189.168 17.9742 189.072 18.2977 188.881C18.6211 188.675 18.8784 188.403 19.0695 188.065C19.2607 187.712 19.3562 187.33 19.3562 186.918C19.3562 186.492 19.2607 186.117 19.0695 185.794C18.8784 185.47 18.6211 185.213 18.2977 185.022C17.9742 184.831 17.6067 184.735 17.195 184.735Z" fill="white"/>
<path d="M16.6873 173.647C7.87828 173.647 0.711914 180.815 0.711914 189.626C0.711914 198.437 7.87828 205.605 16.6873 205.605C25.4964 205.605 32.6627 198.437 32.6627 189.626C32.6627 180.815 25.4964 173.647 16.6873 173.647ZM16.6873 176.387C23.9969 176.387 29.9226 182.315 29.9226 189.626C29.9226 196.937 23.9969 202.864 16.6873 202.864C9.37745 202.864 3.452 196.937 3.452 189.626C3.452 182.315 9.37745 176.387 16.6873 176.387Z" fill="white"/>
<path d="M283.967 48.7184H16.9507V15.5792C16.9507 7.40535 23.5752 0.779297 31.7472 0.779297H269.171C277.343 0.779297 283.967 7.40535 283.967 15.5792V48.7184Z" fill="#EEEFEF"/>
<path d="M116.328 23.8275H132.13V25.9262H116.328V23.8275ZM117.651 19.4713H130.843V21.57H117.651V19.4713ZM123.048 16.8258H125.287V33.3863H123.048V16.8258ZM122.677 25.0444L124.511 25.8027C122.818 28.6069 120.067 31.1642 117.281 32.6103C116.928 32.0813 116.222 31.2347 115.729 30.7938C118.445 29.6122 121.231 27.3194 122.677 25.0444ZM125.675 25.062C127.104 27.3371 129.89 29.6298 132.589 30.7938C132.095 31.2171 131.39 32.0813 131.037 32.6456C128.303 31.1994 125.605 28.5893 123.912 25.8027L125.675 25.062ZM133.912 24.5329H149.767V26.5611H133.912V24.5329ZM134.74 18.7482H149.061V20.7587H134.74V18.7482ZM140.702 16.8082H142.959V33.3687H140.702V16.8082ZM145.957 20.7058L148.179 21.3584C147.527 22.5753 146.821 23.8275 146.257 24.6211L144.423 24.0215C144.97 23.122 145.622 21.7464 145.957 20.7058ZM135.922 21.4642L137.809 20.7587C138.462 21.7111 139.097 22.9986 139.326 23.8627L137.298 24.6564C137.121 23.8098 136.522 22.4695 135.922 21.4642ZM140.349 25.3442L142.06 26.032C140.402 28.8185 137.668 31.3582 134.917 32.7514C134.582 32.24 133.894 31.4111 133.418 30.9878C136.134 29.8414 138.92 27.6016 140.349 25.3442ZM143.365 25.3795C144.776 27.6193 147.527 29.8767 150.225 31.0231C149.731 31.4463 149.061 32.2576 148.726 32.8043C145.975 31.4111 143.312 28.8362 141.654 26.0673L143.365 25.3795ZM157.897 20.7764H160.454C160.595 20.3355 160.754 19.8769 160.895 19.4007H157.421V17.5313H167.597V19.4007H163.364C163.117 19.8946 162.87 20.3531 162.641 20.7764H166.715V28.9949H164.563V22.6106H159.96V29.0654H157.897V20.7764ZM157.244 26.4905L157.509 28.2542C155.428 28.9773 153.241 29.7533 151.53 30.3353L151.019 28.1131C151.671 27.9544 152.465 27.7604 153.347 27.5311V20.7411H151.319V18.7658H157.174V20.7411H155.428V26.9667L157.244 26.4905ZM163.329 23.2984V26.8962C163.329 29.33 162.218 31.8696 157.262 33.3863C157.015 32.9454 156.398 32.1694 155.939 31.7814C160.631 30.5998 161.23 28.6069 161.23 26.8609V23.2984H163.329ZM162.729 30.494L164.017 29.2418C165.269 29.9825 166.98 31.076 167.809 31.852L166.415 33.2805C165.639 32.4869 163.981 31.3053 162.729 30.494ZM172.288 21.8698H181.865V23.8627H172.288V21.8698ZM172.288 25.9615H181.865V27.9544H172.288V25.9615ZM172.288 30.0354H181.865V32.0989H172.288V30.0354ZM170.754 17.7782H183.329V33.1923H181.089V19.8593H172.888V33.1923H170.754V17.7782Z" fill="#736D9B"/>
<path d="M16.8638 106.434H283.701" stroke="white" stroke-width="0.719912" stroke-miterlimit="10"/>
<path d="M16.8638 164.1H283.701" stroke="white" stroke-width="0.719912" stroke-miterlimit="10"/>
</svg>
