<svg width="305" height="116" viewBox="0 0 305 116" fill="none" xmlns="http://www.w3.org/2000/svg">
<path d="M292.782 115.148H12.2182C5.75542 115.148 0.516602 109.342 0.516602 102.179L0.516684 43.5657H304.484V102.179C304.484 109.342 299.244 115.148 292.782 115.148Z" fill="url(#paint0_linear_1236_11974)"/>
<path d="M304.484 42.3219H0.516602V13.6359C0.516602 6.56067 8.05783 0.824707 17.3607 0.824707H287.64C296.942 0.824707 304.484 6.56067 304.484 13.6359V42.3219Z" fill="#2D565A"/>
<path d="M89.3686 28.2192C88.0532 28.2192 86.89 27.9391 85.8791 27.3788C84.8681 26.8064 84.0764 26.0269 83.504 25.0403C82.9315 24.0416 82.6453 22.9027 82.6453 21.6239C82.6453 20.3328 82.9315 19.194 83.504 18.2074C84.0764 17.2087 84.862 16.4292 85.8608 15.8689C86.8717 15.2964 88.0288 15.0102 89.332 15.0102C90.6353 15.0102 91.7863 15.2964 92.785 15.8689C93.796 16.4292 94.5876 17.2087 95.1601 18.2074C95.7325 19.194 96.0188 20.3328 96.0188 21.6239C96.0188 22.9027 95.7325 24.0416 95.1601 25.0403C94.5998 26.0269 93.8203 26.8064 92.8216 27.3788C91.8228 27.9391 90.6718 28.2192 89.3686 28.2192ZM89.3686 25.5153C90.0872 25.5153 90.7205 25.3509 91.2686 25.022C91.8167 24.6932 92.243 24.2364 92.5475 23.6518C92.852 23.055 93.0043 22.379 93.0043 21.6239C93.0043 20.8565 92.8459 20.1805 92.5293 19.5959C92.2126 18.9991 91.7802 18.5363 91.2321 18.2074C90.684 17.8664 90.0507 17.6959 89.332 17.6959C88.6134 17.6959 87.9801 17.8664 87.432 18.2074C86.8839 18.5363 86.4515 18.9991 86.1348 19.5959C85.8182 20.1805 85.6598 20.8565 85.6598 21.6239C85.6598 22.379 85.8182 23.055 86.1348 23.6518C86.4515 24.2364 86.89 24.6932 87.4503 25.022C88.0105 25.3509 88.65 25.5153 89.3686 25.5153ZM97.8091 28V15.2112H102.833C103.759 15.2112 104.581 15.4 105.3 15.7775C106.018 16.1429 106.579 16.6545 106.98 17.3122C107.395 17.9577 107.602 18.7129 107.602 19.5776C107.602 20.4181 107.401 21.1732 106.999 21.8431C106.609 22.5008 106.061 23.0184 105.354 23.396C104.648 23.7736 103.838 23.9624 102.925 23.9624H100.75V28H97.8091ZM100.75 21.2585H102.852C103.375 21.2585 103.795 21.1062 104.112 20.8017C104.429 20.485 104.587 20.077 104.587 19.5776C104.587 19.0783 104.417 18.6763 104.076 18.3718C103.747 18.0552 103.308 17.8968 102.76 17.8968H100.75V21.2585ZM109.031 28V15.2112H117.362V17.9151H111.973V20.2536H116.485V22.8662H111.973V25.2961H117.454V28H109.031ZM119.754 28V15.2112H122.842L128.451 23.0124V15.2112H131.392V28H128.451L122.696 19.9796V28H119.754ZM138.167 28V15.2112H146.644V17.9151H141.108V20.3815H145.584V23.0672H141.108V28H138.167ZM154.401 28.2192C153.086 28.2192 151.922 27.9391 150.912 27.3788C149.901 26.8064 149.109 26.0269 148.536 25.0403C147.964 24.0416 147.678 22.9027 147.678 21.6239C147.678 20.3328 147.964 19.194 148.536 18.2074C149.109 17.2087 149.895 16.4292 150.893 15.8689C151.904 15.2964 153.061 15.0102 154.365 15.0102C155.668 15.0102 156.819 15.2964 157.817 15.8689C158.828 16.4292 159.62 17.2087 160.193 18.2074C160.765 19.194 161.051 20.3328 161.051 21.6239C161.051 22.9027 160.765 24.0416 160.193 25.0403C159.632 26.0269 158.853 26.8064 157.854 27.3788C156.855 27.9391 155.704 28.2192 154.401 28.2192ZM154.401 25.5153C155.12 25.5153 155.753 25.3509 156.301 25.022C156.849 24.6932 157.275 24.2364 157.58 23.6518C157.884 23.055 158.037 22.379 158.037 21.6239C158.037 20.8565 157.878 20.1805 157.562 19.5959C157.245 18.9991 156.813 18.5363 156.265 18.2074C155.716 17.8664 155.083 17.6959 154.365 17.6959C153.646 17.6959 153.013 17.8664 152.464 18.2074C151.916 18.5363 151.484 18.9991 151.167 19.5959C150.851 20.1805 150.692 20.8565 150.692 21.6239C150.692 22.379 150.851 23.055 151.167 23.6518C151.484 24.2364 151.922 24.6932 152.483 25.022C153.043 25.3509 153.682 25.5153 154.401 25.5153ZM162.842 28V15.2112H167.866C168.791 15.2112 169.614 15.3939 170.332 15.7593C171.051 16.1125 171.611 16.6119 172.013 17.2574C172.427 17.8907 172.634 18.6215 172.634 19.4498C172.634 20.278 172.427 21.0149 172.013 21.6604C171.599 22.3059 171.026 22.8114 170.296 23.1768C169.577 23.53 168.749 23.7066 167.811 23.7066H165.783V28H162.842ZM169.784 28L166.897 22.921L169.108 21.295L173.146 28H169.784ZM165.783 21.0027H167.774C168.115 21.0027 168.42 20.9357 168.688 20.8017C168.956 20.6677 169.163 20.485 169.309 20.2536C169.467 20.01 169.547 19.7421 169.547 19.4498C169.547 18.9991 169.376 18.6276 169.035 18.3353C168.706 18.043 168.268 17.8968 167.72 17.8968H165.783V21.0027ZM183.462 28.2192C182.841 28.2192 182.244 28.1401 181.672 27.9817C181.111 27.8112 180.6 27.5859 180.137 27.3057C179.686 27.0134 179.315 26.6907 179.023 26.3375C178.73 25.9721 178.548 25.5823 178.474 25.1682L181.379 24.346C181.513 24.6993 181.745 25.0099 182.074 25.2778C182.415 25.5336 182.841 25.6676 183.352 25.6797C183.852 25.6919 184.266 25.5762 184.595 25.3326C184.936 25.089 185.106 24.7723 185.106 24.3826C185.106 24.0781 184.985 23.8101 184.741 23.5787C184.51 23.3473 184.175 23.1707 183.736 23.0489L181.927 22.5922C181.294 22.4338 180.74 22.1841 180.265 21.8431C179.802 21.5021 179.437 21.0879 179.169 20.6007C178.913 20.1014 178.785 19.535 178.785 18.9017C178.785 17.6715 179.193 16.7154 180.009 16.0333C180.825 15.3391 181.976 14.9919 183.462 14.9919C184.278 14.9919 184.991 15.1076 185.6 15.3391C186.209 15.5583 186.726 15.8872 187.153 16.3256C187.591 16.7641 187.938 17.3122 188.194 17.9699L185.307 18.8286C185.21 18.4997 184.997 18.2013 184.668 17.9334C184.351 17.6654 183.937 17.5314 183.426 17.5314C182.914 17.5314 182.512 17.6471 182.22 17.8786C181.94 18.11 181.8 18.4449 181.8 18.8834C181.8 19.1879 181.915 19.4437 182.147 19.6507C182.378 19.8456 182.695 19.9918 183.097 20.0892L184.905 20.5459C185.941 20.8017 186.745 21.2828 187.317 21.9893C187.902 22.6835 188.194 23.4752 188.194 24.3643C188.194 25.1682 188.005 25.8563 187.628 26.4288C187.262 27.0013 186.726 27.4458 186.02 27.7625C185.313 28.067 184.461 28.2192 183.462 28.2192ZM198.965 28L194.178 15.2112H197.101L202.071 28H198.965ZM188.989 28L193.959 15.2112H196.882L192.095 28H188.989ZM191.328 25.5701V22.9758H199.75V25.5701H191.328ZM203.467 28V15.2112H206.408V25.2961H211.853V28H203.467ZM213.422 28V15.2112H221.753V17.9151H216.364V20.2536H220.876V22.8662H216.364V25.2961H221.845V28H213.422Z" fill="#4FBCA7"/>
<path d="M44.0885 97.6314C33.7269 97.6314 25.2969 89.2018 25.2969 78.8397C25.2969 68.4782 33.7269 60.0481 44.0885 60.0481C54.4501 60.0481 62.8802 68.4782 62.8802 78.8397C62.8802 89.2018 54.4501 97.6314 44.0885 97.6314Z" fill="#48BBA9"/>
<path d="M44.0887 58.0898C32.6479 58.0898 23.3401 67.3976 23.3401 78.8384C23.3401 90.2793 32.6479 99.5871 44.0887 99.5871C55.5295 99.5871 64.8373 90.2793 64.8373 78.8384C64.8373 67.3976 55.5295 58.0898 44.0887 58.0898ZM44.0887 62.0038C53.3862 62.0038 60.9234 69.541 60.9234 78.8384C60.9234 88.1359 53.3862 95.6731 44.0887 95.6731C34.7912 95.6731 27.254 88.1359 27.254 78.8384C27.254 69.541 34.7912 62.0038 44.0887 62.0038Z" fill="white"/>
<path d="M50.4746 72.1117H42.3141L42.227 75.2771C42.6722 75.1225 43.2818 75.0452 44.0563 75.0452C45.1023 75.0452 46.0607 75.1998 46.9315 75.5095C47.8028 75.8197 48.5529 76.2698 49.182 76.8603C49.8112 77.4508 50.3004 78.1666 50.6487 79.009C50.9971 79.851 51.1717 80.7952 51.1717 81.8407C51.1717 83.0022 50.9731 84.0379 50.5763 84.9479C50.1791 85.8584 49.6326 86.6279 48.9354 87.2566C48.2383 87.8863 47.411 88.3652 46.4526 88.6945C45.4941 89.0233 44.453 89.1881 43.3302 89.1881C41.5489 89.1881 40.0582 88.7522 38.8581 87.8809C37.6575 87.01 36.8351 85.6935 36.3894 83.9318L40.9491 82.8858C41.0655 83.6221 41.3747 84.2175 41.8787 84.672C42.3816 85.1274 43.0112 85.3545 43.7661 85.3545C44.6952 85.3545 45.4359 85.0643 45.9878 84.4836C46.5396 83.9024 46.8156 83.1671 46.8156 82.2762C46.8156 81.5986 46.6747 81.0418 46.3943 80.6064C46.1135 80.171 45.7451 79.8221 45.2906 79.5609C44.8356 79.2996 44.3273 79.1206 43.7661 79.0237C43.2045 78.9268 42.6429 78.8784 42.0817 78.8784C41.365 78.8784 40.6443 78.9464 39.9183 79.0819C39.1923 79.2174 38.4902 79.4009 37.8126 79.6338L38.045 68.2786H50.4746V72.1117Z" fill="white"/>
<path d="M99.1896 73.1969C98.4615 73.1969 97.762 73.1041 97.091 72.9185C96.4343 72.7187 95.8348 72.4546 95.2923 72.1262C94.7641 71.7836 94.3286 71.4053 93.986 70.9913C93.6434 70.563 93.4293 70.1062 93.3436 69.6208L96.7484 68.6572C96.9054 69.0712 97.1767 69.4352 97.5621 69.7493C97.9619 70.0491 98.4615 70.2061 99.0611 70.2204C99.6464 70.2346 100.132 70.099 100.517 69.8135C100.917 69.528 101.117 69.1568 101.117 68.7C101.117 68.3431 100.974 68.029 100.689 67.7578C100.417 67.4865 100.025 67.2795 99.5108 67.1368L97.3908 66.6014C96.6485 66.4158 95.9989 66.1232 95.4422 65.7234C94.8997 65.3237 94.4714 64.8383 94.1573 64.2673C93.8575 63.682 93.7076 63.0181 93.7076 62.2758C93.7076 60.8339 94.1859 59.7133 95.1424 58.9138C96.0989 58.1001 97.4479 57.6932 99.1896 57.6932C100.146 57.6932 100.981 57.8288 101.695 58.1001C102.409 58.357 103.016 58.7425 103.515 59.2564C104.029 59.7704 104.436 60.4128 104.736 61.1837L101.352 62.1901C101.238 61.8047 100.988 61.4549 100.603 61.1409C100.232 60.8268 99.7464 60.6698 99.1468 60.6698C98.5472 60.6698 98.0761 60.8054 97.7335 61.0766C97.4051 61.3479 97.2409 61.7404 97.2409 62.2544C97.2409 62.6113 97.3766 62.9111 97.6478 63.1538C97.919 63.3822 98.2902 63.5535 98.7613 63.6677L100.881 64.2031C102.095 64.5028 103.037 65.0667 103.708 65.8948C104.393 66.7085 104.736 67.6364 104.736 68.6786C104.736 69.6208 104.515 70.4274 104.072 71.0983C103.644 71.7693 103.016 72.2904 102.188 72.6616C101.36 73.0185 100.36 73.1969 99.1896 73.1969ZM106.953 72.9399V57.9502H116.718V61.1194H110.401V63.8604H115.69V66.9226H110.401V69.7707H116.825V72.9399H106.953ZM119.521 72.9399V57.9502H125.41C126.495 57.9502 127.459 58.1643 128.301 58.5926C129.143 59.0066 129.8 59.5919 130.271 60.3485C130.756 61.0909 130.999 61.9475 130.999 62.9182C130.999 63.889 130.756 64.7527 130.271 65.5093C129.786 66.2659 129.115 66.8584 128.258 67.2867C127.416 67.7007 126.445 67.9077 125.346 67.9077H122.969V72.9399H119.521ZM127.658 72.9399L124.275 66.9869L126.866 65.081L131.599 72.9399H127.658ZM122.969 64.7384H125.303C125.703 64.7384 126.06 64.6599 126.374 64.5028C126.688 64.3458 126.93 64.1317 127.102 63.8604C127.287 63.5749 127.38 63.2608 127.38 62.9182C127.38 62.39 127.18 61.9546 126.78 61.612C126.395 61.2693 125.881 61.098 125.239 61.098H122.969V64.7384ZM133.532 72.9399V57.9502H143.297V61.1194H136.98V63.8604H142.269V66.9226H136.98V69.7707H143.404V72.9399H133.532ZM146.1 72.9399V57.9502H149.719L156.293 67.0939V57.9502H159.741V72.9399H156.293L149.548 63.5392V72.9399H146.1ZM162.663 72.9399V57.9502H172.427V61.1194H166.11V63.8604H171.4V66.9226H166.11V69.7707H172.535V72.9399H162.663ZM185.218 72.9399L190.678 57.9502H194.404L188.558 72.9399H185.218ZM184.832 72.9399L178.965 57.9502H182.67L188.173 72.9399H184.832ZM196.017 72.9399V57.9502H199.465V72.9399H196.017ZM202.375 72.9399V57.9502H205.822V69.7707H212.204V72.9399H202.375ZM214.044 72.9399V57.9502H217.491V69.7707H223.873V72.9399H214.044ZM236.12 72.9399L230.509 57.9502H233.936L239.76 72.9399H236.12ZM224.428 72.9399L230.252 57.9502H233.679L228.068 72.9399H224.428ZM227.169 70.0919V67.0511H237.041V70.0919H227.169ZM246.536 73.1969C245.808 73.1969 245.108 73.1041 244.437 72.9185C243.781 72.7187 243.181 72.4546 242.639 72.1262C242.11 71.7836 241.675 71.4053 241.332 70.9913C240.99 70.563 240.776 70.1062 240.69 69.6208L244.095 68.6572C244.252 69.0712 244.523 69.4352 244.908 69.7493C245.308 70.0491 245.808 70.2061 246.407 70.2204C246.993 70.2346 247.478 70.099 247.864 69.8135C248.263 69.528 248.463 69.1568 248.463 68.7C248.463 68.3431 248.32 68.029 248.035 67.7578C247.764 67.4865 247.371 67.2795 246.857 67.1368L244.737 66.6014C243.995 66.4158 243.345 66.1232 242.788 65.7234C242.246 65.3237 241.818 64.8383 241.504 64.2673C241.204 63.682 241.054 63.0181 241.054 62.2758C241.054 60.8339 241.532 59.7133 242.489 58.9138C243.445 58.1001 244.794 57.6932 246.536 57.6932C247.492 57.6932 248.328 57.8288 249.041 58.1001C249.755 58.357 250.362 58.7425 250.862 59.2564C251.375 59.7704 251.782 60.4128 252.082 61.1837L248.699 62.1901C248.585 61.8047 248.335 61.4549 247.949 61.1409C247.578 60.8268 247.093 60.6698 246.493 60.6698C245.894 60.6698 245.422 60.8054 245.08 61.0766C244.751 61.3479 244.587 61.7404 244.587 62.2544C244.587 62.6113 244.723 62.9111 244.994 63.1538C245.265 63.3822 245.637 63.5535 246.108 63.6677L248.228 64.2031C249.441 64.5028 250.383 65.0667 251.054 65.8948C251.74 66.7085 252.082 67.6364 252.082 68.6786C252.082 69.6208 251.861 70.4274 251.418 71.0983C250.99 71.7693 250.362 72.2904 249.534 72.6616C248.706 73.0185 247.707 73.1969 246.536 73.1969ZM111.839 98.9399V87.1194H107.471V83.9502H119.634V87.1194H115.265V98.9399H111.839ZM128.47 99.1969C126.928 99.1969 125.565 98.8686 124.38 98.2119C123.195 97.5409 122.267 96.6272 121.596 95.4709C120.925 94.3003 120.589 92.9655 120.589 91.4665C120.589 89.9532 120.925 88.6184 121.596 87.4621C122.267 86.2914 123.188 85.3778 124.358 84.7211C125.543 84.0501 126.899 83.7146 128.427 83.7146C129.955 83.7146 131.304 84.0501 132.474 84.7211C133.659 85.3778 134.587 86.2914 135.258 87.4621C135.929 88.6184 136.264 89.9532 136.264 91.4665C136.264 92.9655 135.929 94.3003 135.258 95.4709C134.601 96.6272 133.688 97.5409 132.517 98.2119C131.346 98.8686 129.997 99.1969 128.47 99.1969ZM128.47 96.0276C129.312 96.0276 130.054 95.8349 130.697 95.4495C131.339 95.064 131.839 94.5287 132.196 93.8434C132.553 93.1439 132.731 92.3516 132.731 91.4665C132.731 90.5671 132.546 89.7748 132.174 89.0895C131.803 88.39 131.296 87.8475 130.654 87.4621C130.012 87.0623 129.269 86.8625 128.427 86.8625C127.585 86.8625 126.842 87.0623 126.2 87.4621C125.558 87.8475 125.051 88.39 124.68 89.0895C124.308 89.7748 124.123 90.5671 124.123 91.4665C124.123 92.3516 124.308 93.1439 124.68 93.8434C125.051 94.5287 125.565 95.064 126.221 95.4495C126.878 95.8349 127.628 96.0276 128.47 96.0276ZM149.875 98.9399L154.03 83.9502H157.541L153.152 98.9399H149.875ZM140.903 98.9399L136.534 83.9502H140.046L144.179 98.9399H140.903ZM141.374 98.9399L145.314 83.9502H148.398L144.479 98.9399H141.374ZM149.554 98.9399L145.657 83.9502H148.74L152.83 98.9399H149.554ZM159.149 98.9399V83.9502H162.768L169.343 93.0939V83.9502H172.79V98.9399H169.343L162.597 89.5392V98.9399H159.149ZM185.391 98.9399V83.9502H188.839V98.9399H185.391ZM175.712 98.9399V83.9288H179.159V98.9399H175.712ZM178.153 92.8798V89.7105H187.233V92.8798H178.153ZM198.818 99.1969C197.276 99.1969 195.913 98.8686 194.728 98.2119C193.543 97.5409 192.615 96.6272 191.944 95.4709C191.273 94.3003 190.938 92.9655 190.938 91.4665C190.938 89.9532 191.273 88.6184 191.944 87.4621C192.615 86.2914 193.536 85.3778 194.706 84.7211C195.891 84.0501 197.248 83.7146 198.775 83.7146C200.303 83.7146 201.652 84.0501 202.822 84.7211C204.007 85.3778 204.935 86.2914 205.606 87.4621C206.277 88.6184 206.613 89.9532 206.613 91.4665C206.613 92.9655 206.277 94.3003 205.606 95.4709C204.949 96.6272 204.036 97.5409 202.865 98.2119C201.695 98.8686 200.345 99.1969 198.818 99.1969ZM198.818 96.0276C199.66 96.0276 200.403 95.8349 201.045 95.4495C201.687 95.064 202.187 94.5287 202.544 93.8434C202.901 93.1439 203.079 92.3516 203.079 91.4665C203.079 90.5671 202.894 89.7748 202.523 89.0895C202.151 88.39 201.645 87.8475 201.002 87.4621C200.36 87.0623 199.617 86.8625 198.775 86.8625C197.933 86.8625 197.191 87.0623 196.548 87.4621C195.906 87.8475 195.399 88.39 195.028 89.0895C194.657 89.7748 194.471 90.5671 194.471 91.4665C194.471 92.3516 194.657 93.1439 195.028 93.8434C195.399 94.5287 195.913 95.064 196.57 95.4495C197.226 95.8349 197.976 96.0276 198.818 96.0276ZM208.711 98.9399V83.9502H212.501L216.484 89.8604L220.489 83.9502H224.279V98.9399H220.831V89.3037L216.506 95.6422L212.159 89.3037V98.9399H208.711ZM227.197 98.9399V83.9502H236.962V87.1194H230.645V89.8604H235.934V92.9226H230.645V95.7707H237.069V98.9399H227.197Z" fill="#074461"/>
<defs>
<linearGradient id="paint0_linear_1236_11974" x1="-19.4408" y1="43.5657" x2="294.694" y2="90.5438" gradientUnits="userSpaceOnUse">
<stop stop-color="#2C585B"/>
<stop offset="0.34" stop-color="#4BB0A0"/>
<stop offset="0.645093" stop-color="#CEDA47"/>
<stop offset="0.913319" stop-color="#EBBC62"/>
</linearGradient>
</defs>
</svg>
