<svg width="304" height="116" viewBox="0 0 304 116" fill="none" xmlns="http://www.w3.org/2000/svg">
<path d="M292.265 115.148H11.7016C5.23882 115.148 0 109.342 0 102.179L8.23016e-05 43.5657H303.967V102.179C303.967 109.342 298.728 115.148 292.265 115.148Z" fill="url(#paint0_linear_1970_26235)"/>
<path d="M303.967 42.3219H0V13.6359C0 6.56067 7.54123 0.824707 16.8441 0.824707H287.123C296.426 0.824707 303.967 6.56067 303.967 13.6359V42.3219Z" fill="#2D565A"/>
<path d="M116.369 13.5486H131.88V15.6131H116.369V13.5486ZM115.766 20.0892H132.41V22.1902H115.766V20.0892ZM126.362 14.7544H128.646V29.6625H126.362V14.7544ZM119.913 14.7544H122.16V19.5594C122.16 23.0854 121.704 27.0865 117.502 29.7356C117.1 29.2241 116.278 28.4567 115.711 28.0913C119.493 25.8076 119.913 22.5191 119.913 19.5594V14.7544ZM143.225 26.9586H149.054V28.9318H143.225V26.9586ZM142.129 21.9893H150.223V29.5712H148.049V23.9624H144.212V29.6443H142.129V21.9893ZM140.96 18.518C143.134 18.4266 146.441 18.244 149.547 18.043L149.529 19.9978C146.587 20.2354 143.445 20.4729 141.179 20.6373L140.96 18.518ZM146.715 16.216L148.451 15.3391C149.602 16.8737 150.807 18.9199 151.246 20.3084L149.346 21.3133C148.962 19.943 147.829 17.8237 146.715 16.216ZM144.139 12.4707L146.569 12.9275C145.82 15.266 144.833 17.9334 144.011 19.6507L142.166 19.1757C142.915 17.367 143.737 14.5535 144.139 12.4707ZM133.908 16.1247H139.827V18.1526H133.908V16.1247ZM136.374 12.4707L138.439 12.7082C137.671 16.5814 136.539 21.496 135.644 24.7845L133.853 23.8162C134.693 20.9479 135.753 16.1064 136.374 12.4707ZM134.949 23.5422L136.137 22.0075C138.055 23.1951 140.467 24.9672 141.526 26.3375L140.211 28.0913C139.188 26.7211 136.868 24.8028 134.949 23.5422ZM139.023 16.1247H139.389L139.772 16.0699L141.07 16.3074C140.649 23.4326 138.896 27.4702 135.26 29.7174C134.968 29.1875 134.383 28.3837 133.944 27.9635C137.05 26.3375 138.676 22.2998 139.023 16.5266V16.1247ZM167.543 15.1016L165.789 16.2343C165.332 15.5583 164.382 14.4256 163.669 13.6034L165.35 12.5986C166.063 13.3659 167.049 14.4256 167.543 15.1016ZM164.491 22.0623H159.997C160.618 23.0672 161.386 23.9624 162.299 24.7297C163.194 23.9624 163.925 23.0672 164.491 22.0623ZM166.063 19.87L167.579 20.5825C166.848 22.8479 165.679 24.6201 164.181 25.9903C165.624 26.7577 167.323 27.324 169.315 27.6529C168.84 28.1279 168.255 29.0231 167.963 29.626C165.734 29.1693 163.889 28.4202 162.336 27.3971C160.764 28.4019 158.956 29.1145 156.983 29.626C156.745 29.0414 156.252 28.201 155.85 27.7077C157.567 27.3423 159.157 26.7577 160.563 25.9538C159.796 25.223 159.157 24.4009 158.59 23.4691C157.348 25.3874 155.685 26.9586 153.475 28.201C153.182 27.726 152.415 26.8307 151.885 26.4471C155.119 24.7114 157.074 21.9893 158.261 18.4632H155.886C154.9 18.4632 154.133 18.6093 153.968 18.8834C153.84 18.4266 153.493 17.4401 153.256 16.9103C153.53 16.8189 153.804 16.5631 154.041 16.1612C154.279 15.7775 154.955 14.3525 155.302 12.9275L157.604 13.2928C157.293 14.3342 156.818 15.4487 156.325 16.3804H158.846C159.138 15.1381 159.376 13.8044 159.54 12.3976L161.97 12.7996C161.806 14.0419 161.605 15.2477 161.367 16.3804H168.694V18.4632H160.838C160.673 18.993 160.509 19.468 160.326 19.9613H165.661L166.063 19.87ZM173.992 27.3057H183.711V29.0414H173.992V27.3057ZM174.028 16.7276H185.136V18.1343H174.028V16.7276ZM174.028 18.9747H185.155V20.3998H174.028V18.9747ZM172.822 23.7066H185.319V29.6625H183.035V25.4422H174.997V29.6625H172.822V23.7066ZM179.199 12.4707L181.464 13.0005C180.953 14.0419 180.404 15.0467 179.966 15.7227L178.084 15.1929C178.486 14.4438 178.961 13.3111 179.199 12.4707ZM174.211 12.3976L176.294 13.0919C175.161 15.54 173.371 18.0978 171.635 19.6873C171.324 19.2305 170.575 18.317 170.137 17.8968C171.745 16.5814 173.297 14.4987 174.211 12.3976ZM178.121 15.1746H180.258V22.0989H178.121V15.1746ZM174.01 14.3708H186.105V15.9054H173.243L174.01 14.3708ZM172.768 15.5948H174.869V21.3315H186.799V22.9393H172.768V15.5948Z" fill="#4FBCA7"/>
<path d="M43.5719 97.6314C33.2103 97.6314 24.7803 89.2018 24.7803 78.8397C24.7803 68.4782 33.2103 60.0481 43.5719 60.0481C53.9335 60.0481 62.3636 68.4782 62.3636 78.8397C62.3636 89.2018 53.9335 97.6314 43.5719 97.6314Z" fill="#48BBA9"/>
<path d="M43.5723 58.0898C32.1315 58.0898 22.8237 67.3976 22.8237 78.8384C22.8237 90.2793 32.1315 99.5871 43.5723 99.5871C55.0132 99.5871 64.3209 90.2793 64.3209 78.8384C64.3209 67.3976 55.0132 58.0898 43.5723 58.0898ZM43.5723 62.0038C52.8698 62.0038 60.407 69.541 60.407 78.8384C60.407 88.1359 52.8698 95.6731 43.5723 95.6731C34.2748 95.6731 26.7376 88.1359 26.7376 78.8384C26.7376 69.541 34.2748 62.0038 43.5723 62.0038Z" fill="white"/>
<path d="M49.9582 72.1117H41.7977L41.7106 75.2771C42.1558 75.1225 42.7654 75.0452 43.5399 75.0452C44.5859 75.0452 45.5443 75.1998 46.4152 75.5095C47.2865 75.8197 48.0365 76.2698 48.6657 76.8603C49.2948 77.4508 49.7841 78.1666 50.1324 79.009C50.4807 79.851 50.6554 80.7952 50.6554 81.8407C50.6554 83.0022 50.4568 84.0379 50.06 84.9479C49.6627 85.8584 49.1162 86.6279 48.4191 87.2566C47.7219 87.8863 46.8946 88.3652 45.9362 88.6945C44.9778 89.0233 43.9367 89.1881 42.8139 89.1881C41.0326 89.1881 39.5418 88.7522 38.3417 87.8809C37.1412 87.01 36.3187 85.6935 35.873 83.9318L40.4328 82.8858C40.5492 83.6221 40.8584 84.2175 41.3623 84.672C41.8652 85.1274 42.4949 85.3545 43.2498 85.3545C44.1788 85.3545 44.9196 85.0643 45.4714 84.4836C46.0233 83.9024 46.2992 83.1671 46.2992 82.2762C46.2992 81.5986 46.1583 81.0418 45.878 80.6064C45.5972 80.171 45.2288 79.8221 44.7743 79.5609C44.3193 79.2996 43.8109 79.1206 43.2498 79.0237C42.6881 78.9268 42.1265 78.8784 41.5653 78.8784C40.8486 78.8784 40.128 78.9464 39.4019 79.0819C38.6759 79.2174 37.9738 79.4009 37.2962 79.6338L37.5286 68.2786H49.9582V72.1117Z" fill="white"/>
<path d="M98.673 73.1969C97.9449 73.1969 97.2454 73.1041 96.5744 72.9185C95.9177 72.7187 95.3182 72.4546 94.7757 72.1262C94.2475 71.7836 93.812 71.4053 93.4694 70.9913C93.1268 70.563 92.9127 70.1062 92.827 69.6208L96.2318 68.6572C96.3888 69.0712 96.6601 69.4352 97.0455 69.7493C97.4453 70.0491 97.9449 70.2061 98.5445 70.2204C99.1298 70.2346 99.6152 70.099 100.001 69.8135C100.4 69.528 100.6 69.1568 100.6 68.7C100.6 68.3431 100.457 68.029 100.172 67.7578C99.9007 67.4865 99.5081 67.2795 98.9942 67.1368L96.8742 66.6014C96.1319 66.4158 95.4823 66.1232 94.9256 65.7234C94.3831 65.3237 93.9548 64.8383 93.6407 64.2673C93.3409 63.682 93.191 63.0181 93.191 62.2758C93.191 60.8339 93.6693 59.7133 94.6258 58.9138C95.5823 58.1001 96.9313 57.6932 98.673 57.6932C99.6295 57.6932 100.465 57.8288 101.178 58.1001C101.892 58.357 102.499 58.7425 102.999 59.2564C103.513 59.7704 103.919 60.4128 104.219 61.1837L100.836 62.1901C100.722 61.8047 100.472 61.4549 100.086 61.1409C99.7151 60.8268 99.2298 60.6698 98.6302 60.6698C98.0306 60.6698 97.5595 60.8054 97.2169 61.0766C96.8885 61.3479 96.7243 61.7404 96.7243 62.2544C96.7243 62.6113 96.86 62.9111 97.1312 63.1538C97.4024 63.3822 97.7736 63.5535 98.2447 63.6677L100.365 64.2031C101.578 64.5028 102.52 65.0667 103.191 65.8948C103.877 66.7085 104.219 67.6364 104.219 68.6786C104.219 69.6208 103.998 70.4274 103.555 71.0983C103.127 71.7693 102.499 72.2904 101.671 72.6616C100.843 73.0185 99.8436 73.1969 98.673 73.1969ZM106.436 72.9399V57.9502H116.201V61.1194H109.884V63.8604H115.173V66.9226H109.884V69.7707H116.308V72.9399H106.436ZM119.005 72.9399V57.9502H124.893C125.978 57.9502 126.942 58.1643 127.784 58.5926C128.627 59.0066 129.283 59.5919 129.754 60.3485C130.24 61.0909 130.482 61.9475 130.482 62.9182C130.482 63.889 130.24 64.7527 129.754 65.5093C129.269 66.2659 128.598 66.8584 127.741 67.2867C126.899 67.7007 125.928 67.9077 124.829 67.9077H122.452V72.9399H119.005ZM127.142 72.9399L123.758 66.9869L126.35 65.081L131.082 72.9399H127.142ZM122.452 64.7384H124.786C125.186 64.7384 125.543 64.6599 125.857 64.5028C126.171 64.3458 126.414 64.1317 126.585 63.8604C126.771 63.5749 126.863 63.2608 126.863 62.9182C126.863 62.39 126.664 61.9546 126.264 61.612C125.878 61.2693 125.364 61.098 124.722 61.098H122.452V64.7384ZM133.016 72.9399V57.9502H142.78V61.1194H136.463V63.8604H141.753V66.9226H136.463V69.7707H142.887V72.9399H133.016ZM145.584 72.9399V57.9502H149.203L155.777 67.0939V57.9502H159.224V72.9399H155.777L149.031 63.5392V72.9399H145.584ZM162.146 72.9399V57.9502H171.911V61.1194H165.594V63.8604H170.883V66.9226H165.594V69.7707H172.018V72.9399H162.146ZM184.701 72.9399L190.162 57.9502H193.888L188.042 72.9399H184.701ZM184.316 72.9399L178.448 57.9502H182.153L187.656 72.9399H184.316ZM195.501 72.9399V57.9502H198.948V72.9399H195.501ZM201.858 72.9399V57.9502H205.306V69.7707H211.687V72.9399H201.858ZM213.527 72.9399V57.9502H216.975V69.7707H223.356V72.9399H213.527ZM235.603 72.9399L229.993 57.9502H233.419L239.244 72.9399H235.603ZM223.911 72.9399L229.736 57.9502H233.162L227.551 72.9399H223.911ZM226.652 70.0919V67.0511H236.524V70.0919H226.652ZM246.019 73.1969C245.291 73.1969 244.592 73.1041 243.921 72.9185C243.264 72.7187 242.664 72.4546 242.122 72.1262C241.594 71.7836 241.158 71.4053 240.816 70.9913C240.473 70.563 240.259 70.1062 240.173 69.6208L243.578 68.6572C243.735 69.0712 244.006 69.4352 244.392 69.7493C244.792 70.0491 245.291 70.2061 245.891 70.2204C246.476 70.2346 246.962 70.099 247.347 69.8135C247.747 69.528 247.947 69.1568 247.947 68.7C247.947 68.3431 247.804 68.029 247.518 67.7578C247.247 67.4865 246.854 67.2795 246.341 67.1368L244.221 66.6014C243.478 66.4158 242.829 66.1232 242.272 65.7234C241.729 65.3237 241.301 64.8383 240.987 64.2673C240.687 63.682 240.537 63.0181 240.537 62.2758C240.537 60.8339 241.016 59.7133 241.972 58.9138C242.929 58.1001 244.278 57.6932 246.019 57.6932C246.976 57.6932 247.811 57.8288 248.525 58.1001C249.239 58.357 249.845 58.7425 250.345 59.2564C250.859 59.7704 251.266 60.4128 251.566 61.1837L248.182 62.1901C248.068 61.8047 247.818 61.4549 247.433 61.1409C247.061 60.8268 246.576 60.6698 245.976 60.6698C245.377 60.6698 244.906 60.8054 244.563 61.0766C244.235 61.3479 244.071 61.7404 244.071 62.2544C244.071 62.6113 244.206 62.9111 244.478 63.1538C244.749 63.3822 245.12 63.5535 245.591 63.6677L247.711 64.2031C248.924 64.5028 249.867 65.0667 250.538 65.8948C251.223 66.7085 251.566 67.6364 251.566 68.6786C251.566 69.6208 251.344 70.4274 250.902 71.0983C250.473 71.7693 249.845 72.2904 249.017 72.6616C248.189 73.0185 247.19 73.1969 246.019 73.1969ZM131.708 97.5909V94.5715H125.455V92.1945H131.708V90.2673H128.775C127.854 90.2673 126.89 90.3958 126.697 90.6313C126.569 90.096 126.141 88.9182 125.862 88.233C126.312 88.1045 126.655 87.6334 127.083 86.8839C127.254 86.5841 127.575 85.9417 127.939 85.1065H125.648V82.9223H128.775C129.01 82.2157 129.224 81.509 129.417 80.7809L132.072 81.4876C131.922 81.9587 131.751 82.4298 131.558 82.9223H138.668V85.1065H130.659C130.209 86.0916 129.717 87.0766 129.224 87.9118H131.708V85.8132H134.342V87.9118H138.004L137.983 90.2673H134.342V92.1945H138.903V94.5715H134.342V97.5909H131.708ZM125.134 84.7639L123.057 86.1986C122.522 85.1494 121.237 83.4791 120.23 82.2585L122.179 80.9736C123.207 82.1086 124.556 83.7146 125.134 84.7639ZM124.428 87.8689V96.2632C124.77 96.4988 125.177 96.7771 125.691 97.0769C127.169 97.9549 129.16 98.0834 131.644 98.0834C133.935 98.0834 137.49 97.8692 139.674 97.5266C139.396 98.2761 138.946 99.6038 138.925 100.375C137.362 100.46 133.785 100.61 131.516 100.61C128.689 100.61 126.89 100.353 125.306 99.4539C124.32 98.9185 123.55 98.2119 123.078 98.2119C122.457 98.2119 121.558 99.668 120.83 100.996L118.967 98.426C119.973 97.2697 121.044 96.4559 121.986 96.0276V90.2031H119.545V87.8689H124.428ZM150.874 80.7381H153.165V89.8176C153.165 94.1432 152.715 98.1905 148.968 100.867C148.561 100.353 147.683 99.5609 147.126 99.1755C150.467 96.8628 150.874 93.5222 150.874 89.8176V80.7381ZM154.664 80.7381H157.105V100.846H154.664V80.7381ZM147.726 84.2714H151.88V86.5841H147.726V84.2714ZM155.949 84.2714H160.467V86.5841H155.949V84.2714ZM156.12 88.7683H160.232V91.0382H156.12V88.7683ZM155.906 93.3937H160.81V95.7064H155.906V93.3937ZM147.897 88.7683H151.966V91.0382H147.897V88.7683ZM146.57 94.3145C147.79 93.9933 149.482 93.458 151.216 92.9012L151.602 94.9141C150.231 95.4923 148.797 96.0491 147.533 96.5202L146.57 94.3145ZM140.509 91.5307C142.223 91.1453 144.771 90.46 147.191 89.7748L147.533 92.0875C145.328 92.7727 142.972 93.458 141.088 93.9933L140.509 91.5307ZM140.852 84.8282H147.405V87.1837H140.852V84.8282ZM143.122 80.7809H145.477V98.1476C145.477 99.3468 145.263 100.011 144.599 100.396C143.957 100.803 143.036 100.889 141.644 100.889C141.58 100.246 141.28 99.1969 140.981 98.4902C141.751 98.5331 142.501 98.5331 142.758 98.5117C143.015 98.5117 143.122 98.4474 143.122 98.1476V80.7809ZM176.763 82.1728L178.476 80.7595C179.44 81.4233 180.703 82.4298 181.303 83.1365L179.504 84.6783C178.947 83.9502 177.748 82.8795 176.763 82.1728ZM162.587 84.3999H181.86V86.9053H162.587V84.3999ZM163.379 89.3679H172.652V91.8519H163.379V89.3679ZM166.634 90.7812H169.204V98.0406H166.634V90.7812ZM162.566 97.6765C165.157 97.2911 169.354 96.563 173.208 95.8349L173.401 98.1262C169.868 98.8971 166.078 99.6894 163.294 100.268L162.566 97.6765ZM173.101 80.8452H175.864C175.671 89.6463 177.299 98.1905 179.333 98.1905C179.804 98.1905 180.04 97.0127 180.168 94.3145C180.746 94.9141 181.688 95.5351 182.416 95.7921C182.031 99.8822 181.153 100.889 179.119 100.889C174.472 100.889 173.123 90.7598 173.101 80.8452ZM190.318 84.8924H203.424V87.3336H190.318V84.8924ZM191.025 91.0596H202.824V93.5008H191.025V91.0596ZM189.847 97.7408H203.745V100.182H189.847V97.7408ZM195.565 85.6419H198.177V99.304H195.565V85.6419ZM192.866 82.5369L194.558 80.7167C196.143 81.5518 198.348 82.8795 199.441 83.8431L197.599 85.8988C196.635 84.9138 194.473 83.4791 192.866 82.5369ZM188.348 80.8023L190.747 81.5732C189.29 85.2136 186.935 89.0467 184.494 91.4665C184.28 90.8669 183.594 89.4536 183.166 88.8326C185.2 86.9053 187.192 83.8645 188.348 80.8023ZM186.292 86.734L188.712 84.2928L188.734 84.3142V100.803H186.292V86.734ZM219.013 85.6847L221.026 87.7833C217.493 89.1752 212.632 89.9889 208.285 90.4172C208.199 89.7748 207.835 88.7683 207.514 88.1901C211.711 87.6976 216.251 86.8411 219.013 85.6847ZM205.351 92.7513L224.281 90.8669L224.602 93.2438L205.672 95.2353L205.351 92.7513ZM212.803 88.9825H215.608V97.0983C215.608 98.062 215.801 98.2119 217.086 98.2119C217.685 98.2119 220.062 98.2119 220.747 98.2119C221.904 98.2119 222.097 97.7408 222.268 95.2139C222.867 95.685 224.045 96.1133 224.838 96.2846C224.473 99.7537 223.681 100.739 220.962 100.739C220.255 100.739 217.45 100.739 216.807 100.739C213.659 100.739 212.803 99.9036 212.803 97.1198V88.9825ZM213.595 80.7809H216.336V84.6783H213.595V80.7809ZM205.822 82.6439H224.238V87.719H221.476V85.0637H208.434V87.719H205.822V82.6439Z" fill="#074461"/>
<defs>
<linearGradient id="paint0_linear_1970_26235" x1="-19.9574" y1="43.5657" x2="294.177" y2="90.5438" gradientUnits="userSpaceOnUse">
<stop stop-color="#2C585B"/>
<stop offset="0.34" stop-color="#4BB0A0"/>
<stop offset="0.645093" stop-color="#CEDA47"/>
<stop offset="0.913319" stop-color="#EBBC62"/>
</linearGradient>
</defs>
</svg>
