<svg width="284" height="222" viewBox="0 0 284 222" fill="none" xmlns="http://www.w3.org/2000/svg">
<path d="M270.787 221.813H28.9844C22.0714 221.813 16.4673 216.208 16.4673 209.293V45.0696H283.304V209.293C283.304 216.208 277.7 221.813 270.787 221.813Z" fill="#736D9B"/>
<path d="M99.5269 83.9492V73.8083H95.8233V71.6038H105.629V73.8083H101.943V83.9492H99.5269ZM112.86 84.1609C111.613 84.1609 110.508 83.8904 109.544 83.3496C108.592 82.797 107.845 82.0445 107.304 81.0921C106.763 80.128 106.493 79.0287 106.493 77.7941C106.493 76.5361 106.763 75.4309 107.304 74.4785C107.845 73.5144 108.586 72.7619 109.526 72.2211C110.479 71.6802 111.572 71.4098 112.807 71.4098C114.053 71.4098 115.147 71.6861 116.087 72.2387C117.039 72.7796 117.786 73.532 118.327 74.4962C118.868 75.4485 119.138 76.5478 119.138 77.7941C119.138 79.0287 118.868 80.128 118.327 81.0921C117.798 82.0445 117.057 82.797 116.105 83.3496C115.164 83.8904 114.082 84.1609 112.86 84.1609ZM112.86 81.9563C113.612 81.9563 114.271 81.78 114.835 81.4272C115.411 81.0627 115.858 80.5689 116.175 79.9458C116.505 79.3226 116.669 78.6054 116.669 77.7941C116.669 76.9711 116.505 76.248 116.175 75.6249C115.846 75.0017 115.393 74.5138 114.817 74.1611C114.241 73.7966 113.571 73.6143 112.807 73.6143C112.066 73.6143 111.402 73.7966 110.814 74.1611C110.238 74.5138 109.785 75.0017 109.456 75.6249C109.127 76.248 108.962 76.9711 108.962 77.7941C108.962 78.6054 109.127 79.3226 109.456 79.9458C109.785 80.5689 110.244 81.0627 110.832 81.4272C111.419 81.78 112.095 81.9563 112.86 81.9563ZM130.647 83.9492L134.192 71.6038H136.644L132.958 83.9492H130.647ZM123.205 83.9492L119.554 71.6038H122.005L125.515 83.9492H123.205ZM123.522 83.9492L126.891 71.6038H129.078L125.727 83.9492H123.522ZM130.418 83.9492L127.102 71.6038H129.289L132.728 83.9492H130.418ZM138.131 83.9492V71.6038H140.653L146.685 79.8929V71.6038H149.083V83.9492H146.685L140.547 75.5014V83.9492H138.131ZM159.902 83.9492V71.6038H162.318V83.9492H159.902ZM151.772 83.9492V71.5862H154.188V83.9492H151.772ZM153.571 78.7465V76.5243H161.049V78.7465H153.571ZM170.643 84.1609C169.396 84.1609 168.291 83.8904 167.327 83.3496C166.375 82.797 165.628 82.0445 165.087 81.0921C164.546 80.128 164.276 79.0287 164.276 77.7941C164.276 76.5361 164.546 75.4309 165.087 74.4785C165.628 73.5144 166.369 72.7619 167.309 72.2211C168.262 71.6802 169.355 71.4098 170.59 71.4098C171.836 71.4098 172.93 71.6861 173.87 72.2387C174.823 72.7796 175.569 73.532 176.11 74.4962C176.651 75.4485 176.921 76.5478 176.921 77.7941C176.921 79.0287 176.651 80.128 176.11 81.0921C175.581 82.0445 174.84 82.797 173.888 83.3496C172.947 83.8904 171.866 84.1609 170.643 84.1609ZM170.643 81.9563C171.395 81.9563 172.054 81.78 172.618 81.4272C173.194 81.0627 173.641 80.5689 173.958 79.9458C174.288 79.3226 174.452 78.6054 174.452 77.7941C174.452 76.9711 174.288 76.248 173.958 75.6249C173.629 75.0017 173.176 74.5138 172.6 74.1611C172.024 73.7966 171.354 73.6143 170.59 73.6143C169.849 73.6143 169.185 73.7966 168.597 74.1611C168.021 74.5138 167.568 75.0017 167.239 75.6249C166.91 76.248 166.745 76.9711 166.745 77.7941C166.745 78.6054 166.91 79.3226 167.239 79.9458C167.568 80.5689 168.027 81.0627 168.615 81.4272C169.202 81.78 169.878 81.9563 170.643 81.9563ZM178.881 83.9492V71.6038H181.509L185.106 76.93L188.704 71.6038H191.314V83.9492H188.916V75.378L185.106 80.9863L181.297 75.3956V83.9492H178.881ZM194.003 83.9492V71.6038H201.815V73.8083H196.419V76.6125H201.075V78.7641H196.419V81.7447H201.886V83.9492H194.003Z" fill="white"/>
<path d="M54.5066 196.811V184.466H59.092C59.9621 184.466 60.7322 184.636 61.4024 184.977C62.0726 185.318 62.5958 185.788 62.972 186.388C63.3482 186.976 63.5364 187.664 63.5364 188.451C63.5364 189.227 63.3365 189.921 62.9367 190.533C62.5487 191.132 62.0138 191.602 61.3318 191.943C60.6499 192.273 59.8739 192.437 59.0038 192.437H56.9227V196.811H54.5066ZM61.2966 196.811L58.4395 191.855L60.2913 190.533L64.0302 196.811H61.2966ZM56.9227 190.233H59.1097C59.4741 190.233 59.7975 190.156 60.0796 190.003C60.3736 189.851 60.6029 189.639 60.7675 189.369C60.9438 189.098 61.032 188.792 61.032 188.451C61.032 187.922 60.838 187.493 60.45 187.164C60.0738 186.835 59.5858 186.67 58.9862 186.67H56.9227V190.233ZM65.8737 196.811V184.466H73.6866V186.67H68.2899V189.474H72.9459V191.626H68.2899V194.606H73.7572V196.811H65.8737ZM78.8693 196.811V186.67H75.1657V184.466H84.9715V186.67H81.2855V196.811H78.8693ZM93.9754 196.811L89.2489 184.466H91.665L96.5327 196.811H93.9754ZM84.2225 196.811L89.0901 184.466H91.5063L86.7798 196.811H84.2225ZM86.5152 194.095V191.961H94.2576V194.095H86.5152ZM98.0118 196.811V184.466H100.428V196.811H98.0118ZM103.11 196.811V184.466H105.526V194.606H110.958V196.811H103.11ZM119.924 197.04C119.195 197.04 118.548 196.899 117.984 196.617C117.42 196.335 116.979 195.947 116.661 195.453C116.344 194.959 116.185 194.389 116.185 193.742C116.185 193.296 116.267 192.884 116.432 192.508C116.597 192.132 116.826 191.785 117.12 191.467C117.414 191.138 117.743 190.85 118.108 190.603L120.436 188.998C120.624 188.869 120.824 188.722 121.035 188.557C121.259 188.393 121.453 188.199 121.617 187.975C121.794 187.74 121.882 187.476 121.882 187.182C121.882 186.841 121.758 186.576 121.511 186.388C121.264 186.188 120.953 186.088 120.577 186.088C120.224 186.088 119.924 186.188 119.677 186.388C119.442 186.588 119.324 186.847 119.324 187.164C119.324 187.47 119.418 187.74 119.607 187.975C119.795 188.199 120.012 188.463 120.259 188.769L122.605 191.591L126.926 196.811H124.21L120.929 192.896L118.46 189.898C118.143 189.486 117.878 189.127 117.667 188.822C117.467 188.504 117.32 188.216 117.226 187.958C117.132 187.687 117.085 187.417 117.085 187.146C117.085 186.582 117.232 186.082 117.526 185.647C117.831 185.212 118.237 184.871 118.742 184.624C119.26 184.366 119.836 184.236 120.471 184.236C121.164 184.236 121.782 184.366 122.323 184.624C122.863 184.871 123.287 185.218 123.592 185.665C123.91 186.112 124.069 186.635 124.069 187.235C124.069 187.717 123.945 188.163 123.698 188.575C123.451 188.975 123.087 189.38 122.605 189.792C122.134 190.203 121.558 190.644 120.876 191.115L119.624 191.979C119.436 192.108 119.26 192.255 119.095 192.42C118.942 192.584 118.819 192.772 118.725 192.984C118.631 193.184 118.584 193.419 118.584 193.689C118.584 194.089 118.719 194.418 118.989 194.677C119.272 194.936 119.63 195.065 120.065 195.065C120.559 195.065 121.047 194.989 121.529 194.836C122.011 194.683 122.446 194.454 122.834 194.148C123.234 193.842 123.545 193.466 123.769 193.019C123.992 192.572 124.104 192.061 124.104 191.485H126.273C126.273 192.567 126.003 193.531 125.462 194.377C124.921 195.212 124.174 195.865 123.222 196.335C122.27 196.805 121.17 197.04 119.924 197.04ZM136.551 197.023C135.927 197.023 135.345 196.946 134.805 196.793C134.264 196.641 133.782 196.429 133.358 196.158C132.935 195.876 132.582 195.565 132.3 195.224C132.03 194.883 131.853 194.524 131.771 194.148L134.134 193.442C134.287 193.842 134.558 194.189 134.946 194.483C135.334 194.765 135.822 194.912 136.409 194.924C137.033 194.936 137.538 194.8 137.926 194.518C138.326 194.236 138.526 193.872 138.526 193.425C138.526 193.037 138.367 192.714 138.05 192.455C137.744 192.184 137.321 191.979 136.78 191.838L135.175 191.414C134.575 191.261 134.046 191.032 133.588 190.727C133.129 190.409 132.771 190.021 132.512 189.563C132.253 189.104 132.124 188.569 132.124 187.958C132.124 186.794 132.506 185.888 133.27 185.242C134.046 184.583 135.14 184.254 136.551 184.254C137.338 184.254 138.026 184.372 138.614 184.607C139.214 184.83 139.713 185.153 140.113 185.577C140.513 186 140.819 186.5 141.03 187.076L138.685 187.799C138.543 187.399 138.285 187.058 137.909 186.776C137.532 186.494 137.056 186.353 136.48 186.353C135.892 186.353 135.428 186.488 135.087 186.758C134.758 187.029 134.593 187.411 134.593 187.905C134.593 188.293 134.722 188.598 134.981 188.822C135.251 189.045 135.616 189.216 136.074 189.333L137.697 189.739C138.755 189.998 139.578 190.462 140.166 191.132C140.754 191.802 141.048 192.549 141.048 193.372C141.048 194.101 140.871 194.742 140.519 195.294C140.166 195.835 139.655 196.258 138.984 196.564C138.314 196.87 137.503 197.023 136.551 197.023ZM151.249 196.811V184.466H153.665V196.811H151.249ZM143.119 196.811V184.448H145.535V196.811H143.119ZM144.918 191.608V189.386H152.395V191.608H144.918ZM161.99 197.023C160.743 197.023 159.638 196.752 158.674 196.211C157.722 195.659 156.975 194.906 156.434 193.954C155.893 192.99 155.623 191.891 155.623 190.656C155.623 189.398 155.893 188.293 156.434 187.34C156.975 186.376 157.716 185.624 158.656 185.083C159.609 184.542 160.702 184.272 161.937 184.272C163.183 184.272 164.276 184.548 165.217 185.101C166.169 185.641 166.916 186.394 167.457 187.358C167.998 188.31 168.268 189.41 168.268 190.656C168.268 191.891 167.998 192.99 167.457 193.954C166.928 194.906 166.187 195.659 165.235 196.211C164.294 196.752 163.212 197.023 161.99 197.023ZM161.99 194.818C162.742 194.818 163.4 194.642 163.965 194.289C164.541 193.925 164.988 193.431 165.305 192.808C165.634 192.184 165.799 191.467 165.799 190.656C165.799 189.833 165.634 189.11 165.305 188.487C164.976 187.864 164.523 187.376 163.947 187.023C163.371 186.658 162.701 186.476 161.937 186.476C161.196 186.476 160.532 186.658 159.944 187.023C159.368 187.376 158.915 187.864 158.586 188.487C158.257 189.11 158.092 189.833 158.092 190.656C158.092 191.467 158.257 192.184 158.586 192.808C158.915 193.431 159.374 193.925 159.961 194.289C160.549 194.642 161.225 194.818 161.99 194.818ZM170.228 196.811V184.466H174.813C175.683 184.466 176.453 184.642 177.123 184.995C177.794 185.336 178.317 185.818 178.693 186.441C179.069 187.052 179.257 187.764 179.257 188.575C179.257 189.374 179.075 190.086 178.711 190.709C178.346 191.332 177.847 191.826 177.212 192.19C176.577 192.543 175.842 192.719 175.007 192.719H172.644V196.811H170.228ZM172.644 190.497H174.954C175.495 190.497 175.936 190.321 176.277 189.968C176.63 189.604 176.806 189.139 176.806 188.575C176.806 188.011 176.612 187.552 176.224 187.199C175.848 186.847 175.36 186.67 174.76 186.67H172.644V190.497ZM180.466 192.561V190.568H185.757V192.561H180.466ZM193.697 197.023C192.451 197.023 191.346 196.752 190.381 196.211C189.429 195.659 188.682 194.906 188.142 193.954C187.601 192.99 187.33 191.891 187.33 190.656C187.33 189.398 187.601 188.293 188.142 187.34C188.682 186.376 189.423 185.624 190.364 185.083C191.316 184.542 192.41 184.272 193.644 184.272C194.89 184.272 195.984 184.548 196.924 185.101C197.877 185.641 198.623 186.394 199.164 187.358C199.705 188.31 199.976 189.41 199.976 190.656C199.976 191.891 199.705 192.99 199.164 193.954C198.635 194.906 197.894 195.659 196.942 196.211C196.002 196.752 194.92 197.023 193.697 197.023ZM193.697 194.818C194.45 194.818 195.108 194.642 195.672 194.289C196.248 193.925 196.695 193.431 197.013 192.808C197.342 192.184 197.506 191.467 197.506 190.656C197.506 189.833 197.342 189.11 197.013 188.487C196.683 187.864 196.231 187.376 195.655 187.023C195.079 186.658 194.408 186.476 193.644 186.476C192.903 186.476 192.239 186.658 191.651 187.023C191.075 187.376 190.622 187.864 190.293 188.487C189.964 189.11 189.799 189.833 189.799 190.656C189.799 191.467 189.964 192.184 190.293 192.808C190.622 193.431 191.081 193.925 191.669 194.289C192.257 194.642 192.933 194.818 193.697 194.818ZM201.935 196.811V184.466H209.854V186.67H204.351V189.633H208.937V191.838H204.351V196.811H201.935ZM211.701 196.811V184.466H219.619V186.67H214.117V189.633H218.702V191.838H214.117V196.811H211.701ZM221.466 196.811V184.466H223.882V196.811H221.466ZM232.014 197.023C230.814 197.023 229.75 196.752 228.821 196.211C227.893 195.659 227.164 194.906 226.635 193.954C226.105 192.99 225.841 191.885 225.841 190.638C225.841 189.392 226.105 188.293 226.635 187.34C227.164 186.376 227.887 185.624 228.804 185.083C229.733 184.53 230.797 184.254 231.996 184.254C232.842 184.254 233.63 184.407 234.359 184.713C235.088 185.006 235.723 185.424 236.264 185.965C236.817 186.494 237.24 187.105 237.534 187.799L235.294 188.628C235.094 188.193 234.83 187.817 234.5 187.499C234.171 187.17 233.795 186.917 233.372 186.741C232.948 186.553 232.49 186.459 231.996 186.459C231.279 186.459 230.638 186.641 230.074 187.005C229.521 187.358 229.086 187.846 228.769 188.469C228.463 189.092 228.31 189.815 228.31 190.638C228.31 191.461 228.469 192.19 228.786 192.825C229.104 193.448 229.544 193.942 230.109 194.307C230.673 194.659 231.32 194.836 232.049 194.836C232.554 194.836 233.013 194.742 233.424 194.554C233.848 194.354 234.218 194.083 234.536 193.742C234.865 193.401 235.129 193.007 235.329 192.561L237.569 193.372C237.275 194.089 236.852 194.724 236.299 195.277C235.758 195.829 235.123 196.258 234.394 196.564C233.666 196.87 232.872 197.023 232.014 197.023ZM239.343 196.811V184.466H247.156V186.67H241.76V189.474H246.416V191.626H241.76V194.606H247.227V196.811H239.343Z" fill="white"/>
<path d="M99.5269 142.326V132.185H95.8233V129.981H105.629V132.185H101.943V142.326H99.5269ZM112.86 142.538C111.613 142.538 110.508 142.267 109.544 141.727C108.592 141.174 107.845 140.421 107.304 139.469C106.763 138.505 106.493 137.406 106.493 136.171C106.493 134.913 106.763 133.808 107.304 132.855C107.845 131.891 108.586 131.139 109.526 130.598C110.479 130.057 111.572 129.787 112.807 129.787C114.053 129.787 115.147 130.063 116.087 130.616C117.039 131.157 117.786 131.909 118.327 132.873C118.868 133.825 119.138 134.925 119.138 136.171C119.138 137.406 118.868 138.505 118.327 139.469C117.798 140.421 117.057 141.174 116.105 141.727C115.164 142.267 114.082 142.538 112.86 142.538ZM112.86 140.333C113.612 140.333 114.271 140.157 114.835 139.804C115.411 139.44 115.858 138.946 116.175 138.323C116.505 137.7 116.669 136.982 116.669 136.171C116.669 135.348 116.505 134.625 116.175 134.002C115.846 133.379 115.393 132.891 114.817 132.538C114.241 132.174 113.571 131.991 112.807 131.991C112.066 131.991 111.402 132.174 110.814 132.538C110.238 132.891 109.785 133.379 109.456 134.002C109.127 134.625 108.962 135.348 108.962 136.171C108.962 136.982 109.127 137.7 109.456 138.323C109.785 138.946 110.244 139.44 110.832 139.804C111.419 140.157 112.095 140.333 112.86 140.333ZM130.647 142.326L134.192 129.981H136.644L132.958 142.326H130.647ZM123.205 142.326L119.554 129.981H122.005L125.515 142.326H123.205ZM123.522 142.326L126.891 129.981H129.078L125.727 142.326H123.522ZM130.418 142.326L127.102 129.981H129.289L132.728 142.326H130.418ZM138.131 142.326V129.981H140.653L146.685 138.27V129.981H149.083V142.326H146.685L140.547 133.878V142.326H138.131ZM159.902 142.326V129.981H162.318V142.326H159.902ZM151.772 142.326V129.963H154.188V142.326H151.772ZM153.571 137.123V134.901H161.049V137.123H153.571ZM170.643 142.538C169.396 142.538 168.291 142.267 167.327 141.727C166.375 141.174 165.628 140.421 165.087 139.469C164.546 138.505 164.276 137.406 164.276 136.171C164.276 134.913 164.546 133.808 165.087 132.855C165.628 131.891 166.369 131.139 167.309 130.598C168.262 130.057 169.355 129.787 170.59 129.787C171.836 129.787 172.93 130.063 173.87 130.616C174.823 131.157 175.569 131.909 176.11 132.873C176.651 133.825 176.921 134.925 176.921 136.171C176.921 137.406 176.651 138.505 176.11 139.469C175.581 140.421 174.84 141.174 173.888 141.727C172.947 142.267 171.866 142.538 170.643 142.538ZM170.643 140.333C171.395 140.333 172.054 140.157 172.618 139.804C173.194 139.44 173.641 138.946 173.958 138.323C174.288 137.7 174.452 136.982 174.452 136.171C174.452 135.348 174.288 134.625 173.958 134.002C173.629 133.379 173.176 132.891 172.6 132.538C172.024 132.174 171.354 131.991 170.59 131.991C169.849 131.991 169.185 132.174 168.597 132.538C168.021 132.891 167.568 133.379 167.239 134.002C166.91 134.625 166.745 135.348 166.745 136.171C166.745 136.982 166.91 137.7 167.239 138.323C167.568 138.946 168.027 139.44 168.615 139.804C169.202 140.157 169.878 140.333 170.643 140.333ZM178.881 142.326V129.981H181.509L185.106 135.307L188.704 129.981H191.314V142.326H188.916V133.755L185.106 139.363L181.297 133.773V142.326H178.881ZM194.003 142.326V129.981H201.815V132.185H196.419V134.989H201.075V137.141H196.419V140.122H201.886V142.326H194.003Z" fill="white"/>
<path d="M16.203 92.1816C8.14955 92.1816 1.59766 85.6282 1.59766 77.5729C1.59766 69.5175 8.14955 62.9641 16.203 62.9641C24.2568 62.9641 30.8087 69.5175 30.8087 77.5729C30.8087 85.6282 24.2568 92.1816 16.203 92.1816Z" fill="#746D9C"/>
<path d="M12.8028 86.3928L18.5366 74.0872L22.3959 73.5138L16.7282 86.3928H12.8028ZM11.2591 74.2195V70.9557H22.3959V73.5138L18.6028 74.2195H11.2591Z" fill="white"/>
<path d="M16.2042 61.5918C7.39512 61.5918 0.22876 68.7602 0.22876 77.5709C0.22876 86.382 7.39512 93.55 16.2042 93.55C25.0132 93.55 32.1796 86.382 32.1796 77.5709C32.1796 68.7602 25.0132 61.5918 16.2042 61.5918ZM16.2042 64.3325C23.5137 64.3325 29.4395 70.2597 29.4395 77.5709C29.4395 84.8825 23.5137 90.8093 16.2042 90.8093C8.89429 90.8093 2.96885 84.8825 2.96885 77.5709C2.96885 70.2597 8.89429 64.3325 16.2042 64.3325Z" fill="white"/>
<path d="M16.203 150.584C8.14955 150.584 1.59766 144.03 1.59766 135.975C1.59766 127.919 8.14955 121.366 16.203 121.366C24.2568 121.366 30.8087 127.919 30.8087 135.975C30.8087 144.03 24.2568 150.584 16.203 150.584Z" fill="#746D9C"/>
<path d="M16.5525 143.997C15.2587 143.997 14.1708 143.82 13.2886 143.468C12.4065 143.1 11.7376 142.6 11.2818 141.968C10.8407 141.321 10.6202 140.571 10.6202 139.719C10.6202 138.792 10.8407 137.984 11.2818 137.293C11.7376 136.587 12.4065 136.036 13.2886 135.639C14.1708 135.242 15.2587 135.043 16.5525 135.043C17.861 135.043 18.9489 135.242 19.8163 135.639C20.6985 136.036 21.3674 136.587 21.8232 137.293C22.2789 137.984 22.5068 138.792 22.5068 139.719C22.5068 140.571 22.2789 141.321 21.8232 141.968C21.3674 142.6 20.6985 143.1 19.8163 143.468C18.9489 143.82 17.861 143.997 16.5525 143.997ZM16.5525 141.064C17.2288 141.064 17.7801 140.895 18.2065 140.557C18.6475 140.204 18.8681 139.763 18.8681 139.233C18.8681 138.616 18.6475 138.123 18.2065 137.756C17.7801 137.374 17.2288 137.182 16.5525 137.182C16.1114 137.182 15.7145 137.271 15.3616 137.447C15.0235 137.609 14.7515 137.844 14.5457 138.153C14.3545 138.461 14.259 138.822 14.259 139.233C14.259 139.586 14.3545 139.902 14.5457 140.182C14.7515 140.446 15.0235 140.659 15.3616 140.821C15.7145 140.983 16.1114 141.064 16.5525 141.064ZM16.5525 136.3C15.3763 136.3 14.3839 136.131 13.5753 135.793C12.7667 135.44 12.1492 134.962 11.7229 134.36C11.2965 133.742 11.0833 133.029 11.0833 132.22C11.0833 131.397 11.2965 130.669 11.7229 130.037C12.1492 129.405 12.7667 128.913 13.5753 128.56C14.3839 128.207 15.3763 128.03 16.5525 128.03C17.714 128.03 18.699 128.207 19.5076 128.56C20.3309 128.913 20.9558 129.405 21.3821 130.037C21.8232 130.669 22.0437 131.397 22.0437 132.22C22.0437 133.029 21.8232 133.742 21.3821 134.36C20.9558 134.962 20.3309 135.44 19.5076 135.793C18.699 136.131 17.714 136.3 16.5525 136.3ZM16.5525 134.47C17.1406 134.47 17.6257 134.301 18.008 133.963C18.3902 133.61 18.5814 133.169 18.5814 132.639C18.5814 132.11 18.3902 131.684 18.008 131.36C17.6257 131.022 17.1406 130.853 16.5525 130.853C15.9644 130.853 15.4792 131.022 15.097 131.36C14.7294 131.684 14.5457 132.11 14.5457 132.639C14.5457 133.169 14.7294 133.61 15.097 133.963C15.4792 134.301 15.9644 134.47 16.5525 134.47Z" fill="white"/>
<path d="M16.2042 119.993C7.39512 119.993 0.22876 127.162 0.22876 135.972C0.22876 144.783 7.39512 151.951 16.2042 151.951C25.0132 151.951 32.1796 144.783 32.1796 135.972C32.1796 127.162 25.0132 119.993 16.2042 119.993ZM16.2042 122.734C23.5137 122.734 29.4395 128.661 29.4395 135.972C29.4395 143.284 23.5137 149.211 16.2042 149.211C8.89429 149.211 2.96885 143.284 2.96885 135.972C2.96885 128.661 8.89429 122.734 16.2042 122.734Z" fill="white"/>
<path d="M16.203 204.231C8.14955 204.231 1.59766 197.678 1.59766 189.623C1.59766 181.567 8.14955 175.014 16.203 175.014C24.2568 175.014 30.8087 181.567 30.8087 189.623C30.8087 197.678 24.2568 204.231 16.203 204.231Z" fill="#746D9C"/>
<path d="M16.7339 181.758C17.7631 181.758 18.6452 181.942 19.3803 182.309C20.1154 182.662 20.7182 183.162 21.1886 183.809C21.6591 184.456 22.0046 185.213 22.2251 186.08C22.4604 186.933 22.578 187.867 22.578 188.881C22.578 189.999 22.4604 191.086 22.2251 192.145C21.9899 193.189 21.6224 194.137 21.1225 194.99C20.6226 195.828 19.9537 196.497 19.1157 196.997C18.2923 197.482 17.2853 197.724 16.0944 197.724C15.2564 197.724 14.4478 197.607 13.6686 197.372C12.8893 197.136 12.1836 196.798 11.5515 196.357L13.2495 193.755C13.7053 194.064 14.1905 194.284 14.705 194.416C15.2196 194.549 15.6754 194.615 16.0723 194.615C17.0427 194.615 17.8219 194.174 18.41 193.292C19.0127 192.41 19.2994 190.991 19.27 189.036L19.9978 189.455C19.6449 190.204 19.1304 190.822 18.4541 191.307C17.7925 191.777 16.9912 192.013 16.0503 192.013C15.0799 192.013 14.2125 191.777 13.448 191.307C12.6982 190.837 12.1101 190.204 11.6838 189.41C11.2574 188.602 11.0442 187.712 11.0442 186.742C11.0442 185.772 11.2721 184.912 11.7279 184.162C12.1983 183.412 12.8599 182.824 13.7127 182.398C14.5654 181.971 15.5725 181.758 16.7339 181.758ZM16.7119 184.735C16.3002 184.735 15.9327 184.831 15.6092 185.022C15.2858 185.213 15.0285 185.47 14.8374 185.794C14.6609 186.117 14.5727 186.492 14.5727 186.918C14.5727 187.33 14.6609 187.712 14.8374 188.065C15.0285 188.403 15.2858 188.675 15.6092 188.881C15.9327 189.072 16.3002 189.168 16.7119 189.168C17.1235 189.168 17.4911 189.072 17.8145 188.881C18.138 188.675 18.3953 188.403 18.5864 188.065C18.7775 187.712 18.8731 187.33 18.8731 186.918C18.8731 186.492 18.7775 186.117 18.5864 185.794C18.3953 185.47 18.138 185.213 17.8145 185.022C17.4911 184.831 17.1235 184.735 16.7119 184.735Z" fill="white"/>
<path d="M16.2042 173.647C7.39512 173.647 0.22876 180.815 0.22876 189.626C0.22876 198.437 7.39512 205.605 16.2042 205.605C25.0132 205.605 32.1796 198.437 32.1796 189.626C32.1796 180.815 25.0132 173.647 16.2042 173.647ZM16.2042 176.387C23.5137 176.387 29.4395 182.315 29.4395 189.626C29.4395 196.937 23.5137 202.864 16.2042 202.864C8.89429 202.864 2.96885 196.937 2.96885 189.626C2.96885 182.315 8.89429 176.387 16.2042 176.387Z" fill="white"/>
<path d="M283.484 48.7184H16.4673V15.5792C16.4673 7.40535 23.0918 0.779297 31.2638 0.779297H268.687C276.859 0.779297 283.484 7.40535 283.484 15.5792V48.7184Z" fill="#EEEFEF"/>
<path d="M51.2328 31.7991V19.4537H59.1515V21.6582H53.649V24.6211H58.2344V26.8256H53.649V31.7991H51.2328ZM65.8306 32.046C64.8076 32.046 63.92 31.8461 63.1675 31.4463C62.415 31.0466 61.833 30.4881 61.4215 29.7709C61.0217 29.0419 60.8218 28.1836 60.8218 27.196V19.4537H63.238V27.196C63.238 27.7251 63.3438 28.1895 63.5555 28.5893C63.7789 28.9773 64.0846 29.2771 64.4726 29.4887C64.8723 29.7004 65.3367 29.8062 65.8658 29.8062C66.3949 29.8062 66.8535 29.7004 67.2415 29.4887C67.6412 29.2771 67.9469 28.9773 68.1585 28.5893C68.3819 28.1895 68.4936 27.7251 68.4936 27.196V19.4537H70.9098V27.196C70.9098 28.1836 70.6982 29.0419 70.2749 29.7709C69.8634 30.4881 69.2755 31.0466 68.5113 31.4463C67.7588 31.8461 66.8652 32.046 65.8306 32.046ZM75.6817 31.7991V21.6582H71.978V19.4537H81.7838V21.6582H78.0978V31.7991H75.6817ZM88.2032 32.046C87.1803 32.046 86.2926 31.8461 85.5401 31.4463C84.7876 31.0466 84.2056 30.4881 83.7941 29.7709C83.3943 29.0419 83.1945 28.1836 83.1945 27.196V19.4537H85.6106V27.196C85.6106 27.7251 85.7165 28.1895 85.9281 28.5893C86.1515 28.9773 86.4572 29.2771 86.8452 29.4887C87.2449 29.7004 87.7094 29.8062 88.2385 29.8062C88.7675 29.8062 89.2261 29.7004 89.6141 29.4887C90.0138 29.2771 90.3195 28.9773 90.5312 28.5893C90.7546 28.1895 90.8663 27.7251 90.8663 27.196V19.4537H93.2824V27.196C93.2824 28.1836 93.0708 29.0419 92.6475 29.7709C92.236 30.4881 91.6481 31.0466 90.8839 31.4463C90.1314 31.8461 89.2378 32.046 88.2032 32.046ZM95.7886 31.7991V19.4537H100.374C101.244 19.4537 102.014 19.6241 102.684 19.9651C103.355 20.3061 103.878 20.7764 104.254 21.376C104.63 21.9639 104.818 22.6517 104.818 23.4395C104.818 24.2155 104.619 24.9092 104.219 25.5205C103.831 26.1202 103.296 26.5905 102.614 26.9314C101.932 27.2607 101.156 27.4253 100.286 27.4253H98.2048V31.7991H95.7886ZM102.579 31.7991L99.7215 26.8433L101.573 25.5205L105.312 31.7991H102.579ZM98.2048 25.2207H100.392C100.756 25.2207 101.079 25.1443 101.362 24.9915C101.656 24.8386 101.885 24.627 102.049 24.3565C102.226 24.0861 102.314 23.7804 102.314 23.4395C102.314 22.9104 102.12 22.4812 101.732 22.152C101.356 21.8228 100.868 21.6582 100.268 21.6582H98.2048V25.2207ZM107.156 31.7991V19.4537H114.969V21.6582H109.572V24.4624H114.228V26.614H109.572V29.5945H115.039V31.7991H107.156ZM121.744 31.7991V19.4537H125.694C126.952 19.4537 128.063 19.7182 129.027 20.2473C130.003 20.7764 130.762 21.5053 131.302 22.4342C131.855 23.3513 132.131 24.4153 132.131 25.6264C132.131 26.8256 131.855 27.8897 131.302 28.8185C130.762 29.7474 130.003 30.4763 129.027 31.0054C128.063 31.5345 126.952 31.7991 125.694 31.7991H121.744ZM124.16 29.5416H125.694C126.258 29.5416 126.782 29.4417 127.264 29.2418C127.746 29.0419 128.163 28.7656 128.516 28.4129C128.88 28.0602 129.163 27.6487 129.362 27.1784C129.562 26.6963 129.662 26.179 129.662 25.6264C129.662 25.0738 129.562 24.5623 129.362 24.092C129.163 23.6099 128.88 23.1926 128.516 22.8398C128.163 22.4871 127.746 22.2108 127.264 22.0109C126.782 21.811 126.258 21.7111 125.694 21.7111H124.16V29.5416ZM134.092 31.7991V19.4537H141.905V21.6582H136.509V24.4624H141.165V26.614H136.509V29.5945H141.976V31.7991H134.092ZM148.464 31.7991L153.137 19.4537H155.73L150.827 31.7991H148.464ZM148.199 31.7991L143.279 19.4537H145.871L150.562 31.7991H148.199ZM157.206 31.7991V19.4537H165.019V21.6582H159.622V24.4624H164.278V26.614H159.622V29.5945H165.089V31.7991H157.206ZM167.591 31.7991V19.4537H170.007V29.5945H175.439V31.7991H167.591ZM182.466 32.0107C181.22 32.0107 180.115 31.7403 179.151 31.1994C178.198 30.6468 177.452 29.8944 176.911 28.942C176.37 27.9779 176.1 26.8785 176.1 25.644C176.1 24.3859 176.37 23.2807 176.911 22.3284C177.452 21.3643 178.192 20.6118 179.133 20.0709C180.085 19.5301 181.179 19.2597 182.413 19.2597C183.66 19.2597 184.753 19.536 185.694 20.0886C186.646 20.6294 187.393 21.3819 187.933 22.346C188.474 23.2984 188.745 24.3977 188.745 25.644C188.745 26.8785 188.474 27.9779 187.933 28.942C187.404 29.8944 186.664 30.6468 185.711 31.1994C184.771 31.7403 183.689 32.0107 182.466 32.0107ZM182.466 29.8062C183.219 29.8062 183.877 29.6298 184.442 29.2771C185.018 28.9126 185.464 28.4188 185.782 27.7956C186.111 27.1725 186.276 26.4553 186.276 25.644C186.276 24.821 186.111 24.0979 185.782 23.4747C185.453 22.8516 185 22.3636 184.424 22.0109C183.848 21.6464 183.178 21.4642 182.413 21.4642C181.673 21.4642 181.008 21.6464 180.42 22.0109C179.844 22.3636 179.392 22.8516 179.062 23.4747C178.733 24.0979 178.569 24.821 178.569 25.644C178.569 26.4553 178.733 27.1725 179.062 27.7956C179.392 28.4188 179.85 28.9126 180.438 29.2771C181.026 29.6298 181.702 29.8062 182.466 29.8062ZM190.704 31.7991V19.4537H195.29C196.16 19.4537 196.93 19.63 197.6 19.9827C198.27 20.3237 198.794 20.8058 199.17 21.4289C199.546 22.0403 199.734 22.7516 199.734 23.5629C199.734 24.3624 199.552 25.0738 199.187 25.6969C198.823 26.3201 198.323 26.8139 197.688 27.1784C197.053 27.5311 196.319 27.7074 195.484 27.7074H193.121V31.7991H190.704ZM193.121 25.4853H195.431C195.972 25.4853 196.413 25.3089 196.754 24.9562C197.106 24.5917 197.283 24.1273 197.283 23.5629C197.283 22.9986 197.089 22.54 196.701 22.1873C196.324 21.8346 195.836 21.6582 195.237 21.6582H193.121V25.4853ZM201.331 31.7991V19.4537H203.959L207.557 24.7798L211.154 19.4537H213.764V31.7991H211.366V23.2278L207.557 28.8362L203.747 23.2455V31.7991H201.331ZM216.453 31.7991V19.4537H224.266V21.6582H218.869V24.4624H223.525V26.614H218.869V29.5945H224.336V31.7991H216.453ZM226.838 31.7991V19.4537H229.36L235.392 27.7427V19.4537H237.79V31.7991H235.392L229.254 23.3513V31.7991H226.838ZM243.089 31.7991V21.6582H239.385V19.4537H249.191V21.6582H245.505V31.7991H243.089Z" fill="#736D9B"/>
<path d="M16.3804 106.434H283.217" stroke="white" stroke-width="0.719912" stroke-miterlimit="10"/>
<path d="M16.3804 164.1H283.217" stroke="white" stroke-width="0.719912" stroke-miterlimit="10"/>
</svg>
