<svg width="281" height="101" viewBox="0 0 281 101" fill="none" xmlns="http://www.w3.org/2000/svg">
<path d="M270.783 100.779H26.6064C20.9817 100.779 16.4224 96.5715 16.4224 91.3808L16.4224 48.9077H280.967V91.3808C280.967 96.5715 276.407 100.779 270.783 100.779Z" fill="#F57921"/>
<path d="M86.2868 66.8002H101.789V68.705H86.2868V66.8002ZM92.8475 65.4599H95.0344V67.929H92.8475V65.4599ZM86.8688 70.0982H100.431V71.9148H88.8793V81.9851H86.8688V70.0982ZM99.3377 70.0982H101.383V79.7277C101.383 80.7506 101.172 81.3502 100.484 81.6676C99.7786 81.9851 98.7909 82.038 97.3977 82.038C97.3095 81.4736 96.992 80.5389 96.7099 80.0098C97.627 80.0627 98.6499 80.0627 98.9497 80.0451C99.2495 80.0451 99.3377 79.9569 99.3377 79.71V70.0982ZM91.3132 71.6855H93.1826C93.0415 73.8019 92.4419 75.0011 89.6377 75.636C89.479 75.1951 89.0381 74.5073 88.6677 74.1722C90.8546 73.7842 91.225 73.0964 91.3132 71.6855ZM94.5759 71.6855H96.41V73.0259C96.41 73.4139 96.4453 73.4491 96.7628 73.4491C96.9215 73.4491 97.5035 73.4491 97.6799 73.4491C97.962 73.4491 98.0326 73.3257 98.0855 72.4615C98.4206 72.7084 99.1613 72.9553 99.6375 73.0611C99.4611 74.5602 99.0026 74.9658 97.9091 74.9658C97.5917 74.9658 96.7804 74.9658 96.4806 74.9658C94.911 74.9658 94.5759 74.5073 94.5759 73.0611V71.6855ZM90.6077 75.636H92.4771V81.1915H90.6077V75.636ZM91.7717 75.636H97.574V80.2391H91.7717V78.6871H95.6693V77.188H91.7717V75.636ZM89.4437 68.6697L91.5424 68.317C91.8599 68.8813 92.195 69.6397 92.3361 70.1511L90.1492 70.592C90.0433 70.0806 89.7259 69.2693 89.4437 68.6697ZM96.3395 68.2993L98.6851 68.652C98.2619 69.428 97.8915 70.063 97.574 70.5391L95.4753 70.1864C95.7751 69.6397 96.1455 68.846 96.3395 68.2993ZM108.226 75.7066L106.128 76.4473C105.757 74.7542 104.823 71.9324 104.011 69.7631L105.934 69.1988C106.763 71.2622 107.785 74.0311 108.226 75.7066ZM114.999 79.0575H119.567V81.1562H103.8V79.0575H108.35V65.7244H110.519V79.0575H112.829V65.7244H114.999V75.442C115.881 73.7666 116.939 71.2622 117.521 69.2517L119.408 70.1511C118.632 72.3733 117.521 74.86 116.604 76.5531L114.999 75.7418V79.0575ZM130.483 71.4562H137.15V73.3257H130.483V71.4562ZM126.709 79.516H134.998V81.3855H126.709V79.516ZM129.478 69.7984H131.63V76.3415H129.478V69.7984ZM125.598 75.248H136.127V82.0027H133.958V77.1175H127.662V82.0204H125.598V75.248ZM128.755 65.4599H130.96V68.6697H128.755V65.4599ZM123.464 67.5233H137.397V69.5339H123.464V67.5233ZM122.424 67.5233H124.54V71.9853C124.54 74.8424 124.275 79.2162 122.671 81.9851C122.283 81.6324 121.348 81.0151 120.836 80.8035C122.318 78.2638 122.424 74.5426 122.424 71.9853V67.5233ZM143.111 78.5284L144.98 77.5055C145.051 78.0522 145.227 78.8106 145.351 79.2162C142.141 81.1209 141.577 81.5618 141.242 81.9322C141.1 81.4207 140.66 80.5389 140.307 80.1157C140.712 79.8687 141.224 79.322 141.224 78.5637V75.9535H139.072V74.084H141.224V72.3557H140.095V70.786C139.884 71.0329 139.672 71.2622 139.443 71.4739C139.302 71.0506 138.843 70.01 138.543 69.5691C139.584 68.5815 140.501 67.1001 141.03 65.5481L142.741 66.0595C142.6 66.4122 142.458 66.8002 142.3 67.1706H145.069V69.04H141.33C141.012 69.5691 140.695 70.0453 140.342 70.4862H144.822V72.3557H143.111V74.084H145.21V75.9535H143.111V78.5284ZM152.705 73.4668V72.2675H151.047V73.4668H152.705ZM151.047 76.4297H152.705V75.1598H151.047V76.4297ZM147.661 76.4297H149.337V75.1598H147.661V76.4297ZM149.337 72.2675H147.661V73.4668H149.337V72.2675ZM154.927 69.4104H151.153V70.5039H154.557V79.9569C154.557 80.7506 154.469 81.2444 153.975 81.5618C153.516 81.8793 152.917 81.9146 152.123 81.9146C152.053 81.4031 151.841 80.6095 151.612 80.1157C152 80.1333 152.37 80.1333 152.511 80.1333C152.67 80.1333 152.705 80.0804 152.705 79.9217V78.1404H151.047V81.8264H149.337V78.1404H147.661V81.9322H145.898V70.5039H149.248V69.4104H145.545V67.6468H149.248V65.4951H151.153V67.6468H152.917C152.511 67.2411 151.964 66.765 151.524 66.377L152.776 65.4246C153.358 65.8831 154.187 66.571 154.61 66.9942L153.799 67.6468H154.927V69.4104ZM164.438 80.6624C163.709 80.6624 163.063 80.5213 162.498 80.2391C161.934 79.9569 161.493 79.5689 161.176 79.0751C160.858 78.5813 160.699 78.0111 160.699 77.3644C160.699 76.9176 160.782 76.5061 160.946 76.1298C161.111 75.7536 161.34 75.4068 161.634 75.0893C161.928 74.7601 162.257 74.472 162.622 74.2251L164.95 72.6202C165.138 72.4909 165.338 72.3439 165.549 72.1793C165.773 72.0147 165.967 71.8207 166.131 71.5973C166.308 71.3622 166.396 71.0976 166.396 70.8037C166.396 70.4627 166.272 70.1982 166.026 70.01C165.779 69.8102 165.467 69.7102 165.091 69.7102C164.738 69.7102 164.438 69.8102 164.191 70.01C163.956 70.2099 163.839 70.4686 163.839 70.786C163.839 71.0917 163.933 71.3622 164.121 71.5973C164.309 71.8207 164.526 72.0853 164.773 72.3909L167.119 75.2128L171.44 80.4331H168.724L165.444 76.5178L162.974 73.5197C162.657 73.1082 162.392 72.7496 162.181 72.4439C161.981 72.1264 161.834 71.8383 161.74 71.5797C161.646 71.3093 161.599 71.0388 161.599 70.7684C161.599 70.204 161.746 69.7043 162.04 69.2693C162.345 68.8343 162.751 68.4933 163.257 68.2464C163.774 67.9877 164.35 67.8584 164.985 67.8584C165.679 67.8584 166.296 67.9877 166.837 68.2464C167.378 68.4933 167.801 68.8402 168.107 69.287C168.424 69.7337 168.583 70.257 168.583 70.8566C168.583 71.3386 168.459 71.7854 168.212 72.1969C167.966 72.5967 167.601 73.0023 167.119 73.4139C166.649 73.8254 166.073 74.2663 165.391 74.7366L164.138 75.6008C163.95 75.7301 163.774 75.8771 163.609 76.0417C163.457 76.2063 163.333 76.3944 163.239 76.606C163.145 76.8059 163.098 77.0411 163.098 77.3115C163.098 77.7112 163.233 78.0404 163.504 78.2991C163.786 78.5578 164.144 78.6871 164.579 78.6871C165.073 78.6871 165.561 78.6107 166.043 78.4578C166.525 78.305 166.96 78.0757 167.348 77.77C167.748 77.4643 168.06 77.0881 168.283 76.6413C168.506 76.1945 168.618 75.6831 168.618 75.1069H170.787C170.787 76.1886 170.517 77.1528 169.976 77.9993C169.435 78.8341 168.689 79.4866 167.736 79.9569C166.784 80.4272 165.685 80.6624 164.438 80.6624ZM182.634 71.8971L185.174 72.5144C184.01 75.2833 182.44 78.3873 181.135 80.4155L179.178 79.7982C180.447 77.6642 181.876 74.4191 182.634 71.8971ZM177.132 79.1457C180.465 79.0398 185.633 78.7929 190.253 78.5637L190.2 80.6271C185.668 80.9446 180.765 81.2091 177.414 81.3855L177.132 79.1457ZM186.056 75.7948L188.119 74.8424C189.671 76.7471 191.329 79.2515 192.176 80.9446L189.989 82.1086C189.248 80.4155 187.537 77.7347 186.056 75.7948ZM180.765 65.8655L183.181 66.5357C182.052 69.3222 180.201 72.0559 178.402 73.7489C177.943 73.308 176.92 72.532 176.338 72.1793C178.172 70.7331 179.848 68.317 180.765 65.8655ZM187.872 65.8831C188.913 67.9642 190.923 70.4333 192.546 71.9148C191.964 72.3557 191.153 73.2022 190.747 73.7666C189.089 71.9853 187.061 69.1988 185.756 66.7473L187.872 65.8831ZM198.913 72.6202V73.3609H205.015V72.6202H198.913ZM198.913 70.592V71.3151H205.015V70.592H198.913ZM197.026 69.1988H206.972V74.7718H197.026V69.1988ZM195.191 75.4949H208.031V77.2233H197.202V82.0204H195.191V75.4949ZM206.972 75.4949H209.001V80.1333C209.001 80.9975 208.842 81.4384 208.26 81.7206C207.678 81.9675 206.867 81.9851 205.808 81.9851C205.738 81.4736 205.491 80.8035 205.262 80.3449C205.861 80.3802 206.514 80.3802 206.708 80.3626C206.902 80.3626 206.972 80.292 206.972 80.1157V75.4949ZM200.959 69.7279H202.916V78.934L200.959 79.1986V69.7279ZM197.731 78.3697C199.653 78.3344 202.528 78.2638 205.332 78.1933L205.297 79.7806C202.634 79.9393 199.847 80.0627 197.837 80.1333L197.731 78.3697ZM203.639 77.6466L205.068 77.1528C205.667 77.9464 206.338 79.0575 206.602 79.7982L205.103 80.3802C204.874 79.6218 204.239 78.4931 203.639 77.6466ZM200.959 65.4599H203.075V67.8937H200.959V65.4599ZM194.486 66.7473H209.636V70.3451H207.625V68.5462H196.408V70.3451H194.486V66.7473Z" fill="white"/>
<path d="M280.967 47.8702H16.4224V14.8813C16.4224 6.7448 22.9856 0.148438 31.0819 0.148438H266.308C274.404 0.148438 280.967 6.7448 280.967 14.8813V47.8702Z" fill="#EEEFEF"/>
<path d="M115.325 20.4813H119.981V22.3508H115.325V20.4813ZM114.373 17.0599H116.383V30.1637L114.373 30.5164V17.0599ZM113.156 29.7404C114.849 29.4053 117.459 28.7704 119.911 28.1531L120.157 30.146C117.971 30.7809 115.59 31.4335 113.773 31.9273L113.156 29.7404ZM117.512 26.9186L119.223 26.0897C120.316 27.6064 121.498 29.5993 121.921 30.9573L120.069 31.9097C119.681 30.5517 118.57 28.4706 117.512 26.9186ZM115.307 17.0599H121.251V25.737H115.307V23.7793H119.293V19.0175H115.307V17.0599ZM126.895 17.0246H129.081V27.7299C129.081 28.7528 128.923 29.423 128.27 29.8109C127.635 30.2166 126.806 30.2695 125.642 30.2695C125.589 29.6169 125.254 28.5588 124.919 27.9415C125.607 27.9944 126.348 27.9768 126.595 27.9768C126.824 27.9768 126.895 27.9062 126.895 27.677V17.0246ZM122.221 17.0246H128.023V19.1586H124.39V32.7386H122.221V17.0246ZM136.383 24.5553H147.37V26.4953H136.383V24.5553ZM142.979 23.4266H145.06V30.4459C145.06 31.504 144.866 32.086 144.143 32.4035C143.42 32.7209 142.414 32.7562 141.039 32.7562C140.951 32.1566 140.668 31.2748 140.386 30.6751C141.286 30.728 142.309 30.728 142.608 30.728C142.891 30.7104 142.979 30.6575 142.979 30.4106V23.4266ZM145.06 16.1781L146.471 17.8183C143.772 18.5766 140.051 19.0704 136.859 19.2997C136.806 18.8235 136.542 18.0652 136.312 17.6243C139.434 17.3421 142.908 16.8306 145.06 16.1781ZM136.647 20.2873L138.323 19.6701C138.905 20.6401 139.504 21.9275 139.698 22.7917L137.9 23.4971C137.723 22.6506 137.194 21.2926 136.647 20.2873ZM140.016 19.5466L141.832 19.0881C142.256 20.0757 142.644 21.3455 142.732 22.1744L140.792 22.7035C140.739 21.8746 140.404 20.5695 140.016 19.5466ZM137.459 27.5182L139.187 26.6188C139.998 27.5006 140.951 28.7704 141.356 29.6169L139.522 30.6399C139.169 29.7757 138.27 28.453 137.459 27.5182ZM133.773 16.1957H135.818V32.7562H133.773V16.1957ZM130.598 27.5006C131.515 27.042 132.891 26.1955 134.231 25.3666L134.919 27.1126C133.808 28.012 132.626 28.9291 131.568 29.7228L130.598 27.5006ZM130.739 19.0704L132.468 18.3297C133.138 19.529 133.826 21.1162 134.072 22.1392L132.221 23.021C132.009 21.9628 131.356 20.3402 130.739 19.0704ZM145.13 18.8941L147.088 19.8112C146.153 21.3279 144.989 22.9681 144.055 24.0615L142.397 23.1973C143.296 22.0686 144.478 20.2873 145.13 18.8941ZM156.259 22.9328H164.178V24.7141H156.259V22.9328ZM156.259 26.4071H164.178V28.1884H156.259V26.4071ZM156.03 29.952H164.971V31.8744H156.03V29.952ZM159.469 20.4461H161.426V30.5164H159.469V20.4461ZM160.58 16.231L162.82 16.6895C162.202 18.2239 161.444 19.8817 160.862 20.9399L159.046 20.4813C159.628 19.335 160.262 17.5537 160.58 16.231ZM156.541 16.1604L158.569 16.6719C157.723 19.5643 156.294 22.4742 154.601 24.2908C154.337 23.8499 153.666 22.8799 153.261 22.4213C154.725 20.9575 155.889 18.5943 156.541 16.1604ZM157.405 19.4232H164.636V21.275H157.405V32.7386H155.377V20.4637L156.418 19.4232H157.405ZM148.27 25.2079C149.751 24.9081 151.956 24.3613 154.054 23.8322L154.301 25.7017C152.379 26.266 150.333 26.8304 148.711 27.2713L148.27 25.2079ZM148.622 19.5466H154.072V21.4866H148.622V19.5466ZM150.704 16.2134H152.732V30.3753C152.732 31.4159 152.555 31.9802 151.973 32.3153C151.391 32.668 150.545 32.7386 149.346 32.7386C149.275 32.1742 149.01 31.2571 148.746 30.6751C149.434 30.7104 150.157 30.7104 150.386 30.7104C150.615 30.7104 150.704 30.6222 150.704 30.3753V16.2134ZM168.357 29.6522H180.421V31.7333H168.357V29.6522ZM173.155 16.3721H175.359V30.922H173.155V16.3721ZM167.317 25.2431H169.469V32.7562H167.317V25.2431ZM179.292 25.2431H181.497V32.7386H179.292V25.2431ZM168.022 17.8535H170.139V22.245H178.551V17.8535H180.791V24.2908H168.022V17.8535Z" fill="#F57921"/>
<path d="M16.4134 88.563C8.44748 88.563 1.9668 82.0672 1.9668 74.0827C1.9668 66.0981 8.44748 59.6023 16.4134 59.6023C24.3797 59.6023 30.8604 66.0981 30.8604 74.0827C30.8604 82.0672 24.3797 88.563 16.4134 88.563Z" fill="#F57921"/>
<path d="M16.416 58.2458C7.70272 58.2458 0.614258 65.3512 0.614258 74.0845C0.614258 82.8182 7.70272 89.9232 16.416 89.9232C25.1293 89.9232 32.2178 82.8182 32.2178 74.0845C32.2178 65.3512 25.1293 58.2458 16.416 58.2458ZM16.416 60.9625C23.6461 60.9625 29.5075 66.8376 29.5075 74.0845C29.5075 81.3319 23.6461 87.2066 16.416 87.2066C9.1856 87.2066 3.32456 81.3319 3.32456 74.0845C3.32456 66.8376 9.1856 60.9625 16.416 60.9625Z" fill="white"/>
<path d="M16.32 81.978C15.2909 81.978 14.4088 81.7942 13.6737 81.4267C12.9385 81.0591 12.3358 80.5519 11.8653 79.905C11.3948 79.2581 11.042 78.5083 10.8068 77.6556C10.5862 76.7882 10.476 75.8546 10.476 74.8549C10.476 73.7375 10.5862 72.6496 10.8068 71.591C11.042 70.5325 11.4095 69.5842 11.9094 68.7462C12.424 67.9082 13.0929 67.2466 13.9162 66.7614C14.7543 66.2615 15.7687 66.0116 16.9596 66.0116C17.7976 66.0116 18.6062 66.1292 19.3854 66.3644C20.1646 66.5997 20.8703 66.9378 21.5025 67.3789L19.7824 69.9811C19.3266 69.6724 18.8414 69.4519 18.3268 69.3196C17.8123 69.1725 17.3565 69.099 16.9596 69.099C15.9892 69.099 15.21 69.5474 14.6219 70.4443C14.0339 71.3264 13.7472 72.7451 13.7619 74.7005L13.0562 74.2815C13.3943 73.517 13.9015 72.8995 14.5778 72.429C15.2541 71.9586 16.0554 71.7233 16.9816 71.7233C17.9666 71.7233 18.8341 71.9586 19.5839 72.429C20.3337 72.8995 20.9218 73.5317 21.3481 74.3256C21.7745 75.1195 21.9877 76.009 21.9877 76.994C21.9877 77.9497 21.7524 78.8024 21.282 79.5522C20.8262 80.302 20.172 80.8974 19.3192 81.3385C18.4812 81.7648 17.4815 81.978 16.32 81.978ZM16.3421 79.0009C16.739 79.0009 17.0992 78.9053 17.4227 78.7142C17.7461 78.523 17.9961 78.2657 18.1725 77.9423C18.3636 77.6042 18.4592 77.2293 18.4592 76.8176C18.4592 76.3912 18.3636 76.009 18.1725 75.6708C17.9961 75.3327 17.7461 75.0681 17.4227 74.8769C17.0992 74.6711 16.739 74.5682 16.3421 74.5682C15.9304 74.5682 15.5555 74.6711 15.2174 74.8769C14.8939 75.0681 14.6366 75.3327 14.4455 75.6708C14.2544 76.009 14.1588 76.3912 14.1588 76.8176C14.1588 77.2293 14.2544 77.6042 14.4455 77.9423C14.6366 78.2657 14.8939 78.523 15.2174 78.7142C15.5555 78.9053 15.9304 79.0009 16.3421 79.0009Z" fill="white"/>
</svg>
