<svg width="281" height="101" viewBox="0 0 281 101" fill="none" xmlns="http://www.w3.org/2000/svg">
<path d="M270.783 100.779H26.6064C20.9817 100.779 16.4224 96.5715 16.4224 91.3808L16.4224 48.9077H280.967V91.3808C280.967 96.5715 276.407 100.779 270.783 100.779Z" fill="#F57921"/>
<path d="M83.4482 72.0859H87.2223C87.5751 71.4157 87.9454 70.6044 88.1571 69.9519H83.8362C84.136 70.5162 84.5063 71.204 84.7003 71.645L83.4482 72.0859ZM91.0494 75.8777V73.7789H88.21C89.1447 74.4491 90.3087 75.278 91.0494 75.8777ZM83.2189 76.4949H88.9331C88.2276 75.8953 87.3458 75.2604 86.6756 74.7313L87.6103 73.7789H84.1536L85.5469 74.4668C84.9296 75.1369 84.0654 75.86 83.2189 76.4949ZM87.628 79.352V77.9411H84.2065V79.352H87.628ZM93.8007 68.1882V69.9519H88.6156L90.4321 70.3222C90.0794 70.9395 89.6914 71.5568 89.3387 72.0859H92.9894V81.0098C92.9894 81.9446 92.7601 82.3502 92.1076 82.5971C91.4727 82.844 90.5203 82.8616 89.1094 82.8616C89.0212 82.4031 88.7743 81.7506 88.5274 81.3273C89.3916 81.3626 90.3969 81.3626 90.6614 81.3449C90.9436 81.3449 91.0494 81.2567 91.0494 80.9922V76.2833L90.0089 77.4297C89.8149 77.2533 89.5856 77.024 89.3034 76.7948V80.7806H84.2065V81.5213H82.4605V77.0417C82.2313 77.2004 82.002 77.3415 81.7904 77.4649C81.6845 77.1475 81.2613 76.1598 81.0144 75.7542C82.0196 75.2428 83.3071 74.4844 84.1007 73.7789H80.9614V82.9146H78.9509V72.0859H82.5664C82.3547 71.5568 82.0196 70.869 81.7551 70.3222L82.9367 69.9519H78.122V68.1882H85.1413C84.9825 67.7473 84.7885 67.3064 84.6122 66.9184L86.7285 66.407C87.0107 66.9537 87.3105 67.6239 87.5398 68.1882H93.8007ZM104.128 76.7066L102.029 77.4473C101.659 75.7542 100.724 72.9324 99.9128 70.7631L101.835 70.1988C102.664 72.2622 103.687 75.0311 104.128 76.7066ZM110.9 80.0575H115.468V82.1562H99.7011V80.0575H104.251V66.7244H106.421V80.0575H108.731V66.7244H110.9V76.442C111.782 74.7666 112.84 72.2622 113.422 70.2517L115.309 71.1511C114.533 73.3733 113.422 75.86 112.505 77.5531L110.9 76.7418V80.0575ZM133.802 80.2162V78.0646H127.612V80.2162H133.802ZM131.386 70.9924V72.6326H136.783V74.5197H131.386V76.1422H135.954V82.7558H133.802V82.068H127.612V82.7558H125.548V76.1422H129.217V70.9924H131.386ZM131.368 68.4704H137.206V70.4633H124.561V72.9324C124.561 75.7895 124.296 80.1986 122.656 82.9675C122.25 82.6147 121.316 81.9622 120.804 81.7506C122.286 79.2109 122.409 75.4897 122.409 72.9148V68.4704H129.005C128.846 67.9413 128.617 67.3946 128.388 66.9361L130.486 66.4951C130.857 67.0948 131.174 67.8355 131.368 68.4704ZM147.004 79.5284L148.873 78.5055C148.944 79.0522 149.12 79.8106 149.244 80.2162C146.034 82.1209 145.47 82.5618 145.134 82.9322C144.993 82.4207 144.552 81.5389 144.2 81.1157C144.605 80.8687 145.117 80.322 145.117 79.5637V76.9535H142.965V75.084H145.117V73.3557H143.988V71.786C143.776 72.0329 143.565 72.2622 143.336 72.4739C143.194 72.0506 142.736 71.01 142.436 70.5691C143.477 69.5815 144.394 68.1001 144.923 66.5481L146.634 67.0595C146.492 67.4122 146.351 67.8002 146.193 68.1706H148.962V70.04H145.223C144.905 70.5691 144.588 71.0453 144.235 71.4862H148.715V73.3557H147.004V75.084H149.103V76.9535H147.004V79.5284ZM156.598 74.4668V73.2675H154.94V74.4668H156.598ZM154.94 77.4297H156.598V76.1598H154.94V77.4297ZM151.554 77.4297H153.23V76.1598H151.554V77.4297ZM153.23 73.2675H151.554V74.4668H153.23V73.2675ZM158.82 70.4104H155.046V71.5039H158.45V80.9569C158.45 81.7506 158.362 82.2444 157.868 82.5618C157.409 82.8793 156.81 82.9146 156.016 82.9146C155.946 82.4031 155.734 81.6095 155.505 81.1157C155.893 81.1333 156.263 81.1333 156.404 81.1333C156.563 81.1333 156.598 81.0804 156.598 80.9217V79.1404H154.94V82.8264H153.23V79.1404H151.554V82.9322H149.79V71.5039H153.141V70.4104H149.438V68.6468H153.141V66.4951H155.046V68.6468H156.81C156.404 68.2411 155.857 67.765 155.416 67.377L156.669 66.4246C157.251 66.8831 158.08 67.571 158.503 67.9942L157.692 68.6468H158.82V70.4104ZM167.948 71.451C167.948 71.9977 168.125 72.5797 168.424 73.1969C169.447 72.5797 170.241 71.9448 170.241 70.9924C170.241 70.3399 169.941 69.8637 169.271 69.8637C168.495 69.8637 167.948 70.481 167.948 71.451ZM168.442 81.68C165.708 81.68 164.174 80.0046 164.174 77.9764C164.174 76.1598 165.32 75.1017 166.625 74.2728C166.096 73.2851 165.797 72.3151 165.797 71.451C165.797 69.6344 167.137 68.1353 169.218 68.1353C171.087 68.1353 172.251 69.264 172.251 70.9748C172.251 72.7031 170.841 73.7789 169.447 74.7489C170.223 75.7189 171.229 76.6713 172.269 77.4649C172.957 76.5478 173.521 75.4368 173.874 74.1493H176.22C175.743 75.7718 175.038 77.2709 174.015 78.6289C174.862 79.1051 175.655 79.4402 176.343 79.5637L175.708 81.68C174.668 81.4507 173.539 80.9922 172.445 80.3044C171.37 81.1509 170.047 81.68 168.442 81.68ZM166.643 77.8177C166.643 78.9287 167.507 79.6871 168.759 79.6871C169.412 79.6871 170.047 79.4402 170.664 79.0346C169.553 78.1175 168.548 77.0769 167.719 75.9835C167.084 76.5302 166.643 77.1122 166.643 77.8177ZM190.766 67.6062L192.847 66.7597C193.906 68.9466 196.022 71.5215 197.768 73.0559C197.204 73.4615 196.428 74.2904 196.004 74.8548C194.241 73.0382 192.107 70.1811 190.766 67.6062ZM185.934 66.8831L188.227 67.5357C187.08 70.3928 185.211 73.144 183.359 74.8548C182.918 74.4668 181.948 73.7084 181.384 73.3557C183.289 71.8919 184.982 69.4228 185.934 66.8831ZM191.172 76.6713L193.165 75.7542C194.629 77.6942 196.304 80.1986 197.151 81.8387L195.052 82.9675C194.787 82.3855 194.399 81.6977 193.959 80.9569C185.423 81.68 184.223 81.7506 183.359 82.068C183.253 81.6447 182.848 80.4807 182.548 79.8635C183.13 79.7047 183.553 79.2638 184.206 78.4702C184.946 77.7118 187.08 74.6784 188.385 71.7155L190.731 72.7208C189.444 75.1546 187.786 77.5178 186.163 79.4226L192.742 78.9817C192.213 78.188 191.666 77.3768 191.172 76.6713ZM207.425 74.3609H210.07V73.6379H207.425V74.3609ZM207.425 71.6097V72.3328H210.07V71.6097H207.425ZM214.762 72.3328V71.6097H212.01V72.3328H214.762ZM214.762 74.3609V73.6379H212.01V74.3609H214.762ZM214.056 78.188H212.01V79.2109L213.192 79.1757C213.086 78.9817 212.963 78.77 212.839 78.6113L214.056 78.188ZM216.719 75.7366H212.01V76.4773H218.06V81.098C218.06 81.9622 217.901 82.3855 217.319 82.65C216.755 82.9146 215.943 82.9322 214.903 82.9322C214.815 82.4031 214.585 81.7682 214.356 81.3097C214.956 81.3449 215.591 81.3449 215.785 81.3097C215.979 81.3097 216.049 81.2567 216.049 81.0804V78.188H214.303C214.85 78.9817 215.397 80.0398 215.643 80.7453L214.144 81.3097C214.109 81.1333 214.039 80.9569 213.95 80.7453C211.446 80.904 208.854 81.0098 206.984 81.0804L206.861 79.3344C207.742 79.3167 208.871 79.2991 210.07 79.2638V78.188H206.332V82.9675H204.339V76.4773H210.07V75.7366H205.556V70.234H216.702V69.5639H205.538V71.1159H203.633V67.7826H210.123C210 67.4299 209.841 67.0771 209.682 66.7773L211.781 66.3188C212.028 66.7773 212.275 67.3064 212.469 67.7826H218.695V71.1159H216.719V75.7366Z" fill="white"/>
<path d="M280.967 47.8702H16.4224V14.8813C16.4224 6.7448 22.9856 0.148438 31.0819 0.148438H266.308C274.404 0.148438 280.967 6.7448 280.967 14.8813V47.8702Z" fill="#EEEFEF"/>
<path d="M116.611 19.9823H113.436V21.4813H116.611V19.9823ZM113.436 24.9557H116.611V23.3508H113.436V24.9557ZM114.953 28.1479L116.769 27.266C117.651 28.7122 118.727 30.6346 119.203 31.8691L117.246 32.9097C117.105 32.4688 116.893 31.9397 116.628 31.3929C112.484 32.698 111.778 32.9802 111.285 33.3153C111.161 32.7157 110.808 31.6928 110.473 31.1813C110.861 30.9873 111.285 30.6346 111.285 29.9468V18.1128H118.709V26.8251H113.436V30.2995L115.782 29.6293C115.5 29.1179 115.217 28.6064 114.953 28.1479ZM126.011 18.2363V28.3771C126.011 29.3295 125.852 29.8762 125.253 30.229C124.688 30.564 123.877 30.5817 122.748 30.5817C122.678 30.0173 122.431 29.1531 122.166 28.6064C122.801 28.6417 123.454 28.6417 123.648 28.624C123.859 28.624 123.947 28.5535 123.947 28.3242V20.1586H121.813V33.7033H119.697V18.2363H126.011ZM132.914 21.4813V17.2486H134.942V33.6857H132.914V28.1126C132.208 28.7122 131.52 29.3119 130.868 29.8233L129.845 28.0068C130.621 27.4777 131.767 26.6135 132.914 25.6964V22.857L131.997 23.6153C131.573 22.857 130.603 21.6401 129.81 20.7759L131.256 19.6295C131.785 20.1763 132.42 20.8641 132.914 21.4813ZM146.176 25.7493V27.6717H144.272V31.4635C144.272 32.4688 144.078 33.0155 143.354 33.3153C142.649 33.6328 141.626 33.6504 140.268 33.6504C140.198 33.086 139.898 32.2571 139.616 31.6928C140.533 31.728 141.52 31.728 141.82 31.728C142.102 31.728 142.19 31.6575 142.19 31.4282V27.6717H138.205C138.998 28.5535 139.933 29.788 140.339 30.6346L138.504 31.6399C138.152 30.7757 137.27 29.4706 136.459 28.5182L138.099 27.6717H135.506V25.7493H136.459C136.229 25.2555 135.824 24.5677 135.471 24.1797C136.758 23.9328 138.028 23.5624 139.192 23.0686C138.857 22.6277 138.381 22.1162 137.94 21.7459L139.492 20.8641C139.968 21.2344 140.515 21.7459 140.868 22.2221C141.767 21.6577 142.543 21.0228 143.16 20.2644H139.598C138.681 20.9875 137.693 21.6048 136.706 22.081C136.388 21.6753 135.718 21.0404 135.312 20.7053C137.235 19.947 138.981 18.5537 139.915 17.231L142.085 17.7777C141.873 18.0599 141.644 18.3421 141.379 18.6066H144.395L144.748 18.5361L146.123 19.2415C144.448 22.8922 140.832 24.797 136.794 25.7493H142.19V24.0386H144.272V25.7493H146.176ZM158.582 29.0473V30.7051H160.733V29.0473H158.582ZM160.733 23.7564V22.1868H158.582V23.7564H160.733ZM160.733 27.1955V25.6082H158.582V27.1955H160.733ZM165.901 30.7051V32.6275H158.582V33.7209H156.571V24.2502C156.201 24.7441 155.83 25.2202 155.442 25.6435C155.337 25.5201 155.196 25.3613 155.054 25.185L155.248 26.5782C154.702 26.7546 154.12 26.931 153.538 27.0897V31.3048C153.538 32.31 153.361 32.8568 152.797 33.2095C152.25 33.5622 151.474 33.6328 150.328 33.6328C150.275 33.0684 150.028 32.1866 149.764 31.5869C150.381 31.6046 150.998 31.6046 151.21 31.5869C151.421 31.5869 151.51 31.534 151.51 31.2871V27.6893L149.816 28.1479L149.34 26.155C149.958 26.0139 150.698 25.8375 151.51 25.6259V22.4161H149.552V20.4937H151.51V17.2486H153.538V20.4937H155.284V22.4161H153.538V25.0791L154.684 24.7793C154.42 24.5148 154.155 24.2502 153.943 24.0739C155.548 22.4866 156.977 19.9293 157.77 17.3368L159.746 17.8659C159.464 18.6772 159.146 19.4708 158.811 20.2644H161.21C160.98 19.5943 160.592 18.7653 160.204 18.0952L162.021 17.3897C162.497 18.1128 162.991 19.1357 163.22 19.8059L162.162 20.2644H165.513V22.1868H162.691V23.7564H165.319V25.6082H162.691V27.1955H165.301V29.0473H162.691V30.7051H165.901ZM182.204 26.0315H184.567V33.6857H182.204V32.7333H170.088V26.0491H172.451V30.6522H176.155V25.1144H171.022V18.7124H173.245V23.0862H176.155V17.231H178.483V23.0862H181.516V18.7124H183.844V25.1144H178.483V30.6522H182.204V26.0315Z" fill="#F57921"/>
<path d="M16.4134 88.563C8.44748 88.563 1.9668 82.0672 1.9668 74.0827C1.9668 66.0981 8.44748 59.6023 16.4134 59.6023C24.3797 59.6023 30.8604 66.0981 30.8604 74.0827C30.8604 82.0672 24.3797 88.563 16.4134 88.563Z" fill="#F57921"/>
<path d="M16.416 58.2458C7.70272 58.2458 0.614258 65.3512 0.614258 74.0845C0.614258 82.8182 7.70272 89.9232 16.416 89.9232C25.1293 89.9232 32.2178 82.8182 32.2178 74.0845C32.2178 65.3512 25.1293 58.2458 16.416 58.2458ZM16.416 60.9625C23.6461 60.9625 29.5075 66.8376 29.5075 74.0845C29.5075 81.3319 23.6461 87.2066 16.416 87.2066C9.1856 87.2066 3.32456 81.3319 3.32456 74.0845C3.32456 66.8376 9.1856 60.9625 16.416 60.9625Z" fill="white"/>
<path d="M16.32 81.978C15.2909 81.978 14.4088 81.7942 13.6737 81.4267C12.9385 81.0591 12.3358 80.5519 11.8653 79.905C11.3948 79.2581 11.042 78.5083 10.8068 77.6556C10.5862 76.7882 10.476 75.8546 10.476 74.8549C10.476 73.7375 10.5862 72.6496 10.8068 71.591C11.042 70.5325 11.4095 69.5842 11.9094 68.7462C12.424 67.9082 13.0929 67.2466 13.9162 66.7614C14.7543 66.2615 15.7687 66.0116 16.9596 66.0116C17.7976 66.0116 18.6062 66.1292 19.3854 66.3644C20.1646 66.5997 20.8703 66.9378 21.5025 67.3789L19.7824 69.9811C19.3266 69.6724 18.8414 69.4519 18.3268 69.3196C17.8123 69.1725 17.3565 69.099 16.9596 69.099C15.9892 69.099 15.21 69.5474 14.6219 70.4443C14.0339 71.3264 13.7472 72.7451 13.7619 74.7005L13.0562 74.2815C13.3943 73.517 13.9015 72.8995 14.5778 72.429C15.2541 71.9586 16.0554 71.7233 16.9816 71.7233C17.9666 71.7233 18.8341 71.9586 19.5839 72.429C20.3337 72.8995 20.9218 73.5317 21.3481 74.3256C21.7745 75.1195 21.9877 76.009 21.9877 76.994C21.9877 77.9497 21.7524 78.8024 21.282 79.5522C20.8262 80.302 20.172 80.8974 19.3192 81.3385C18.4812 81.7648 17.4815 81.978 16.32 81.978ZM16.3421 79.0009C16.739 79.0009 17.0992 78.9053 17.4227 78.7142C17.7461 78.523 17.9961 78.2657 18.1725 77.9423C18.3636 77.6042 18.4592 77.2293 18.4592 76.8176C18.4592 76.3912 18.3636 76.009 18.1725 75.6708C17.9961 75.3327 17.7461 75.0681 17.4227 74.8769C17.0992 74.6711 16.739 74.5682 16.3421 74.5682C15.9304 74.5682 15.5555 74.6711 15.2174 74.8769C14.8939 75.0681 14.6366 75.3327 14.4455 75.6708C14.2544 76.009 14.1588 76.3912 14.1588 76.8176C14.1588 77.2293 14.2544 77.6042 14.4455 77.9423C14.6366 78.2657 14.8939 78.523 15.2174 78.7142C15.5555 78.9053 15.9304 79.0009 16.3421 79.0009Z" fill="white"/>
</svg>
