<svg width="304" height="116" viewBox="0 0 304 116" fill="none" xmlns="http://www.w3.org/2000/svg">
<path d="M292.265 115.148H11.7016C5.23882 115.148 0 109.342 0 102.179L8.23016e-05 43.5657H303.967V102.179C303.967 109.342 298.728 115.148 292.265 115.148Z" fill="url(#paint0_linear_1970_26235)"/>
<path d="M303.967 42.3219H0V13.6359C0 6.56067 7.54123 0.824707 16.8441 0.824707H287.123C296.426 0.824707 303.967 6.56067 303.967 13.6359V42.3219Z" fill="#2D565A"/>
<path d="M115.611 22.206H119.733V17.814H115.611V21.684V22.206ZM125.673 22.206V24.258H121.983V31.584H119.733V24.258H115.485C115.161 26.94 114.153 29.676 111.021 31.638C110.661 31.152 109.833 30.396 109.293 30.036C111.921 28.452 112.893 26.382 113.235 24.258H109.347V22.206H113.415V21.666V17.814H109.941V15.798H125.133V17.814H121.983V22.206H125.673ZM136.505 20.28H135.317C135.083 21.54 134.795 22.764 134.525 23.844C134.903 24.15 135.281 24.474 135.641 24.798C136.055 23.466 136.343 21.972 136.505 20.28ZM137.333 18.282L138.557 18.444C138.395 21.648 137.981 24.204 137.261 26.256C137.891 26.904 138.467 27.516 138.845 28.056L137.567 29.838C137.279 29.37 136.847 28.83 136.343 28.272C135.569 29.676 134.561 30.72 133.301 31.548C133.031 31.026 132.473 30.252 132.041 29.856C133.229 29.208 134.147 28.146 134.867 26.76C134.039 25.95 133.175 25.176 132.365 24.528C132.707 23.376 133.067 21.882 133.373 20.28H132.185V18.318H133.715C133.895 17.13 134.039 15.942 134.129 14.862L136.145 14.988C136.019 16.032 135.857 17.184 135.659 18.318H136.973L137.333 18.282ZM149.141 22.368L147.305 23.358C147.197 22.998 147.017 22.584 146.837 22.152C140.825 22.674 139.943 22.764 139.259 23.034C139.133 22.62 138.809 21.594 138.575 21.036C138.971 20.928 139.277 20.568 139.709 19.92C140.141 19.308 141.419 17.004 142.175 14.772L144.407 15.366C143.633 17.202 142.607 19.074 141.617 20.586L145.865 20.298C145.433 19.524 144.947 18.786 144.479 18.138L146.189 17.292C147.413 18.858 148.637 20.928 149.141 22.368ZM145.901 25.914H141.491V28.956H145.901V25.914ZM139.547 31.566V24.042H147.935V31.548H145.901V30.846H141.491V31.566H139.547ZM170.305 17.292L168.577 18.408C168.127 17.742 167.191 16.626 166.489 15.816L168.145 14.826C168.847 15.582 169.819 16.626 170.305 17.292ZM167.299 24.15H162.871C163.483 25.14 164.239 26.022 165.139 26.778C166.021 26.022 166.741 25.14 167.299 24.15ZM168.847 21.99L170.341 22.692C169.621 24.924 168.469 26.67 166.993 28.02C168.415 28.776 170.089 29.334 172.051 29.658C171.583 30.126 171.007 31.008 170.719 31.602C168.523 31.152 166.705 30.414 165.175 29.406C163.627 30.396 161.845 31.098 159.901 31.602C159.667 31.026 159.181 30.198 158.785 29.712C160.477 29.352 162.043 28.776 163.429 27.984C162.673 27.264 162.043 26.454 161.485 25.536C160.261 27.426 158.623 28.974 156.445 30.198C156.157 29.73 155.401 28.848 154.879 28.47C158.065 26.76 159.991 24.078 161.161 20.604H158.821C157.849 20.604 157.093 20.748 156.931 21.018C156.805 20.568 156.463 19.596 156.229 19.074C156.499 18.984 156.769 18.732 157.003 18.336C157.237 17.958 157.903 16.554 158.245 15.15L160.513 15.51C160.207 16.536 159.739 17.634 159.253 18.552H161.737C162.025 17.328 162.259 16.014 162.421 14.628L164.815 15.024C164.653 16.248 164.455 17.436 164.221 18.552H171.439V20.604H163.699C163.537 21.126 163.375 21.594 163.195 22.08H168.451L168.847 21.99ZM190.713 27.516H182.523V29.208H190.713V27.516ZM180.381 31.62V25.842H192.945V31.62H190.713V30.9H182.523V31.62H180.381ZM182.559 22.422V23.304H186.321V22.422H182.559ZM186.321 18.876V18.066H182.559V18.876H186.321ZM186.321 21.036V20.244H182.559V21.036H186.321ZM188.427 23.304H193.971V24.87H182.559V25.482H180.453V20.568C180.075 20.982 179.697 21.36 179.337 21.702C179.049 21.288 178.311 20.406 177.879 20.01C179.481 18.75 181.011 16.716 181.911 14.682L183.909 15.33C183.711 15.726 183.495 16.158 183.279 16.572H186.249C186.087 16.122 185.871 15.672 185.691 15.294L187.671 14.718C187.977 15.276 188.337 15.96 188.553 16.572H193.521V18.066H188.427V18.876H192.621V20.244H188.427V21.036H192.639V22.422H188.427V23.304Z" fill="#4FBCA7"/>
<path d="M43.5719 97.6314C33.2103 97.6314 24.7803 89.2018 24.7803 78.8397C24.7803 68.4782 33.2103 60.0481 43.5719 60.0481C53.9335 60.0481 62.3636 68.4782 62.3636 78.8397C62.3636 89.2018 53.9335 97.6314 43.5719 97.6314Z" fill="#48BBA9"/>
<path d="M43.5723 58.0898C32.1315 58.0898 22.8237 67.3976 22.8237 78.8384C22.8237 90.2793 32.1315 99.5871 43.5723 99.5871C55.0132 99.5871 64.3209 90.2793 64.3209 78.8384C64.3209 67.3976 55.0132 58.0898 43.5723 58.0898ZM43.5723 62.0038C52.8698 62.0038 60.407 69.541 60.407 78.8384C60.407 88.1359 52.8698 95.6731 43.5723 95.6731C34.2748 95.6731 26.7376 88.1359 26.7376 78.8384C26.7376 69.541 34.2748 62.0038 43.5723 62.0038Z" fill="white"/>
<path d="M49.9582 72.1117H41.7977L41.7106 75.2771C42.1558 75.1225 42.7654 75.0452 43.5399 75.0452C44.5859 75.0452 45.5443 75.1998 46.4152 75.5095C47.2865 75.8197 48.0365 76.2698 48.6657 76.8603C49.2948 77.4508 49.7841 78.1666 50.1324 79.009C50.4807 79.851 50.6554 80.7952 50.6554 81.8407C50.6554 83.0022 50.4568 84.0379 50.06 84.9479C49.6627 85.8584 49.1162 86.6279 48.4191 87.2566C47.7219 87.8863 46.8946 88.3652 45.9362 88.6945C44.9778 89.0233 43.9367 89.1881 42.8139 89.1881C41.0326 89.1881 39.5418 88.7522 38.3417 87.8809C37.1412 87.01 36.3187 85.6935 35.873 83.9318L40.4328 82.8858C40.5492 83.6221 40.8584 84.2175 41.3623 84.672C41.8652 85.1274 42.4949 85.3545 43.2498 85.3545C44.1788 85.3545 44.9196 85.0643 45.4714 84.4836C46.0233 83.9024 46.2992 83.1671 46.2992 82.2762C46.2992 81.5986 46.1583 81.0418 45.878 80.6064C45.5972 80.171 45.2288 79.8221 44.7743 79.5609C44.3193 79.2996 43.8109 79.1206 43.2498 79.0237C42.6881 78.9268 42.1265 78.8784 41.5653 78.8784C40.8486 78.8784 40.128 78.9464 39.4019 79.0819C38.6759 79.2174 37.9738 79.4009 37.2962 79.6338L37.5286 68.2786H49.9582V72.1117Z" fill="white"/>
<path d="M100.096 76.2339C98.0173 76.2339 95.9383 75.4149 94.4263 73.9659L96.2113 71.8239C97.3243 72.8529 98.7943 73.5459 100.159 73.5459C101.776 73.5459 102.637 72.8529 102.637 71.7609C102.637 70.6059 101.692 70.2489 100.306 69.6609L98.2273 68.7789C96.6523 68.1279 95.0773 66.8679 95.0773 64.5999C95.0773 62.0589 97.3033 60.1059 100.453 60.1059C102.259 60.1059 104.065 60.8199 105.325 62.1009L103.75 64.0539C102.763 63.2349 101.734 62.7729 100.453 62.7729C99.0883 62.7729 98.2273 63.3819 98.2273 64.4109C98.2273 65.5239 99.3193 65.9229 100.642 66.4479L102.679 67.3089C104.569 68.0859 105.808 69.2829 105.808 71.5299C105.808 74.0709 103.687 76.2339 100.096 76.2339ZM108.56 75.9399V60.3789H118.094V62.9829H111.668V66.5739H117.128V69.1779H111.668V73.3359H118.325V75.9399H108.56ZM121.48 75.9399V60.3789H126.898C130.153 60.3789 132.736 61.5339 132.736 65.1039C132.736 67.4349 131.56 68.8839 129.775 69.5769L133.408 75.9399H129.943L126.751 70.0599H124.588V75.9399H121.48ZM124.588 67.6029H126.604C128.599 67.6029 129.712 66.7629 129.712 65.1039C129.712 63.4239 128.599 62.8569 126.604 62.8569H124.588V67.6029ZM135.794 75.9399V60.3789H145.328V62.9829H138.902V66.5739H144.362V69.1779H138.902V73.3359H145.559V75.9399H135.794ZM148.714 75.9399V60.3789H151.885L156.4 68.6739L157.954 72.0339H158.059C157.912 70.4169 157.66 68.3589 157.66 66.5949V60.3789H160.6V75.9399H157.45L152.956 67.6239L151.381 64.2849H151.276C151.423 65.9649 151.654 67.9179 151.654 69.7029V75.9399H148.714ZM164.444 75.9399V60.3789H173.978V62.9829H167.552V66.5739H173.012V69.1779H167.552V73.3359H174.209V75.9399H164.444ZM184.851 75.9399L180.105 60.3789H183.36L185.418 67.9599C185.901 69.6819 186.237 71.2359 186.72 72.9789H186.825C187.329 71.2359 187.665 69.6819 188.148 67.9599L190.164 60.3789H193.314L188.568 75.9399H184.851ZM195.103 75.9399V60.3789H198.211V75.9399H195.103ZM202.034 75.9399V60.3789H205.142V73.3359H211.463V75.9399H202.034ZM214.175 75.9399V60.3789H217.283V73.3359H223.604V75.9399H214.175ZM229.594 67.8339L229.132 69.5349H232.828L232.366 67.8339C231.883 66.2169 231.463 64.4319 231.022 62.7519H230.917C230.518 64.4529 230.056 66.2169 229.594 67.8339ZM224.218 75.9399L229.195 60.3789H232.849L237.847 75.9399H234.592L233.5 71.9499H228.46L227.368 75.9399H224.218ZM244.307 76.2339C242.228 76.2339 240.149 75.4149 238.637 73.9659L240.422 71.8239C241.535 72.8529 243.005 73.5459 244.37 73.5459C245.987 73.5459 246.848 72.8529 246.848 71.7609C246.848 70.6059 245.903 70.2489 244.517 69.6609L242.438 68.7789C240.863 68.1279 239.288 66.8679 239.288 64.5999C239.288 62.0589 241.514 60.1059 244.664 60.1059C246.47 60.1059 248.276 60.8199 249.536 62.1009L247.961 64.0539C246.974 63.2349 245.945 62.7729 244.664 62.7729C243.299 62.7729 242.438 63.3819 242.438 64.4109C242.438 65.5239 243.53 65.9229 244.853 66.4479L246.89 67.3089C248.78 68.0859 250.019 69.2829 250.019 71.5299C250.019 74.0709 247.898 76.2339 244.307 76.2339ZM122.975 98.6169V95.6559H116.843V93.3249H122.975V91.4349H120.098C119.195 91.4349 118.25 91.5609 118.061 91.7919C117.935 91.2669 117.515 90.1119 117.242 89.4399C117.683 89.3139 118.019 88.8519 118.439 88.1169C118.607 87.8229 118.922 87.1929 119.279 86.3739H117.032V84.2319H120.098C120.329 83.5389 120.539 82.8459 120.728 82.1319L123.332 82.8249C123.185 83.2869 123.017 83.7489 122.828 84.2319H129.8V86.3739H121.946C121.505 87.3399 121.022 88.3059 120.539 89.1249H122.975V87.0669H125.558V89.1249H129.149L129.128 91.4349H125.558V93.3249H130.031V95.6559H125.558V98.6169H122.975ZM116.528 86.0379L114.491 87.4449C113.966 86.4159 112.706 84.7779 111.719 83.5809L113.63 82.3209C114.638 83.4339 115.961 85.0089 116.528 86.0379ZM115.835 89.0829V97.3149C116.171 97.5459 116.57 97.8189 117.074 98.1129C118.523 98.9739 120.476 99.0999 122.912 99.0999C125.159 99.0999 128.645 98.8899 130.787 98.5539C130.514 99.2889 130.073 100.591 130.052 101.347C128.519 101.431 125.012 101.578 122.786 101.578C120.014 101.578 118.25 101.326 116.696 100.444C115.73 99.9189 114.974 99.2259 114.512 99.2259C113.903 99.2259 113.021 100.654 112.307 101.956L110.48 99.4359C111.467 98.3019 112.517 97.5039 113.441 97.0839V91.3719H111.047V89.0829H115.835ZM143.504 91.1199L143.798 93.4089C143.084 93.5979 142.37 93.8079 141.635 93.9969V98.9739C141.635 100.15 141.425 100.738 140.753 101.116C140.102 101.494 139.157 101.557 137.813 101.557C137.729 100.927 137.414 99.9609 137.12 99.3309C137.855 99.3519 138.632 99.3519 138.884 99.3519C139.157 99.3519 139.241 99.2679 139.241 98.9949V94.6269C138.443 94.8369 137.687 95.0469 136.973 95.2149L136.595 92.7789C137.351 92.6319 138.254 92.4219 139.241 92.1909V88.4529H136.868V86.1429H139.241V82.1739H141.635V86.1429H143.525V88.4529H141.635V91.6029L143.504 91.1199ZM146.906 85.4709V82.4049H149.3V101.725H146.906V96.6009H143.735V94.3539H146.906V92.0859H144.26V89.9229H146.906V87.6549H144.197V85.4709H146.906ZM156.251 94.3959V96.6429H153.122V101.767H150.728V82.3839H153.122V85.4709H155.978V87.6549H153.122V89.9229H155.831V92.0859H153.122V94.3959H156.251ZM169.283 92.9679V97.5879C170.564 97.3569 171.908 97.1049 173.189 96.8529L173.378 99.0789C169.934 99.8349 166.238 100.591 163.529 101.179L162.836 98.6589C163.907 98.4909 165.293 98.2809 166.805 98.0289V92.9679H163.634V90.5529H172.643V92.9679H169.283ZM181.61 88.1589H175.919C176.36 94.2909 177.641 99.1419 179.174 99.1419C179.615 99.1419 179.867 98.0289 179.972 95.3619C180.539 95.9499 181.463 96.5589 182.156 96.8319C181.778 100.801 180.938 101.767 178.943 101.767C175.352 101.767 173.777 95.5509 173.273 88.1589H162.836V85.7229H173.147C173.105 84.5889 173.084 83.4129 173.084 82.2579H175.772C175.751 83.4129 175.751 84.5889 175.793 85.7229H179.111C178.544 85.0089 177.494 84.1479 176.654 83.5179L178.313 82.1529C179.258 82.8039 180.497 83.7909 181.064 84.4839L179.636 85.7229H181.61V88.1589ZM192.752 82.2369L195.188 82.9929C194.642 84.4629 193.949 85.9539 193.172 87.3609V101.746H190.652V91.2459C190.211 91.7709 189.77 92.2959 189.35 92.7579C189.119 92.1489 188.405 90.7209 187.964 90.0909C189.875 88.2009 191.702 85.2189 192.752 82.2369ZM202.412 98.7429H207.83V101.116H194.285V98.7429H199.871V94.5219H195.44V92.1699H199.871V88.4739H194.747V86.1009H200.396C200.144 85.2189 199.514 83.8749 198.905 82.8459L201.215 82.0689C201.845 83.0559 202.58 84.4209 202.874 85.3239L200.711 86.1009H207.536V88.4739H202.412V92.1699H206.948V94.5219H202.412V98.7429ZM217.292 86.3739V88.7469H214.751V84.0009H222.542C222.353 83.5179 222.122 83.0139 221.912 82.5939L224.39 81.8589C224.789 82.5099 225.188 83.3289 225.398 84.0009H232.706V88.7469H230.039V86.3739H217.292ZM225.734 98.9529H229.304C230.438 98.9529 230.627 98.4909 230.795 96.0339C231.383 96.4749 232.517 96.9159 233.294 97.0839C232.937 100.444 232.16 101.41 229.514 101.41H225.461C222.395 101.41 221.555 100.591 221.555 97.9239V95.6349L214.604 96.3489L214.289 93.9339L221.555 93.2199V90.9099C220.001 91.1409 218.405 91.3299 216.914 91.4769C216.809 90.8469 216.452 89.8389 216.158 89.2929C220.442 88.8519 225.083 88.0329 227.876 86.8989L229.808 88.9569C228.191 89.5659 226.28 90.0489 224.285 90.4269V92.9469L232.769 92.1069L233.063 94.4169L224.285 95.3409V97.9029C224.285 98.8269 224.495 98.9529 225.734 98.9529Z" fill="#074461"/>
<defs>
<linearGradient id="paint0_linear_1970_26235" x1="-19.9574" y1="43.5657" x2="294.177" y2="90.5438" gradientUnits="userSpaceOnUse">
<stop stop-color="#2C585B"/>
<stop offset="0.34" stop-color="#4BB0A0"/>
<stop offset="0.645093" stop-color="#CEDA47"/>
<stop offset="0.913319" stop-color="#EBBC62"/>
</linearGradient>
</defs>
</svg>
