<svg width="283" height="278" viewBox="0 0 283 278" fill="none" xmlns="http://www.w3.org/2000/svg">
<path d="M268.265 277.825H30.6365C22.6885 277.825 16.2456 271.389 16.2456 263.45V44.1592H282.656V263.45C282.656 271.389 276.213 277.825 268.265 277.825Z" fill="#84A83E"/>
<path d="M16.2005 92.1553C8.15959 92.1553 1.61816 85.6213 1.61816 77.5899C1.61816 69.5584 8.15959 63.0244 16.2005 63.0244C24.2414 63.0244 30.7829 69.5584 30.7829 77.5899C30.7829 85.6213 24.2414 92.1553 16.2005 92.1553Z" fill="#84A83E"/>
<path d="M16.1964 61.6567C7.40149 61.6567 0.246582 68.8039 0.246582 77.5885C0.246582 86.3734 7.40149 93.5202 16.1964 93.5202C24.9914 93.5202 32.1463 86.3734 32.1463 77.5885C32.1463 68.8039 24.9914 61.6567 16.1964 61.6567ZM16.1964 64.3893C23.4946 64.3893 29.4106 70.2989 29.4106 77.5885C29.4106 84.8784 23.4946 90.7876 16.1964 90.7876C8.8986 90.7876 2.98229 84.8784 2.98229 77.5885C2.98229 70.2989 8.8986 64.3893 16.1964 64.3893Z" fill="white"/>
<path d="M16.2005 150.041C8.15959 150.041 1.61816 143.507 1.61816 135.476C1.61816 127.444 8.15959 120.91 16.2005 120.91C24.2414 120.91 30.7829 127.444 30.7829 135.476C30.7829 143.507 24.2414 150.041 16.2005 150.041Z" fill="#84A83E"/>
<path d="M16.1964 119.543C7.40149 119.543 0.246582 126.69 0.246582 135.475C0.246582 144.26 7.40149 151.406 16.1964 151.406C24.9914 151.406 32.1463 144.26 32.1463 135.475C32.1463 126.69 24.9914 119.543 16.1964 119.543ZM16.1964 122.276C23.4946 122.276 29.4106 128.185 29.4106 135.475C29.4106 142.765 23.4946 148.674 16.1964 148.674C8.8986 148.674 2.98229 142.765 2.98229 135.475C2.98229 128.185 8.8986 122.276 16.1964 122.276Z" fill="white"/>
<path d="M16.2005 262.151C8.15959 262.151 1.61816 255.617 1.61816 247.585C1.61816 239.554 8.15959 233.019 16.2005 233.019C24.2414 233.019 30.7829 239.554 30.7829 247.585C30.7829 255.617 24.2414 262.151 16.2005 262.151Z" fill="#84A83E"/>
<path d="M16.1964 231.652C7.40149 231.652 0.246582 238.799 0.246582 247.584C0.246582 256.368 7.40149 263.516 16.1964 263.516C24.9914 263.516 32.1463 256.368 32.1463 247.584C32.1463 238.799 24.9914 231.652 16.1964 231.652ZM16.1964 234.385C23.4946 234.385 29.4106 240.294 29.4106 247.584C29.4106 254.873 23.4946 260.783 16.1964 260.783C8.8986 260.783 2.98229 254.873 2.98229 247.584C2.98229 240.294 8.8986 234.385 16.1964 234.385Z" fill="white"/>
<path d="M16.2005 206.264C8.15959 206.264 1.61816 199.73 1.61816 191.699C1.61816 183.668 8.15959 177.134 16.2005 177.134C24.2414 177.134 30.7829 183.668 30.7829 191.699C30.7829 199.73 24.2414 206.264 16.2005 206.264Z" fill="#84A83E"/>
<path d="M16.1964 175.77C7.40149 175.77 0.246582 182.917 0.246582 191.702C0.246582 200.487 7.40149 207.634 16.1964 207.634C24.9914 207.634 32.1463 200.487 32.1463 191.702C32.1463 182.917 24.9914 175.77 16.1964 175.77ZM16.1964 178.503C23.4946 178.503 29.4106 184.412 29.4106 191.702C29.4106 198.992 23.4946 204.901 16.1964 204.901C8.8986 204.901 2.98229 198.992 2.98229 191.702C2.98229 184.412 8.8986 178.503 16.1964 178.503Z" fill="white"/>
<path d="M282.967 47.7969H16.3774V14.756C16.3774 6.60674 22.9914 0 31.1503 0H268.194C276.353 0 282.967 6.60674 282.967 14.756V47.7969Z" fill="#EEEFEF"/>
<path d="M105.728 21.591V23.869H103.722V19.653H109.927C109.757 19.194 109.553 18.735 109.349 18.327L111.423 17.715C111.763 18.31 112.12 19.024 112.341 19.653H118.206V23.869H116.081V21.591H105.728ZM115.299 24.685H106.527V22.815H115.299V24.685ZM114.704 31.689H116.336C116.88 31.689 116.965 31.4 117.05 29.649C117.458 29.955 118.308 30.278 118.869 30.414C118.648 32.879 118.121 33.542 116.523 33.542H114.398C112.426 33.542 111.95 32.93 111.95 31.094V27.83H109.672C109.451 31.077 108.652 32.896 104.164 33.78C104.011 33.27 103.484 32.471 103.093 32.063C106.935 31.434 107.445 30.278 107.598 27.83H103.399V25.926H118.546V27.83H114.007V31.077C114.007 31.621 114.109 31.689 114.704 31.689ZM136.678 23.325L138.701 23.818C138.004 26.028 137.001 28 135.777 29.649C136.27 30.873 136.814 31.587 137.358 31.587C137.766 31.587 137.97 30.737 138.055 28.612C138.514 29.088 139.228 29.53 139.772 29.751C139.449 32.896 138.769 33.644 137.188 33.644C135.998 33.644 135.063 32.794 134.315 31.4C133.448 32.301 132.496 33.066 131.442 33.712C131.136 33.27 130.405 32.437 129.98 32.046C131.289 31.332 132.462 30.397 133.448 29.292C132.87 27.371 132.496 24.991 132.275 22.441H127.345V24.26H131.544C131.544 24.26 131.527 24.787 131.527 25.025C131.476 28.595 131.374 30.108 130.983 30.601C130.66 31.043 130.32 31.196 129.81 31.281C129.368 31.349 128.637 31.349 127.855 31.332C127.821 30.737 127.6 29.955 127.294 29.445C127.906 29.496 128.484 29.513 128.756 29.513C128.994 29.513 129.13 29.479 129.266 29.309C129.436 29.071 129.504 28.255 129.555 26.113H127.345C127.277 28.595 126.92 31.91 125.526 33.984C125.169 33.593 124.268 32.845 123.809 32.607C125.101 30.567 125.22 27.609 125.22 25.399V20.435H132.156C132.122 19.602 132.088 18.769 132.088 17.919H134.213C134.196 18.769 134.213 19.602 134.247 20.435H136.848C136.219 19.925 135.369 19.381 134.672 18.956L135.896 17.749C136.831 18.225 138.072 19.007 138.667 19.568L137.851 20.435H139.619V22.441H134.366C134.519 24.141 134.757 25.739 135.046 27.099C135.709 25.96 136.27 24.702 136.678 23.325ZM148.332 22.679C148.332 23.206 148.502 23.767 148.791 24.362C149.777 23.767 150.542 23.155 150.542 22.237C150.542 21.608 150.253 21.149 149.607 21.149C148.859 21.149 148.332 21.744 148.332 22.679ZM148.808 32.539C146.173 32.539 144.694 30.924 144.694 28.969C144.694 27.218 145.799 26.198 147.057 25.399C146.547 24.447 146.258 23.512 146.258 22.679C146.258 20.928 147.55 19.483 149.556 19.483C151.358 19.483 152.48 20.571 152.48 22.22C152.48 23.886 151.12 24.923 149.777 25.858C150.525 26.793 151.494 27.711 152.497 28.476C153.16 27.592 153.704 26.521 154.044 25.28H156.305C155.846 26.844 155.166 28.289 154.18 29.598C154.996 30.057 155.761 30.38 156.424 30.499L155.812 32.539C154.809 32.318 153.721 31.876 152.667 31.213C151.63 32.029 150.355 32.539 148.808 32.539ZM147.074 28.816C147.074 29.887 147.907 30.618 149.114 30.618C149.743 30.618 150.355 30.38 150.95 29.989C149.879 29.105 148.91 28.102 148.111 27.048C147.499 27.575 147.074 28.136 147.074 28.816ZM173.098 29.955H165.363V31.553H173.098V29.955ZM163.34 33.831V28.374H175.206V33.831H173.098V33.151H165.363V33.831H163.34ZM165.397 25.144V25.977H168.95V25.144H165.397ZM168.95 21.795V21.03H165.397V21.795H168.95ZM168.95 23.835V23.087H165.397V23.835H168.95ZM170.939 25.977H176.175V27.456H165.397V28.034H163.408V23.393C163.051 23.784 162.694 24.141 162.354 24.464C162.082 24.073 161.385 23.24 160.977 22.866C162.49 21.676 163.935 19.755 164.785 17.834L166.672 18.446C166.485 18.82 166.281 19.228 166.077 19.619H168.882C168.729 19.194 168.525 18.769 168.355 18.412L170.225 17.868C170.514 18.395 170.854 19.041 171.058 19.619H175.75V21.03H170.939V21.795H174.9V23.087H170.939V23.835H174.917V25.144H170.939V25.977ZM185.297 20.52V19.976H182.407V18.786H185.297V17.902H187.065V18.786H189.938V19.976H187.065V20.52H189.462V21.693H182.849V20.52H185.297ZM185.569 23.257H184.566V23.597C184.566 23.767 184.566 23.937 184.549 24.107H185.569V23.257ZM187.881 24.107V23.257H186.844V24.107H187.881ZM189.462 25.178H184.413C184.226 26.045 183.835 26.912 183.104 27.575C182.866 27.286 182.237 26.691 181.914 26.504C182.917 25.586 183.053 24.464 183.053 23.546V22.186H189.462V25.178ZM185.365 28.901H188.918V28.068H186.13C185.875 28.374 185.62 28.646 185.365 28.901ZM190.873 28.068V28.901H197.571V30.38H190.873V31.825H193.95V30.686H195.922V33.797H193.95V33.372H183.886V30.635H185.909V31.825H188.918V30.38H182.356V28.901H184.736C184.396 28.629 183.971 28.357 183.665 28.187C184.532 27.49 185.331 26.368 185.722 25.45L187.507 25.926C187.388 26.164 187.252 26.402 187.116 26.64H195.599V28.068H190.873ZM194.511 23.274H192.233C192.539 23.614 192.93 23.903 193.372 24.175C193.814 23.92 194.188 23.614 194.511 23.274ZM195.786 22.016L196.738 22.356C196.33 23.376 195.684 24.175 194.902 24.804C195.752 25.093 196.738 25.28 197.792 25.382C197.435 25.722 196.993 26.368 196.772 26.827C195.446 26.623 194.273 26.266 193.287 25.756C192.403 26.13 191.417 26.419 190.363 26.606C190.227 26.232 189.887 25.654 189.615 25.314C190.414 25.212 191.179 25.042 191.876 24.821C191.383 24.413 190.958 23.971 190.635 23.444L191.213 23.274H190.159V22.05H190.516C190.227 21.744 189.768 21.387 189.496 21.234C190.737 20.724 190.89 20.129 190.89 19.517V18.395H195.701V20.129C195.701 20.452 195.718 20.588 195.973 20.588H196.551C196.772 20.588 197.214 20.571 197.435 20.486C197.452 20.894 197.469 21.302 197.537 21.693C197.316 21.778 196.925 21.795 196.585 21.795H195.548C194.307 21.795 194.069 21.217 194.069 20.112V19.755H192.42C192.386 20.571 192.114 21.421 191.162 22.05H195.497L195.786 22.016Z" fill="#84A83E"/>
<path d="M16.3735 105.342H282.784" stroke="white" stroke-width="0.708663" stroke-miterlimit="10"/>
<path d="M16.3735 162.836H282.784" stroke="white" stroke-width="0.708663" stroke-miterlimit="10"/>
<path d="M16.3735 220.378H282.784" stroke="white" stroke-width="0.708663" stroke-miterlimit="10"/>
<path d="M15.1138 85.6147V72.2857L15.4611 70.4188H18.4352V85.6147H15.1138ZM11.9878 75.6288V72.4594C12.3785 72.4883 12.7765 72.4015 13.1817 72.1989C13.6014 71.9963 14.0066 71.7285 14.3974 71.3957C14.8026 71.0483 15.1572 70.7082 15.4611 70.3754L17.6754 72.5245C17.1399 73.1324 16.5682 73.6895 15.9604 74.1961C15.3526 74.6881 14.723 75.0717 14.0718 75.3466C13.4205 75.6071 12.7258 75.7012 11.9878 75.6288Z" fill="white"/>
<path d="M10.3333 143.079V140.561C10.3333 140.17 10.478 139.722 10.7674 139.215C11.0569 138.694 11.4549 138.166 11.9614 137.631C12.4824 137.095 13.0685 136.603 13.7198 136.154L15.6301 134.852C15.9196 134.664 16.209 134.447 16.4985 134.201C16.7879 133.94 17.0267 133.665 17.2149 133.376C17.403 133.072 17.4971 132.768 17.4971 132.464C17.4971 132.145 17.4175 131.863 17.2583 131.617C17.1135 131.357 16.8892 131.161 16.5853 131.031C16.2959 130.886 15.9123 130.814 15.4348 130.814C15.0729 130.814 14.7473 130.894 14.4579 131.053C14.1829 131.198 13.9513 131.4 13.7632 131.661C13.5895 131.907 13.4593 132.182 13.3725 132.486L9.76884 131.878C9.91356 131.125 10.2247 130.423 10.7023 129.772C11.1944 129.121 11.8384 128.6 12.6344 128.209C13.4448 127.804 14.371 127.601 15.413 127.601C16.5998 127.601 17.6128 127.811 18.4522 128.231C19.2916 128.636 19.9357 129.2 20.3843 129.924C20.8474 130.648 21.079 131.487 21.079 132.442C21.079 133.455 20.7968 134.331 20.2323 135.069C19.6824 135.807 18.9515 136.487 18.0398 137.11L16.3682 138.26C16.0209 138.492 15.7025 138.752 15.413 139.042C15.1236 139.331 14.8703 139.657 14.6533 140.018H21.2526V143.079H10.3333Z" fill="white"/>
<path d="M16.8343 200.038C15.8791 200.038 15.0035 199.893 14.2075 199.604C13.426 199.314 12.7748 198.895 12.2538 198.345C11.7473 197.78 11.4144 197.093 11.2552 196.283L14.5549 195.479C14.6417 195.653 14.7503 195.863 14.8805 196.109C15.0252 196.355 15.2351 196.572 15.5101 196.76C15.785 196.934 16.1541 197.021 16.6172 197.021C17.225 197.021 17.7026 196.861 18.05 196.543C18.3973 196.21 18.571 195.776 18.571 195.241C18.571 194.922 18.4914 194.625 18.3322 194.35C18.1874 194.061 17.9125 193.837 17.5072 193.678C17.1165 193.504 16.5593 193.417 15.8357 193.417H14.7068V191.159H15.7054C16.5593 191.159 17.3625 191.268 18.1151 191.485C18.8821 191.688 19.5623 191.991 20.1557 192.397C20.749 192.802 21.2122 193.28 21.545 193.829C21.8924 194.379 22.066 195.002 22.066 195.696C22.066 196.623 21.82 197.411 21.3279 198.063C20.8359 198.714 20.1919 199.206 19.3959 199.539C18.5999 199.872 17.746 200.038 16.8343 200.038ZM14.7068 192.701V190.595H15.8357C16.7474 190.595 17.3915 190.443 17.7677 190.139C18.144 189.835 18.3322 189.423 18.3322 188.902C18.3322 188.598 18.2598 188.33 18.1151 188.098C17.9704 187.867 17.7677 187.686 17.5072 187.556C17.2467 187.411 16.9501 187.339 16.6172 187.339C16.3712 187.339 16.1179 187.382 15.8574 187.469C15.5969 187.556 15.3581 187.708 15.141 187.925C14.9239 188.142 14.7575 188.453 14.6417 188.858L11.3854 188.077C11.5446 187.252 11.892 186.564 12.4275 186.014C12.9774 185.45 13.6287 185.03 14.3812 184.755C15.1338 184.466 15.908 184.321 16.704 184.321C17.6592 184.321 18.5203 184.502 19.2873 184.864C20.0688 185.211 20.6839 185.703 21.1326 186.34C21.5957 186.962 21.8272 187.693 21.8272 188.533C21.8272 189.256 21.6463 189.879 21.2845 190.4C20.9372 190.921 20.4668 191.355 19.8735 191.702C19.2946 192.035 18.6433 192.288 17.9197 192.462C17.1961 192.621 16.458 192.701 15.7054 192.701H14.7068Z" fill="white"/>
<path d="M15.9775 255.71V253.04H8.87886V250.239L15.5217 240.514H19.2772V250.066H21.7086V253.04H19.2772V255.71H15.9775ZM12.3739 250.066H15.9775V244.791L12.3739 250.066Z" fill="white"/>
<path d="M113.643 248.06C111.035 248.06 109.259 246.636 109.259 242.796V236.06H111.115V242.924C111.115 245.58 112.171 246.444 113.643 246.444C115.131 246.444 116.219 245.58 116.219 242.924V236.06H118.011V242.796C118.011 246.636 116.251 248.06 113.643 248.06ZM121.057 247.852V236.06H124.625C127.249 236.06 129.121 236.972 129.121 239.628C129.121 242.204 127.249 243.388 124.689 243.388H122.913V247.852H121.057ZM122.913 241.9H124.513C126.401 241.9 127.297 241.18 127.297 239.628C127.297 238.076 126.321 237.564 124.449 237.564H122.913V241.9ZM133.426 247.852V237.628H129.97V236.06H138.754V237.628H135.282V247.852H133.426ZM144.819 248.06C141.795 248.06 139.699 245.708 139.699 241.916C139.699 238.124 141.795 235.852 144.819 235.852C147.843 235.852 149.955 238.124 149.955 241.916C149.955 245.708 147.843 248.06 144.819 248.06ZM144.819 246.444C146.771 246.444 148.051 244.668 148.051 241.916C148.051 239.148 146.771 237.468 144.819 237.468C142.867 237.468 141.603 239.148 141.603 241.916C141.603 244.668 142.867 246.444 144.819 246.444ZM153.523 247.852L151.123 236.06H153.027L154.131 242.204C154.339 243.452 154.547 244.716 154.755 245.98H154.819C155.075 244.716 155.347 243.452 155.619 242.204L157.139 236.06H158.787L160.307 242.204C160.579 243.436 160.835 244.7 161.107 245.98H161.187C161.379 244.7 161.587 243.436 161.779 242.204L162.899 236.06H164.675L162.355 247.852H160.067L158.483 241.308C158.275 240.38 158.099 239.5 157.939 238.604H157.875C157.699 239.5 157.507 240.38 157.315 241.308L155.763 247.852H153.523ZM166.604 247.852V236.06H168.508L172.412 242.988L173.644 245.484H173.724C173.628 244.268 173.484 242.844 173.484 241.564V236.06H175.244V247.852H173.34L169.436 240.908L168.204 238.444H168.124C168.22 239.66 168.364 241.02 168.364 242.3V247.852H166.604ZM181.1 247.852V246.78C184.38 243.564 186.364 241.516 186.364 239.724C186.364 238.476 185.692 237.644 184.364 237.644C183.436 237.644 182.668 238.236 182.044 238.956L181.004 237.932C182.012 236.844 183.052 236.172 184.588 236.172C186.748 236.172 188.14 237.548 188.14 239.628C188.14 241.724 186.236 243.836 183.788 246.396C184.38 246.332 185.132 246.284 185.708 246.284H188.7V247.852H181.1ZM72.5537 262.46H69.0497V264.044H72.5537V262.46ZM73.7697 265.116H69.0497V265.82H67.8017V261.516C67.5297 261.724 67.2737 261.9 67.0177 262.06C66.9217 261.82 66.5857 261.132 66.3937 260.86C67.3377 260.316 68.4577 259.548 69.1777 258.828L70.2337 259.34C69.6097 260.028 68.7617 260.764 67.9617 261.388H73.7697V265.116ZM75.6097 260.988L74.7137 261.996C74.0417 261.356 72.6657 260.3 71.6577 259.548L72.5057 258.684C73.4817 259.372 74.9057 260.38 75.6097 260.988ZM77.8497 254.06V255.324H68.5857C68.8897 255.852 69.3057 256.572 69.4817 256.988L68.2497 257.468H72.1057C72.4737 256.828 72.8897 255.964 73.1297 255.356L74.7297 255.692C74.3617 256.3 73.9617 256.924 73.5777 257.468H77.0337V265.596C77.0337 266.332 76.8577 266.636 76.3457 266.828C75.8337 267.02 75.0017 267.036 73.6737 267.036C73.6097 266.684 73.4337 266.22 73.2417 265.9C74.1537 265.932 75.0657 265.932 75.2897 265.916C75.5617 265.916 75.6577 265.836 75.6577 265.596V258.668H66.0897V267.084H64.6817V257.468H68.0577C67.8657 256.988 67.4657 256.22 67.1777 255.692L68.2337 255.324H63.8497V254.06H70.3297C70.1697 253.628 69.9617 253.132 69.7697 252.732L71.2417 252.348C71.5137 252.876 71.8177 253.548 72.0257 254.06H77.8497ZM95.8754 255.98L97.2354 256.636C96.4834 258.54 95.4434 260.748 94.5794 262.252L93.3474 261.612C94.1954 260.156 95.2834 257.82 95.8754 255.98ZM87.2354 261.596L85.7474 262.14C85.3794 260.668 84.4834 258.204 83.6994 256.364L85.0594 255.932C85.8594 257.756 86.8194 260.156 87.2354 261.596ZM93.1554 264.86H97.4594V266.332H83.3954V264.86H87.6994V252.636H89.2194V264.86H91.6354V252.652H93.1554V264.86ZM114.397 264.972V262.508H108.173V264.972H114.397ZM111.645 256.22V257.932H116.669V259.292H111.645V261.132H115.917V266.892H114.397V266.3H108.173V266.924H106.717V261.132H110.109V256.22H111.645ZM111.789 254.3H117.117V255.708H105.533V258.38C105.533 260.892 105.293 264.684 103.837 267.132C103.565 266.876 102.877 266.412 102.525 266.268C103.885 263.98 103.997 260.684 103.997 258.364V254.3H110.109C109.917 253.788 109.661 253.228 109.389 252.78L110.861 252.444C111.245 253.004 111.581 253.724 111.789 254.3ZM127.863 255.42H124.439C123.959 256.236 123.415 256.972 122.823 257.548C122.727 257.26 122.375 256.524 122.151 256.204C123.095 255.292 123.943 253.916 124.407 252.46L125.671 252.844C125.527 253.26 125.351 253.692 125.143 254.092H127.863V255.42ZM126.039 264.492L127.847 263.516C127.911 263.868 128.023 264.412 128.119 264.7C125.287 266.412 124.839 266.732 124.583 267.052C124.455 266.668 124.135 266.06 123.879 265.772C124.199 265.564 124.695 265.084 124.695 264.396V261.58H122.583V260.252H124.695V258.348H123.431V257.004H127.623V258.348H126.039V260.252H128.023V261.58H126.039V264.492ZM135.031 259.676V258.252H133.175V259.676H135.031ZM133.175 262.412H135.031V260.892H133.175V262.412ZM130.039 262.412H131.943V260.892H130.039V262.412ZM131.943 258.252H130.039V259.676H131.943V258.252ZM136.743 255.772H133.239V256.988H136.359V265.596C136.359 266.204 136.263 266.604 135.879 266.812C135.495 267.036 134.967 267.068 134.231 267.068C134.183 266.716 134.023 266.124 133.847 265.788C134.295 265.804 134.695 265.804 134.839 265.804C134.983 265.788 135.031 265.74 135.031 265.58V263.644H133.175V267.004H131.943V263.644H130.039V267.116H128.759V256.988H131.879V255.772H128.375V254.508H131.879V252.444H133.239V254.508H135.367C134.935 254.108 134.247 253.532 133.703 253.132L134.599 252.444C135.191 252.86 135.991 253.468 136.391 253.852L135.623 254.508H136.743V255.772ZM148.394 256.716C148.394 257.292 148.586 257.916 148.906 258.572C149.914 257.916 150.746 257.26 150.746 256.3C150.746 255.66 150.442 255.116 149.738 255.116C148.938 255.116 148.394 255.788 148.394 256.716ZM149.018 266.06C146.762 266.06 145.338 264.636 145.338 262.78C145.338 261.164 146.41 260.188 147.61 259.388C147.13 258.46 146.842 257.548 146.842 256.732C146.842 255.132 147.978 253.852 149.706 253.852C151.274 253.852 152.202 254.844 152.202 256.284C152.202 257.836 150.89 258.812 149.594 259.74C150.346 260.796 151.37 261.836 152.41 262.668C153.098 261.772 153.626 260.668 153.978 259.404H155.674C155.226 260.924 154.57 262.332 153.642 263.564C154.41 264.044 155.162 264.396 155.802 264.556L155.322 266.06C154.458 265.852 153.482 265.404 152.522 264.764C151.594 265.564 150.442 266.06 149.018 266.06ZM147.098 262.668C147.098 263.836 148.026 264.62 149.242 264.62C149.962 264.62 150.65 264.316 151.274 263.82C150.186 262.892 149.162 261.788 148.362 260.636C147.642 261.244 147.098 261.868 147.098 262.668ZM167.301 255.26H171.861C171.861 255.26 171.845 255.836 171.845 256.06C171.605 262.796 171.365 265.212 170.725 265.996C170.325 266.54 169.893 266.7 169.285 266.78C168.693 266.86 167.685 266.828 166.741 266.796C166.709 266.348 166.485 265.676 166.213 265.212C167.237 265.308 168.165 265.308 168.565 265.308C168.885 265.308 169.077 265.26 169.253 265.052C169.749 264.556 169.973 262.3 170.181 256.764H167.269C167.125 260.172 166.229 264.316 161.605 267.196C161.349 266.844 160.757 266.252 160.389 265.98C164.645 263.42 165.493 259.772 165.653 256.764H161.125V255.26H165.685V252.46H167.301V255.26ZM162.517 257.9L163.877 258.46C163.365 259.884 162.581 261.724 161.717 262.924L160.325 262.14C161.237 261.02 162.069 259.324 162.517 257.9ZM171.957 258.204L173.317 257.74C174.021 259.308 174.805 261.372 175.093 262.636L173.621 263.228C173.365 261.916 172.645 259.82 171.957 258.204ZM184.303 252.86L185.919 253.292C184.879 255.884 183.183 258.332 181.471 259.884C181.183 259.58 180.479 259.068 180.095 258.812C181.839 257.436 183.407 255.18 184.303 252.86ZM188.911 261.484L190.335 260.844C191.695 262.556 193.263 264.796 194.047 266.252L192.575 267.068C192.319 266.556 191.967 265.916 191.535 265.26C183.487 265.868 182.527 265.916 181.855 266.188C181.759 265.868 181.487 265.052 181.263 264.604C181.727 264.492 182.143 264.044 182.735 263.324C183.375 262.62 185.311 259.852 186.543 257.212L188.159 257.9C186.927 260.236 185.407 262.508 183.887 264.284L190.623 263.884C190.063 263.052 189.471 262.204 188.911 261.484ZM188.591 253.324L190.063 252.732C191.071 254.812 193.039 257.26 194.655 258.604C194.271 258.908 193.711 259.484 193.423 259.884C191.791 258.3 189.807 255.676 188.591 253.324ZM202.681 260.412H206.073V258.972H202.681V260.412ZM202.681 256.38V257.804H206.073V256.38H202.681ZM211.161 257.804V256.38H207.609V257.804H211.161ZM211.161 260.412V258.972H207.609V260.412H211.161ZM214.009 262.972V264.348H207.609V267.1H206.073V264.348H199.769V262.972H206.073V261.644H201.225V255.164H203.993C203.657 254.54 203.081 253.708 202.553 253.1L203.833 252.492C204.457 253.196 205.193 254.172 205.513 254.812L204.809 255.164H208.505C209.049 254.396 209.657 253.324 210.009 252.524L211.641 253.036C211.177 253.756 210.665 254.524 210.185 255.164H212.681V261.644H207.609V262.972H214.009ZM229.666 254.732L228.194 255.148C228.082 254.476 227.762 253.42 227.458 252.62L228.866 252.268C229.17 253.052 229.506 254.044 229.666 254.732ZM233.074 255.228V256.668H224.354V255.228H233.074ZM227.842 263.996L226.37 264.428C226.242 262.764 225.81 259.916 225.362 257.74L226.69 257.436C227.186 259.596 227.682 262.38 227.842 263.996ZM222.898 252.492L224.306 252.924C223.89 254.044 223.346 255.164 222.754 256.236V267.084H221.25V258.572C220.834 259.164 220.386 259.692 219.938 260.156C219.794 259.804 219.362 259.004 219.106 258.652C220.626 257.164 222.05 254.828 222.898 252.492ZM230.642 265.036H233.666V266.46H223.714V265.036H229.266C229.842 262.924 230.434 259.692 230.706 257.34L232.258 257.596C231.826 260.012 231.218 262.988 230.642 265.036Z" fill="white"/>
<path d="M105.81 75.4575V63.6655H109.378C112.002 63.6655 113.874 64.5775 113.874 67.2335C113.874 69.8095 112.002 70.9935 109.442 70.9935H107.666V75.4575H105.81ZM107.666 69.5055H109.266C111.154 69.5055 112.05 68.7855 112.05 67.2335C112.05 65.6815 111.074 65.1695 109.202 65.1695H107.666V69.5055ZM116.169 75.4575V63.6655H120.025C122.457 63.6655 124.281 64.5455 124.281 67.0895C124.281 68.9135 123.305 70.0015 121.817 70.4655L124.697 75.4575H122.601L119.929 70.7055H118.025V75.4575H116.169ZM118.025 69.2175H119.801C121.513 69.2175 122.441 68.5135 122.441 67.0895C122.441 65.6655 121.513 65.1695 119.801 65.1695H118.025V69.2175ZM126.669 75.4575V63.6655H133.629V65.2335H128.525V68.5135H132.845V70.0815H128.525V73.8895H133.805V75.4575H126.669ZM140.855 75.6655C137.895 75.6655 135.623 73.4575 135.623 69.6015C135.623 65.7615 137.959 63.4575 140.935 63.4575C142.407 63.4575 143.559 64.1615 144.279 64.9455L143.271 66.1295C142.663 65.5055 141.927 65.0735 140.967 65.0735C138.935 65.0735 137.527 66.7695 137.527 69.5375C137.527 72.3375 138.839 74.0495 140.919 74.0495C142.007 74.0495 142.823 73.5695 143.527 72.8015L144.519 73.9695C143.575 75.0575 142.375 75.6655 140.855 75.6655ZM146.607 75.4575V63.6655H148.463V75.4575H146.607ZM151.544 75.4575V63.6655H153.448L157.352 70.5935L158.584 73.0895H158.664C158.568 71.8735 158.424 70.4495 158.424 69.1695V63.6655H160.184V75.4575H158.28L154.376 68.5135L153.144 66.0495H153.064C153.16 67.2655 153.304 68.6255 153.304 69.9055V75.4575H151.544ZM167.886 75.6655C164.926 75.6655 162.654 73.4575 162.654 69.6015C162.654 65.7615 164.99 63.4575 167.966 63.4575C169.438 63.4575 170.59 64.1615 171.31 64.9455L170.302 66.1295C169.694 65.5055 168.958 65.0735 167.998 65.0735C165.966 65.0735 164.558 66.7695 164.558 69.5375C164.558 72.3375 165.87 74.0495 167.95 74.0495C169.038 74.0495 169.854 73.5695 170.558 72.8015L171.55 73.9695C170.606 75.0575 169.406 75.6655 167.886 75.6655ZM175.757 75.4575V65.2335H172.301V63.6655H181.085V65.2335H177.613V75.4575H175.757ZM186.54 75.4575V73.9375H189.116V66.0655H187.004V64.8975C188.108 64.7055 188.892 64.4175 189.564 64.0015H190.956V73.9375H193.26V75.4575H186.54ZM127.001 90.0655H123.497V91.6495H127.001V90.0655ZM128.217 92.7215H123.497V93.4255H122.249V89.1215C121.977 89.3295 121.721 89.5055 121.465 89.6655C121.369 89.4255 121.033 88.7375 120.841 88.4655C121.785 87.9215 122.905 87.1535 123.625 86.4335L124.681 86.9455C124.057 87.6335 123.209 88.3695 122.409 88.9935H128.217V92.7215ZM130.057 88.5935L129.161 89.6015C128.489 88.9615 127.113 87.9055 126.105 87.1535L126.953 86.2895C127.929 86.9775 129.353 87.9855 130.057 88.5935ZM132.297 81.6655V82.9295H123.033C123.337 83.4575 123.753 84.1775 123.929 84.5935L122.697 85.0735H126.553C126.921 84.4335 127.337 83.5695 127.577 82.9615L129.177 83.2975C128.809 83.9055 128.409 84.5295 128.025 85.0735H131.481V93.2015C131.481 93.9375 131.305 94.2415 130.793 94.4335C130.281 94.6255 129.449 94.6415 128.121 94.6415C128.057 94.2895 127.881 93.8255 127.689 93.5055C128.601 93.5375 129.513 93.5375 129.737 93.5215C130.009 93.5215 130.105 93.4415 130.105 93.2015V86.2735H120.537V94.6895H119.129V85.0735H122.505C122.313 84.5935 121.913 83.8255 121.625 83.2975L122.681 82.9295H118.297V81.6655H124.777C124.617 81.2335 124.409 80.7375 124.217 80.3375L125.689 79.9535C125.961 80.4815 126.265 81.1535 126.473 81.6655H132.297ZM146.729 83.5855L148.089 84.2415C147.337 86.1455 146.297 88.3535 145.433 89.8575L144.201 89.2175C145.049 87.7615 146.137 85.4255 146.729 83.5855ZM138.089 89.2015L136.601 89.7455C136.233 88.2735 135.337 85.8095 134.553 83.9695L135.913 83.5375C136.713 85.3615 137.673 87.7615 138.089 89.2015ZM144.009 92.4655H148.313V93.9375H134.249V92.4655H138.553V80.2415H140.073V92.4655H142.489V80.2575H144.009V92.4655ZM161.657 92.5775V90.1135H155.433V92.5775H161.657ZM158.905 83.8255V85.5375H163.929V86.8975H158.905V88.7375H163.177V94.4975H161.657V93.9055H155.433V94.5295H153.977V88.7375H157.369V83.8255H158.905ZM159.049 81.9055H164.377V83.3135H152.793V85.9855C152.793 88.4975 152.553 92.2895 151.097 94.7375C150.825 94.4815 150.137 94.0175 149.785 93.8735C151.145 91.5855 151.257 88.2895 151.257 85.9695V81.9055H157.369C157.177 81.3935 156.921 80.8335 156.649 80.3855L158.121 80.0495C158.505 80.6095 158.841 81.3295 159.049 81.9055ZM171.529 83.0255H168.105C167.625 83.8415 167.081 84.5775 166.489 85.1535C166.393 84.8655 166.041 84.1295 165.817 83.8095C166.761 82.8975 167.609 81.5215 168.073 80.0655L169.337 80.4495C169.193 80.8655 169.017 81.2975 168.809 81.6975H171.529V83.0255ZM169.705 92.0975L171.513 91.1215C171.577 91.4735 171.689 92.0175 171.785 92.3055C168.953 94.0175 168.505 94.3375 168.249 94.6575C168.121 94.2735 167.801 93.6655 167.545 93.3775C167.865 93.1695 168.361 92.6895 168.361 92.0015V89.1855H166.249V87.8575H168.361V85.9535H167.097V84.6095H171.289V85.9535H169.705V87.8575H171.689V89.1855H169.705V92.0975ZM178.697 87.2815V85.8575H176.841V87.2815H178.697ZM176.841 90.0175H178.697V88.4975H176.841V90.0175ZM173.705 90.0175H175.609V88.4975H173.705V90.0175ZM175.609 85.8575H173.705V87.2815H175.609V85.8575ZM180.409 83.3775H176.905V84.5935H180.025V93.2015C180.025 93.8095 179.929 94.2095 179.545 94.4175C179.161 94.6415 178.633 94.6735 177.897 94.6735C177.849 94.3215 177.689 93.7295 177.513 93.3935C177.961 93.4095 178.361 93.4095 178.505 93.4095C178.649 93.3935 178.697 93.3455 178.697 93.1855V91.2495H176.841V94.6095H175.609V91.2495H173.705V94.7215H172.425V84.5935H175.545V83.3775H172.041V82.1135H175.545V80.0495H176.905V82.1135H179.033C178.601 81.7135 177.913 81.1375 177.369 80.7375L178.265 80.0495C178.857 80.4655 179.657 81.0735 180.057 81.4575L179.289 82.1135H180.409V83.3775Z" fill="white"/>
<path d="M105.81 133.689V121.897H109.378C112.002 121.897 113.874 122.809 113.874 125.465C113.874 128.041 112.002 129.225 109.442 129.225H107.666V133.689H105.81ZM107.666 127.737H109.266C111.154 127.737 112.05 127.017 112.05 125.465C112.05 123.913 111.074 123.401 109.202 123.401H107.666V127.737ZM116.169 133.689V121.897H120.025C122.457 121.897 124.281 122.777 124.281 125.321C124.281 127.145 123.305 128.233 121.817 128.697L124.697 133.689H122.601L119.929 128.937H118.025V133.689H116.169ZM118.025 127.449H119.801C121.513 127.449 122.441 126.745 122.441 125.321C122.441 123.897 121.513 123.401 119.801 123.401H118.025V127.449ZM126.669 133.689V121.897H133.629V123.465H128.525V126.745H132.845V128.313H128.525V132.121H133.805V133.689H126.669ZM140.855 133.897C137.895 133.897 135.623 131.689 135.623 127.833C135.623 123.993 137.959 121.689 140.935 121.689C142.407 121.689 143.559 122.393 144.279 123.177L143.271 124.361C142.663 123.737 141.927 123.305 140.967 123.305C138.935 123.305 137.527 125.001 137.527 127.769C137.527 130.569 138.839 132.281 140.919 132.281C142.007 132.281 142.823 131.801 143.527 131.033L144.519 132.201C143.575 133.289 142.375 133.897 140.855 133.897ZM146.607 133.689V121.897H148.463V133.689H146.607ZM151.544 133.689V121.897H153.448L157.352 128.825L158.584 131.321H158.664C158.568 130.105 158.424 128.681 158.424 127.401V121.897H160.184V133.689H158.28L154.376 126.745L153.144 124.281H153.064C153.16 125.497 153.304 126.857 153.304 128.137V133.689H151.544ZM167.886 133.897C164.926 133.897 162.654 131.689 162.654 127.833C162.654 123.993 164.99 121.689 167.966 121.689C169.438 121.689 170.59 122.393 171.31 123.177L170.302 124.361C169.694 123.737 168.958 123.305 167.998 123.305C165.966 123.305 164.558 125.001 164.558 127.769C164.558 130.569 165.87 132.281 167.95 132.281C169.038 132.281 169.854 131.801 170.558 131.033L171.55 132.201C170.606 133.289 169.406 133.897 167.886 133.897ZM175.757 133.689V123.465H172.301V121.897H181.085V123.465H177.613V133.689H175.757ZM185.868 133.689V132.617C189.148 129.401 191.132 127.353 191.132 125.561C191.132 124.313 190.46 123.481 189.132 123.481C188.204 123.481 187.436 124.073 186.812 124.793L185.772 123.769C186.78 122.681 187.82 122.009 189.356 122.009C191.516 122.009 192.908 123.385 192.908 125.465C192.908 127.561 191.004 129.673 188.556 132.233C189.148 132.169 189.9 132.121 190.476 132.121H193.468V133.689H185.868ZM121.611 148.297H118.107V149.881H121.611V148.297ZM122.827 150.953H118.107V151.657H116.859V147.353C116.587 147.561 116.331 147.737 116.075 147.897C115.979 147.657 115.643 146.969 115.451 146.697C116.395 146.153 117.515 145.385 118.235 144.665L119.291 145.177C118.667 145.865 117.819 146.601 117.019 147.225H122.827V150.953ZM124.667 146.825L123.771 147.833C123.099 147.193 121.723 146.137 120.715 145.385L121.563 144.521C122.539 145.209 123.963 146.217 124.667 146.825ZM126.907 139.897V141.161H117.643C117.947 141.689 118.363 142.409 118.539 142.825L117.307 143.305H121.163C121.531 142.665 121.947 141.801 122.187 141.193L123.787 141.529C123.419 142.137 123.019 142.761 122.635 143.305H126.091V151.433C126.091 152.169 125.915 152.473 125.403 152.665C124.891 152.857 124.059 152.873 122.731 152.873C122.667 152.521 122.491 152.057 122.299 151.737C123.211 151.769 124.123 151.769 124.347 151.753C124.619 151.753 124.715 151.673 124.715 151.433V144.505H115.147V152.921H113.739V143.305H117.115C116.923 142.825 116.523 142.057 116.235 141.529L117.291 141.161H112.907V139.897H119.387C119.227 139.465 119.019 138.969 118.827 138.569L120.299 138.185C120.571 138.713 120.875 139.385 121.083 139.897H126.907ZM144.933 141.817L146.293 142.473C145.541 144.377 144.501 146.585 143.637 148.089L142.405 147.449C143.253 145.993 144.341 143.657 144.933 141.817ZM136.293 147.433L134.805 147.977C134.437 146.505 133.541 144.041 132.757 142.201L134.117 141.769C134.917 143.593 135.877 145.993 136.293 147.433ZM142.213 150.697H146.517V152.169H132.453V150.697H136.757V138.473H138.277V150.697H140.693V138.489H142.213V150.697ZM163.454 150.809V148.345H157.23V150.809H163.454ZM160.702 142.057V143.769H165.726V145.129H160.702V146.969H164.974V152.729H163.454V152.137H157.23V152.761H155.774V146.969H159.166V142.057H160.702ZM160.846 140.137H166.174V141.545H154.59V144.217C154.59 146.729 154.35 150.521 152.894 152.969C152.622 152.713 151.934 152.249 151.582 152.105C152.942 149.817 153.054 146.521 153.054 144.201V140.137H159.166C158.974 139.625 158.718 139.065 158.446 138.617L159.918 138.281C160.302 138.841 160.638 139.561 160.846 140.137ZM176.92 141.257H173.496C173.016 142.073 172.472 142.809 171.88 143.385C171.784 143.097 171.432 142.361 171.208 142.041C172.152 141.129 173 139.753 173.464 138.297L174.728 138.681C174.584 139.097 174.408 139.529 174.2 139.929H176.92V141.257ZM175.096 150.329L176.904 149.353C176.968 149.705 177.08 150.249 177.176 150.537C174.344 152.249 173.896 152.569 173.64 152.889C173.512 152.505 173.192 151.897 172.936 151.609C173.256 151.401 173.752 150.921 173.752 150.233V147.417H171.64V146.089H173.752V144.185H172.488V142.841H176.68V144.185H175.096V146.089H177.08V147.417H175.096V150.329ZM184.088 145.513V144.089H182.232V145.513H184.088ZM182.232 148.249H184.088V146.729H182.232V148.249ZM179.096 148.249H181V146.729H179.096V148.249ZM181 144.089H179.096V145.513H181V144.089ZM185.8 141.609H182.296V142.825H185.416V151.433C185.416 152.041 185.32 152.441 184.936 152.649C184.552 152.873 184.024 152.905 183.288 152.905C183.24 152.553 183.08 151.961 182.904 151.625C183.352 151.641 183.752 151.641 183.896 151.641C184.04 151.625 184.088 151.577 184.088 151.417V149.481H182.232V152.841H181V149.481H179.096V152.953H177.816V142.825H180.936V141.609H177.432V140.345H180.936V138.281H182.296V140.345H184.424C183.992 139.945 183.304 139.369 182.76 138.969L183.656 138.281C184.248 138.697 185.048 139.305 185.448 139.689L184.68 140.345H185.8V141.609Z" fill="white"/>
<path d="M95.5844 189.829C92.4484 189.829 90.1444 187.621 90.1444 183.765C90.1444 179.925 92.5124 177.621 95.6324 177.621C97.2964 177.621 98.4164 178.357 99.1364 179.109L98.1444 180.293C97.5524 179.701 96.8324 179.237 95.6964 179.237C93.5044 179.237 92.0484 180.933 92.0484 183.701C92.0484 186.501 93.3444 188.213 95.7764 188.213C96.4964 188.213 97.2164 188.005 97.6324 187.637V184.869H95.2964V183.349H99.3124V188.453C98.5284 189.237 97.2004 189.829 95.5844 189.829ZM104.165 183.221L103.685 184.805H106.901L106.437 183.221C106.037 181.941 105.685 180.629 105.333 179.301H105.253C104.917 180.645 104.549 181.941 104.165 183.221ZM100.357 189.621L104.261 177.829H106.405L110.309 189.621H108.341L107.349 186.261H103.253L102.245 189.621H100.357ZM111.863 189.621V177.829H115.719C118.151 177.829 119.975 178.709 119.975 181.253C119.975 183.077 118.999 184.165 117.511 184.629L120.391 189.621H118.295L115.623 184.869H113.719V189.621H111.863ZM113.719 183.381H115.495C117.207 183.381 118.135 182.677 118.135 181.253C118.135 179.829 117.207 179.333 115.495 179.333H113.719V183.381ZM122.363 189.621V177.829H125.419C129.035 177.829 131.099 179.845 131.099 183.685C131.099 187.509 129.035 189.621 125.515 189.621H122.363ZM124.219 188.101H125.291C127.819 188.101 129.179 186.613 129.179 183.685C129.179 180.741 127.819 179.349 125.291 179.349H124.219V188.101ZM133.55 189.621V177.829H140.51V179.397H135.406V182.677H139.726V184.245H135.406V188.053H140.686V189.621H133.55ZM143.144 189.621V177.829H145.048L148.952 184.757L150.184 187.253H150.264C150.168 186.037 150.024 184.613 150.024 183.333V177.829H151.784V189.621H149.88L145.976 182.677L144.744 180.213H144.664C144.76 181.429 144.904 182.789 144.904 184.069V189.621H143.144ZM160.6 189.621L156.904 177.829H158.872L160.616 183.941C161.016 185.285 161.288 186.437 161.688 187.797H161.768C162.184 186.437 162.456 185.285 162.84 183.941L164.584 177.829H166.472L162.792 189.621H160.6ZM167.988 189.621V177.829H169.844V189.621H167.988ZM172.925 189.621V177.829H174.781V188.053H179.773V189.621H172.925ZM181.847 189.621V177.829H183.703V188.053H188.695V189.621H181.847ZM193.025 183.221L192.545 184.805H195.761L195.297 183.221C194.897 181.941 194.545 180.629 194.193 179.301H194.113C193.777 180.645 193.409 181.941 193.025 183.221ZM189.217 189.621L193.121 177.829H195.265L199.169 189.621H197.201L196.209 186.261H192.113L191.105 189.621H189.217ZM204.082 189.829C202.466 189.829 200.962 189.189 199.89 188.101L200.978 186.821C201.826 187.669 202.978 188.213 204.114 188.213C205.538 188.213 206.338 187.541 206.338 186.549C206.338 185.477 205.538 185.141 204.45 184.661L202.818 183.957C201.682 183.477 200.418 182.581 200.418 180.869C200.418 179.013 202.05 177.621 204.29 177.621C205.666 177.621 206.962 178.197 207.858 179.109L206.882 180.293C206.146 179.637 205.33 179.237 204.29 179.237C203.09 179.237 202.306 179.813 202.306 180.741C202.306 181.765 203.25 182.149 204.21 182.533L205.826 183.221C207.218 183.813 208.226 184.677 208.226 186.405C208.226 188.293 206.658 189.829 204.082 189.829ZM47.4672 195.717H59.4672V197.237H47.4672V195.717ZM48.5072 200.853H58.2192V202.373H48.5072V200.853ZM46.5552 206.309H60.3152V207.813H46.5552V206.309ZM77.7649 196.197H68.6129V197.861H77.7649V196.197ZM79.2529 199.125H68.6129V199.573C68.6129 202.277 68.3889 206.245 66.8849 208.837C66.6129 208.613 65.9249 208.229 65.5569 208.085C66.9969 205.621 67.1089 202.085 67.1089 199.589V194.933H79.2529V199.125ZM78.9809 201.637H69.9889V200.341H78.9809V201.637ZM80.0689 204.357H73.6529C73.0449 205.349 72.3089 206.325 71.5889 207.125L76.9969 206.805C76.6289 206.229 76.2769 205.653 75.9409 205.157L77.2529 204.629C78.0849 205.797 79.1409 207.429 79.6529 208.373L78.2609 209.045C78.1169 208.725 77.9089 208.373 77.6849 207.957C71.1889 208.437 70.4049 208.501 69.8449 208.709C69.7489 208.421 69.4929 207.749 69.3169 207.365C69.6049 207.301 69.8929 207.045 70.2129 206.661C70.5009 206.373 71.2049 205.429 71.7969 204.357H69.0129V203.061H80.0689V204.357ZM96.8627 194.517L98.4467 195.029C97.8067 196.309 97.0067 197.701 96.3827 198.613L95.0387 198.117C95.6627 197.173 96.4467 195.653 96.8627 194.517ZM90.1107 198.069L88.6547 198.677C88.3827 197.733 87.6467 196.229 86.9267 195.109L88.2867 194.581C89.0227 195.669 89.8227 197.109 90.1107 198.069ZM99.7747 202.997V204.485H93.3747V208.853H91.8067V204.485H85.5347V202.997H91.8067V200.725H86.5267V199.253H91.8067V194.181H93.3747V199.253H98.8947V200.725H93.3747V202.997H99.7747ZM108.872 194.501L110.168 195.173C109.72 195.989 109.144 196.789 108.504 197.541C109.304 199.205 109.448 200.997 109.448 202.853C109.448 205.109 109.272 207.253 108.6 208.165C108.376 208.469 108.056 208.645 107.64 208.741C107.08 208.853 106.424 208.869 105.72 208.837C105.704 208.357 105.56 207.813 105.304 207.413C106.072 207.461 106.664 207.461 107.016 207.413C107.256 207.381 107.4 207.317 107.528 207.141C107.896 206.645 108.04 204.821 108.04 202.821V202.789C107.336 203.717 106.52 204.581 105.768 205.205C105.528 204.837 105.128 204.357 104.76 204.069C105.896 203.349 107.176 201.941 107.912 200.629C107.832 199.941 107.688 199.301 107.48 198.677C106.936 199.205 106.392 199.717 105.832 200.133C105.608 199.845 105.128 199.397 104.808 199.157C105.512 198.661 106.2 198.037 106.84 197.349C106.392 196.629 105.816 195.941 105.032 195.269L106.072 194.469C106.776 195.045 107.32 195.637 107.736 196.229C108.184 195.669 108.568 195.077 108.872 194.501ZM111.912 202.037H113.848V198.549H111.912V202.037ZM117.224 198.549H115.336V202.037H117.224V198.549ZM119.656 208.357L118.168 208.837C118.072 208.485 117.928 208.037 117.752 207.573C114.952 207.909 111.992 208.229 109.912 208.485L109.656 206.917C110.776 206.821 112.248 206.677 113.848 206.517V203.317H110.456V197.253H113.848V194.245H115.336V197.253H118.76V203.317H115.336V206.357L117.224 206.181C116.952 205.477 116.68 204.805 116.392 204.197L117.768 203.781C118.456 205.253 119.304 207.173 119.656 208.357ZM132.866 196.613L131.314 197.061C131.186 196.357 130.834 195.269 130.546 194.453L132.018 194.085C132.322 194.885 132.69 195.941 132.866 196.613ZM138.306 197.125V198.629H125.394V197.125H138.306ZM130.514 205.781L128.93 206.181C128.706 204.421 128.066 201.717 127.49 199.669L128.994 199.301C129.618 201.381 130.242 204.005 130.514 205.781ZM134.05 206.741H138.962V208.245H124.706V206.741H132.45C133.282 204.757 134.194 201.621 134.674 199.333L136.354 199.653C135.73 201.989 134.834 204.789 134.05 206.741ZM147.02 198.485C147.02 199.061 147.212 199.685 147.532 200.341C148.54 199.685 149.372 199.029 149.372 198.069C149.372 197.429 149.068 196.885 148.364 196.885C147.564 196.885 147.02 197.557 147.02 198.485ZM147.644 207.829C145.388 207.829 143.964 206.405 143.964 204.549C143.964 202.933 145.036 201.957 146.236 201.157C145.756 200.229 145.468 199.317 145.468 198.501C145.468 196.901 146.604 195.621 148.332 195.621C149.9 195.621 150.828 196.613 150.828 198.053C150.828 199.605 149.516 200.581 148.22 201.509C148.972 202.565 149.996 203.605 151.036 204.437C151.724 203.541 152.252 202.437 152.604 201.173H154.3C153.852 202.693 153.196 204.101 152.268 205.333C153.036 205.813 153.788 206.165 154.428 206.325L153.948 207.829C153.084 207.621 152.108 207.173 151.148 206.533C150.22 207.333 149.068 207.829 147.644 207.829ZM145.724 204.437C145.724 205.605 146.652 206.389 147.868 206.389C148.588 206.389 149.276 206.085 149.9 205.589C148.812 204.661 147.788 203.557 146.988 202.405C146.268 203.013 145.724 203.637 145.724 204.437ZM168.167 206.853V204.229H163.399V202.821H168.167V200.997H165.831C165.095 200.997 164.487 201.077 164.359 201.237C164.279 200.917 164.023 200.213 163.847 199.829C164.167 199.749 164.423 199.365 164.727 198.805C164.887 198.549 165.207 197.893 165.527 197.093H163.543V195.813H166.039C166.215 195.285 166.407 194.725 166.551 194.181L168.103 194.613C167.959 195.013 167.815 195.413 167.671 195.813H173.095V197.093H167.127C166.743 197.989 166.311 198.869 165.879 199.621H168.167V197.813H169.703V199.621H172.615V200.997H169.703V202.821H173.319V204.229H169.703V206.853H168.167ZM163.015 197.157L161.799 198.005C161.383 197.221 160.439 195.989 159.639 195.093L160.775 194.357C161.575 195.205 162.567 196.389 163.015 197.157ZM162.455 199.525V205.733C162.743 205.909 163.079 206.181 163.559 206.485C164.615 207.141 166.055 207.253 167.895 207.253C169.751 207.253 172.279 207.109 173.879 206.885C173.703 207.317 173.447 208.101 173.415 208.549C172.295 208.629 169.479 208.725 167.847 208.725C165.767 208.725 164.439 208.549 163.255 207.845C162.583 207.429 162.023 206.869 161.671 206.869C161.191 206.869 160.503 207.925 159.847 208.965L158.759 207.509C159.543 206.581 160.343 205.877 161.031 205.589V200.901H159.063V199.525H162.455ZM183.728 201.109L183.904 202.469L182.128 202.981V207.141C182.128 207.877 181.968 208.261 181.552 208.469C181.088 208.709 180.448 208.741 179.456 208.741C179.408 208.389 179.216 207.781 179.024 207.413C179.632 207.429 180.256 207.429 180.416 207.429C180.624 207.413 180.704 207.349 180.704 207.141V203.381L178.832 203.893L178.592 202.437C179.184 202.293 179.92 202.117 180.704 201.925V198.709H178.768V197.333H180.704V194.213H182.128V197.333H183.712V198.709H182.128V201.525L183.728 201.109ZM186.496 196.821V194.341H187.92V208.869H186.496V204.821H183.952V203.477H186.496V201.461H184.32V200.149H186.496V198.149H184.272V196.821H186.496ZM193.264 203.525V204.869H190.672V208.901H189.248V194.341H190.672V196.821H193.072V198.149H190.672V200.149H192.944V201.461H190.672V203.525H193.264ZM203.146 202.069V206.053C204.202 205.861 205.29 205.637 206.362 205.413L206.474 206.757C203.818 207.365 200.954 207.989 198.906 208.437L198.474 206.933C199.338 206.789 200.442 206.581 201.658 206.357V202.069H199.002V200.629H205.946V202.069H203.146ZM208.842 195.093L209.818 194.277C210.602 194.789 211.578 195.573 212.042 196.117L211.002 197.045C210.554 196.485 209.626 195.653 208.842 195.093ZM212.602 198.501H208.106C208.458 203.541 209.578 207.349 210.97 207.349C211.354 207.349 211.546 206.485 211.642 204.405C211.978 204.757 212.538 205.109 212.954 205.253C212.698 208.133 212.17 208.917 210.842 208.917C208.202 208.917 206.938 204.261 206.538 198.501H198.426V197.045H206.442C206.41 196.133 206.378 195.205 206.378 194.277H207.978C207.962 195.205 207.978 196.149 208.01 197.045H212.602V198.501ZM228.532 196.677L227.076 197.221C226.884 196.533 226.34 195.429 225.844 194.613L227.204 194.133C227.716 194.933 228.292 195.989 228.532 196.677ZM221.476 194.277L222.9 194.709C222.468 195.845 221.924 196.981 221.316 198.069V208.869H219.812V200.405C219.396 200.981 218.948 201.509 218.5 201.973C218.356 201.605 217.924 200.773 217.668 200.437C219.188 198.949 220.612 196.613 221.476 194.277ZM228.164 206.933H232.468V208.357H222.212V206.933H226.66V203.285H223.14V201.877H226.66V198.677H222.596V197.253H232.244V198.677H228.164V201.877H231.78V203.285H228.164V206.933ZM239.486 197.157V199.205H237.982V195.749H244.062C243.87 195.317 243.646 194.837 243.438 194.453L244.894 194.021C245.214 194.549 245.566 195.221 245.774 195.749H251.422V199.205H249.838V197.157H239.486ZM245.982 207.173H249.086C249.966 207.173 250.126 206.805 250.238 204.853C250.606 205.125 251.278 205.381 251.71 205.477C251.486 207.941 251.022 208.629 249.182 208.629H245.854C243.79 208.629 243.214 208.133 243.214 206.373V204.053L237.774 204.661L237.582 203.237L243.214 202.629V200.453C241.95 200.677 240.654 200.853 239.438 200.981C239.374 200.613 239.166 200.021 239.006 199.685C242.222 199.301 245.854 198.645 247.918 197.781L249.086 198.997C247.886 199.461 246.398 199.845 244.83 200.165V202.469L251.534 201.733L251.71 203.125L244.83 203.893V206.373C244.83 207.061 245.006 207.173 245.982 207.173Z" fill="white"/>
</svg>
