<svg width="284" height="278" viewBox="0 0 284 278" fill="none" xmlns="http://www.w3.org/2000/svg">
<path d="M268.782 277.825H31.1531C23.2051 277.825 16.7622 271.389 16.7622 263.45V44.1592H283.172V263.45C283.172 271.389 276.729 277.825 268.782 277.825Z" fill="#84A83E"/>
<path d="M16.7171 92.1553C8.67619 92.1553 2.13477 85.6213 2.13477 77.5899C2.13477 69.5584 8.67619 63.0244 16.7171 63.0244C24.758 63.0244 31.2995 69.5584 31.2995 77.5899C31.2995 85.6213 24.758 92.1553 16.7171 92.1553Z" fill="#84A83E"/>
<path d="M16.713 61.6567C7.91809 61.6567 0.763184 68.8039 0.763184 77.5885C0.763184 86.3734 7.91809 93.5202 16.713 93.5202C25.508 93.5202 32.6629 86.3734 32.6629 77.5885C32.6629 68.8039 25.508 61.6567 16.713 61.6567ZM16.713 64.3893C24.0112 64.3893 29.9272 70.2989 29.9272 77.5885C29.9272 84.8784 24.0112 90.7876 16.713 90.7876C9.4152 90.7876 3.49889 84.8784 3.49889 77.5885C3.49889 70.2989 9.4152 64.3893 16.713 64.3893Z" fill="white"/>
<path d="M16.7171 150.041C8.67619 150.041 2.13477 143.507 2.13477 135.476C2.13477 127.444 8.67619 120.91 16.7171 120.91C24.758 120.91 31.2995 127.444 31.2995 135.476C31.2995 143.507 24.758 150.041 16.7171 150.041Z" fill="#84A83E"/>
<path d="M16.713 119.543C7.91809 119.543 0.763184 126.69 0.763184 135.475C0.763184 144.26 7.91809 151.406 16.713 151.406C25.508 151.406 32.6629 144.26 32.6629 135.475C32.6629 126.69 25.508 119.543 16.713 119.543ZM16.713 122.276C24.0112 122.276 29.9272 128.185 29.9272 135.475C29.9272 142.765 24.0112 148.674 16.713 148.674C9.4152 148.674 3.49889 142.765 3.49889 135.475C3.49889 128.185 9.4152 122.276 16.713 122.276Z" fill="white"/>
<path d="M16.7171 262.151C8.67619 262.151 2.13477 255.617 2.13477 247.585C2.13477 239.554 8.67619 233.019 16.7171 233.019C24.758 233.019 31.2995 239.554 31.2995 247.585C31.2995 255.617 24.758 262.151 16.7171 262.151Z" fill="#84A83E"/>
<path d="M16.713 231.652C7.91809 231.652 0.763184 238.799 0.763184 247.584C0.763184 256.368 7.91809 263.516 16.713 263.516C25.508 263.516 32.6629 256.368 32.6629 247.584C32.6629 238.799 25.508 231.652 16.713 231.652ZM16.713 234.385C24.0112 234.385 29.9272 240.294 29.9272 247.584C29.9272 254.873 24.0112 260.783 16.713 260.783C9.4152 260.783 3.49889 254.873 3.49889 247.584C3.49889 240.294 9.4152 234.385 16.713 234.385Z" fill="white"/>
<path d="M16.7171 206.264C8.67619 206.264 2.13477 199.73 2.13477 191.699C2.13477 183.668 8.67619 177.134 16.7171 177.134C24.758 177.134 31.2995 183.668 31.2995 191.699C31.2995 199.73 24.758 206.264 16.7171 206.264Z" fill="#84A83E"/>
<path d="M16.713 175.77C7.91809 175.77 0.763184 182.917 0.763184 191.702C0.763184 200.487 7.91809 207.634 16.713 207.634C25.508 207.634 32.6629 200.487 32.6629 191.702C32.6629 182.917 25.508 175.77 16.713 175.77ZM16.713 178.503C24.0112 178.503 29.9272 184.412 29.9272 191.702C29.9272 198.992 24.0112 204.901 16.713 204.901C9.4152 204.901 3.49889 198.992 3.49889 191.702C3.49889 184.412 9.4152 178.503 16.713 178.503Z" fill="white"/>
<path d="M283.484 47.7969H16.894V14.756C16.894 6.60674 23.508 0 31.6669 0H268.711C276.87 0 283.484 6.60674 283.484 14.756V47.7969Z" fill="#EEEFEF"/>
<path d="M51.7759 31.5127C50.5766 31.5127 49.5126 31.2422 48.5837 30.7014C47.6549 30.1488 46.9259 29.3963 46.3968 28.4439C45.8677 27.4798 45.6032 26.3746 45.6032 25.1283C45.6032 23.882 45.8677 22.7827 46.3968 21.8303C46.9259 20.8662 47.649 20.1137 48.5661 19.5729C49.4949 19.0203 50.559 18.744 51.7582 18.744C52.6048 18.744 53.3925 18.8968 54.1215 19.2025C54.8505 19.4965 55.4854 19.9138 56.0262 20.4547C56.5788 20.9838 57.0021 21.5952 57.296 22.2889L55.0562 23.1178C54.8564 22.6827 54.5918 22.3065 54.2626 21.9891C53.9334 21.6598 53.5571 21.4071 53.1339 21.2307C52.7106 21.0426 52.2521 20.9485 51.7582 20.9485C51.041 20.9485 50.4002 21.1308 49.8359 21.4952C49.2833 21.848 48.8483 22.3359 48.5308 22.959C48.2251 23.5822 48.0723 24.3053 48.0723 25.1283C48.0723 25.9513 48.231 26.6803 48.5484 27.3152C48.8659 27.9384 49.3068 28.4322 49.8712 28.7967C50.4355 29.1494 51.0822 29.3258 51.8112 29.3258C52.3167 29.3258 52.7753 29.2317 53.1868 29.0436C53.6101 28.8437 53.9804 28.5733 54.2979 28.2323C54.6271 27.8913 54.8916 27.4975 55.0915 27.0507L57.3313 27.8619C57.0374 28.5792 56.6141 29.2141 56.0615 29.7667C55.5207 30.3193 54.8858 30.7484 54.1568 31.0541C53.4278 31.3598 52.6342 31.5127 51.7759 31.5127ZM64.7493 31.5127C63.503 31.5127 62.3978 31.2422 61.4337 30.7014C60.4813 30.1488 59.7347 29.3963 59.1939 28.4439C58.653 27.4798 58.3826 26.3805 58.3826 25.146C58.3826 23.8879 58.653 22.7827 59.1939 21.8303C59.7347 20.8662 60.4755 20.1137 61.4161 19.5729C62.3684 19.032 63.4619 18.7616 64.6964 18.7616C65.9427 18.7616 67.0362 19.0379 67.9768 19.5905C68.9291 20.1314 69.6757 20.8838 70.2166 21.848C70.7574 22.8003 71.0278 23.8997 71.0278 25.146C71.0278 26.3805 70.7574 27.4798 70.2166 28.4439C69.6875 29.3963 68.9468 30.1488 67.9944 30.7014C67.0538 31.2422 65.9721 31.5127 64.7493 31.5127ZM64.7493 29.3081C65.5018 29.3081 66.1602 29.1318 66.7246 28.779C67.3007 28.4145 67.7475 27.9207 68.0649 27.2976C68.3942 26.6744 68.5588 25.9572 68.5588 25.146C68.5588 24.3229 68.3942 23.5998 68.0649 22.9767C67.7357 22.3535 67.2831 21.8656 66.7069 21.5129C66.1308 21.1484 65.4606 20.9661 64.6964 20.9661C63.9557 20.9661 63.2914 21.1484 62.7035 21.5129C62.1274 21.8656 61.6747 22.3535 61.3455 22.9767C61.0163 23.5998 60.8517 24.3229 60.8517 25.146C60.8517 25.9572 61.0163 26.6744 61.3455 27.2976C61.6747 27.9207 62.1333 28.4145 62.7211 28.779C63.309 29.1318 63.9851 29.3081 64.7493 29.3081ZM72.9874 31.301V18.9556H75.6152L79.213 24.2818L82.8108 18.9556H85.421V31.301H83.0225V22.7298L79.213 28.3381L75.4036 22.7474V31.301H72.9874ZM88.1092 31.301V18.9556H92.6946C93.5647 18.9556 94.3348 19.132 95.005 19.4847C95.6751 19.8257 96.1984 20.3077 96.5746 20.9309C96.9508 21.5423 97.139 22.2536 97.139 23.0649C97.139 23.8644 96.9567 24.5757 96.5922 25.1989C96.2277 25.822 95.7281 26.3158 95.0931 26.6803C94.4582 27.033 93.7234 27.2094 92.8886 27.2094H90.5253V31.301H88.1092ZM90.5253 24.9872H92.8357C93.3765 24.9872 93.8175 24.8109 94.1584 24.4581C94.5111 24.0937 94.6875 23.6292 94.6875 23.0649C94.6875 22.5005 94.4935 22.042 94.1055 21.6892C93.7293 21.3365 93.2413 21.1601 92.6417 21.1601H90.5253V24.9872ZM98.7357 31.301V18.9556H101.152V29.0965H106.584V31.301H98.7357ZM108.208 31.301V18.9556H116.021V21.1601H110.625V23.9643H115.281V26.1159H110.625V29.0965H116.092V31.301H108.208ZM121.204 31.301V21.1601H117.5V18.9556H127.306V21.1601H123.62V31.301H121.204ZM128.893 31.301V18.9556H136.706V21.1601H131.309V23.9643H135.965V26.1159H131.309V29.0965H136.777V31.301H128.893ZM139.279 31.301V18.9556H143.229C144.487 18.9556 145.598 19.2202 146.562 19.7492C147.538 20.2783 148.297 21.0073 148.837 21.9361C149.39 22.8532 149.666 23.9173 149.666 25.1283C149.666 26.3276 149.39 27.3916 148.837 28.3205C148.297 29.2493 147.538 29.9783 146.562 30.5074C145.598 31.0365 144.487 31.301 143.229 31.301H139.279ZM141.695 29.0436H143.229C143.793 29.0436 144.317 28.9436 144.799 28.7438C145.281 28.5439 145.698 28.2676 146.051 27.9149C146.415 27.5621 146.698 27.1506 146.897 26.6803C147.097 26.1983 147.197 25.6809 147.197 25.1283C147.197 24.5757 147.097 24.0643 146.897 23.594C146.698 23.1119 146.415 22.6945 146.051 22.3418C145.698 21.9891 145.281 21.7127 144.799 21.5129C144.317 21.313 143.793 21.2131 143.229 21.2131H141.695V29.0436ZM158.969 31.5303C158.24 31.5303 157.593 31.3892 157.029 31.107C156.465 30.8248 156.024 30.4368 155.706 29.943C155.389 29.4492 155.23 28.879 155.23 28.2323C155.23 27.7855 155.313 27.374 155.477 26.9978C155.642 26.6215 155.871 26.2747 156.165 25.9572C156.459 25.628 156.788 25.34 157.153 25.093L159.481 23.4881C159.669 23.3588 159.869 23.2118 160.08 23.0472C160.304 22.8826 160.498 22.6886 160.662 22.4652C160.839 22.2301 160.927 21.9655 160.927 21.6716C160.927 21.3306 160.803 21.0661 160.556 20.878C160.309 20.6781 159.998 20.5781 159.622 20.5781C159.269 20.5781 158.969 20.6781 158.722 20.878C158.487 21.0778 158.369 21.3365 158.369 21.654C158.369 21.9597 158.464 22.2301 158.652 22.4652C158.84 22.6886 159.057 22.9532 159.304 23.2589L161.65 26.0807L165.971 31.301H163.255L159.974 27.3858L157.505 24.3876C157.188 23.9761 156.923 23.6175 156.712 23.3118C156.512 22.9943 156.365 22.7063 156.271 22.4476C156.177 22.1772 156.13 21.9067 156.13 21.6363C156.13 21.072 156.277 20.5723 156.571 20.1372C156.876 19.7022 157.282 19.3612 157.787 19.1143C158.305 18.8557 158.881 18.7263 159.516 18.7263C160.21 18.7263 160.827 18.8557 161.368 19.1143C161.908 19.3612 162.332 19.7081 162.637 20.1549C162.955 20.6017 163.114 21.1249 163.114 21.7245C163.114 22.2066 162.99 22.6534 162.743 23.0649C162.496 23.4646 162.132 23.8703 161.65 24.2818C161.18 24.6933 160.603 25.1342 159.921 25.6045L158.669 26.4687C158.481 26.598 158.305 26.745 158.14 26.9096C157.987 27.0742 157.864 27.2623 157.77 27.4739C157.676 27.6738 157.629 27.909 157.629 28.1794C157.629 28.5792 157.764 28.9084 158.034 29.167C158.317 29.4257 158.675 29.555 159.11 29.555C159.604 29.555 160.092 29.4786 160.574 29.3258C161.056 29.1729 161.491 28.9436 161.879 28.6379C162.279 28.3322 162.59 27.956 162.814 27.5092C163.037 27.0624 163.149 26.551 163.149 25.9749H165.318C165.318 27.0566 165.048 28.0207 164.507 28.8672C163.966 29.702 163.219 30.3545 162.267 30.8248C161.315 31.2951 160.215 31.5303 158.969 31.5303ZM175.596 31.5127C174.972 31.5127 174.39 31.4362 173.85 31.2834C173.309 31.1305 172.827 30.9189 172.403 30.6485C171.98 30.3663 171.627 30.0547 171.345 29.7138C171.075 29.3728 170.898 29.0142 170.816 28.6379L173.179 27.9325C173.332 28.3322 173.603 28.6791 173.991 28.973C174.379 29.2552 174.867 29.4022 175.455 29.4139C176.078 29.4257 176.583 29.2905 176.971 29.0083C177.371 28.7261 177.571 28.3616 177.571 27.9149C177.571 27.5269 177.412 27.2035 177.095 26.9449C176.789 26.6744 176.366 26.4687 175.825 26.3276L174.22 25.9043C173.62 25.7515 173.091 25.5222 172.633 25.2165C172.174 24.899 171.816 24.511 171.557 24.0525C171.298 23.594 171.169 23.059 171.169 22.4476C171.169 21.2836 171.551 20.3783 172.315 19.7316C173.091 19.0732 174.185 18.744 175.596 18.744C176.383 18.744 177.071 18.8615 177.659 19.0967C178.259 19.3201 178.758 19.6434 179.158 20.0667C179.558 20.49 179.864 20.9897 180.075 21.5658L177.73 22.2889C177.589 21.8891 177.33 21.5481 176.954 21.266C176.577 20.9838 176.101 20.8427 175.525 20.8427C174.937 20.8427 174.473 20.9779 174.132 21.2483C173.803 21.5187 173.638 21.9009 173.638 22.3947C173.638 22.7827 173.767 23.0884 174.026 23.3118C174.296 23.5352 174.661 23.7057 175.119 23.8232L176.742 24.2289C177.8 24.4875 178.623 24.952 179.211 25.6221C179.799 26.2923 180.093 27.0389 180.093 27.8619C180.093 28.5909 179.917 29.2317 179.564 29.7843C179.211 30.3251 178.7 30.7484 178.029 31.0541C177.359 31.3598 176.548 31.5127 175.596 31.5127ZM187.807 31.5127C186.561 31.5127 185.456 31.2422 184.492 30.7014C183.539 30.1488 182.793 29.3963 182.252 28.4439C181.711 27.4798 181.441 26.3805 181.441 25.146C181.441 23.8879 181.711 22.7827 182.252 21.8303C182.793 20.8662 183.534 20.1137 184.474 19.5729C185.426 19.032 186.52 18.7616 187.754 18.7616C189.001 18.7616 190.094 19.0379 191.035 19.5905C191.987 20.1314 192.734 20.8838 193.275 21.848C193.815 22.8003 194.086 23.8997 194.086 25.146C194.086 26.3805 193.815 27.4798 193.275 28.4439C192.746 29.3963 192.005 30.1488 191.052 30.7014C190.112 31.2422 189.03 31.5127 187.807 31.5127ZM187.807 29.3081C188.56 29.3081 189.218 29.1318 189.783 28.779C190.359 28.4145 190.806 27.9207 191.123 27.2976C191.452 26.6744 191.617 25.9572 191.617 25.146C191.617 24.3229 191.452 23.5998 191.123 22.9767C190.794 22.3535 190.341 21.8656 189.765 21.5129C189.189 21.1484 188.519 20.9661 187.754 20.9661C187.014 20.9661 186.349 21.1484 185.762 21.5129C185.185 21.8656 184.733 22.3535 184.404 22.9767C184.074 23.5998 183.91 24.3229 183.91 25.146C183.91 25.9572 184.074 26.6744 184.404 27.2976C184.733 27.9207 185.191 28.4145 185.779 28.779C186.367 29.1318 187.043 29.3081 187.807 29.3081ZM196.045 31.301V18.9556H198.462V29.0965H203.894V31.301H196.045ZM205.518 31.301V18.9556H209.469C210.727 18.9556 211.838 19.2202 212.802 19.7492C213.778 20.2783 214.536 21.0073 215.077 21.9361C215.63 22.8532 215.906 23.9173 215.906 25.1283C215.906 26.3276 215.63 27.3916 215.077 28.3205C214.536 29.2493 213.778 29.9783 212.802 30.5074C211.838 31.0365 210.727 31.301 209.469 31.301H205.518ZM207.934 29.0436H209.469C210.033 29.0436 210.556 28.9436 211.038 28.7438C211.52 28.5439 211.938 28.2676 212.29 27.9149C212.655 27.5621 212.937 27.1506 213.137 26.6803C213.337 26.1983 213.437 25.6809 213.437 25.1283C213.437 24.5757 213.337 24.0643 213.137 23.594C212.937 23.1119 212.655 22.6945 212.29 22.3418C211.938 21.9891 211.52 21.7127 211.038 21.5129C210.556 21.313 210.033 21.2131 209.469 21.2131H207.934V29.0436ZM227.713 31.5127C226.467 31.5127 225.361 31.2422 224.397 30.7014C223.445 30.1488 222.698 29.3963 222.158 28.4439C221.617 27.4798 221.346 26.3805 221.346 25.146C221.346 23.8879 221.617 22.7827 222.158 21.8303C222.698 20.8662 223.439 20.1137 224.38 19.5729C225.332 19.032 226.426 18.7616 227.66 18.7616C228.906 18.7616 230 19.0379 230.94 19.5905C231.893 20.1314 232.639 20.8838 233.18 21.848C233.721 22.8003 233.992 23.8997 233.992 25.146C233.992 26.3805 233.721 27.4798 233.18 28.4439C232.651 29.3963 231.91 30.1488 230.958 30.7014C230.017 31.2422 228.936 31.5127 227.713 31.5127ZM227.713 29.3081C228.465 29.3081 229.124 29.1318 229.688 28.779C230.264 28.4145 230.711 27.9207 231.029 27.2976C231.358 26.6744 231.522 25.9572 231.522 25.146C231.522 24.3229 231.358 23.5998 231.029 22.9767C230.699 22.3535 230.247 21.8656 229.671 21.5129C229.094 21.1484 228.424 20.9661 227.66 20.9661C226.919 20.9661 226.255 21.1484 225.667 21.5129C225.091 21.8656 224.638 22.3535 224.309 22.9767C223.98 23.5998 223.815 24.3229 223.815 25.146C223.815 25.9572 223.98 26.6744 224.309 27.2976C224.638 27.9207 225.097 28.4145 225.685 28.779C226.273 29.1318 226.949 29.3081 227.713 29.3081ZM240.783 31.5479C239.761 31.5479 238.873 31.3481 238.12 30.9483C237.368 30.5485 236.786 29.9901 236.374 29.2728C235.975 28.5439 235.775 27.6856 235.775 26.6979V18.9556H238.191V26.6979C238.191 27.227 238.297 27.6915 238.508 28.0912C238.732 28.4792 239.037 28.779 239.425 28.9907C239.825 29.2023 240.29 29.3081 240.819 29.3081C241.348 29.3081 241.806 29.2023 242.194 28.9907C242.594 28.779 242.9 28.4792 243.111 28.0912C243.335 27.6915 243.446 27.227 243.446 26.6979V18.9556H245.863V26.6979C245.863 27.6856 245.651 28.5439 245.228 29.2728C244.816 29.9901 244.228 30.5485 243.464 30.9483C242.712 31.3481 241.818 31.5479 240.783 31.5479ZM250.635 31.301V21.1601H246.931V18.9556H256.737V21.1601H253.051V31.301H250.635Z" fill="#84A83E"/>
<path d="M16.8901 105.342H283.3" stroke="white" stroke-width="0.708663" stroke-miterlimit="10"/>
<path d="M16.8901 162.836H283.3" stroke="white" stroke-width="0.708663" stroke-miterlimit="10"/>
<path d="M16.8901 220.378H283.3" stroke="white" stroke-width="0.708663" stroke-miterlimit="10"/>
<path d="M15.6301 85.6147V72.2857L15.9775 70.4188H18.9515V85.6147H15.6301ZM12.5041 75.6288V72.4594C12.8949 72.4883 13.2929 72.4015 13.6981 72.1989C14.1178 71.9963 14.523 71.7285 14.9138 71.3957C15.319 71.0483 15.6735 70.7082 15.9775 70.3754L18.1917 72.5245C17.6563 73.1324 17.0846 73.6895 16.4768 74.1961C15.8689 74.6881 15.2394 75.0717 14.5881 75.3466C13.9369 75.6071 13.2422 75.7012 12.5041 75.6288Z" fill="white"/>
<path d="M10.8501 143.079V140.561C10.8501 140.17 10.9948 139.722 11.2843 139.215C11.5737 138.694 11.9717 138.166 12.4782 137.631C12.9992 137.095 13.5854 136.603 14.2366 136.154L16.147 134.852C16.4364 134.664 16.7259 134.447 17.0153 134.201C17.3048 133.94 17.5436 133.665 17.7317 133.376C17.9198 133.072 18.0139 132.768 18.0139 132.464C18.0139 132.145 17.9343 131.863 17.7751 131.617C17.6304 131.357 17.4061 131.161 17.1022 131.031C16.8127 130.886 16.4292 130.814 15.9516 130.814C15.5898 130.814 15.2642 130.894 14.9747 131.053C14.6997 131.198 14.4682 131.4 14.28 131.661C14.1064 131.907 13.9761 132.182 13.8893 132.486L10.2857 131.878C10.4304 131.125 10.7416 130.423 11.2192 129.772C11.7112 129.121 12.3552 128.6 13.1512 128.209C13.9617 127.804 14.8879 127.601 15.9299 127.601C17.1166 127.601 18.1297 127.811 18.9691 128.231C19.8085 128.636 20.4525 129.2 20.9011 129.924C21.3643 130.648 21.5958 131.487 21.5958 132.442C21.5958 133.455 21.3136 134.331 20.7492 135.069C20.1992 135.807 19.4684 136.487 18.5566 137.11L16.8851 138.26C16.5377 138.492 16.2193 138.752 15.9299 139.042C15.6404 139.331 15.3872 139.657 15.1701 140.018H21.7695V143.079H10.8501Z" fill="white"/>
<path d="M17.3509 200.038C16.3957 200.038 15.5201 199.893 14.7241 199.604C13.9426 199.314 13.2914 198.895 12.7704 198.345C12.2639 197.78 11.931 197.093 11.7718 196.283L15.0715 195.479C15.1583 195.653 15.2669 195.863 15.3971 196.109C15.5418 196.355 15.7517 196.572 16.0267 196.76C16.3016 196.934 16.6707 197.021 17.1338 197.021C17.7416 197.021 18.2192 196.861 18.5666 196.543C18.9139 196.21 19.0876 195.776 19.0876 195.241C19.0876 194.922 19.008 194.625 18.8488 194.35C18.704 194.061 18.4291 193.837 18.0238 193.678C17.6331 193.504 17.0759 193.417 16.3523 193.417H15.2234V191.159H16.222C17.0759 191.159 17.8791 191.268 18.6317 191.485C19.3987 191.688 20.0789 191.991 20.6723 192.397C21.2656 192.802 21.7288 193.28 22.0616 193.829C22.409 194.379 22.5826 195.002 22.5826 195.696C22.5826 196.623 22.3366 197.411 21.8445 198.063C21.3525 198.714 20.7085 199.206 19.9125 199.539C19.1165 199.872 18.2626 200.038 17.3509 200.038ZM15.2234 192.701V190.595H16.3523C17.264 190.595 17.9081 190.443 18.2843 190.139C18.6606 189.835 18.8488 189.423 18.8488 188.902C18.8488 188.598 18.7764 188.33 18.6317 188.098C18.487 187.867 18.2843 187.686 18.0238 187.556C17.7633 187.411 17.4667 187.339 17.1338 187.339C16.8878 187.339 16.6345 187.382 16.374 187.469C16.1135 187.556 15.8747 187.708 15.6576 187.925C15.4405 188.142 15.2741 188.453 15.1583 188.858L11.902 188.077C12.0612 187.252 12.4086 186.564 12.9441 186.014C13.494 185.45 14.1453 185.03 14.8978 184.755C15.6504 184.466 16.4246 184.321 17.2206 184.321C18.1758 184.321 19.0369 184.502 19.8039 184.864C20.5854 185.211 21.2005 185.703 21.6492 186.34C22.1123 186.962 22.3438 187.693 22.3438 188.533C22.3438 189.256 22.1629 189.879 21.8011 190.4C21.4538 190.921 20.9834 191.355 20.3901 191.702C19.8112 192.035 19.1599 192.288 18.4363 192.462C17.7127 192.621 16.9746 192.701 16.222 192.701H15.2234Z" fill="white"/>
<path d="M16.4941 255.71V253.04H9.39546V250.239L16.0383 240.514H19.7938V250.066H22.2252V253.04H19.7938V255.71H16.4941ZM12.8905 250.066H16.4941V244.791L12.8905 250.066Z" fill="white"/>
<path d="M109.178 246.099C108.155 246.099 107.267 245.899 106.515 245.499C105.762 245.099 105.18 244.541 104.769 243.824C104.369 243.095 104.169 242.236 104.169 241.249V233.506H106.585V241.249C106.585 241.778 106.691 242.242 106.903 242.642C107.126 243.03 107.432 243.33 107.82 243.541C108.22 243.753 108.684 243.859 109.213 243.859C109.742 243.859 110.201 243.753 110.589 243.541C110.988 243.33 111.294 243.03 111.506 242.642C111.729 242.242 111.841 241.778 111.841 241.249V233.506H114.257V241.249C114.257 242.236 114.045 243.095 113.622 243.824C113.211 244.541 112.623 245.099 111.858 245.499C111.106 245.899 110.212 246.099 109.178 246.099ZM116.763 245.852V233.506H121.349C122.219 233.506 122.989 233.683 123.659 234.035C124.329 234.376 124.852 234.859 125.229 235.482C125.605 236.093 125.793 236.804 125.793 237.616C125.793 238.415 125.611 239.126 125.246 239.75C124.882 240.373 124.382 240.867 123.747 241.231C123.112 241.584 122.377 241.76 121.543 241.76H119.179V245.852H116.763ZM119.179 239.538H121.49C122.031 239.538 122.471 239.362 122.812 239.009C123.165 238.644 123.342 238.18 123.342 237.616C123.342 237.051 123.148 236.593 122.76 236.24C122.383 235.887 121.895 235.711 121.296 235.711H119.179V239.538ZM130 245.852V235.711H126.296V233.506H136.102V235.711H132.416V245.852H130ZM143.333 246.063C142.086 246.063 140.981 245.793 140.017 245.252C139.065 244.7 138.318 243.947 137.777 242.995C137.236 242.031 136.966 240.931 136.966 239.697C136.966 238.439 137.236 237.333 137.777 236.381C138.318 235.417 139.059 234.665 139.999 234.124C140.952 233.583 142.045 233.312 143.28 233.312C144.526 233.312 145.62 233.589 146.56 234.141C147.512 234.682 148.259 235.435 148.8 236.399C149.341 237.351 149.611 238.45 149.611 239.697C149.611 240.931 149.341 242.031 148.8 242.995C148.271 243.947 147.53 244.7 146.578 245.252C145.637 245.793 144.555 246.063 143.333 246.063ZM143.333 243.859C144.085 243.859 144.744 243.683 145.308 243.33C145.884 242.965 146.331 242.472 146.648 241.848C146.978 241.225 147.142 240.508 147.142 239.697C147.142 238.874 146.978 238.151 146.648 237.527C146.319 236.904 145.866 236.416 145.29 236.064C144.714 235.699 144.044 235.517 143.28 235.517C142.539 235.517 141.875 235.699 141.287 236.064C140.711 236.416 140.258 236.904 139.929 237.527C139.6 238.151 139.435 238.874 139.435 239.697C139.435 240.508 139.6 241.225 139.929 241.848C140.258 242.472 140.717 242.965 141.305 243.33C141.892 243.683 142.568 243.859 143.333 243.859ZM161.12 245.852L164.665 233.506H167.117L163.431 245.852H161.12ZM153.678 245.852L150.027 233.506H152.479L155.988 245.852H153.678ZM153.995 245.852L157.364 233.506H159.551L156.2 245.852H153.995ZM160.891 245.852L157.575 233.506H159.762L163.201 245.852H160.891ZM168.604 245.852V233.506H171.126L177.158 241.795V233.506H179.556V245.852H177.158L171.02 237.404V245.852H168.604ZM186.006 245.852V244.071C186.006 243.73 186.112 243.353 186.324 242.942C186.535 242.53 186.829 242.119 187.206 241.707C187.582 241.296 188.023 240.914 188.528 240.561L190.398 239.221C190.656 239.044 190.898 238.844 191.121 238.621C191.356 238.398 191.544 238.156 191.685 237.898C191.838 237.627 191.915 237.369 191.915 237.122C191.915 236.816 191.838 236.54 191.685 236.293C191.544 236.046 191.333 235.852 191.05 235.711C190.768 235.57 190.421 235.499 190.01 235.499C189.657 235.499 189.34 235.57 189.057 235.711C188.787 235.852 188.564 236.04 188.387 236.275C188.211 236.51 188.087 236.763 188.017 237.034L185.53 236.61C185.648 236.023 185.901 235.476 186.289 234.97C186.677 234.465 187.182 234.059 187.805 233.753C188.44 233.436 189.157 233.277 189.957 233.277C190.874 233.277 191.662 233.442 192.32 233.771C192.979 234.1 193.484 234.553 193.837 235.129C194.201 235.693 194.384 236.352 194.384 237.104C194.384 237.868 194.172 238.55 193.749 239.15C193.337 239.738 192.767 240.29 192.038 240.808L190.363 242.025C190.022 242.26 189.728 242.519 189.481 242.801C189.234 243.083 189.046 243.394 188.916 243.735H194.542V245.852H186.006ZM89.6739 267.063C89.0507 267.063 88.4687 266.987 87.9279 266.834C87.387 266.681 86.905 266.47 86.4817 266.199C86.0584 265.917 85.7057 265.606 85.4235 265.265C85.1531 264.924 84.9767 264.565 84.8944 264.189L87.2577 263.483C87.4105 263.883 87.681 264.23 88.069 264.524C88.457 264.806 88.9449 264.953 89.5328 264.965C90.1559 264.976 90.6615 264.841 91.0495 264.559C91.4493 264.277 91.6491 263.912 91.6491 263.466C91.6491 263.078 91.4904 262.754 91.173 262.496C90.8673 262.225 90.444 262.019 89.9031 261.878L88.2982 261.455C87.6986 261.302 87.1695 261.073 86.711 260.767C86.2524 260.45 85.8938 260.062 85.6352 259.603C85.3765 259.145 85.2472 258.61 85.2472 257.998C85.2472 256.834 85.6293 255.929 86.3935 255.282C87.1695 254.624 88.263 254.295 89.6739 254.295C90.4616 254.295 91.1494 254.412 91.7373 254.647C92.337 254.871 92.8367 255.194 93.2364 255.617C93.6362 256.041 93.9419 256.54 94.1535 257.117L91.8079 257.84C91.6668 257.44 91.4081 257.099 91.0319 256.817C90.6556 256.535 90.1794 256.393 89.6033 256.393C89.0155 256.393 88.551 256.529 88.2101 256.799C87.8808 257.07 87.7162 257.452 87.7162 257.945C87.7162 258.333 87.8456 258.639 88.1042 258.863C88.3747 259.086 88.7391 259.256 89.1977 259.374L90.8202 259.78C91.8784 260.038 92.7014 260.503 93.2893 261.173C93.8772 261.843 94.1711 262.59 94.1711 263.413C94.1711 264.142 93.9948 264.782 93.642 265.335C93.2893 265.876 92.7779 266.299 92.1077 266.605C91.4375 266.911 90.6262 267.063 89.6739 267.063ZM104.372 266.852V254.506H106.789V266.852H104.372ZM96.242 266.852V254.489H98.6582V266.852H96.242ZM98.0409 261.649V259.427H105.519V261.649H98.0409ZM115.113 267.063C113.867 267.063 112.761 266.793 111.797 266.252C110.845 265.7 110.098 264.947 109.557 263.995C109.017 263.031 108.746 261.931 108.746 260.697C108.746 259.439 109.017 258.333 109.557 257.381C110.098 256.417 110.839 255.665 111.78 255.124C112.732 254.583 113.825 254.312 115.06 254.312C116.306 254.312 117.4 254.589 118.34 255.141C119.293 255.682 120.039 256.435 120.58 257.399C121.121 258.351 121.391 259.45 121.391 260.697C121.391 261.931 121.121 263.031 120.58 263.995C120.051 264.947 119.31 265.7 118.358 266.252C117.417 266.793 116.336 267.063 115.113 267.063ZM115.113 264.859C115.865 264.859 116.524 264.683 117.088 264.33C117.664 263.965 118.111 263.472 118.429 262.848C118.758 262.225 118.922 261.508 118.922 260.697C118.922 259.874 118.758 259.151 118.429 258.527C118.099 257.904 117.647 257.416 117.071 257.064C116.494 256.699 115.824 256.517 115.06 256.517C114.319 256.517 113.655 256.699 113.067 257.064C112.491 257.416 112.038 257.904 111.709 258.527C111.38 259.151 111.215 259.874 111.215 260.697C111.215 261.508 111.38 262.225 111.709 262.848C112.038 263.472 112.497 263.965 113.085 264.33C113.673 264.683 114.349 264.859 115.113 264.859ZM123.351 266.852V254.506H127.936C128.806 254.506 129.577 254.683 130.247 255.035C130.917 255.376 131.44 255.859 131.816 256.482C132.193 257.093 132.381 257.804 132.381 258.616C132.381 259.415 132.199 260.126 131.834 260.75C131.47 261.373 130.97 261.867 130.335 262.231C129.7 262.584 128.965 262.76 128.13 262.76H125.767V266.852H123.351ZM125.767 260.538H128.077C128.618 260.538 129.059 260.362 129.4 260.009C129.753 259.644 129.929 259.18 129.929 258.616C129.929 258.051 129.735 257.593 129.347 257.24C128.971 256.887 128.483 256.711 127.883 256.711H125.767V260.538ZM141.319 267.081C140.59 267.081 139.944 266.94 139.379 266.658C138.815 266.376 138.374 265.988 138.056 265.494C137.739 265 137.58 264.43 137.58 263.783C137.58 263.336 137.663 262.925 137.827 262.549C137.992 262.172 138.221 261.825 138.515 261.508C138.809 261.179 139.138 260.891 139.503 260.644L141.831 259.039C142.019 258.91 142.219 258.763 142.43 258.598C142.654 258.433 142.848 258.239 143.012 258.016C143.189 257.781 143.277 257.516 143.277 257.222C143.277 256.881 143.153 256.617 142.906 256.429C142.66 256.229 142.348 256.129 141.972 256.129C141.619 256.129 141.319 256.229 141.072 256.429C140.837 256.629 140.72 256.887 140.72 257.205C140.72 257.51 140.814 257.781 141.002 258.016C141.19 258.239 141.407 258.504 141.654 258.81L144 261.631L148.321 266.852H145.605L142.324 262.937L139.855 259.938C139.538 259.527 139.273 259.168 139.062 258.863C138.862 258.545 138.715 258.257 138.621 257.998C138.527 257.728 138.48 257.458 138.48 257.187C138.48 256.623 138.627 256.123 138.921 255.688C139.226 255.253 139.632 254.912 140.138 254.665C140.655 254.406 141.231 254.277 141.866 254.277C142.56 254.277 143.177 254.406 143.718 254.665C144.259 254.912 144.682 255.259 144.988 255.706C145.305 256.152 145.464 256.676 145.464 257.275C145.464 257.757 145.34 258.204 145.093 258.616C144.846 259.015 144.482 259.421 144 259.833C143.53 260.244 142.953 260.685 142.272 261.155L141.019 262.019C140.831 262.149 140.655 262.296 140.49 262.46C140.337 262.625 140.214 262.813 140.12 263.025C140.026 263.225 139.979 263.46 139.979 263.73C139.979 264.13 140.114 264.459 140.384 264.718C140.667 264.976 141.025 265.106 141.46 265.106C141.954 265.106 142.442 265.029 142.924 264.877C143.406 264.724 143.841 264.494 144.229 264.189C144.629 263.883 144.941 263.507 145.164 263.06C145.387 262.613 145.499 262.102 145.499 261.526H147.668C147.668 262.607 147.398 263.571 146.857 264.418C146.316 265.253 145.57 265.905 144.617 266.376C143.665 266.846 142.565 267.081 141.319 267.081ZM159.445 267.063C158.198 267.063 157.093 266.793 156.129 266.252C155.177 265.7 154.43 264.947 153.889 263.995C153.348 263.031 153.078 261.931 153.078 260.697C153.078 259.439 153.348 258.333 153.889 257.381C154.43 256.417 155.171 255.665 156.112 255.124C157.064 254.583 158.157 254.312 159.392 254.312C160.638 254.312 161.732 254.589 162.672 255.141C163.625 255.682 164.371 256.435 164.912 257.399C165.453 258.351 165.723 259.45 165.723 260.697C165.723 261.931 165.453 263.031 164.912 263.995C164.383 264.947 163.642 265.7 162.69 266.252C161.749 266.793 160.668 267.063 159.445 267.063ZM159.445 264.859C160.197 264.859 160.856 264.683 161.42 264.33C161.996 263.965 162.443 263.472 162.76 262.848C163.09 262.225 163.254 261.508 163.254 260.697C163.254 259.874 163.09 259.151 162.76 258.527C162.431 257.904 161.979 257.416 161.402 257.064C160.826 256.699 160.156 256.517 159.392 256.517C158.651 256.517 157.987 256.699 157.399 257.064C156.823 257.416 156.37 257.904 156.041 258.527C155.712 259.151 155.547 259.874 155.547 260.697C155.547 261.508 155.712 262.225 156.041 262.848C156.37 263.472 156.829 263.965 157.417 264.33C158.004 264.683 158.681 264.859 159.445 264.859ZM167.683 266.852V254.506H175.602V256.711H170.099V259.674H174.684V261.878H170.099V266.852H167.683ZM177.448 266.852V254.506H185.367V256.711H179.864V259.674H184.45V261.878H179.864V266.852H177.448ZM187.214 266.852V254.506H189.63V266.852H187.214ZM197.761 267.063C196.562 267.063 195.498 266.793 194.569 266.252C193.64 265.7 192.911 264.947 192.382 263.995C191.853 263.031 191.589 261.925 191.589 260.679C191.589 259.433 191.853 258.333 192.382 257.381C192.911 256.417 193.634 255.665 194.552 255.124C195.48 254.571 196.544 254.295 197.744 254.295C198.59 254.295 199.378 254.448 200.107 254.753C200.836 255.047 201.471 255.465 202.012 256.005C202.564 256.535 202.988 257.146 203.281 257.84L201.042 258.669C200.842 258.234 200.577 257.857 200.248 257.54C199.919 257.211 199.543 256.958 199.119 256.781C198.696 256.593 198.238 256.499 197.744 256.499C197.026 256.499 196.386 256.682 195.821 257.046C195.269 257.399 194.834 257.887 194.516 258.51C194.211 259.133 194.058 259.856 194.058 260.679C194.058 261.502 194.216 262.231 194.534 262.866C194.851 263.489 195.292 263.983 195.857 264.347C196.421 264.7 197.068 264.877 197.797 264.877C198.302 264.877 198.761 264.782 199.172 264.594C199.596 264.394 199.966 264.124 200.283 263.783C200.613 263.442 200.877 263.048 201.077 262.601L203.317 263.413C203.023 264.13 202.6 264.765 202.047 265.317C201.506 265.87 200.871 266.299 200.142 266.605C199.413 266.911 198.62 267.063 197.761 267.063ZM205.091 266.852V254.506H212.904V256.711H207.507V259.515H212.163V261.667H207.507V264.647H212.975V266.852H205.091Z" fill="white"/>
<path d="M101.321 73.4575V61.1121H105.907C106.777 61.1121 107.547 61.2885 108.217 61.6412C108.887 61.9822 109.41 62.4642 109.786 63.0874C110.163 63.6988 110.351 64.4101 110.351 65.2214C110.351 66.0209 110.169 66.7322 109.804 67.3554C109.44 67.9785 108.94 68.4723 108.305 68.8368C107.67 69.1895 106.935 69.3659 106.101 69.3659H103.737V73.4575H101.321ZM103.737 67.1437H106.048C106.588 67.1437 107.029 66.9674 107.37 66.6146C107.723 66.2501 107.899 65.7857 107.899 65.2214C107.899 64.657 107.705 64.1985 107.317 63.8457C106.941 63.493 106.453 63.3166 105.854 63.3166H103.737V67.1437ZM111.948 73.4575V61.1121H116.533C117.403 61.1121 118.173 61.2826 118.843 61.6236C119.514 61.9645 120.037 62.4348 120.413 63.0345C120.789 63.6223 120.977 64.3102 120.977 65.0979C120.977 65.8739 120.778 66.5676 120.378 67.179C119.99 67.7786 119.455 68.2489 118.773 68.5899C118.091 68.9191 117.315 69.0837 116.445 69.0837H114.364V73.4575H111.948ZM118.738 73.4575L115.881 68.5017L117.732 67.179L121.471 73.4575H118.738ZM114.364 66.8792H116.551C116.915 66.8792 117.239 66.8028 117.521 66.6499C117.815 66.4971 118.044 66.2854 118.209 66.015C118.385 65.7446 118.473 65.4389 118.473 65.0979C118.473 64.5688 118.279 64.1397 117.891 63.8105C117.515 63.4812 117.027 63.3166 116.427 63.3166H114.364V66.8792ZM123.315 73.4575V61.1121H131.128V63.3166H125.731V66.1208H130.387V68.2724H125.731V71.253H131.198V73.4575H123.315ZM139.15 73.6692C137.951 73.6692 136.887 73.3987 135.958 72.8579C135.029 72.3053 134.3 71.5528 133.771 70.6004C133.242 69.6363 132.977 68.5311 132.977 67.2848C132.977 66.0385 133.242 64.9392 133.771 63.9868C134.3 63.0227 135.023 62.2702 135.94 61.7294C136.869 61.1768 137.933 60.9005 139.132 60.9005C139.979 60.9005 140.767 61.0533 141.495 61.359C142.224 61.6529 142.859 62.0703 143.4 62.6112C143.953 63.1403 144.376 63.7517 144.67 64.4454L142.43 65.2743C142.23 64.8392 141.966 64.463 141.637 64.1455C141.307 63.8163 140.931 63.5635 140.508 63.3872C140.085 63.1991 139.626 63.105 139.132 63.105C138.415 63.105 137.774 63.2872 137.21 63.6517C136.657 64.0045 136.222 64.4924 135.905 65.1155C135.599 65.7387 135.446 66.4618 135.446 67.2848C135.446 68.1078 135.605 68.8368 135.922 69.4717C136.24 70.0949 136.681 70.5887 137.245 70.9532C137.809 71.3059 138.456 71.4823 139.185 71.4823C139.691 71.4823 140.149 71.3882 140.561 71.2001C140.984 71.0002 141.354 70.7298 141.672 70.3888C142.001 70.0478 142.266 69.654 142.465 69.2072L144.705 70.0184C144.411 70.7356 143.988 71.3706 143.435 71.9232C142.895 72.4758 142.26 72.9049 141.531 73.2106C140.802 73.5163 140.008 73.6692 139.15 73.6692ZM146.48 73.4575V61.1121H148.896V73.4575H146.48ZM151.578 73.4575V61.1121H154.1L160.131 69.4012V61.1121H162.53V73.4575H160.131L153.994 65.0097V73.4575H151.578ZM170.668 73.6692C169.469 73.6692 168.405 73.3987 167.476 72.8579C166.547 72.3053 165.818 71.5528 165.289 70.6004C164.76 69.6363 164.495 68.5311 164.495 67.2848C164.495 66.0385 164.76 64.9392 165.289 63.9868C165.818 63.0227 166.541 62.2702 167.458 61.7294C168.387 61.1768 169.451 60.9005 170.65 60.9005C171.497 60.9005 172.285 61.0533 173.013 61.359C173.742 61.6529 174.377 62.0703 174.918 62.6112C175.471 63.1403 175.894 63.7517 176.188 64.4454L173.948 65.2743C173.748 64.8392 173.484 64.463 173.155 64.1455C172.825 63.8163 172.449 63.5635 172.026 63.3872C171.603 63.1991 171.144 63.105 170.65 63.105C169.933 63.105 169.292 63.2872 168.728 63.6517C168.175 64.0045 167.74 64.4924 167.423 65.1155C167.117 65.7387 166.964 66.4618 166.964 67.2848C166.964 68.1078 167.123 68.8368 167.44 69.4717C167.758 70.0949 168.199 70.5887 168.763 70.9532C169.328 71.3059 169.974 71.4823 170.703 71.4823C171.209 71.4823 171.667 71.3882 172.079 71.2001C172.502 71.0002 172.872 70.7298 173.19 70.3888C173.519 70.0478 173.784 69.654 173.983 69.2072L176.223 70.0184C175.929 70.7356 175.506 71.3706 174.953 71.9232C174.413 72.4758 173.778 72.9049 173.049 73.2106C172.32 73.5163 171.526 73.6692 170.668 73.6692ZM180.608 73.4575V63.3166H176.904V61.1121H186.71V63.3166H183.024V73.4575H180.608ZM194.598 73.4575V62.3996L194.827 61.1121H196.908V73.4575H194.598ZM191.988 65.0097V62.8228C192.282 62.8463 192.599 62.7758 192.94 62.6112C193.281 62.4348 193.616 62.2114 193.946 61.941C194.287 61.6588 194.581 61.3766 194.827 61.0945L196.362 62.5936C195.938 63.0639 195.492 63.493 195.021 63.881C194.551 64.2572 194.063 64.5512 193.558 64.7628C193.064 64.9745 192.541 65.0568 191.988 65.0097ZM96.1135 94.6692C95.4904 94.6692 94.9084 94.5927 94.3675 94.4399C93.8267 94.287 93.3446 94.0754 92.9214 93.805C92.4981 93.5228 92.1454 93.2112 91.8632 92.8703C91.5928 92.5293 91.4164 92.1707 91.3341 91.7944L93.6974 91.089C93.8502 91.4887 94.1206 91.8356 94.5086 92.1295C94.8966 92.4117 95.3846 92.5587 95.9724 92.5704C96.5956 92.5822 97.1012 92.447 97.4892 92.1648C97.8889 91.8826 98.0888 91.5181 98.0888 91.0713C98.0888 90.6833 97.9301 90.36 97.6126 90.1014C97.3069 89.8309 96.8836 89.6252 96.3428 89.4841L94.7379 89.0608C94.1383 88.908 93.6092 88.6787 93.1506 88.373C92.6921 88.0555 92.3335 87.6675 92.0748 87.209C91.8161 86.7505 91.6868 86.2155 91.6868 85.6041C91.6868 84.4401 92.0689 83.5348 92.8332 82.8881C93.6092 82.2297 94.7026 81.9005 96.1135 81.9005C96.9013 81.9005 97.5891 82.018 98.177 82.2532C98.7766 82.4766 99.2763 82.7999 99.6761 83.2232C100.076 83.6465 100.382 84.1462 100.593 84.7223L98.2475 85.4454C98.1064 85.0456 97.8478 84.7046 97.4715 84.4225C97.0953 84.1403 96.6191 83.9992 96.043 83.9992C95.4551 83.9992 94.9907 84.1344 94.6497 84.4048C94.3205 84.6752 94.1559 85.0574 94.1559 85.5512C94.1559 85.9392 94.2852 86.2449 94.5439 86.4683C94.8143 86.6917 95.1788 86.8621 95.6373 86.9797L97.2599 87.3854C98.3181 87.644 99.1411 88.1084 99.729 88.7786C100.317 89.4488 100.611 90.1954 100.611 91.0184C100.611 91.7474 100.434 92.3882 100.082 92.9408C99.729 93.4816 99.2175 93.9049 98.5473 94.2106C97.8772 94.5163 97.0659 94.6692 96.1135 94.6692ZM110.812 94.4575V82.1121H113.228V94.4575H110.812ZM102.682 94.4575V82.0945H105.098V94.4575H102.682ZM104.481 89.2548V87.0326H111.958V89.2548H104.481ZM121.553 94.6692C120.306 94.6692 119.201 94.3987 118.237 93.8579C117.285 93.3053 116.538 92.5528 115.997 91.6004C115.456 90.6363 115.186 89.537 115.186 88.3024C115.186 87.0444 115.456 85.9392 115.997 84.9868C116.538 84.0227 117.279 83.2702 118.219 82.7294C119.172 82.1885 120.265 81.9181 121.5 81.9181C122.746 81.9181 123.839 82.1944 124.78 82.747C125.732 83.2879 126.479 84.0403 127.02 85.0045C127.561 85.9568 127.831 87.0561 127.831 88.3024C127.831 89.537 127.561 90.6363 127.02 91.6004C126.491 92.5528 125.75 93.3053 124.798 93.8579C123.857 94.3987 122.775 94.6692 121.553 94.6692ZM121.553 92.4646C122.305 92.4646 122.963 92.2883 123.528 91.9355C124.104 91.571 124.551 91.0772 124.868 90.4541C125.197 89.8309 125.362 89.1137 125.362 88.3024C125.362 87.4794 125.197 86.7563 124.868 86.1332C124.539 85.51 124.086 85.0221 123.51 84.6694C122.934 84.3049 122.264 84.1226 121.5 84.1226C120.759 84.1226 120.095 84.3049 119.507 84.6694C118.931 85.0221 118.478 85.51 118.149 86.1332C117.82 86.7563 117.655 87.4794 117.655 88.3024C117.655 89.1137 117.82 89.8309 118.149 90.4541C118.478 91.0772 118.936 91.571 119.524 91.9355C120.112 92.2883 120.788 92.4646 121.553 92.4646ZM129.791 94.4575V82.1121H134.376C135.246 82.1121 136.016 82.2885 136.686 82.6412C137.357 82.9822 137.88 83.4642 138.256 84.0874C138.632 84.6988 138.82 85.4101 138.82 86.2214C138.82 87.0209 138.638 87.7322 138.274 88.3554C137.909 88.9785 137.41 89.4723 136.775 89.8368C136.14 90.1895 135.405 90.3659 134.57 90.3659H132.207V94.4575H129.791ZM132.207 88.1437H134.517C135.058 88.1437 135.499 87.9674 135.84 87.6146C136.193 87.2501 136.369 86.7857 136.369 86.2214C136.369 85.657 136.175 85.1985 135.787 84.8457C135.411 84.493 134.923 84.3166 134.323 84.3166H132.207V88.1437ZM140.029 90.2072V88.2143H145.32V90.2072H140.029ZM153.26 94.6692C152.014 94.6692 150.908 94.3987 149.944 93.8579C148.992 93.3053 148.245 92.5528 147.705 91.6004C147.164 90.6363 146.893 89.537 146.893 88.3024C146.893 87.0444 147.164 85.9392 147.705 84.9868C148.245 84.0227 148.986 83.2702 149.927 82.7294C150.879 82.1885 151.973 81.9181 153.207 81.9181C154.453 81.9181 155.547 82.1944 156.487 82.747C157.44 83.2879 158.186 84.0403 158.727 85.0045C159.268 85.9568 159.539 87.0561 159.539 88.3024C159.539 89.537 159.268 90.6363 158.727 91.6004C158.198 92.5528 157.457 93.3053 156.505 93.8579C155.564 94.3987 154.483 94.6692 153.26 94.6692ZM153.26 92.4646C154.012 92.4646 154.671 92.2883 155.235 91.9355C155.811 91.571 156.258 91.0772 156.576 90.4541C156.905 89.8309 157.069 89.1137 157.069 88.3024C157.069 87.4794 156.905 86.7563 156.576 86.1332C156.246 85.51 155.794 85.0221 155.218 84.6694C154.642 84.3049 153.971 84.1226 153.207 84.1226C152.466 84.1226 151.802 84.3049 151.214 84.6694C150.638 85.0221 150.185 85.51 149.856 86.1332C149.527 86.7563 149.362 87.4794 149.362 88.3024C149.362 89.1137 149.527 89.8309 149.856 90.4541C150.185 91.0772 150.644 91.571 151.232 91.9355C151.82 92.2883 152.496 92.4646 153.26 92.4646ZM161.498 94.4575V82.1121H169.417V84.3166H163.914V87.2795H168.5V89.4841H163.914V94.4575H161.498ZM171.264 94.4575V82.1121H179.182V84.3166H173.68V87.2795H178.265V89.4841H173.68V94.4575H171.264ZM181.029 94.4575V82.1121H183.445V94.4575H181.029ZM191.577 94.6692C190.377 94.6692 189.313 94.3987 188.384 93.8579C187.456 93.3053 186.727 92.5528 186.197 91.6004C185.668 90.6363 185.404 89.5311 185.404 88.2848C185.404 87.0385 185.668 85.9392 186.197 84.9868C186.727 84.0227 187.45 83.2702 188.367 82.7294C189.296 82.1768 190.36 81.9005 191.559 81.9005C192.405 81.9005 193.193 82.0533 193.922 82.359C194.651 82.6529 195.286 83.0703 195.827 83.6112C196.379 84.1403 196.803 84.7517 197.097 85.4454L194.857 86.2743C194.657 85.8392 194.392 85.463 194.063 85.1455C193.734 84.8163 193.358 84.5635 192.935 84.3872C192.511 84.1991 192.053 84.105 191.559 84.105C190.842 84.105 190.201 84.2872 189.637 84.6517C189.084 85.0045 188.649 85.4924 188.331 86.1155C188.026 86.7387 187.873 87.4618 187.873 88.2848C187.873 89.1078 188.032 89.8368 188.349 90.4717C188.667 91.0949 189.107 91.5887 189.672 91.9532C190.236 92.3059 190.883 92.4823 191.612 92.4823C192.117 92.4823 192.576 92.3882 192.987 92.2001C193.411 92.0002 193.781 91.7298 194.099 91.3888C194.428 91.0478 194.692 90.654 194.892 90.2072L197.132 91.0184C196.838 91.7356 196.415 92.3706 195.862 92.9232C195.321 93.4758 194.686 93.9049 193.957 94.2106C193.228 94.5163 192.435 94.6692 191.577 94.6692ZM198.906 94.4575V82.1121H206.719V84.3166H201.323V87.1208H205.979V89.2724H201.323V92.253H206.79V94.4575H198.906Z" fill="white"/>
<path d="M99.9346 131.689V119.343H104.52C105.39 119.343 106.16 119.52 106.83 119.872C107.501 120.213 108.024 120.695 108.4 121.319C108.776 121.93 108.964 122.641 108.964 123.453C108.964 124.252 108.782 124.963 108.418 125.587C108.053 126.21 107.554 126.704 106.919 127.068C106.284 127.421 105.549 127.597 104.714 127.597H102.351V131.689H99.9346ZM102.351 125.375H104.661C105.202 125.375 105.643 125.199 105.984 124.846C106.337 124.481 106.513 124.017 106.513 123.453C106.513 122.888 106.319 122.43 105.931 122.077C105.555 121.724 105.067 121.548 104.467 121.548H102.351V125.375ZM110.561 131.689V119.343H115.147C116.017 119.343 116.787 119.514 117.457 119.855C118.127 120.196 118.65 120.666 119.027 121.266C119.403 121.854 119.591 122.541 119.591 123.329C119.591 124.105 119.391 124.799 118.991 125.41C118.603 126.01 118.068 126.48 117.386 126.821C116.704 127.15 115.928 127.315 115.058 127.315H112.977V131.689H110.561ZM117.351 131.689L114.494 126.733L116.346 125.41L120.085 131.689H117.351ZM112.977 125.11H115.164C115.529 125.11 115.852 125.034 116.134 124.881C116.428 124.728 116.657 124.517 116.822 124.246C116.998 123.976 117.087 123.67 117.087 123.329C117.087 122.8 116.893 122.371 116.505 122.042C116.128 121.712 115.64 121.548 115.041 121.548H112.977V125.11ZM121.928 131.689V119.343H129.741V121.548H124.345V124.352H129V126.504H124.345V129.484H129.812V131.689H121.928ZM137.763 131.9C136.564 131.9 135.5 131.63 134.571 131.089C133.642 130.536 132.913 129.784 132.384 128.832C131.855 127.868 131.591 126.762 131.591 125.516C131.591 124.27 131.855 123.17 132.384 122.218C132.913 121.254 133.637 120.501 134.554 119.961C135.482 119.408 136.546 119.132 137.746 119.132C138.592 119.132 139.38 119.285 140.109 119.59C140.838 119.884 141.473 120.302 142.014 120.842C142.566 121.371 142.99 121.983 143.284 122.677L141.044 123.505C140.844 123.07 140.579 122.694 140.25 122.377C139.921 122.048 139.545 121.795 139.121 121.618C138.698 121.43 138.24 121.336 137.746 121.336C137.029 121.336 136.388 121.518 135.823 121.883C135.271 122.236 134.836 122.724 134.518 123.347C134.213 123.97 134.06 124.693 134.06 125.516C134.06 126.339 134.219 127.068 134.536 127.703C134.853 128.326 135.294 128.82 135.859 129.184C136.423 129.537 137.07 129.713 137.799 129.713C138.304 129.713 138.763 129.619 139.174 129.431C139.598 129.231 139.968 128.961 140.285 128.62C140.615 128.279 140.879 127.885 141.079 127.438L143.319 128.25C143.025 128.967 142.602 129.602 142.049 130.154C141.508 130.707 140.873 131.136 140.144 131.442C139.415 131.748 138.622 131.9 137.763 131.9ZM145.093 131.689V119.343H147.509V131.689H145.093ZM150.191 131.689V119.343H152.713L158.745 127.632V119.343H161.143V131.689H158.745L152.607 123.241V131.689H150.191ZM169.281 131.9C168.082 131.9 167.018 131.63 166.089 131.089C165.16 130.536 164.431 129.784 163.902 128.832C163.373 127.868 163.109 126.762 163.109 125.516C163.109 124.27 163.373 123.17 163.902 122.218C164.431 121.254 165.155 120.501 166.072 119.961C167 119.408 168.065 119.132 169.264 119.132C170.11 119.132 170.898 119.285 171.627 119.59C172.356 119.884 172.991 120.302 173.532 120.842C174.084 121.371 174.508 121.983 174.802 122.677L172.562 123.505C172.362 123.07 172.097 122.694 171.768 122.377C171.439 122.048 171.063 121.795 170.639 121.618C170.216 121.43 169.758 121.336 169.264 121.336C168.547 121.336 167.906 121.518 167.341 121.883C166.789 122.236 166.354 122.724 166.036 123.347C165.731 123.97 165.578 124.693 165.578 125.516C165.578 126.339 165.737 127.068 166.054 127.703C166.371 128.326 166.812 128.82 167.377 129.184C167.941 129.537 168.588 129.713 169.317 129.713C169.822 129.713 170.281 129.619 170.692 129.431C171.116 129.231 171.486 128.961 171.803 128.62C172.133 128.279 172.397 127.885 172.597 127.438L174.837 128.25C174.543 128.967 174.12 129.602 173.567 130.154C173.026 130.707 172.391 131.136 171.662 131.442C170.933 131.748 170.14 131.9 169.281 131.9ZM179.221 131.689V121.548H175.518V119.343H185.324V121.548H181.638V131.689H179.221ZM190.672 131.689V129.907C190.672 129.566 190.778 129.19 190.99 128.779C191.201 128.367 191.495 127.956 191.871 127.544C192.248 127.133 192.688 126.751 193.194 126.398L195.064 125.057C195.322 124.881 195.563 124.681 195.787 124.458C196.022 124.234 196.21 123.993 196.351 123.735C196.504 123.464 196.58 123.206 196.58 122.959C196.58 122.653 196.504 122.377 196.351 122.13C196.21 121.883 195.998 121.689 195.716 121.548C195.434 121.407 195.087 121.336 194.676 121.336C194.323 121.336 194.005 121.407 193.723 121.548C193.453 121.689 193.229 121.877 193.053 122.112C192.877 122.347 192.753 122.6 192.683 122.871L190.196 122.447C190.313 121.859 190.566 121.313 190.954 120.807C191.342 120.302 191.848 119.896 192.471 119.59C193.106 119.273 193.823 119.114 194.623 119.114C195.54 119.114 196.327 119.279 196.986 119.608C197.644 119.937 198.15 120.39 198.503 120.966C198.867 121.53 199.049 122.189 199.049 122.941C199.049 123.705 198.838 124.387 198.414 124.987C198.003 125.575 197.433 126.127 196.704 126.645L195.028 127.862C194.687 128.097 194.393 128.355 194.146 128.638C193.9 128.92 193.711 129.231 193.582 129.572H199.208V131.689H190.672ZM96.1135 152.9C95.4904 152.9 94.9084 152.824 94.3675 152.671C93.8267 152.518 93.3446 152.307 92.9214 152.036C92.4981 151.754 92.1454 151.442 91.8632 151.101C91.5928 150.76 91.4164 150.402 91.3341 150.026L93.6974 149.32C93.8502 149.72 94.1206 150.067 94.5086 150.361C94.8966 150.643 95.3846 150.79 95.9724 150.802C96.5956 150.813 97.1012 150.678 97.4892 150.396C97.8889 150.114 98.0888 149.749 98.0888 149.303C98.0888 148.915 97.9301 148.591 97.6126 148.333C97.3069 148.062 96.8836 147.856 96.3428 147.715L94.7379 147.292C94.1383 147.139 93.6092 146.91 93.1506 146.604C92.6921 146.287 92.3335 145.899 92.0748 145.44C91.8161 144.982 91.6868 144.447 91.6868 143.835C91.6868 142.671 92.0689 141.766 92.8332 141.119C93.6092 140.461 94.7026 140.132 96.1135 140.132C96.9013 140.132 97.5891 140.249 98.177 140.484C98.7766 140.708 99.2763 141.031 99.6761 141.454C100.076 141.878 100.382 142.377 100.593 142.953L98.2475 143.677C98.1064 143.277 97.8478 142.936 97.4715 142.654C97.0953 142.371 96.6191 142.23 96.043 142.23C95.4551 142.23 94.9907 142.366 94.6497 142.636C94.3205 142.906 94.1559 143.289 94.1559 143.782C94.1559 144.17 94.2852 144.476 94.5439 144.699C94.8143 144.923 95.1788 145.093 95.6373 145.211L97.2599 145.617C98.3181 145.875 99.1411 146.34 99.729 147.01C100.317 147.68 100.611 148.427 100.611 149.25C100.611 149.979 100.434 150.619 100.082 151.172C99.729 151.713 99.2175 152.136 98.5473 152.442C97.8772 152.748 97.0659 152.9 96.1135 152.9ZM110.812 152.689V140.343H113.228V152.689H110.812ZM102.682 152.689V140.326H105.098V152.689H102.682ZM104.481 147.486V145.264H111.958V147.486H104.481ZM121.553 152.9C120.306 152.9 119.201 152.63 118.237 152.089C117.285 151.536 116.538 150.784 115.997 149.832C115.456 148.868 115.186 147.768 115.186 146.534C115.186 145.276 115.456 144.17 115.997 143.218C116.538 142.254 117.279 141.501 118.219 140.961C119.172 140.42 120.265 140.149 121.5 140.149C122.746 140.149 123.839 140.426 124.78 140.978C125.732 141.519 126.479 142.272 127.02 143.236C127.561 144.188 127.831 145.287 127.831 146.534C127.831 147.768 127.561 148.868 127.02 149.832C126.491 150.784 125.75 151.536 124.798 152.089C123.857 152.63 122.775 152.9 121.553 152.9ZM121.553 150.696C122.305 150.696 122.963 150.519 123.528 150.167C124.104 149.802 124.551 149.308 124.868 148.685C125.197 148.062 125.362 147.345 125.362 146.534C125.362 145.711 125.197 144.988 124.868 144.364C124.539 143.741 124.086 143.253 123.51 142.901C122.934 142.536 122.264 142.354 121.5 142.354C120.759 142.354 120.095 142.536 119.507 142.901C118.931 143.253 118.478 143.741 118.149 144.364C117.82 144.988 117.655 145.711 117.655 146.534C117.655 147.345 117.82 148.062 118.149 148.685C118.478 149.308 118.936 149.802 119.524 150.167C120.112 150.519 120.788 150.696 121.553 150.696ZM129.791 152.689V140.343H134.376C135.246 140.343 136.016 140.52 136.686 140.872C137.357 141.213 137.88 141.695 138.256 142.319C138.632 142.93 138.82 143.641 138.82 144.453C138.82 145.252 138.638 145.963 138.274 146.587C137.909 147.21 137.41 147.704 136.775 148.068C136.14 148.421 135.405 148.597 134.57 148.597H132.207V152.689H129.791ZM132.207 146.375H134.517C135.058 146.375 135.499 146.199 135.84 145.846C136.193 145.481 136.369 145.017 136.369 144.453C136.369 143.888 136.175 143.43 135.787 143.077C135.411 142.724 134.923 142.548 134.323 142.548H132.207V146.375ZM140.029 148.438V146.445H145.32V148.438H140.029ZM153.26 152.9C152.014 152.9 150.908 152.63 149.944 152.089C148.992 151.536 148.245 150.784 147.705 149.832C147.164 148.868 146.893 147.768 146.893 146.534C146.893 145.276 147.164 144.17 147.705 143.218C148.245 142.254 148.986 141.501 149.927 140.961C150.879 140.42 151.973 140.149 153.207 140.149C154.453 140.149 155.547 140.426 156.487 140.978C157.44 141.519 158.186 142.272 158.727 143.236C159.268 144.188 159.539 145.287 159.539 146.534C159.539 147.768 159.268 148.868 158.727 149.832C158.198 150.784 157.457 151.536 156.505 152.089C155.564 152.63 154.483 152.9 153.26 152.9ZM153.26 150.696C154.012 150.696 154.671 150.519 155.235 150.167C155.811 149.802 156.258 149.308 156.576 148.685C156.905 148.062 157.069 147.345 157.069 146.534C157.069 145.711 156.905 144.988 156.576 144.364C156.246 143.741 155.794 143.253 155.218 142.901C154.642 142.536 153.971 142.354 153.207 142.354C152.466 142.354 151.802 142.536 151.214 142.901C150.638 143.253 150.185 143.741 149.856 144.364C149.527 144.988 149.362 145.711 149.362 146.534C149.362 147.345 149.527 148.062 149.856 148.685C150.185 149.308 150.644 149.802 151.232 150.167C151.82 150.519 152.496 150.696 153.26 150.696ZM161.498 152.689V140.343H169.417V142.548H163.914V145.511H168.5V147.715H163.914V152.689H161.498ZM171.264 152.689V140.343H179.182V142.548H173.68V145.511H178.265V147.715H173.68V152.689H171.264ZM181.029 152.689V140.343H183.445V152.689H181.029ZM191.577 152.9C190.377 152.9 189.313 152.63 188.384 152.089C187.456 151.536 186.727 150.784 186.197 149.832C185.668 148.868 185.404 147.762 185.404 146.516C185.404 145.27 185.668 144.17 186.197 143.218C186.727 142.254 187.45 141.501 188.367 140.961C189.296 140.408 190.36 140.132 191.559 140.132C192.405 140.132 193.193 140.285 193.922 140.59C194.651 140.884 195.286 141.302 195.827 141.842C196.379 142.371 196.803 142.983 197.097 143.677L194.857 144.505C194.657 144.07 194.392 143.694 194.063 143.377C193.734 143.048 193.358 142.795 192.935 142.618C192.511 142.43 192.053 142.336 191.559 142.336C190.842 142.336 190.201 142.518 189.637 142.883C189.084 143.236 188.649 143.724 188.331 144.347C188.026 144.97 187.873 145.693 187.873 146.516C187.873 147.339 188.032 148.068 188.349 148.703C188.667 149.326 189.107 149.82 189.672 150.184C190.236 150.537 190.883 150.713 191.612 150.713C192.117 150.713 192.576 150.619 192.987 150.431C193.411 150.231 193.781 149.961 194.099 149.62C194.428 149.279 194.692 148.885 194.892 148.438L197.132 149.25C196.838 149.967 196.415 150.602 195.862 151.154C195.321 151.707 194.686 152.136 193.957 152.442C193.228 152.748 192.435 152.9 191.577 152.9ZM198.906 152.689V140.343H206.719V142.548H201.323V145.352H205.979V147.504H201.323V150.484H206.79V152.689H198.906Z" fill="white"/>
<path d="M88.5148 187.832C87.2567 187.832 86.1397 187.562 85.1639 187.021C84.1997 186.468 83.4414 185.716 82.8888 184.764C82.3362 183.799 82.0599 182.694 82.0599 181.448C82.0599 180.202 82.3362 179.102 82.8888 178.15C83.4414 177.186 84.1997 176.433 85.1639 175.892C86.1397 175.34 87.2567 175.064 88.5148 175.064C89.2672 175.064 89.9609 175.175 90.5959 175.399C91.2308 175.622 91.7892 175.934 92.2713 176.333C92.7651 176.721 93.1766 177.168 93.5058 177.674L91.5306 178.908C91.3307 178.591 91.0662 178.309 90.7369 178.062C90.4195 177.815 90.0668 177.621 89.6788 177.48C89.2908 177.339 88.9028 177.268 88.5148 177.268C87.7388 177.268 87.051 177.45 86.4513 177.815C85.8517 178.168 85.3814 178.655 85.0404 179.279C84.6994 179.902 84.529 180.625 84.529 181.448C84.529 182.259 84.6936 182.982 85.0228 183.617C85.3637 184.252 85.8399 184.752 86.4513 185.116C87.0627 185.469 87.7682 185.645 88.5677 185.645C89.1908 185.645 89.7434 185.522 90.2255 185.275C90.7193 185.028 91.1073 184.681 91.3895 184.234C91.6717 183.788 91.8128 183.27 91.8128 182.682L94.1055 182.33C94.1055 183.494 93.8644 184.487 93.3824 185.31C92.9121 186.133 92.2537 186.762 91.4071 187.197C90.5723 187.621 89.6082 187.832 88.5148 187.832ZM88.9204 182.894V181.007H94.1055V182.506L92.8004 182.894H88.9204ZM104.013 187.621L99.2861 175.275H101.702L106.57 187.621H104.013ZM94.2598 187.621L99.1274 175.275H101.544L96.8171 187.621H94.2598ZM96.5525 184.905V182.771H104.295V184.905H96.5525ZM108.049 187.621V175.275H112.634C113.505 175.275 114.275 175.446 114.945 175.787C115.615 176.128 116.138 176.598 116.514 177.198C116.891 177.785 117.079 178.473 117.079 179.261C117.079 180.037 116.879 180.731 116.479 181.342C116.091 181.942 115.556 182.412 114.874 182.753C114.192 183.082 113.416 183.247 112.546 183.247H110.465V187.621H108.049ZM114.839 187.621L111.982 182.665L113.834 181.342L117.573 187.621H114.839ZM110.465 181.042H112.652C113.017 181.042 113.34 180.966 113.622 180.813C113.916 180.66 114.145 180.449 114.31 180.178C114.486 179.908 114.574 179.602 114.574 179.261C114.574 178.732 114.38 178.303 113.992 177.974C113.616 177.644 113.128 177.48 112.529 177.48H110.465V181.042ZM119.416 187.621V175.275H123.367C124.625 175.275 125.736 175.54 126.7 176.069C127.676 176.598 128.434 177.327 128.975 178.256C129.528 179.173 129.804 180.237 129.804 181.448C129.804 182.647 129.528 183.711 128.975 184.64C128.434 185.569 127.676 186.298 126.7 186.827C125.736 187.356 124.625 187.621 123.367 187.621H119.416ZM121.832 185.363H123.367C123.931 185.363 124.454 185.263 124.936 185.063C125.418 184.863 125.836 184.587 126.189 184.234C126.553 183.882 126.835 183.47 127.035 183C127.235 182.518 127.335 182.001 127.335 181.448C127.335 180.895 127.235 180.384 127.035 179.914C126.835 179.431 126.553 179.014 126.189 178.661C125.836 178.309 125.418 178.032 124.936 177.832C124.454 177.633 123.931 177.533 123.367 177.533H121.832V185.363ZM131.765 187.621V175.275H139.578V177.48H134.181V180.284H138.837V182.436H134.181V185.416H139.648V187.621H131.765ZM142.151 187.621V175.275H144.673L150.704 183.564V175.275H153.103V187.621H150.704L144.567 179.173V187.621H142.151ZM163.979 187.621L168.653 175.275H171.245L166.343 187.621H163.979ZM163.715 187.621L158.794 175.275H161.387L166.078 187.621H163.715ZM172.721 187.621V175.275H175.137V187.621H172.721ZM177.819 187.621V175.275H180.235V185.416H185.667V187.621H177.819ZM187.292 187.621V175.275H189.708V185.416H195.14V187.621H187.292ZM205.318 187.621L200.592 175.275H203.008L207.875 187.621H205.318ZM195.565 187.621L200.433 175.275H202.849L198.123 187.621H195.565ZM197.858 184.905V182.771H205.6V184.905H197.858ZM213.499 187.832C212.876 187.832 212.294 187.756 211.753 187.603C211.212 187.45 210.73 187.238 210.307 186.968C209.884 186.686 209.531 186.374 209.249 186.033C208.978 185.692 208.802 185.334 208.72 184.958L211.083 184.252C211.236 184.652 211.506 184.999 211.894 185.293C212.282 185.575 212.77 185.722 213.358 185.734C213.981 185.745 214.487 185.61 214.875 185.328C215.274 185.046 215.474 184.681 215.474 184.234C215.474 183.846 215.316 183.523 214.998 183.264C214.692 182.994 214.269 182.788 213.728 182.647L212.123 182.224C211.524 182.071 210.995 181.842 210.536 181.536C210.078 181.219 209.719 180.831 209.46 180.372C209.202 179.914 209.072 179.379 209.072 178.767C209.072 177.603 209.454 176.698 210.219 176.051C210.995 175.393 212.088 175.064 213.499 175.064C214.287 175.064 214.975 175.181 215.562 175.416C216.162 175.64 216.662 175.963 217.062 176.386C217.461 176.81 217.767 177.309 217.979 177.885L215.633 178.608C215.492 178.209 215.233 177.868 214.857 177.586C214.481 177.303 214.005 177.162 213.428 177.162C212.841 177.162 212.376 177.297 212.035 177.568C211.706 177.838 211.541 178.22 211.541 178.714C211.541 179.102 211.671 179.408 211.929 179.631C212.2 179.855 212.564 180.025 213.023 180.143L214.645 180.548C215.704 180.807 216.527 181.272 217.114 181.942C217.702 182.612 217.996 183.358 217.996 184.182C217.996 184.91 217.82 185.551 217.467 186.104C217.114 186.645 216.603 187.068 215.933 187.374C215.263 187.679 214.451 187.832 213.499 187.832ZM61.4892 208.832C60.866 208.832 60.284 208.756 59.7432 208.603C59.2023 208.45 58.7203 208.238 58.297 207.968C57.8737 207.686 57.521 207.374 57.2388 207.033C56.9684 206.692 56.792 206.334 56.7097 205.958L59.073 205.252C59.2259 205.652 59.4963 205.999 59.8843 206.293C60.2723 206.575 60.7602 206.722 61.3481 206.734C61.9712 206.745 62.4768 206.61 62.8648 206.328C63.2646 206.046 63.4644 205.681 63.4644 205.234C63.4644 204.846 63.3057 204.523 62.9883 204.264C62.6826 203.994 62.2593 203.788 61.7185 203.647L60.1135 203.224C59.5139 203.071 58.9848 202.842 58.5263 202.536C58.0677 202.219 57.7091 201.831 57.4505 201.372C57.1918 200.914 57.0625 200.379 57.0625 199.767C57.0625 198.603 57.4446 197.698 58.2088 197.051C58.9848 196.393 60.0783 196.064 61.4892 196.064C62.2769 196.064 62.9648 196.181 63.5526 196.416C64.1523 196.64 64.652 196.963 65.0517 197.386C65.4515 197.81 65.7572 198.309 65.9688 198.885L63.6232 199.608C63.4821 199.209 63.2234 198.868 62.8472 198.586C62.4709 198.303 61.9948 198.162 61.4186 198.162C60.8308 198.162 60.3663 198.297 60.0254 198.568C59.6962 198.838 59.5316 199.22 59.5316 199.714C59.5316 200.102 59.6609 200.408 59.9195 200.631C60.19 200.855 60.5545 201.025 61.013 201.143L62.6355 201.548C63.6937 201.807 64.5167 202.272 65.1046 202.942C65.6925 203.612 65.9864 204.358 65.9864 205.182C65.9864 205.91 65.8101 206.551 65.4574 207.104C65.1046 207.645 64.5932 208.068 63.923 208.374C63.2528 208.679 62.4415 208.832 61.4892 208.832ZM68.0573 208.621V196.275H75.8702V198.48H70.4735V201.284H75.1295V203.436H70.4735V206.416H75.9408V208.621H68.0573ZM78.4428 208.621V196.275H81.0706L84.6684 201.601L88.2662 196.275H90.8764V208.621H88.4778V200.049L84.6684 205.658L80.8589 200.067V208.621H78.4428ZM93.5645 208.621V196.275H95.9807V208.621H93.5645ZM98.2745 204.37V202.377H103.565V204.37H98.2745ZM105.862 208.621V196.275H109.812C111.07 196.275 112.181 196.54 113.146 197.069C114.121 197.598 114.88 198.327 115.421 199.256C115.973 200.173 116.25 201.237 116.25 202.448C116.25 203.647 115.973 204.711 115.421 205.64C114.88 206.569 114.121 207.298 113.146 207.827C112.181 208.356 111.07 208.621 109.812 208.621H105.862ZM108.278 206.363H109.812C110.377 206.363 110.9 206.263 111.382 206.063C111.864 205.863 112.281 205.587 112.634 205.234C112.999 204.882 113.281 204.47 113.481 204C113.68 203.518 113.78 203.001 113.78 202.448C113.78 201.895 113.68 201.384 113.481 200.914C113.281 200.431 112.999 200.014 112.634 199.661C112.281 199.309 111.864 199.032 111.382 198.832C110.9 198.633 110.377 198.533 109.812 198.533H108.278V206.363ZM125.552 208.85C124.823 208.85 124.177 208.709 123.612 208.427C123.048 208.144 122.607 207.756 122.29 207.263C121.972 206.769 121.813 206.199 121.813 205.552C121.813 205.105 121.896 204.694 122.06 204.317C122.225 203.941 122.454 203.594 122.748 203.277C123.042 202.948 123.371 202.66 123.736 202.413L126.064 200.808C126.252 200.678 126.452 200.531 126.663 200.367C126.887 200.202 127.081 200.008 127.245 199.785C127.422 199.55 127.51 199.285 127.51 198.991C127.51 198.65 127.386 198.386 127.14 198.198C126.893 197.998 126.581 197.898 126.205 197.898C125.852 197.898 125.552 197.998 125.305 198.198C125.07 198.397 124.953 198.656 124.953 198.974C124.953 199.279 125.047 199.55 125.235 199.785C125.423 200.008 125.64 200.273 125.887 200.578L128.233 203.4L132.554 208.621H129.838L126.558 204.705L124.088 201.707C123.771 201.296 123.506 200.937 123.295 200.631C123.095 200.314 122.948 200.026 122.854 199.767C122.76 199.497 122.713 199.226 122.713 198.956C122.713 198.392 122.86 197.892 123.154 197.457C123.459 197.022 123.865 196.681 124.371 196.434C124.888 196.175 125.464 196.046 126.099 196.046C126.793 196.046 127.41 196.175 127.951 196.434C128.492 196.681 128.915 197.028 129.221 197.474C129.538 197.921 129.697 198.444 129.697 199.044C129.697 199.526 129.573 199.973 129.326 200.384C129.08 200.784 128.715 201.19 128.233 201.601C127.763 202.013 127.187 202.454 126.505 202.924L125.252 203.788C125.064 203.918 124.888 204.065 124.723 204.229C124.571 204.394 124.447 204.582 124.353 204.794C124.259 204.993 124.212 205.229 124.212 205.499C124.212 205.899 124.347 206.228 124.618 206.487C124.9 206.745 125.258 206.875 125.693 206.875C126.187 206.875 126.675 206.798 127.157 206.645C127.639 206.492 128.074 206.263 128.462 205.958C128.862 205.652 129.174 205.276 129.397 204.829C129.62 204.382 129.732 203.871 129.732 203.294H131.901C131.901 204.376 131.631 205.34 131.09 206.187C130.549 207.022 129.803 207.674 128.85 208.144C127.898 208.615 126.799 208.85 125.552 208.85ZM140.644 208.621V198.48H136.941V196.275H146.747V198.48H143.061V208.621H140.644ZM153.977 208.832C152.731 208.832 151.626 208.562 150.662 208.021C149.709 207.468 148.963 206.716 148.422 205.764C147.881 204.799 147.61 203.7 147.61 202.466C147.61 201.207 147.881 200.102 148.422 199.15C148.963 198.186 149.703 197.433 150.644 196.892C151.596 196.352 152.69 196.081 153.924 196.081C155.171 196.081 156.264 196.357 157.205 196.91C158.157 197.451 158.904 198.203 159.444 199.168C159.985 200.12 160.256 201.219 160.256 202.466C160.256 203.7 159.985 204.799 159.444 205.764C158.915 206.716 158.175 207.468 157.222 208.021C156.282 208.562 155.2 208.832 153.977 208.832ZM153.977 206.628C154.73 206.628 155.388 206.451 155.952 206.099C156.529 205.734 156.975 205.24 157.293 204.617C157.622 203.994 157.787 203.277 157.787 202.466C157.787 201.643 157.622 200.919 157.293 200.296C156.964 199.673 156.511 199.185 155.935 198.832C155.359 198.468 154.689 198.286 153.924 198.286C153.184 198.286 152.519 198.468 151.931 198.832C151.355 199.185 150.903 199.673 150.573 200.296C150.244 200.919 150.08 201.643 150.08 202.466C150.08 203.277 150.244 203.994 150.573 204.617C150.903 205.24 151.361 205.734 151.949 206.099C152.537 206.451 153.213 206.628 153.977 206.628ZM171.765 208.621L175.31 196.275H177.761L174.075 208.621H171.765ZM164.322 208.621L160.672 196.275H163.123L166.633 208.621H164.322ZM164.64 208.621L168.008 196.275H170.195L166.844 208.621H164.64ZM171.536 208.621L168.22 196.275H170.407L173.846 208.621H171.536ZM179.249 208.621V196.275H181.771L187.802 204.564V196.275H190.201V208.621H187.802L181.665 200.173V208.621H179.249ZM201.02 208.621V196.275H203.436V208.621H201.02ZM192.889 208.621V196.258H195.306V208.621H192.889ZM194.688 203.418V201.196H202.166V203.418H194.688ZM211.76 208.832C210.514 208.832 209.409 208.562 208.445 208.021C207.492 207.468 206.746 206.716 206.205 205.764C205.664 204.799 205.394 203.7 205.394 202.466C205.394 201.207 205.664 200.102 206.205 199.15C206.746 198.186 207.486 197.433 208.427 196.892C209.379 196.352 210.473 196.081 211.707 196.081C212.954 196.081 214.047 196.357 214.988 196.91C215.94 197.451 216.687 198.203 217.227 199.168C217.768 200.12 218.039 201.219 218.039 202.466C218.039 203.7 217.768 204.799 217.227 205.764C216.698 206.716 215.958 207.468 215.005 208.021C214.065 208.562 212.983 208.832 211.76 208.832ZM211.76 206.628C212.513 206.628 213.171 206.451 213.735 206.099C214.312 205.734 214.758 205.24 215.076 204.617C215.405 203.994 215.57 203.277 215.57 202.466C215.57 201.643 215.405 200.919 215.076 200.296C214.747 199.673 214.294 199.185 213.718 198.832C213.142 198.468 212.472 198.286 211.707 198.286C210.967 198.286 210.302 198.468 209.714 198.832C209.138 199.185 208.686 199.673 208.356 200.296C208.027 200.919 207.863 201.643 207.863 202.466C207.863 203.277 208.027 203.994 208.356 204.617C208.686 205.24 209.144 205.734 209.732 206.099C210.32 206.451 210.996 206.628 211.76 206.628ZM219.998 208.621V196.275H222.626L226.224 201.601L229.822 196.275H232.432V208.621H230.033V200.049L226.224 205.658L222.414 200.067V208.621H219.998ZM235.12 208.621V196.275H242.933V198.48H237.536V201.284H242.192V203.436H237.536V206.416H243.003V208.621H235.12Z" fill="white"/>
</svg>
