<svg width="284" height="222" viewBox="0 0 284 222" fill="none" xmlns="http://www.w3.org/2000/svg">
<path d="M271.27 221.813H29.4677C22.5548 221.813 16.9507 216.208 16.9507 209.293V45.0696H283.787V209.293C283.787 216.208 278.183 221.813 271.27 221.813Z" fill="#736D9B"/>
<path d="M108.954 83.8381V81.3514H103.804V79.3938H108.954V77.8065H106.538C105.779 77.8065 104.986 77.9123 104.827 78.1063C104.721 77.6654 104.368 76.6954 104.139 76.1311C104.509 76.0252 104.792 75.6372 105.144 75.02C105.285 74.7731 105.55 74.244 105.85 73.5562H103.963V71.7573H106.538C106.732 71.1753 106.908 70.5933 107.067 69.9936L109.254 70.5756C109.13 70.9636 108.989 71.3516 108.83 71.7573H114.685V73.5562H108.09C107.719 74.3674 107.314 75.1787 106.908 75.8665H108.954V74.1382H111.123V75.8665H114.139L114.121 77.8065H111.123V79.3938H114.879V81.3514H111.123V83.8381H108.954ZM103.539 73.274L101.829 74.4556C101.388 73.5914 100.33 72.2158 99.5006 71.2105L101.106 70.1524C101.952 71.0871 103.063 72.4098 103.539 73.274ZM102.957 75.8312V82.7447C103.24 82.9387 103.575 83.168 103.998 83.4149C105.215 84.1379 106.855 84.2438 108.901 84.2438C110.788 84.2438 113.715 84.0674 115.514 83.7852C115.285 84.4025 114.915 85.4959 114.897 86.1309C113.61 86.2014 110.664 86.3249 108.795 86.3249C106.467 86.3249 104.986 86.1132 103.68 85.3725C102.869 84.9316 102.234 84.3496 101.846 84.3496C101.335 84.3496 100.594 85.5489 99.9944 86.6423L98.4601 84.5259C99.289 83.5736 100.171 82.9034 100.947 82.5507V77.7536H98.9363V75.8312H102.957ZM126.194 77.542L126.441 79.4643C125.842 79.6231 125.242 79.7994 124.625 79.9581V84.1379C124.625 85.1256 124.448 85.6194 123.884 85.9369C123.337 86.2543 122.544 86.3072 121.415 86.3072C121.344 85.7781 121.08 84.9669 120.833 84.4378C121.45 84.4554 122.103 84.4554 122.314 84.4554C122.544 84.4554 122.614 84.3849 122.614 84.1556V80.4872C121.944 80.6636 121.309 80.84 120.709 80.981L120.392 78.9352C121.027 78.8118 121.785 78.6354 122.614 78.4414V75.3022H120.621V73.3622H122.614V70.0289H124.625V73.3622H126.212V75.3022H124.625V77.9476L126.194 77.542ZM129.051 72.7978V70.2229H131.062V86.4483H129.051V82.145H126.388V80.258H129.051V78.3532H126.829V76.5367H129.051V74.632H126.776V72.7978H129.051ZM136.9 80.2932V82.1803H134.272V86.4836H132.261V70.2053H134.272V72.7978H136.67V74.632H134.272V76.5367H136.547V78.3532H134.272V80.2932H136.9ZM147.844 79.094V82.974C148.92 82.78 150.049 82.5683 151.124 82.3567L151.283 84.2261C148.391 84.861 145.287 85.4959 143.012 85.9898L142.43 83.8734C143.329 83.7323 144.493 83.5559 145.763 83.3443V79.094H143.1V77.0658H150.666V79.094H147.844ZM158.196 75.0552H153.417C153.787 80.2051 154.863 84.279 156.151 84.279C156.521 84.279 156.733 83.3443 156.821 81.1045C157.297 81.5983 158.073 82.1098 158.655 82.339C158.338 85.6723 157.632 86.4836 155.957 86.4836C152.941 86.4836 151.618 81.2632 151.195 75.0552H142.43V73.0094H151.089C151.054 72.0571 151.036 71.0694 151.036 70.0994H153.294C153.276 71.0694 153.276 72.0571 153.311 73.0094H156.098C155.622 72.4098 154.74 71.6867 154.034 71.1576L155.428 70.0113C156.221 70.558 157.262 71.3869 157.738 71.9689L156.539 73.0094H158.196V75.0552ZM167.554 70.0818L169.599 70.7167C169.141 71.9513 168.559 73.2034 167.906 74.3851V86.4659H165.79V77.6478C165.42 78.0887 165.049 78.5296 164.697 78.9176C164.503 78.4061 163.903 77.2069 163.533 76.6778C165.137 75.0905 166.672 72.5862 167.554 70.0818ZM175.666 83.9439H180.217V85.9369H168.841V83.9439H173.532V80.399H169.811V78.4238H173.532V75.3198H169.229V73.3269H173.973C173.762 72.5862 173.233 71.4574 172.721 70.5933L174.661 69.9407C175.19 70.7696 175.807 71.916 176.054 72.6743L174.238 73.3269H179.97V75.3198H175.666V78.4238H179.476V80.399H175.666V83.9439ZM188.163 73.5562V75.5491H186.029V71.5633H192.572C192.413 71.1576 192.219 70.7343 192.043 70.3816L194.124 69.7644C194.459 70.3111 194.794 70.9989 194.97 71.5633H201.108V75.5491H198.868V73.5562H188.163ZM195.253 84.1203H198.251C199.203 84.1203 199.362 83.7323 199.503 81.6689C199.997 82.0392 200.949 82.4096 201.602 82.5507C201.302 85.3725 200.649 86.1838 198.427 86.1838H195.023C192.448 86.1838 191.743 85.4959 191.743 83.2561V81.3338L185.905 81.9334L185.641 79.9052L191.743 79.3056V77.3656C190.438 77.5596 189.098 77.7183 187.845 77.8418C187.757 77.3127 187.457 76.4662 187.21 76.0076C190.808 75.6372 194.706 74.9494 197.051 73.9971L198.674 75.7254C197.316 76.2369 195.711 76.6425 194.036 76.96V79.0763L201.161 78.3709L201.408 80.3109L194.036 81.0869V83.2385C194.036 84.0145 194.212 84.1203 195.253 84.1203Z" fill="white"/>
<path d="M61.659 186.841V188.817H59.8071V185.536H66.456V184.937H60.9888V183.455H74.022V184.937H68.5195V185.536H75.2918V188.817H73.3518V186.841H68.5195V189.504H66.456V186.841H61.659ZM69.0662 190.386V189.205H73.1755V190.386H69.0662ZM69.0662 187.441H72.7522V188.57H69.0662V187.441ZM61.853 190.386V189.205H65.9093V190.386H61.853ZM62.241 187.441H65.8917V188.57H62.241V187.441ZM72.5406 193.772L73.8809 194.707C72.9109 195.695 71.3413 196.629 69.8951 197.388C70.6182 197.635 71.306 197.882 71.8351 198.076L71.0062 199.592C69.2955 198.799 65.874 197.723 63.352 197.106L64.1457 195.836C65.1333 196.047 66.3149 196.33 67.4789 196.647C68.3784 196.294 69.3837 195.853 70.2655 195.36H61.5708V193.878H67.0733C66.7559 193.525 66.3326 193.137 65.9799 192.855L67.1968 191.956C67.7611 192.379 68.4842 192.996 68.8193 193.42L68.2373 193.878H72.2584L72.5406 193.772ZM67.62 189.575L69.1544 190.563C69.0486 190.633 68.9251 190.721 68.8017 190.792C70.6358 191.48 73.6516 192.132 75.9973 192.414C75.5564 192.82 75.0096 193.578 74.7275 194.072C72.3995 193.631 69.2778 192.679 67.232 191.691C65.098 192.767 62.5231 193.614 60.2128 194.143C59.9659 193.684 59.525 192.996 59.0841 192.555C62.0293 192.009 65.68 190.915 67.62 189.575ZM93.3084 195.377H85.2839V197.035H93.3084V195.377ZM83.1852 199.398V193.737H95.4953V199.398H93.3084V198.693H85.2839V199.398H83.1852ZM85.3192 190.386V191.25H89.0052V190.386H85.3192ZM89.0052 186.912V186.118H85.3192V186.912H89.0052ZM89.0052 189.028V188.252H85.3192V189.028H89.0052ZM91.0686 191.25H96.5006V192.785H85.3192V193.384H83.2557V188.57C82.8854 188.975 82.515 189.346 82.1623 189.681C81.8801 189.275 81.157 188.411 80.7337 188.023C82.3034 186.788 83.8024 184.795 84.6843 182.803L86.6419 183.437C86.4479 183.825 86.2363 184.249 86.0246 184.654H88.9346C88.7759 184.213 88.5643 183.773 88.3879 183.402L90.3279 182.838C90.6277 183.385 90.9804 184.055 91.1921 184.654H96.0597V186.118H91.0686V186.912H95.1779V188.252H91.0686V189.028H95.1955V190.386H91.0686V191.25ZM108.309 188.464H112.083C112.436 187.794 112.806 186.982 113.018 186.33H108.697C108.997 186.894 109.367 187.582 109.561 188.023L108.309 188.464ZM115.91 192.256V190.157H113.071C114.006 190.827 115.17 191.656 115.91 192.256ZM108.08 192.873H113.794C113.089 192.273 112.207 191.638 111.537 191.109L112.471 190.157H109.015L110.408 190.845C109.791 191.515 108.926 192.238 108.08 192.873ZM112.489 195.73V194.319H109.068V195.73H112.489ZM118.662 184.566V186.33H113.477L115.293 186.7C114.94 187.317 114.552 187.935 114.2 188.464H117.85V197.388C117.85 198.322 117.621 198.728 116.969 198.975C116.334 199.222 115.381 199.24 113.97 199.24C113.882 198.781 113.635 198.128 113.388 197.705C114.253 197.74 115.258 197.74 115.522 197.723C115.805 197.723 115.91 197.635 115.91 197.37V192.661L114.87 193.808C114.676 193.631 114.447 193.402 114.164 193.173V197.158H109.068V197.899H107.322V193.42C107.092 193.578 106.863 193.719 106.651 193.843C106.546 193.525 106.122 192.538 105.875 192.132C106.881 191.621 108.168 190.862 108.962 190.157H105.822V199.292H103.812V188.464H107.427C107.216 187.935 106.881 187.247 106.616 186.7L107.798 186.33H102.983V184.566H110.002C109.844 184.125 109.65 183.684 109.473 183.296L111.59 182.785C111.872 183.332 112.172 184.002 112.401 184.566H118.662ZM137.031 196.594V194.442H130.841V196.594H137.031ZM134.615 187.37V189.011H140.012V190.898H134.615V192.52H139.183V199.134H137.031V198.446H130.841V199.134H128.777V192.52H132.446V187.37H134.615ZM134.597 184.848H140.435V186.841H127.79V189.31C127.79 192.167 127.525 196.576 125.885 199.345C125.479 198.993 124.545 198.34 124.033 198.128C125.515 195.589 125.638 191.868 125.638 189.293V184.848H132.234C132.075 184.319 131.846 183.773 131.617 183.314L133.715 182.873C134.086 183.473 134.403 184.213 134.597 184.848ZM149.545 187.829C149.545 188.376 149.721 188.958 150.021 189.575C151.044 188.958 151.838 188.323 151.838 187.37C151.838 186.718 151.538 186.242 150.868 186.242C150.092 186.242 149.545 186.859 149.545 187.829ZM150.039 198.058C147.305 198.058 145.771 196.382 145.771 194.354C145.771 192.538 146.917 191.48 148.222 190.651C147.693 189.663 147.393 188.693 147.393 187.829C147.393 186.012 148.734 184.513 150.815 184.513C152.684 184.513 153.848 185.642 153.848 187.353C153.848 189.081 152.437 190.157 151.044 191.127C151.82 192.097 152.825 193.049 153.866 193.843C154.554 192.926 155.118 191.815 155.471 190.527H157.817C157.34 192.15 156.635 193.649 155.612 195.007C156.459 195.483 157.252 195.818 157.94 195.942L157.305 198.058C156.265 197.829 155.136 197.37 154.042 196.682C152.967 197.529 151.644 198.058 150.039 198.058ZM148.24 194.196C148.24 195.307 149.104 196.065 150.356 196.065C151.009 196.065 151.644 195.818 152.261 195.412C151.15 194.495 150.145 193.455 149.316 192.361C148.681 192.908 148.24 193.49 148.24 194.196ZM168.607 188.464H172.381C172.734 187.794 173.104 186.982 173.316 186.33H168.995C169.295 186.894 169.665 187.582 169.859 188.023L168.607 188.464ZM176.208 192.256V190.157H173.369C174.303 190.827 175.467 191.656 176.208 192.256ZM168.378 192.873H174.092C173.386 192.273 172.504 191.638 171.834 191.109L172.769 190.157H169.312L170.706 190.845C170.088 191.515 169.224 192.238 168.378 192.873ZM172.787 195.73V194.319H169.365V195.73H172.787ZM178.959 184.566V186.33H173.774L175.591 186.7C175.238 187.317 174.85 187.935 174.497 188.464H178.148V197.388C178.148 198.322 177.919 198.728 177.266 198.975C176.631 199.222 175.679 199.24 174.268 199.24C174.18 198.781 173.933 198.128 173.686 197.705C174.55 197.74 175.556 197.74 175.82 197.723C176.102 197.723 176.208 197.635 176.208 197.37V192.661L175.168 193.808C174.974 193.631 174.744 193.402 174.462 193.173V197.158H169.365V197.899H167.619V193.42C167.39 193.578 167.161 193.719 166.949 193.843C166.843 193.525 166.42 192.538 166.173 192.132C167.178 191.621 168.466 190.862 169.259 190.157H166.12V199.292H164.11V188.464H167.725C167.513 187.935 167.178 187.247 166.914 186.7L168.095 186.33H163.281V184.566H170.3C170.141 184.125 169.947 183.684 169.771 183.296L171.887 182.785C172.169 183.332 172.469 184.002 172.698 184.566H178.959ZM189.286 193.085L187.188 193.825C186.817 192.132 185.883 189.31 185.071 187.141L186.994 186.577C187.823 188.64 188.846 191.409 189.286 193.085ZM196.059 196.435H200.627V198.534H184.86V196.435H189.41V183.102H191.579V196.435H193.89V183.102H196.059V192.82C196.941 191.145 197.999 188.64 198.581 186.63L200.468 187.529C199.692 189.751 198.581 192.238 197.664 193.931L196.059 193.12V196.435ZM218.961 196.594V194.442H212.77V196.594H218.961ZM216.544 187.37V189.011H221.941V190.898H216.544V192.52H221.112V199.134H218.961V198.446H212.77V199.134H210.707V192.52H214.375V187.37H216.544ZM216.527 184.848H222.364V186.841H209.719V189.31C209.719 192.167 209.455 196.576 207.815 199.345C207.409 198.993 206.474 198.34 205.963 198.128C207.444 195.589 207.568 191.868 207.568 189.293V184.848H214.164C214.005 184.319 213.776 183.773 213.546 183.314L215.645 182.873C216.015 183.473 216.333 184.213 216.527 184.848ZM232.163 195.906L234.032 194.883C234.103 195.43 234.279 196.188 234.402 196.594C231.193 198.499 230.628 198.94 230.293 199.31C230.152 198.799 229.711 197.917 229.358 197.494C229.764 197.247 230.275 196.7 230.275 195.942V193.331H228.124V191.462H230.275V189.734H229.147V188.164C228.935 188.411 228.723 188.64 228.494 188.852C228.353 188.429 227.895 187.388 227.595 186.947C228.635 185.959 229.552 184.478 230.081 182.926L231.792 183.437C231.651 183.79 231.51 184.178 231.351 184.549H234.12V186.418H230.381C230.064 186.947 229.746 187.423 229.394 187.864H233.873V189.734H232.163V191.462H234.261V193.331H232.163V195.906ZM241.757 190.845V189.645H240.099V190.845H241.757ZM240.099 193.808H241.757V192.538H240.099V193.808ZM236.713 193.808H238.388V192.538H236.713V193.808ZM238.388 189.645H236.713V190.845H238.388V189.645ZM243.979 186.788H240.205V187.882H243.609V197.335C243.609 198.128 243.52 198.622 243.027 198.94C242.568 199.257 241.968 199.292 241.175 199.292C241.104 198.781 240.893 197.987 240.663 197.494C241.051 197.511 241.422 197.511 241.563 197.511C241.721 197.511 241.757 197.458 241.757 197.3V195.518H240.099V199.204H238.388V195.518H236.713V199.31H234.949V187.882H238.3V186.788H234.596V185.025H238.3V182.873H240.205V185.025H241.968C241.563 184.619 241.016 184.143 240.575 183.755L241.827 182.803C242.409 183.261 243.238 183.949 243.661 184.372L242.85 185.025H243.979V186.788Z" fill="white"/>
<path d="M108.954 142.215V139.728H103.804V137.771H108.954V136.183H106.538C105.779 136.183 104.986 136.289 104.827 136.483C104.721 136.042 104.368 135.072 104.139 134.508C104.509 134.402 104.792 134.014 105.144 133.397C105.285 133.15 105.55 132.621 105.85 131.933H103.963V130.134H106.538C106.732 129.552 106.908 128.97 107.067 128.371L109.254 128.953C109.13 129.341 108.989 129.729 108.83 130.134H114.685V131.933H108.09C107.719 132.744 107.314 133.556 106.908 134.243H108.954V132.515H111.123V134.243H114.139L114.121 136.183H111.123V137.771H114.879V139.728H111.123V142.215H108.954ZM103.539 131.651L101.829 132.833C101.388 131.968 100.33 130.593 99.5006 129.587L101.106 128.529C101.952 129.464 103.063 130.787 103.539 131.651ZM102.957 134.208V141.122C103.24 141.316 103.575 141.545 103.998 141.792C105.215 142.515 106.855 142.621 108.901 142.621C110.788 142.621 113.715 142.444 115.514 142.162C115.285 142.779 114.915 143.873 114.897 144.508C113.61 144.578 110.664 144.702 108.795 144.702C106.467 144.702 104.986 144.49 103.68 143.749C102.869 143.309 102.234 142.727 101.846 142.727C101.335 142.727 100.594 143.926 99.9944 145.019L98.4601 142.903C99.289 141.951 100.171 141.28 100.947 140.928V136.131H98.9363V134.208H102.957ZM126.194 135.919L126.441 137.841C125.842 138 125.242 138.176 124.625 138.335V142.515C124.625 143.503 124.448 143.996 123.884 144.314C123.337 144.631 122.544 144.684 121.415 144.684C121.344 144.155 121.08 143.344 120.833 142.815C121.45 142.832 122.103 142.832 122.314 142.832C122.544 142.832 122.614 142.762 122.614 142.533V138.864C121.944 139.041 121.309 139.217 120.709 139.358L120.392 137.312C121.027 137.189 121.785 137.012 122.614 136.818V133.679H120.621V131.739H122.614V128.406H124.625V131.739H126.212V133.679H124.625V136.325L126.194 135.919ZM129.051 131.175V128.6H131.062V144.825H129.051V140.522H126.388V138.635H129.051V136.73H126.829V134.914H129.051V133.009H126.776V131.175H129.051ZM136.9 138.67V140.557H134.272V144.861H132.261V128.582H134.272V131.175H136.67V133.009H134.272V134.914H136.547V136.73H134.272V138.67H136.9ZM147.844 137.471V141.351C148.92 141.157 150.049 140.945 151.124 140.734L151.283 142.603C148.391 143.238 145.287 143.873 143.012 144.367L142.43 142.25C143.329 142.109 144.493 141.933 145.763 141.721V137.471H143.1V135.443H150.666V137.471H147.844ZM158.196 133.432H153.417C153.787 138.582 154.863 142.656 156.151 142.656C156.521 142.656 156.733 141.721 156.821 139.481C157.297 139.975 158.073 140.487 158.655 140.716C158.338 144.049 157.632 144.861 155.957 144.861C152.941 144.861 151.618 139.64 151.195 133.432H142.43V131.386H151.089C151.054 130.434 151.036 129.446 151.036 128.476H153.294C153.276 129.446 153.276 130.434 153.311 131.386H156.098C155.622 130.787 154.74 130.064 154.034 129.535L155.428 128.388C156.221 128.935 157.262 129.764 157.738 130.346L156.539 131.386H158.196V133.432ZM167.554 128.459L169.599 129.094C169.141 130.328 168.559 131.58 167.906 132.762V144.843H165.79V136.025C165.42 136.466 165.049 136.907 164.697 137.295C164.503 136.783 163.903 135.584 163.533 135.055C165.137 133.467 166.672 130.963 167.554 128.459ZM175.666 142.321H180.217V144.314H168.841V142.321H173.532V138.776H169.811V136.801H173.532V133.697H169.229V131.704H173.973C173.762 130.963 173.233 129.834 172.721 128.97L174.661 128.318C175.19 129.147 175.807 130.293 176.054 131.051L174.238 131.704H179.97V133.697H175.666V136.801H179.476V138.776H175.666V142.321ZM188.163 131.933V133.926H186.029V129.94H192.572C192.413 129.535 192.219 129.111 192.043 128.759L194.124 128.141C194.459 128.688 194.794 129.376 194.97 129.94H201.108V133.926H198.868V131.933H188.163ZM195.253 142.497H198.251C199.203 142.497 199.362 142.109 199.503 140.046C199.997 140.416 200.949 140.787 201.602 140.928C201.302 143.749 200.649 144.561 198.427 144.561H195.023C192.448 144.561 191.743 143.873 191.743 141.633V139.711L185.905 140.31L185.641 138.282L191.743 137.683V135.743C190.438 135.937 189.098 136.095 187.845 136.219C187.757 135.69 187.457 134.843 187.21 134.385C190.808 134.014 194.706 133.326 197.051 132.374L198.674 134.102C197.316 134.614 195.711 135.019 194.036 135.337V137.453L201.161 136.748L201.408 138.688L194.036 139.464V141.615C194.036 142.391 194.212 142.497 195.253 142.497Z" fill="white"/>
<path d="M16.6859 92.1816C8.63246 92.1816 2.08057 85.6282 2.08057 77.5729C2.08057 69.5175 8.63246 62.9641 16.6859 62.9641C24.7397 62.9641 31.2916 69.5175 31.2916 77.5729C31.2916 85.6282 24.7397 92.1816 16.6859 92.1816Z" fill="#746D9C"/>
<path d="M13.286 86.3928L19.0198 74.0872L22.879 73.5138L17.2114 86.3928H13.286ZM11.7422 74.2195V70.9557H22.879V73.5138L19.0859 74.2195H11.7422Z" fill="white"/>
<path d="M16.6873 61.5918C7.87828 61.5918 0.711914 68.7602 0.711914 77.5709C0.711914 86.382 7.87828 93.55 16.6873 93.55C25.4964 93.55 32.6627 86.382 32.6627 77.5709C32.6627 68.7602 25.4964 61.5918 16.6873 61.5918ZM16.6873 64.3325C23.9969 64.3325 29.9226 70.2597 29.9226 77.5709C29.9226 84.8825 23.9969 90.8093 16.6873 90.8093C9.37745 90.8093 3.452 84.8825 3.452 77.5709C3.452 70.2597 9.37745 64.3325 16.6873 64.3325Z" fill="white"/>
<path d="M16.6859 150.584C8.63246 150.584 2.08057 144.03 2.08057 135.975C2.08057 127.919 8.63246 121.366 16.6859 121.366C24.7397 121.366 31.2916 127.919 31.2916 135.975C31.2916 144.03 24.7397 150.584 16.6859 150.584Z" fill="#746D9C"/>
<path d="M17.0356 143.997C15.7419 143.997 14.6539 143.82 13.7718 143.468C12.8897 143.1 12.2207 142.6 11.765 141.968C11.3239 141.321 11.1034 140.571 11.1034 139.719C11.1034 138.792 11.3239 137.984 11.765 137.293C12.2207 136.587 12.8897 136.036 13.7718 135.639C14.6539 135.242 15.7419 135.043 17.0356 135.043C18.3441 135.043 19.4321 135.242 20.2995 135.639C21.1816 136.036 21.8506 136.587 22.3063 137.293C22.7621 137.984 22.99 138.792 22.99 139.719C22.99 140.571 22.7621 141.321 22.3063 141.968C21.8506 142.6 21.1816 143.1 20.2995 143.468C19.4321 143.82 18.3441 143.997 17.0356 143.997ZM17.0356 141.064C17.7119 141.064 18.2633 140.895 18.6896 140.557C19.1307 140.204 19.3512 139.763 19.3512 139.233C19.3512 138.616 19.1307 138.123 18.6896 137.756C18.2633 137.374 17.7119 137.182 17.0356 137.182C16.5946 137.182 16.1976 137.271 15.8448 137.447C15.5066 137.609 15.2346 137.844 15.0288 138.153C14.8377 138.461 14.7421 138.822 14.7421 139.233C14.7421 139.586 14.8377 139.902 15.0288 140.182C15.2346 140.446 15.5066 140.659 15.8448 140.821C16.1976 140.983 16.5946 141.064 17.0356 141.064ZM17.0356 136.3C15.8595 136.3 14.8671 136.131 14.0585 135.793C13.2499 135.44 12.6324 134.962 12.206 134.36C11.7797 133.742 11.5665 133.029 11.5665 132.22C11.5665 131.397 11.7797 130.669 12.206 130.037C12.6324 129.405 13.2499 128.913 14.0585 128.56C14.8671 128.207 15.8595 128.03 17.0356 128.03C18.1971 128.03 19.1821 128.207 19.9908 128.56C20.8141 128.913 21.4389 129.405 21.8653 130.037C22.3063 130.669 22.5269 131.397 22.5269 132.22C22.5269 133.029 22.3063 133.742 21.8653 134.36C21.4389 134.962 20.8141 135.44 19.9908 135.793C19.1821 136.131 18.1971 136.3 17.0356 136.3ZM17.0356 134.47C17.6237 134.47 18.1089 134.301 18.4912 133.963C18.8734 133.61 19.0645 133.169 19.0645 132.639C19.0645 132.11 18.8734 131.684 18.4912 131.36C18.1089 131.022 17.6237 130.853 17.0356 130.853C16.4476 130.853 15.9624 131.022 15.5801 131.36C15.2126 131.684 15.0288 132.11 15.0288 132.639C15.0288 133.169 15.2126 133.61 15.5801 133.963C15.9624 134.301 16.4476 134.47 17.0356 134.47Z" fill="white"/>
<path d="M16.6873 119.993C7.87828 119.993 0.711914 127.162 0.711914 135.972C0.711914 144.783 7.87828 151.951 16.6873 151.951C25.4964 151.951 32.6627 144.783 32.6627 135.972C32.6627 127.162 25.4964 119.993 16.6873 119.993ZM16.6873 122.734C23.9969 122.734 29.9226 128.661 29.9226 135.972C29.9226 143.284 23.9969 149.211 16.6873 149.211C9.37745 149.211 3.452 143.284 3.452 135.972C3.452 128.661 9.37745 122.734 16.6873 122.734Z" fill="white"/>
<path d="M16.6859 204.231C8.63246 204.231 2.08057 197.678 2.08057 189.623C2.08057 181.567 8.63246 175.014 16.6859 175.014C24.7397 175.014 31.2916 181.567 31.2916 189.623C31.2916 197.678 24.7397 204.231 16.6859 204.231Z" fill="#746D9C"/>
<path d="M17.2171 181.758C18.2462 181.758 19.1283 181.942 19.8635 182.309C20.5986 182.662 21.2013 183.162 21.6718 183.809C22.1423 184.456 22.4878 185.213 22.7083 186.08C22.9435 186.933 23.0611 187.867 23.0611 188.881C23.0611 189.999 22.9435 191.086 22.7083 192.145C22.4731 193.189 22.1055 194.137 21.6056 194.99C21.1058 195.828 20.4368 196.497 19.5988 196.997C18.7755 197.482 17.7684 197.724 16.5775 197.724C15.7395 197.724 14.9309 197.607 14.1517 197.372C13.3725 197.136 12.6668 196.798 12.0346 196.357L13.7327 193.755C14.1885 194.064 14.6736 194.284 15.1882 194.416C15.7028 194.549 16.1585 194.615 16.5555 194.615C17.5258 194.615 18.305 194.174 18.8931 193.292C19.4959 192.41 19.7826 190.991 19.7532 189.036L20.4809 189.455C20.1281 190.204 19.6135 190.822 18.9372 191.307C18.2756 191.777 17.4744 192.013 16.5334 192.013C15.5631 192.013 14.6957 191.777 13.9312 191.307C13.1814 190.837 12.5933 190.204 12.1669 189.41C11.7406 188.602 11.5274 187.712 11.5274 186.742C11.5274 185.772 11.7553 184.912 12.211 184.162C12.6815 183.412 13.3431 182.824 14.1958 182.398C15.0485 181.971 16.0556 181.758 17.2171 181.758ZM17.195 184.735C16.7834 184.735 16.4158 184.831 16.0924 185.022C15.7689 185.213 15.5116 185.47 15.3205 185.794C15.1441 186.117 15.0559 186.492 15.0559 186.918C15.0559 187.33 15.1441 187.712 15.3205 188.065C15.5116 188.403 15.7689 188.675 16.0924 188.881C16.4158 189.072 16.7834 189.168 17.195 189.168C17.6067 189.168 17.9742 189.072 18.2977 188.881C18.6211 188.675 18.8784 188.403 19.0695 188.065C19.2607 187.712 19.3562 187.33 19.3562 186.918C19.3562 186.492 19.2607 186.117 19.0695 185.794C18.8784 185.47 18.6211 185.213 18.2977 185.022C17.9742 184.831 17.6067 184.735 17.195 184.735Z" fill="white"/>
<path d="M16.6873 173.647C7.87828 173.647 0.711914 180.815 0.711914 189.626C0.711914 198.437 7.87828 205.605 16.6873 205.605C25.4964 205.605 32.6627 198.437 32.6627 189.626C32.6627 180.815 25.4964 173.647 16.6873 173.647ZM16.6873 176.387C23.9969 176.387 29.9226 182.315 29.9226 189.626C29.9226 196.937 23.9969 202.864 16.6873 202.864C9.37745 202.864 3.452 196.937 3.452 189.626C3.452 182.315 9.37745 176.387 16.6873 176.387Z" fill="white"/>
<path d="M283.967 48.7184H16.9507V15.5792C16.9507 7.40535 23.5752 0.779297 31.7472 0.779297H269.171C277.343 0.779297 283.967 7.40535 283.967 15.5792V48.7184Z" fill="#EEEFEF"/>
<path d="M127.095 26.9262H121.275C122.809 28.8838 125.208 30.7533 127.554 31.7762C127.06 32.1994 126.39 33.046 126.037 33.5927C123.956 32.5169 121.91 30.7533 120.305 28.7427V34.3511H118.065V28.8485C116.46 30.7885 114.397 32.4993 112.333 33.5751C111.981 33.046 111.293 32.1994 110.799 31.7585C113.145 30.7533 115.543 28.8838 117.095 26.9262H111.381V24.8451H118.065V22.5876H112.704V20.5066H118.065V17.8788H120.305V20.5066H125.825V22.5876H120.305V24.8451H127.095V26.9262ZM138.719 21.794H135.844C136.462 22.7464 137.114 23.9986 137.344 24.8627L135.668 25.5153H138.719V21.794ZM143.922 21.794H140.941V25.5153H143.904L142.423 25.0038C142.934 24.1396 143.569 22.8169 143.922 21.794ZM147.714 27.5258H142.194C143.71 29.36 145.968 31.0531 148.172 31.9702C147.696 32.3934 147.026 33.2223 146.708 33.7338C144.592 32.6756 142.529 30.912 140.941 28.9014V34.3158H138.719V28.9367C137.114 30.912 135.051 32.6403 132.934 33.6985C132.599 33.1871 131.947 32.3582 131.453 31.9349C133.675 31.0178 135.95 29.3424 137.485 27.5258H131.947V25.5153H135.28C135.086 24.6687 134.522 23.4342 133.957 22.4818L135.774 21.794H132.776V19.7835H138.719V17.8611H140.941V19.7835H147.044V21.794H144.116L146.144 22.3936C145.527 23.54 144.857 24.7216 144.292 25.5153H147.714V27.5258ZM158.897 21.7764H161.454C161.595 21.3355 161.754 20.8769 161.895 20.4007H158.421V18.5313H168.597V20.4007H164.364C164.117 20.8946 163.87 21.3531 163.641 21.7764H167.715V29.9949H165.563V23.6106H160.96V30.0654H158.897V21.7764ZM158.244 27.4905L158.509 29.2542C156.428 29.9773 154.241 30.7533 152.53 31.3353L152.019 29.1131C152.671 28.9544 153.465 28.7604 154.347 28.5311V21.7411H152.319V19.7658H158.174V21.7411H156.428V27.9667L158.244 27.4905ZM164.329 24.2984V27.8962C164.329 30.33 163.218 32.8696 158.262 34.3863C158.015 33.9454 157.398 33.1694 156.939 32.7814C161.631 31.5998 162.23 29.6069 162.23 27.8609V24.2984H164.329ZM163.729 31.494L165.017 30.2418C166.269 30.9825 167.98 32.076 168.809 32.852L167.415 34.2805C166.639 33.4869 164.981 32.3053 163.729 31.494ZM176.923 31.0002H185.089V28.9191H176.923V31.0002ZM185.089 24.8627H176.923V26.9438H185.089V24.8627ZM185.089 20.8593H176.923V22.8875H185.089V20.8593ZM174.807 18.8135H187.311V34.1394H185.089V33.046H176.923V34.1394H174.807V18.8135Z" fill="#736D9B"/>
<path d="M16.8638 106.434H283.701" stroke="white" stroke-width="0.719912" stroke-miterlimit="10"/>
<path d="M16.8638 164.1H283.701" stroke="white" stroke-width="0.719912" stroke-miterlimit="10"/>
</svg>
