<svg width="281" height="101" viewBox="0 0 281 101" fill="none" xmlns="http://www.w3.org/2000/svg">
<path d="M270.783 100.779H26.6064C20.9817 100.779 16.4224 96.5715 16.4224 91.3808L16.4224 48.9077H280.967V91.3808C280.967 96.5715 276.407 100.779 270.783 100.779Z" fill="#48BBA9"/>
<path d="M95.1967 71.9531H98.6207C98.9407 71.3451 99.2767 70.6091 99.4687 70.0171H95.5487C95.8207 70.5291 96.1567 71.1531 96.3327 71.5531L95.1967 71.9531ZM102.093 75.3931V73.4891H99.5167C100.365 74.0971 101.421 74.8491 102.093 75.3931ZM94.9887 75.9531H100.173C99.5327 75.4091 98.7327 74.8331 98.1247 74.3531L98.9727 73.4891H95.8367L97.1007 74.1131C96.5407 74.7211 95.7567 75.3771 94.9887 75.9531ZM98.9887 78.5451V77.2651H95.8847V78.5451H98.9887ZM104.589 68.4171V70.0171H99.8847L101.533 70.3531C101.213 70.9131 100.861 71.4731 100.541 71.9531H103.853V80.0491C103.853 80.8971 103.645 81.2651 103.053 81.4891C102.477 81.7131 101.613 81.7291 100.333 81.7291C100.253 81.3131 100.029 80.7211 99.8047 80.3371C100.589 80.3691 101.501 80.3691 101.741 80.3531C101.997 80.3531 102.093 80.2731 102.093 80.0331V75.7611L101.149 76.8011C100.973 76.6411 100.765 76.4331 100.509 76.2251V79.8411H95.8847V80.5131H94.3007V76.4491C94.0927 76.5931 93.8847 76.7211 93.6927 76.8331C93.5967 76.5451 93.2127 75.6491 92.9887 75.2811C93.9007 74.8171 95.0687 74.1291 95.7887 73.4891H92.9407V81.7771H91.1167V71.9531H94.3967C94.2047 71.4731 93.9007 70.8491 93.6607 70.3531L94.7327 70.0171H90.3647V68.4171H96.7327C96.5887 68.0171 96.4127 67.6171 96.2527 67.2651L98.1727 66.8011C98.4287 67.2971 98.7007 67.9051 98.9087 68.4171H104.589ZM110.653 76.1451L108.749 76.8171C108.413 75.2811 107.565 72.7211 106.829 70.7531L108.573 70.2411C109.325 72.1131 110.253 74.6251 110.653 76.1451ZM116.797 79.1851H120.941V81.0891H106.637V79.1851H110.765V67.0891H112.733V79.1851H114.829V67.0891H116.797V75.9051C117.597 74.3851 118.557 72.1131 119.085 70.2891L120.797 71.1051C120.093 73.1211 119.085 75.3771 118.253 76.9131L116.797 76.1771V79.1851ZM134.269 79.3291V77.3771H128.653V79.3291H134.269ZM132.077 70.9611V72.4491H136.973V74.1611H132.077V75.6331H136.221V81.6331H134.269V81.0091H128.653V81.6331H126.781V75.6331H130.109V70.9611H132.077ZM132.061 68.6731H137.357V70.4811H125.885V72.7211C125.885 75.3131 125.645 79.3131 124.157 81.8251C123.789 81.5051 122.941 80.9131 122.477 80.7211C123.821 78.4171 123.933 75.0411 123.933 72.7051V68.6731H129.917C129.773 68.1931 129.565 67.6971 129.357 67.2811L131.261 66.8811C131.597 67.4251 131.885 68.0971 132.061 68.6731ZM142.941 78.7051L144.637 77.7771C144.701 78.2731 144.861 78.9611 144.973 79.3291C142.061 81.0571 141.549 81.4571 141.245 81.7931C141.117 81.3291 140.717 80.5291 140.397 80.1451C140.765 79.9211 141.229 79.4251 141.229 78.7371V76.3691H139.277V74.6731H141.229V73.1051H140.205V71.6811C140.013 71.9051 139.821 72.1131 139.613 72.3051C139.485 71.9211 139.069 70.9771 138.797 70.5771C139.741 69.6811 140.573 68.3371 141.053 66.9291L142.605 67.3931C142.477 67.7131 142.349 68.0651 142.205 68.4011H144.717V70.0971H141.325C141.037 70.5771 140.749 71.0091 140.429 71.4091H144.493V73.1051H142.941V74.6731H144.845V76.3691H142.941V78.7051ZM151.645 74.1131V73.0251H150.141V74.1131H151.645ZM150.141 76.8011H151.645V75.6491H150.141V76.8011ZM147.069 76.8011H148.589V75.6491H147.069V76.8011ZM148.589 73.0251H147.069V74.1131H148.589V73.0251ZM153.661 70.4331H150.237V71.4251H153.325V80.0011C153.325 80.7211 153.245 81.1691 152.797 81.4571C152.381 81.7451 151.837 81.7771 151.117 81.7771C151.053 81.3131 150.861 80.5931 150.653 80.1451C151.005 80.1611 151.341 80.1611 151.469 80.1611C151.613 80.1611 151.645 80.1131 151.645 79.9691V78.3531H150.141V81.6971H148.589V78.3531H147.069V81.7931H145.469V71.4251H148.509V70.4331H145.149V68.8331H148.509V66.8811H150.237V68.8331H151.837C151.469 68.4651 150.973 68.0331 150.573 67.6811L151.709 66.8171C152.237 67.2331 152.989 67.8571 153.373 68.2411L152.637 68.8331H153.661V70.4331ZM162.422 71.3771C162.422 71.8731 162.582 72.4011 162.854 72.9611C163.782 72.4011 164.502 71.8251 164.502 70.9611C164.502 70.3691 164.23 69.9371 163.622 69.9371C162.918 69.9371 162.422 70.4971 162.422 71.3771ZM162.87 80.6571C160.39 80.6571 158.998 79.1371 158.998 77.2971C158.998 75.6491 160.038 74.6891 161.222 73.9371C160.742 73.0411 160.47 72.1611 160.47 71.3771C160.47 69.7291 161.686 68.3691 163.574 68.3691C165.27 68.3691 166.326 69.3931 166.326 70.9451C166.326 72.5131 165.046 73.4891 163.782 74.3691C164.486 75.2491 165.398 76.1131 166.342 76.8331C166.966 76.0011 167.478 74.9931 167.798 73.8251H169.926C169.494 75.2971 168.854 76.6571 167.926 77.8891C168.694 78.3211 169.414 78.6251 170.038 78.7371L169.462 80.6571C168.518 80.4491 167.494 80.0331 166.502 79.4091C165.526 80.1771 164.326 80.6571 162.87 80.6571ZM161.238 77.1531C161.238 78.1611 162.022 78.8491 163.158 78.8491C163.75 78.8491 164.326 78.6251 164.886 78.2571C163.878 77.4251 162.966 76.4811 162.214 75.4891C161.638 75.9851 161.238 76.5131 161.238 77.1531ZM183.443 67.8891L185.331 67.1211C186.291 69.1051 188.211 71.4411 189.795 72.8331C189.283 73.2011 188.579 73.9531 188.195 74.4651C186.595 72.8171 184.659 70.2251 183.443 67.8891ZM179.059 67.2331L181.139 67.8251C180.099 70.4171 178.403 72.9131 176.723 74.4651C176.323 74.1131 175.443 73.4251 174.931 73.1051C176.659 71.7771 178.195 69.5371 179.059 67.2331ZM183.811 76.1131L185.619 75.2811C186.947 77.0411 188.467 79.3131 189.235 80.8011L187.331 81.8251C187.091 81.2971 186.739 80.6731 186.339 80.0011C178.595 80.6571 177.507 80.7211 176.723 81.0091C176.627 80.6251 176.259 79.5691 175.987 79.0091C176.515 78.8651 176.899 78.4651 177.491 77.7451C178.163 77.0571 180.099 74.3051 181.283 71.6171L183.411 72.5291C182.243 74.7371 180.739 76.8811 179.267 78.6091L185.235 78.2091C184.755 77.4891 184.259 76.7531 183.811 76.1131ZM195.251 74.0171H197.651V73.3611H195.251V74.0171ZM195.251 71.5211V72.1771H197.651V71.5211H195.251ZM201.907 72.1771V71.5211H199.411V72.1771H201.907ZM201.907 74.0171V73.3611H199.411V74.0171H201.907ZM201.267 77.4891H199.411V78.4171L200.483 78.3851C200.387 78.2091 200.275 78.0171 200.163 77.8731L201.267 77.4891ZM203.683 75.2651H199.411V75.9371H204.899V80.1291C204.899 80.9131 204.755 81.2971 204.227 81.5371C203.715 81.7771 202.979 81.7931 202.035 81.7931C201.955 81.3131 201.747 80.7371 201.539 80.3211C202.083 80.3531 202.659 80.3531 202.835 80.3211C203.011 80.3211 203.075 80.2731 203.075 80.1131V77.4891H201.491C201.987 78.2091 202.483 79.1691 202.707 79.8091L201.347 80.3211C201.315 80.1611 201.251 80.0011 201.171 79.8091C198.899 79.9531 196.547 80.0491 194.851 80.1131L194.739 78.5291C195.539 78.5131 196.563 78.4971 197.651 78.4651V77.4891H194.259V81.8251H192.451V75.9371H197.651V75.2651H193.555V70.2731H203.667V69.6651H193.539V71.0731H191.811V68.0491H197.699C197.587 67.7291 197.443 67.4091 197.299 67.1371L199.203 66.7211C199.427 67.1371 199.651 67.6171 199.827 68.0491H205.475V71.0731H203.683V75.2651Z" fill="white"/>
<path d="M280.967 47.8702H16.4224V14.8813C16.4224 6.7448 22.9856 0.148438 31.0819 0.148438H266.308C274.404 0.148438 280.967 6.7448 280.967 14.8813V47.8702Z" fill="#EEEFEF"/>
<path d="M119.165 19.9823H115.99V21.4813H119.165V19.9823ZM115.99 24.9557H119.165V23.3508H115.99V24.9557ZM117.507 28.1479L119.323 27.266C120.205 28.7122 121.281 30.6346 121.757 31.8691L119.8 32.9097C119.658 32.4688 119.447 31.9397 119.182 31.3929C115.038 32.698 114.332 32.9802 113.838 33.3153C113.715 32.7157 113.362 31.6928 113.027 31.1813C113.415 30.9873 113.838 30.6346 113.838 29.9468V18.1128H121.263V26.8251H115.99V30.2995L118.336 29.6293C118.054 29.1179 117.771 28.6064 117.507 28.1479ZM128.565 18.2363V28.3771C128.565 29.3295 128.406 29.8762 127.806 30.229C127.242 30.564 126.431 30.5817 125.302 30.5817C125.232 30.0173 124.985 29.1531 124.72 28.6064C125.355 28.6417 126.008 28.6417 126.202 28.624C126.413 28.624 126.501 28.5535 126.501 28.3242V20.1586H124.367V33.7033H122.251V18.2363H128.565ZM133.82 21.4813V17.2486H135.849V33.6857H133.82V28.1126C133.115 28.7122 132.427 29.3119 131.775 29.8233L130.752 28.0068C131.528 27.4777 132.674 26.6135 133.82 25.6964V22.857L132.903 23.6153C132.48 22.857 131.51 21.6401 130.716 20.7759L132.163 19.6295C132.692 20.1763 133.327 20.8641 133.82 21.4813ZM147.083 25.7493V27.6717H145.178V31.4635C145.178 32.4688 144.984 33.0155 144.261 33.3153C143.556 33.6328 142.533 33.6504 141.175 33.6504C141.104 33.086 140.804 32.2571 140.522 31.6928C141.439 31.728 142.427 31.728 142.727 31.728C143.009 31.728 143.097 31.6575 143.097 31.4282V27.6717H139.111C139.905 28.5535 140.84 29.788 141.245 30.6346L139.411 31.6399C139.058 30.7757 138.177 29.4706 137.365 28.5182L139.005 27.6717H136.413V25.7493H137.365C137.136 25.2555 136.73 24.5677 136.378 24.1797C137.665 23.9328 138.935 23.5624 140.099 23.0686C139.764 22.6277 139.288 22.1162 138.847 21.7459L140.399 20.8641C140.875 21.2344 141.422 21.7459 141.774 22.2221C142.674 21.6577 143.45 21.0228 144.067 20.2644H140.505C139.587 20.9875 138.6 21.6048 137.612 22.081C137.295 21.6753 136.625 21.0404 136.219 20.7053C138.141 19.947 139.887 18.5537 140.822 17.231L142.991 17.7777C142.78 18.0599 142.55 18.3421 142.286 18.6066H145.302L145.654 18.5361L147.03 19.2415C145.355 22.8922 141.739 24.797 137.7 25.7493H143.097V24.0386H145.178V25.7493H147.083ZM157.841 29.0473V30.7051H159.993V29.0473H157.841ZM159.993 23.7564V22.1868H157.841V23.7564H159.993ZM159.993 27.1955V25.6082H157.841V27.1955H159.993ZM165.16 30.7051V32.6275H157.841V33.7209H155.831V24.2502C155.46 24.7441 155.09 25.2202 154.702 25.6435C154.596 25.5201 154.455 25.3613 154.314 25.185L154.508 26.5782C153.961 26.7546 153.379 26.931 152.797 27.0897V31.3048C152.797 32.31 152.621 32.8568 152.056 33.2095C151.51 33.5622 150.734 33.6328 149.587 33.6328C149.534 33.0684 149.287 32.1866 149.023 31.5869C149.64 31.6046 150.257 31.6046 150.469 31.5869C150.681 31.5869 150.769 31.534 150.769 31.2871V27.6893L149.076 28.1479L148.6 26.155C149.217 26.0139 149.958 25.8375 150.769 25.6259V22.4161H148.811V20.4937H150.769V17.2486H152.797V20.4937H154.543V22.4161H152.797V25.0791L153.943 24.7793C153.679 24.5148 153.414 24.2502 153.203 24.0739C154.808 22.4866 156.236 19.9293 157.03 17.3368L159.005 17.8659C158.723 18.6772 158.405 19.4708 158.07 20.2644H160.469C160.24 19.5943 159.852 18.7653 159.464 18.0952L161.28 17.3897C161.756 18.1128 162.25 19.1357 162.479 19.8059L161.421 20.2644H164.772V22.1868H161.95V23.7564H164.578V25.6082H161.95V27.1955H164.56V29.0473H161.95V30.7051H165.16ZM179.816 26.0315H182.179V33.6857H179.816V32.7333H167.7V26.0491H170.063V30.6522H173.767V25.1144H168.634V18.7124H170.857V23.0862H173.767V17.231H176.095V23.0862H179.128V18.7124H181.456V25.1144H176.095V30.6522H179.816V26.0315Z" fill="#48BBA9"/>
<path d="M16.4134 88.563C8.44748 88.563 1.9668 82.0672 1.9668 74.0827C1.9668 66.0981 8.44748 59.6023 16.4134 59.6023C24.3797 59.6023 30.8604 66.0981 30.8604 74.0827C30.8604 82.0672 24.3797 88.563 16.4134 88.563Z" fill="#48BBA9"/>
<path d="M16.416 58.2458C7.70272 58.2458 0.614258 65.3512 0.614258 74.0845C0.614258 82.8182 7.70272 89.9232 16.416 89.9232C25.1293 89.9232 32.2178 82.8182 32.2178 74.0845C32.2178 65.3512 25.1293 58.2458 16.416 58.2458ZM16.416 60.9625C23.6461 60.9625 29.5075 66.8376 29.5075 74.0845C29.5075 81.3319 23.6461 87.2066 16.416 87.2066C9.1856 87.2066 3.32456 81.3319 3.32456 74.0845C3.32456 66.8376 9.1856 60.9625 16.416 60.9625Z" fill="white"/>
<path d="M16.32 81.978C15.2909 81.978 14.4088 81.7942 13.6737 81.4267C12.9385 81.0591 12.3358 80.5519 11.8653 79.905C11.3948 79.2581 11.042 78.5083 10.8068 77.6556C10.5862 76.7882 10.476 75.8546 10.476 74.8549C10.476 73.7375 10.5862 72.6496 10.8068 71.591C11.042 70.5325 11.4095 69.5842 11.9094 68.7462C12.424 67.9082 13.0929 67.2466 13.9162 66.7614C14.7543 66.2615 15.7687 66.0116 16.9596 66.0116C17.7976 66.0116 18.6062 66.1292 19.3854 66.3644C20.1646 66.5997 20.8703 66.9378 21.5025 67.3789L19.7824 69.9811C19.3266 69.6724 18.8414 69.4519 18.3268 69.3196C17.8123 69.1725 17.3565 69.099 16.9596 69.099C15.9892 69.099 15.21 69.5474 14.6219 70.4443C14.0339 71.3264 13.7472 72.7451 13.7619 74.7005L13.0562 74.2815C13.3943 73.517 13.9015 72.8995 14.5778 72.429C15.2541 71.9586 16.0554 71.7233 16.9816 71.7233C17.9666 71.7233 18.8341 71.9586 19.5839 72.429C20.3337 72.8995 20.9218 73.5317 21.3481 74.3256C21.7745 75.1195 21.9877 76.009 21.9877 76.994C21.9877 77.9497 21.7524 78.8024 21.282 79.5522C20.8262 80.302 20.172 80.8974 19.3192 81.3385C18.4812 81.7648 17.4815 81.978 16.32 81.978ZM16.3421 79.0009C16.739 79.0009 17.0992 78.9053 17.4227 78.7142C17.7461 78.523 17.9961 78.2657 18.1725 77.9423C18.3636 77.6042 18.4592 77.2293 18.4592 76.8176C18.4592 76.3912 18.3636 76.009 18.1725 75.6708C17.9961 75.3327 17.7461 75.0681 17.4227 74.8769C17.0992 74.6711 16.739 74.5682 16.3421 74.5682C15.9304 74.5682 15.5555 74.6711 15.2174 74.8769C14.8939 75.0681 14.6366 75.3327 14.4455 75.6708C14.2544 76.009 14.1588 76.3912 14.1588 76.8176C14.1588 77.2293 14.2544 77.6042 14.4455 77.9423C14.6366 78.2657 14.8939 78.523 15.2174 78.7142C15.5555 78.9053 15.9304 79.0009 16.3421 79.0009Z" fill="white"/>
</svg>
