<svg width="284" height="222" viewBox="0 0 284 222" fill="none" xmlns="http://www.w3.org/2000/svg">
<path d="M270.79 221.813H28.9878C22.0749 221.813 16.4707 216.208 16.4707 209.293V45.0696H283.307V209.293C283.307 216.208 277.703 221.813 270.79 221.813Z" fill="#736D9B"/>
<path d="M94.9567 83.9492V71.6038H99.5422C100.412 71.6038 101.182 71.7743 101.853 72.1153C102.523 72.4562 103.046 72.9265 103.422 73.5262C103.798 74.114 103.987 74.8019 103.987 75.5896C103.987 76.3656 103.787 77.0593 103.387 77.6707C102.999 78.2703 102.464 78.7406 101.782 79.0816C101.1 79.4108 100.324 79.5754 99.454 79.5754H97.3729V83.9492H94.9567ZM101.747 83.9492L98.8896 78.9934L100.741 77.6707L104.48 83.9492H101.747ZM97.3729 77.3709H99.5598C99.9243 77.3709 100.248 77.2944 100.53 77.1416C100.824 76.9888 101.053 76.7771 101.218 76.5067C101.394 76.2363 101.482 75.9306 101.482 75.5896C101.482 75.0605 101.288 74.6314 100.9 74.3022C100.524 73.9729 100.036 73.8083 99.4364 73.8083H97.3729V77.3709ZM106.324 83.9492V71.6038H114.137V73.8083H108.74V76.6125H113.396V78.7641H108.74V81.7447H114.207V83.9492H106.324ZM120.854 84.1609C120.231 84.1609 119.649 84.0844 119.108 83.9316C118.567 83.7787 118.085 83.5671 117.662 83.2967C117.238 83.0145 116.886 82.7029 116.604 82.362C116.333 82.021 116.157 81.6624 116.074 81.2861L118.438 80.5807C118.591 80.9804 118.861 81.3273 119.249 81.6212C119.637 81.9034 120.125 82.0504 120.713 82.0621C121.336 82.0739 121.841 81.9387 122.229 81.6565C122.629 81.3743 122.829 81.0098 122.829 80.563C122.829 80.175 122.67 79.8517 122.353 79.593C122.047 79.3226 121.624 79.1169 121.083 78.9758L119.478 78.5525C118.879 78.3997 118.35 78.1704 117.891 77.8647C117.432 77.5472 117.074 77.1592 116.815 76.7007C116.556 76.2421 116.427 75.7072 116.427 75.0958C116.427 73.9318 116.809 73.0265 117.574 72.3798C118.35 71.7214 119.443 71.3922 120.854 71.3922C121.642 71.3922 122.329 71.5097 122.917 71.7449C123.517 71.9683 124.017 72.2916 124.416 72.7149C124.816 73.1382 125.122 73.6379 125.333 74.214L122.988 74.9371C122.847 74.5373 122.588 74.1963 122.212 73.9142C121.836 73.632 121.359 73.4909 120.783 73.4909C120.195 73.4909 119.731 73.6261 119.39 73.8965C119.061 74.1669 118.896 74.5491 118.896 75.0429C118.896 75.4309 119.026 75.7366 119.284 75.96C119.555 76.1834 119.919 76.3538 120.378 76.4714L122 76.8771C123.058 77.1357 123.881 77.6001 124.469 78.2703C125.057 78.9405 125.351 79.6871 125.351 80.5101C125.351 81.2391 125.175 81.8799 124.822 82.4325C124.469 82.9733 123.958 83.3966 123.288 83.7023C122.617 84.008 121.806 84.1609 120.854 84.1609ZM127.422 83.9492V71.6038H129.838V83.9492H127.422ZM132.52 83.9492V71.6038H136.471C137.729 71.6038 138.84 71.8683 139.804 72.3974C140.78 72.9265 141.538 73.6555 142.079 74.5843C142.631 75.5014 142.908 76.5655 142.908 77.7765C142.908 78.9758 142.631 80.0398 142.079 80.9687C141.538 81.8975 140.78 82.6265 139.804 83.1556C138.84 83.6847 137.729 83.9492 136.471 83.9492H132.52ZM134.936 81.6918H136.471C137.035 81.6918 137.558 81.5918 138.04 81.392C138.522 81.1921 138.94 80.9158 139.292 80.563C139.657 80.2103 139.939 79.7988 140.139 79.3285C140.339 78.8464 140.439 78.3291 140.439 77.7765C140.439 77.2239 140.339 76.7125 140.139 76.2422C139.939 75.7601 139.657 75.3427 139.292 74.99C138.94 74.6372 138.522 74.3609 138.04 74.1611C137.558 73.9612 137.035 73.8612 136.471 73.8612H134.936V81.6918ZM144.869 83.9492V71.6038H152.682V73.8083H147.285V76.6125H151.941V78.7641H147.285V81.7447H152.752V83.9492H144.869ZM155.254 83.9492V71.6038H157.776L163.808 79.8929V71.6038H166.206V83.9492H163.808L157.67 75.5014V83.9492H155.254ZM171.505 83.9492V73.8083H167.801V71.6038H177.607V73.8083H173.921V83.9492H171.505ZM179.194 83.9492V71.6038H181.61V83.9492H179.194ZM192.846 83.9492L188.119 71.6038H190.535L195.403 83.9492H192.846ZM183.093 83.9492L187.961 71.6038H190.377L185.65 83.9492H183.093ZM185.386 81.2332V79.0992H193.128V81.2332H185.386ZM196.882 83.9492V71.6038H199.298V81.7447H204.73V83.9492H196.882Z" fill="white"/>
<path d="M98.7721 197.023C97.5728 197.023 96.5088 196.752 95.5799 196.211C94.6511 195.659 93.9221 194.906 93.393 193.954C92.8639 192.99 92.5994 191.885 92.5994 190.638C92.5994 189.392 92.8639 188.293 93.393 187.34C93.9221 186.376 94.6452 185.624 95.5623 185.083C96.4911 184.53 97.5552 184.254 98.7544 184.254C99.601 184.254 100.389 184.407 101.118 184.713C101.847 185.006 102.482 185.424 103.022 185.965C103.575 186.494 103.998 187.105 104.292 187.799L102.052 188.628C101.853 188.193 101.588 187.817 101.259 187.499C100.93 187.17 100.553 186.917 100.13 186.741C99.7068 186.553 99.2483 186.459 98.7544 186.459C98.0372 186.459 97.3965 186.641 96.8321 187.005C96.2795 187.358 95.8445 187.846 95.527 188.469C95.2213 189.092 95.0685 189.815 95.0685 190.638C95.0685 191.461 95.2272 192.19 95.5446 192.825C95.8621 193.448 96.303 193.942 96.8674 194.307C97.4317 194.659 98.0784 194.836 98.8074 194.836C99.3129 194.836 99.7715 194.742 100.183 194.554C100.606 194.354 100.977 194.083 101.294 193.742C101.623 193.401 101.888 193.007 102.088 192.561L104.328 193.372C104.034 194.089 103.61 194.724 103.058 195.277C102.517 195.829 101.882 196.258 101.153 196.564C100.424 196.87 99.6304 197.023 98.7721 197.023ZM111.746 197.023C110.499 197.023 109.394 196.752 108.43 196.211C107.478 195.659 106.731 194.906 106.19 193.954C105.649 192.99 105.379 191.891 105.379 190.656C105.379 189.398 105.649 188.293 106.19 187.34C106.731 186.376 107.472 185.624 108.412 185.083C109.365 184.542 110.458 184.272 111.693 184.272C112.939 184.272 114.032 184.548 114.973 185.101C115.925 185.641 116.672 186.394 117.213 187.358C117.754 188.31 118.024 189.41 118.024 190.656C118.024 191.891 117.754 192.99 117.213 193.954C116.684 194.906 115.943 195.659 114.991 196.211C114.05 196.752 112.968 197.023 111.746 197.023ZM111.746 194.818C112.498 194.818 113.156 194.642 113.721 194.289C114.297 193.925 114.744 193.431 115.061 192.808C115.39 192.184 115.555 191.467 115.555 190.656C115.555 189.833 115.39 189.11 115.061 188.487C114.732 187.864 114.279 187.376 113.703 187.023C113.127 186.658 112.457 186.476 111.693 186.476C110.952 186.476 110.288 186.658 109.7 187.023C109.124 187.376 108.671 187.864 108.342 188.487C108.013 189.11 107.848 189.833 107.848 190.656C107.848 191.467 108.013 192.184 108.342 192.808C108.671 193.431 109.129 193.925 109.717 194.289C110.305 194.642 110.981 194.818 111.746 194.818ZM119.984 196.811V184.466H122.611L126.209 189.792L129.807 184.466H132.417V196.811H130.019V188.24L126.209 193.848L122.4 188.257V196.811H119.984ZM135.105 196.811V184.466H137.733L141.331 189.792L144.929 184.466H147.539V196.811H145.14V188.24L141.331 193.848L137.522 188.257V196.811H135.105ZM150.227 196.811V184.466H158.04V186.67H152.643V189.474H157.299V191.626H152.643V194.606H158.111V196.811H150.227ZM160.613 196.811V184.466H165.198C166.068 184.466 166.838 184.636 167.508 184.977C168.179 185.318 168.702 185.788 169.078 186.388C169.454 186.976 169.642 187.664 169.642 188.451C169.642 189.227 169.442 189.921 169.043 190.533C168.655 191.132 168.12 191.602 167.438 191.943C166.756 192.273 165.98 192.437 165.11 192.437H163.029V196.811H160.613ZM167.403 196.811L164.545 191.855L166.397 190.533L170.136 196.811H167.403ZM163.029 190.233H165.216C165.58 190.233 165.903 190.156 166.186 190.003C166.48 189.851 166.709 189.639 166.873 189.369C167.05 189.098 167.138 188.792 167.138 188.451C167.138 187.922 166.944 187.493 166.556 187.164C166.18 186.835 165.692 186.67 165.092 186.67H163.029V190.233ZM177.429 197.023C176.23 197.023 175.166 196.752 174.237 196.211C173.308 195.659 172.579 194.906 172.05 193.954C171.521 192.99 171.257 191.885 171.257 190.638C171.257 189.392 171.521 188.293 172.05 187.34C172.579 186.376 173.302 185.624 174.22 185.083C175.148 184.53 176.212 184.254 177.412 184.254C178.258 184.254 179.046 184.407 179.775 184.713C180.504 185.006 181.139 185.424 181.68 185.965C182.232 186.494 182.656 187.105 182.95 187.799L180.71 188.628C180.51 188.193 180.245 187.817 179.916 187.499C179.587 187.17 179.211 186.917 178.787 186.741C178.364 186.553 177.906 186.459 177.412 186.459C176.695 186.459 176.054 186.641 175.489 187.005C174.937 187.358 174.502 187.846 174.184 188.469C173.879 189.092 173.726 189.815 173.726 190.638C173.726 191.461 173.884 192.19 174.202 192.825C174.519 193.448 174.96 193.942 175.525 194.307C176.089 194.659 176.736 194.836 177.465 194.836C177.97 194.836 178.429 194.742 178.84 194.554C179.264 194.354 179.634 194.083 179.951 193.742C180.281 193.401 180.545 193.007 180.745 192.561L182.985 193.372C182.691 194.089 182.268 194.724 181.715 195.277C181.174 195.829 180.539 196.258 179.81 196.564C179.081 196.87 178.288 197.023 177.429 197.023ZM184.759 196.811V184.466H187.175V196.811H184.759ZM198.411 196.811L193.684 184.466H196.1L200.968 196.811H198.411ZM188.658 196.811L193.526 184.466H195.942L191.215 196.811H188.658ZM190.951 194.095V191.961H198.693V194.095H190.951ZM202.447 196.811V184.466H204.863V194.606H210.295V196.811H202.447Z" fill="white"/>
<path d="M94.9567 142.326V129.981H99.5422C100.412 129.981 101.182 130.151 101.853 130.492C102.523 130.833 103.046 131.303 103.422 131.903C103.798 132.491 103.987 133.179 103.987 133.967C103.987 134.743 103.787 135.436 103.387 136.048C102.999 136.647 102.464 137.118 101.782 137.459C101.1 137.788 100.324 137.952 99.454 137.952H97.3729V142.326H94.9567ZM101.747 142.326L98.8896 137.37L100.741 136.048L104.48 142.326H101.747ZM97.3729 135.748H99.5598C99.9243 135.748 100.248 135.671 100.53 135.519C100.824 135.366 101.053 135.154 101.218 134.884C101.394 134.613 101.482 134.308 101.482 133.967C101.482 133.437 101.288 133.008 100.9 132.679C100.524 132.35 100.036 132.185 99.4364 132.185H97.3729V135.748ZM106.324 142.326V129.981H114.137V132.185H108.74V134.989H113.396V137.141H108.74V140.122H114.207V142.326H106.324ZM120.854 142.538C120.231 142.538 119.649 142.461 119.108 142.309C118.567 142.156 118.085 141.944 117.662 141.674C117.238 141.391 116.886 141.08 116.604 140.739C116.333 140.398 116.157 140.039 116.074 139.663L118.438 138.958C118.591 139.357 118.861 139.704 119.249 139.998C119.637 140.28 120.125 140.427 120.713 140.439C121.336 140.451 121.841 140.316 122.229 140.033C122.629 139.751 122.829 139.387 122.829 138.94C122.829 138.552 122.67 138.229 122.353 137.97C122.047 137.7 121.624 137.494 121.083 137.353L119.478 136.929C118.879 136.777 118.35 136.547 117.891 136.242C117.432 135.924 117.074 135.536 116.815 135.078C116.556 134.619 116.427 134.084 116.427 133.473C116.427 132.309 116.809 131.403 117.574 130.757C118.35 130.098 119.443 129.769 120.854 129.769C121.642 129.769 122.329 129.887 122.917 130.122C123.517 130.345 124.017 130.669 124.416 131.092C124.816 131.515 125.122 132.015 125.333 132.591L122.988 133.314C122.847 132.914 122.588 132.573 122.212 132.291C121.836 132.009 121.359 131.868 120.783 131.868C120.195 131.868 119.731 132.003 119.39 132.273C119.061 132.544 118.896 132.926 118.896 133.42C118.896 133.808 119.026 134.114 119.284 134.337C119.555 134.56 119.919 134.731 120.378 134.848L122 135.254C123.058 135.513 123.881 135.977 124.469 136.647C125.057 137.317 125.351 138.064 125.351 138.887C125.351 139.616 125.175 140.257 124.822 140.809C124.469 141.35 123.958 141.774 123.288 142.079C122.617 142.385 121.806 142.538 120.854 142.538ZM127.422 142.326V129.981H129.838V142.326H127.422ZM132.52 142.326V129.981H136.471C137.729 129.981 138.84 130.245 139.804 130.774C140.78 131.303 141.538 132.032 142.079 132.961C142.631 133.878 142.908 134.942 142.908 136.153C142.908 137.353 142.631 138.417 142.079 139.346C141.538 140.274 140.78 141.003 139.804 141.533C138.84 142.062 137.729 142.326 136.471 142.326H132.52ZM134.936 140.069H136.471C137.035 140.069 137.558 139.969 138.04 139.769C138.522 139.569 138.94 139.293 139.292 138.94C139.657 138.587 139.939 138.176 140.139 137.705C140.339 137.223 140.439 136.706 140.439 136.153C140.439 135.601 140.339 135.089 140.139 134.619C139.939 134.137 139.657 133.72 139.292 133.367C138.94 133.014 138.522 132.738 138.04 132.538C137.558 132.338 137.035 132.238 136.471 132.238H134.936V140.069ZM144.869 142.326V129.981H152.682V132.185H147.285V134.989H151.941V137.141H147.285V140.122H152.752V142.326H144.869ZM155.254 142.326V129.981H157.776L163.808 138.27V129.981H166.206V142.326H163.808L157.67 133.878V142.326H155.254ZM171.505 142.326V132.185H167.801V129.981H177.607V132.185H173.921V142.326H171.505ZM179.194 142.326V129.981H181.61V142.326H179.194ZM192.846 142.326L188.119 129.981H190.535L195.403 142.326H192.846ZM183.093 142.326L187.961 129.981H190.377L185.65 142.326H183.093ZM185.386 139.61V137.476H193.128V139.61H185.386ZM196.882 142.326V129.981H199.298V140.122H204.73V142.326H196.882Z" fill="white"/>
<path d="M16.2064 92.1816C8.15297 92.1816 1.60107 85.6282 1.60107 77.5729C1.60107 69.5175 8.15297 62.9641 16.2064 62.9641C24.2602 62.9641 30.8121 69.5175 30.8121 77.5729C30.8121 85.6282 24.2602 92.1816 16.2064 92.1816Z" fill="#746D9C"/>
<path d="M12.8062 86.3928L18.54 74.0872L22.3993 73.5138L16.7317 86.3928H12.8062ZM11.2625 74.2195V70.9557H22.3993V73.5138L18.6062 74.2195H11.2625Z" fill="white"/>
<path d="M16.2076 61.5918C7.39854 61.5918 0.232178 68.7602 0.232178 77.5709C0.232178 86.382 7.39854 93.55 16.2076 93.55C25.0166 93.55 32.183 86.382 32.183 77.5709C32.183 68.7602 25.0166 61.5918 16.2076 61.5918ZM16.2076 64.3325C23.5171 64.3325 29.4429 70.2597 29.4429 77.5709C29.4429 84.8825 23.5171 90.8093 16.2076 90.8093C8.89771 90.8093 2.97227 84.8825 2.97227 77.5709C2.97227 70.2597 8.89771 64.3325 16.2076 64.3325Z" fill="white"/>
<path d="M16.2064 150.584C8.15297 150.584 1.60107 144.03 1.60107 135.975C1.60107 127.919 8.15297 121.366 16.2064 121.366C24.2602 121.366 30.8121 127.919 30.8121 135.975C30.8121 144.03 24.2602 150.584 16.2064 150.584Z" fill="#746D9C"/>
<path d="M16.5559 143.997C15.2621 143.997 14.1742 143.82 13.2921 143.468C12.4099 143.1 11.741 142.6 11.2852 141.968C10.8442 141.321 10.6236 140.571 10.6236 139.719C10.6236 138.792 10.8442 137.984 11.2852 137.293C11.741 136.587 12.4099 136.036 13.2921 135.639C14.1742 135.242 15.2621 135.043 16.5559 135.043C17.8644 135.043 18.9523 135.242 19.8198 135.639C20.7019 136.036 21.3708 136.587 21.8266 137.293C22.2824 137.984 22.5102 138.792 22.5102 139.719C22.5102 140.571 22.2824 141.321 21.8266 141.968C21.3708 142.6 20.7019 143.1 19.8198 143.468C18.9523 143.82 17.8644 143.997 16.5559 143.997ZM16.5559 141.064C17.2322 141.064 17.7835 140.895 18.2099 140.557C18.651 140.204 18.8715 139.763 18.8715 139.233C18.8715 138.616 18.651 138.123 18.2099 137.756C17.7835 137.374 17.2322 137.182 16.5559 137.182C16.1149 137.182 15.7179 137.271 15.365 137.447C15.0269 137.609 14.7549 137.844 14.5491 138.153C14.358 138.461 14.2624 138.822 14.2624 139.233C14.2624 139.586 14.358 139.902 14.5491 140.182C14.7549 140.446 15.0269 140.659 15.365 140.821C15.7179 140.983 16.1149 141.064 16.5559 141.064ZM16.5559 136.3C15.3797 136.3 14.3874 136.131 13.5787 135.793C12.7701 135.44 12.1526 134.962 11.7263 134.36C11.2999 133.742 11.0868 133.029 11.0868 132.22C11.0868 131.397 11.2999 130.669 11.7263 130.037C12.1526 129.405 12.7701 128.913 13.5787 128.56C14.3874 128.207 15.3797 128.03 16.5559 128.03C17.7174 128.03 18.7024 128.207 19.511 128.56C20.3343 128.913 20.9592 129.405 21.3855 130.037C21.8266 130.669 22.0471 131.397 22.0471 132.22C22.0471 133.029 21.8266 133.742 21.3855 134.36C20.9592 134.962 20.3343 135.44 19.511 135.793C18.7024 136.131 17.7174 136.3 16.5559 136.3ZM16.5559 134.47C17.144 134.47 17.6292 134.301 18.0114 133.963C18.3937 133.61 18.5848 133.169 18.5848 132.639C18.5848 132.11 18.3937 131.684 18.0114 131.36C17.6292 131.022 17.144 130.853 16.5559 130.853C15.9678 130.853 15.4827 131.022 15.1004 131.36C14.7329 131.684 14.5491 132.11 14.5491 132.639C14.5491 133.169 14.7329 133.61 15.1004 133.963C15.4827 134.301 15.9678 134.47 16.5559 134.47Z" fill="white"/>
<path d="M16.2076 119.993C7.39854 119.993 0.232178 127.162 0.232178 135.972C0.232178 144.783 7.39854 151.951 16.2076 151.951C25.0166 151.951 32.183 144.783 32.183 135.972C32.183 127.162 25.0166 119.993 16.2076 119.993ZM16.2076 122.734C23.5171 122.734 29.4429 128.661 29.4429 135.972C29.4429 143.284 23.5171 149.211 16.2076 149.211C8.89771 149.211 2.97227 143.284 2.97227 135.972C2.97227 128.661 8.89771 122.734 16.2076 122.734Z" fill="white"/>
<path d="M16.2064 204.231C8.15297 204.231 1.60107 197.678 1.60107 189.623C1.60107 181.567 8.15297 175.014 16.2064 175.014C24.2602 175.014 30.8121 181.567 30.8121 189.623C30.8121 197.678 24.2602 204.231 16.2064 204.231Z" fill="#746D9C"/>
<path d="M16.7373 181.758C17.7665 181.758 18.6486 181.942 19.3837 182.309C20.1188 182.662 20.7216 183.162 21.1921 183.809C21.6625 184.456 22.008 185.213 22.2286 186.08C22.4638 186.933 22.5814 187.867 22.5814 188.881C22.5814 189.999 22.4638 191.086 22.2286 192.145C21.9933 193.189 21.6258 194.137 21.1259 194.99C20.626 195.828 19.9571 196.497 19.1191 196.997C18.2958 197.482 17.2887 197.724 16.0978 197.724C15.2598 197.724 14.4512 197.607 13.672 197.372C12.8928 197.136 12.1871 196.798 11.5549 196.357L13.253 193.755C13.7087 194.064 14.1939 194.284 14.7085 194.416C15.223 194.549 15.6788 194.615 16.0758 194.615C17.0461 194.615 17.8253 194.174 18.4134 193.292C19.0162 192.41 19.3029 190.991 19.2735 189.036L20.0012 189.455C19.6484 190.204 19.1338 190.822 18.4575 191.307C17.7959 191.777 16.9946 192.013 16.0537 192.013C15.0834 192.013 14.2159 191.777 13.4514 191.307C12.7016 190.837 12.1136 190.204 11.6872 189.41C11.2608 188.602 11.0477 187.712 11.0477 186.742C11.0477 185.772 11.2755 184.912 11.7313 184.162C12.2018 183.412 12.8634 182.824 13.7161 182.398C14.5688 181.971 15.5759 181.758 16.7373 181.758ZM16.7153 184.735C16.3036 184.735 15.9361 184.831 15.6126 185.022C15.2892 185.213 15.0319 185.47 14.8408 185.794C14.6644 186.117 14.5761 186.492 14.5761 186.918C14.5761 187.33 14.6644 187.712 14.8408 188.065C15.0319 188.403 15.2892 188.675 15.6126 188.881C15.9361 189.072 16.3036 189.168 16.7153 189.168C17.127 189.168 17.4945 189.072 17.8179 188.881C18.1414 188.675 18.3987 188.403 18.5898 188.065C18.7809 187.712 18.8765 187.33 18.8765 186.918C18.8765 186.492 18.7809 186.117 18.5898 185.794C18.3987 185.47 18.1414 185.213 17.8179 185.022C17.4945 184.831 17.127 184.735 16.7153 184.735Z" fill="white"/>
<path d="M16.2076 173.647C7.39854 173.647 0.232178 180.815 0.232178 189.626C0.232178 198.437 7.39854 205.605 16.2076 205.605C25.0166 205.605 32.183 198.437 32.183 189.626C32.183 180.815 25.0166 173.647 16.2076 173.647ZM16.2076 176.387C23.5171 176.387 29.4429 182.315 29.4429 189.626C29.4429 196.937 23.5171 202.864 16.2076 202.864C8.89771 202.864 2.97227 196.937 2.97227 189.626C2.97227 182.315 8.89771 176.387 16.2076 176.387Z" fill="white"/>
<path d="M283.487 48.7184H16.4707V15.5792C16.4707 7.40535 23.0952 0.779297 31.2672 0.779297H268.691C276.863 0.779297 283.487 7.40535 283.487 15.5792V48.7184Z" fill="#EEEFEF"/>
<path d="M51.2362 31.7991V19.4537H59.1549V21.6582H53.6524V24.6211H58.2378V26.8256H53.6524V31.7991H51.2362ZM65.834 32.046C64.8111 32.046 63.9234 31.8461 63.1709 31.4463C62.4184 31.0466 61.8364 30.4881 61.4249 29.7709C61.0251 29.0419 60.8253 28.1836 60.8253 27.196V19.4537H63.2414V27.196C63.2414 27.7251 63.3473 28.1895 63.5589 28.5893C63.7823 28.9773 64.088 29.2771 64.476 29.4887C64.8757 29.7004 65.3402 29.8062 65.8692 29.8062C66.3983 29.8062 66.8569 29.7004 67.2449 29.4887C67.6446 29.2771 67.9503 28.9773 68.162 28.5893C68.3854 28.1895 68.4971 27.7251 68.4971 27.196V19.4537H70.9132V27.196C70.9132 28.1836 70.7016 29.0419 70.2783 29.7709C69.8668 30.4881 69.2789 31.0466 68.5147 31.4463C67.7622 31.8461 66.8686 32.046 65.834 32.046ZM75.6851 31.7991V21.6582H71.9815V19.4537H81.7873V21.6582H78.1013V31.7991H75.6851ZM88.2066 32.046C87.1837 32.046 86.296 31.8461 85.5435 31.4463C84.791 31.0466 84.209 30.4881 83.7975 29.7709C83.3978 29.0419 83.1979 28.1836 83.1979 27.196V19.4537H85.6141V27.196C85.6141 27.7251 85.7199 28.1895 85.9315 28.5893C86.1549 28.9773 86.4606 29.2771 86.8486 29.4887C87.2484 29.7004 87.7128 29.8062 88.2419 29.8062C88.771 29.8062 89.2295 29.7004 89.6175 29.4887C90.0173 29.2771 90.323 28.9773 90.5346 28.5893C90.758 28.1895 90.8697 27.7251 90.8697 27.196V19.4537H93.2859V27.196C93.2859 28.1836 93.0742 29.0419 92.651 29.7709C92.2394 30.4881 91.6516 31.0466 90.8873 31.4463C90.1348 31.8461 89.2413 32.046 88.2066 32.046ZM95.792 31.7991V19.4537H100.377C101.248 19.4537 102.018 19.6241 102.688 19.9651C103.358 20.3061 103.881 20.7764 104.257 21.376C104.634 21.9639 104.822 22.6517 104.822 23.4395C104.822 24.2155 104.622 24.9092 104.222 25.5205C103.834 26.1202 103.299 26.5905 102.617 26.9314C101.935 27.2607 101.159 27.4253 100.289 27.4253H98.2082V31.7991H95.792ZM102.582 31.7991L99.7249 26.8433L101.577 25.5205L105.316 31.7991H102.582ZM98.2082 25.2207H100.395C100.76 25.2207 101.083 25.1443 101.365 24.9915C101.659 24.8386 101.888 24.627 102.053 24.3565C102.229 24.0861 102.317 23.7804 102.317 23.4395C102.317 22.9104 102.123 22.4812 101.735 22.152C101.359 21.8228 100.871 21.6582 100.272 21.6582H98.2082V25.2207ZM107.159 31.7991V19.4537H114.972V21.6582H109.575V24.4624H114.231V26.614H109.575V29.5945H115.043V31.7991H107.159ZM121.747 31.7991V19.4537H125.698C126.956 19.4537 128.067 19.7182 129.031 20.2473C130.007 20.7764 130.765 21.5053 131.306 22.4342C131.858 23.3513 132.135 24.4153 132.135 25.6264C132.135 26.8256 131.858 27.8897 131.306 28.8185C130.765 29.7474 130.007 30.4763 129.031 31.0054C128.067 31.5345 126.956 31.7991 125.698 31.7991H121.747ZM124.163 29.5416H125.698C126.262 29.5416 126.785 29.4417 127.267 29.2418C127.749 29.0419 128.167 28.7656 128.519 28.4129C128.884 28.0602 129.166 27.6487 129.366 27.1784C129.566 26.6963 129.666 26.179 129.666 25.6264C129.666 25.0738 129.566 24.5623 129.366 24.092C129.166 23.6099 128.884 23.1926 128.519 22.8398C128.167 22.4871 127.749 22.2108 127.267 22.0109C126.785 21.811 126.262 21.7111 125.698 21.7111H124.163V29.5416ZM134.096 31.7991V19.4537H141.909V21.6582H136.512V24.4624H141.168V26.614H136.512V29.5945H141.979V31.7991H134.096ZM148.467 31.7991L153.141 19.4537H155.733L150.83 31.7991H148.467ZM148.203 31.7991L143.282 19.4537H145.875L150.566 31.7991H148.203ZM157.209 31.7991V19.4537H165.022V21.6582H159.625V24.4624H164.281V26.614H159.625V29.5945H165.093V31.7991H157.209ZM167.595 31.7991V19.4537H170.011V29.5945H175.443V31.7991H167.595ZM182.47 32.0107C181.223 32.0107 180.118 31.7403 179.154 31.1994C178.202 30.6468 177.455 29.8944 176.914 28.942C176.373 27.9779 176.103 26.8785 176.103 25.644C176.103 24.3859 176.373 23.2807 176.914 22.3284C177.455 21.3643 178.196 20.6118 179.136 20.0709C180.089 19.5301 181.182 19.2597 182.417 19.2597C183.663 19.2597 184.757 19.536 185.697 20.0886C186.649 20.6294 187.396 21.3819 187.937 22.346C188.478 23.2984 188.748 24.3977 188.748 25.644C188.748 26.8785 188.478 27.9779 187.937 28.942C187.408 29.8944 186.667 30.6468 185.715 31.1994C184.774 31.7403 183.692 32.0107 182.47 32.0107ZM182.47 29.8062C183.222 29.8062 183.881 29.6298 184.445 29.2771C185.021 28.9126 185.468 28.4188 185.785 27.7956C186.114 27.1725 186.279 26.4553 186.279 25.644C186.279 24.821 186.114 24.0979 185.785 23.4747C185.456 22.8516 185.003 22.3636 184.427 22.0109C183.851 21.6464 183.181 21.4642 182.417 21.4642C181.676 21.4642 181.012 21.6464 180.424 22.0109C179.848 22.3636 179.395 22.8516 179.066 23.4747C178.737 24.0979 178.572 24.821 178.572 25.644C178.572 26.4553 178.737 27.1725 179.066 27.7956C179.395 28.4188 179.854 28.9126 180.441 29.2771C181.029 29.6298 181.705 29.8062 182.47 29.8062ZM190.708 31.7991V19.4537H195.293C196.163 19.4537 196.933 19.63 197.604 19.9827C198.274 20.3237 198.797 20.8058 199.173 21.4289C199.549 22.0403 199.738 22.7516 199.738 23.5629C199.738 24.3624 199.555 25.0738 199.191 25.6969C198.826 26.3201 198.327 26.8139 197.692 27.1784C197.057 27.5311 196.322 27.7074 195.487 27.7074H193.124V31.7991H190.708ZM193.124 25.4853H195.434C195.975 25.4853 196.416 25.3089 196.757 24.9562C197.11 24.5917 197.286 24.1273 197.286 23.5629C197.286 22.9986 197.092 22.54 196.704 22.1873C196.328 21.8346 195.84 21.6582 195.24 21.6582H193.124V25.4853ZM201.334 31.7991V19.4537H203.962L207.56 24.7798L211.158 19.4537H213.768V31.7991H211.369V23.2278L207.56 28.8362L203.75 23.2455V31.7991H201.334ZM216.456 31.7991V19.4537H224.269V21.6582H218.872V24.4624H223.528V26.614H218.872V29.5945H224.339V31.7991H216.456ZM226.842 31.7991V19.4537H229.364L235.395 27.7427V19.4537H237.794V31.7991H235.395L229.258 23.3513V31.7991H226.842ZM243.092 31.7991V21.6582H239.389V19.4537H249.194V21.6582H245.508V31.7991H243.092Z" fill="#736D9B"/>
<path d="M16.3838 106.434H283.221" stroke="white" stroke-width="0.719912" stroke-miterlimit="10"/>
<path d="M16.3838 164.1H283.221" stroke="white" stroke-width="0.719912" stroke-miterlimit="10"/>
</svg>
