<svg width="305" height="116" viewBox="0 0 305 116" fill="none" xmlns="http://www.w3.org/2000/svg">
<path d="M292.785 115.148H12.2216C5.75884 115.148 0.52002 109.342 0.52002 102.179L0.520102 43.5657H304.487V102.179C304.487 109.342 299.248 115.148 292.785 115.148Z" fill="#F57921"/>
<path d="M304.487 42.3219H0.52002V13.6359C0.52002 6.56067 8.06125 0.824707 17.3641 0.824707H287.643C296.946 0.824707 304.487 6.56067 304.487 13.6359V42.3219Z" fill="#EEEFEF"/>
<path d="M89.372 28.2192C88.0566 28.2192 86.8934 27.9391 85.8825 27.3788C84.8716 26.8064 84.0799 26.0269 83.5074 25.0403C82.935 24.0416 82.6487 22.9027 82.6487 21.6239C82.6487 20.3328 82.935 19.194 83.5074 18.2074C84.0799 17.2087 84.8655 16.4292 85.8642 15.8689C86.8751 15.2964 88.0322 15.0102 89.3355 15.0102C90.6387 15.0102 91.7897 15.2964 92.7884 15.8689C93.7994 16.4292 94.5911 17.2087 95.1635 18.2074C95.736 19.194 96.0222 20.3328 96.0222 21.6239C96.0222 22.9027 95.736 24.0416 95.1635 25.0403C94.6032 26.0269 93.8237 26.8064 92.825 27.3788C91.8262 27.9391 90.6752 28.2192 89.372 28.2192ZM89.372 25.5153C90.0906 25.5153 90.724 25.3509 91.2721 25.022C91.8201 24.6932 92.2464 24.2364 92.5509 23.6518C92.8554 23.055 93.0077 22.379 93.0077 21.6239C93.0077 20.8565 92.8493 20.1805 92.5327 19.5959C92.216 18.9991 91.7836 18.5363 91.2355 18.2074C90.6874 17.8664 90.0541 17.6959 89.3355 17.6959C88.6169 17.6959 87.9835 17.8664 87.4354 18.2074C86.8873 18.5363 86.4549 18.9991 86.1383 19.5959C85.8216 20.1805 85.6632 20.8565 85.6632 21.6239C85.6632 22.379 85.8216 23.055 86.1383 23.6518C86.4549 24.2364 86.8934 24.6932 87.4537 25.022C88.0139 25.3509 88.6534 25.5153 89.372 25.5153ZM97.8125 28V15.2112H102.837C103.762 15.2112 104.584 15.4 105.303 15.7775C106.022 16.1429 106.582 16.6545 106.984 17.3122C107.398 17.9577 107.605 18.7129 107.605 19.5776C107.605 20.4181 107.404 21.1732 107.002 21.8431C106.612 22.5008 106.064 23.0184 105.358 23.396C104.651 23.7736 103.842 23.9624 102.928 23.9624H100.754V28H97.8125ZM100.754 21.2585H102.855C103.379 21.2585 103.799 21.1062 104.116 20.8017C104.432 20.485 104.591 20.077 104.591 19.5776C104.591 19.0783 104.42 18.6763 104.079 18.3718C103.75 18.0552 103.312 17.8968 102.764 17.8968H100.754V21.2585ZM109.035 28V15.2112H117.366V17.9151H111.976V20.2536H116.489V22.8662H111.976V25.2961H117.457V28H109.035ZM119.758 28V15.2112H122.845L128.454 23.0124V15.2112H131.395V28H128.454L122.699 19.9796V28H119.758ZM138.17 28V15.2112H146.647V17.9151H141.112V20.3815H145.588V23.0672H141.112V28H138.17ZM154.404 28.2192C153.089 28.2192 151.926 27.9391 150.915 27.3788C149.904 26.8064 149.112 26.0269 148.54 25.0403C147.967 24.0416 147.681 22.9027 147.681 21.6239C147.681 20.3328 147.967 19.194 148.54 18.2074C149.112 17.2087 149.898 16.4292 150.897 15.8689C151.908 15.2964 153.065 15.0102 154.368 15.0102C155.671 15.0102 156.822 15.2964 157.821 15.8689C158.832 16.4292 159.624 17.2087 160.196 18.2074C160.768 19.194 161.055 20.3328 161.055 21.6239C161.055 22.9027 160.768 24.0416 160.196 25.0403C159.636 26.0269 158.856 26.8064 157.857 27.3788C156.859 27.9391 155.708 28.2192 154.404 28.2192ZM154.404 25.5153C155.123 25.5153 155.756 25.3509 156.305 25.022C156.853 24.6932 157.279 24.2364 157.583 23.6518C157.888 23.055 158.04 22.379 158.04 21.6239C158.04 20.8565 157.882 20.1805 157.565 19.5959C157.248 18.9991 156.816 18.5363 156.268 18.2074C155.72 17.8664 155.087 17.6959 154.368 17.6959C153.649 17.6959 153.016 17.8664 152.468 18.2074C151.92 18.5363 151.487 18.9991 151.171 19.5959C150.854 20.1805 150.696 20.8565 150.696 21.6239C150.696 22.379 150.854 23.055 151.171 23.6518C151.487 24.2364 151.926 24.6932 152.486 25.022C153.046 25.3509 153.686 25.5153 154.404 25.5153ZM162.845 28V15.2112H167.869C168.795 15.2112 169.617 15.3939 170.336 15.7593C171.054 16.1125 171.614 16.6119 172.016 17.2574C172.43 17.8907 172.638 18.6215 172.638 19.4498C172.638 20.278 172.43 21.0149 172.016 21.6604C171.602 22.3059 171.03 22.8114 170.299 23.1768C169.58 23.53 168.752 23.7066 167.814 23.7066H165.786V28H162.845ZM169.787 28L166.901 22.921L169.111 21.295L173.149 28H169.787ZM165.786 21.0027H167.778C168.119 21.0027 168.423 20.9357 168.691 20.8017C168.959 20.6677 169.166 20.485 169.312 20.2536C169.471 20.01 169.55 19.7421 169.55 19.4498C169.55 18.9991 169.379 18.6276 169.038 18.3353C168.71 18.043 168.271 17.8968 167.723 17.8968H165.786V21.0027ZM183.466 28.2192C182.844 28.2192 182.248 28.1401 181.675 27.9817C181.115 27.8112 180.603 27.5859 180.14 27.3057C179.69 27.0134 179.318 26.6907 179.026 26.3375C178.734 25.9721 178.551 25.5823 178.478 25.1682L181.383 24.346C181.517 24.6993 181.748 25.0099 182.077 25.2778C182.418 25.5336 182.844 25.6676 183.356 25.6797C183.855 25.6919 184.269 25.5762 184.598 25.3326C184.939 25.089 185.11 24.7723 185.11 24.3826C185.11 24.0781 184.988 23.8101 184.744 23.5787C184.513 23.3473 184.178 23.1707 183.74 23.0489L181.931 22.5922C181.297 22.4338 180.743 22.1841 180.268 21.8431C179.805 21.5021 179.44 21.0879 179.172 20.6007C178.916 20.1014 178.788 19.535 178.788 18.9017C178.788 17.6715 179.196 16.7154 180.013 16.0333C180.829 15.3391 181.98 14.9919 183.466 14.9919C184.282 14.9919 184.994 15.1076 185.603 15.3391C186.212 15.5583 186.73 15.8872 187.156 16.3256C187.594 16.7641 187.942 17.3122 188.197 17.9699L185.311 18.8286C185.213 18.4997 185 18.2013 184.671 17.9334C184.355 17.6654 183.941 17.5314 183.429 17.5314C182.917 17.5314 182.515 17.6471 182.223 17.8786C181.943 18.11 181.803 18.4449 181.803 18.8834C181.803 19.1879 181.919 19.4437 182.15 19.6507C182.382 19.8456 182.698 19.9918 183.1 20.0892L184.909 20.5459C185.944 20.8017 186.748 21.2828 187.32 21.9893C187.905 22.6835 188.197 23.4752 188.197 24.3643C188.197 25.1682 188.009 25.8563 187.631 26.4288C187.266 27.0013 186.73 27.4458 186.023 27.7625C185.317 28.067 184.464 28.2192 183.466 28.2192ZM198.968 28L194.181 15.2112H197.105L202.074 28H198.968ZM188.993 28L193.962 15.2112H196.885L192.099 28H188.993ZM191.331 25.5701V22.9758H199.754V25.5701H191.331ZM203.47 28V15.2112H206.412V25.2961H211.856V28H203.47ZM213.426 28V15.2112H221.757V17.9151H216.367V20.2536H220.88V22.8662H216.367V25.2961H221.848V28H213.426Z" fill="#F57921"/>
<path d="M44.0919 97.6314C33.7304 97.6314 25.3003 89.2018 25.3003 78.8397C25.3003 68.4782 33.7304 60.0481 44.0919 60.0481C54.4535 60.0481 62.8836 68.4782 62.8836 78.8397C62.8836 89.2018 54.4535 97.6314 44.0919 97.6314Z" fill="#F57921"/>
<path d="M44.0921 58.0898C32.6513 58.0898 23.3435 67.3976 23.3435 78.8384C23.3435 90.2793 32.6513 99.5871 44.0921 99.5871C55.533 99.5871 64.8407 90.2793 64.8407 78.8384C64.8407 67.3976 55.533 58.0898 44.0921 58.0898ZM44.0921 62.0038C53.3896 62.0038 60.9268 69.541 60.9268 78.8384C60.9268 88.1359 53.3896 95.6731 44.0921 95.6731C34.7946 95.6731 27.2574 88.1359 27.2574 78.8384C27.2574 69.541 34.7946 62.0038 44.0921 62.0038Z" fill="white"/>
<path d="M50.478 72.1117H42.3175L42.2304 75.2771C42.6756 75.1225 43.2852 75.0452 44.0597 75.0452C45.1057 75.0452 46.0641 75.1998 46.9349 75.5095C47.8063 75.8197 48.5563 76.2698 49.1854 76.8603C49.8146 77.4508 50.3038 78.1666 50.6522 79.009C51.0005 79.851 51.1752 80.7952 51.1752 81.8407C51.1752 83.0022 50.9765 84.0379 50.5798 84.9479C50.1825 85.8584 49.636 86.6279 48.9389 87.2566C48.2417 87.8863 47.4144 88.3652 46.456 88.6945C45.4976 89.0233 44.4565 89.1881 43.3336 89.1881C41.5523 89.1881 40.0616 88.7522 38.8615 87.8809C37.6609 87.01 36.8385 85.6935 36.3928 83.9318L40.9525 82.8858C41.069 83.6221 41.3782 84.2175 41.8821 84.672C42.385 85.1274 43.0147 85.3545 43.7696 85.3545C44.6986 85.3545 45.4393 85.0643 45.9912 84.4836C46.5431 83.9024 46.819 83.1671 46.819 82.2762C46.819 81.5986 46.6781 81.0418 46.3977 80.6064C46.1169 80.171 45.7485 79.8221 45.294 79.5609C44.839 79.2996 44.3307 79.1206 43.7696 79.0237C43.2079 78.9268 42.6463 78.8784 42.0851 78.8784C41.3684 78.8784 40.6477 78.9464 39.9217 79.0819C39.1957 79.2174 38.4936 79.4009 37.816 79.6338L38.0484 68.2786H50.478V72.1117Z" fill="white"/>
<path d="M99.193 73.1969C98.4649 73.1969 97.7654 73.1041 97.0945 72.9185C96.4378 72.7187 95.8382 72.4546 95.2957 72.1262C94.7675 71.7836 94.3321 71.4053 93.9894 70.9913C93.6468 70.563 93.4327 70.1062 93.347 69.6208L96.7518 68.6572C96.9089 69.0712 97.1801 69.4352 97.5656 69.7493C97.9653 70.0491 98.4649 70.2061 99.0645 70.2204C99.6499 70.2346 100.135 70.099 100.521 69.8135C100.92 69.528 101.12 69.1568 101.12 68.7C101.12 68.3431 100.978 68.029 100.692 67.7578C100.421 67.4865 100.028 67.2795 99.5142 67.1368L97.3942 66.6014C96.6519 66.4158 96.0023 66.1232 95.4456 65.7234C94.9031 65.3237 94.4748 64.8383 94.1607 64.2673C93.8609 63.682 93.7111 63.0181 93.7111 62.2758C93.7111 60.8339 94.1893 59.7133 95.1458 58.9138C96.1023 58.1001 97.4514 57.6932 99.193 57.6932C100.15 57.6932 100.985 57.8288 101.698 58.1001C102.412 58.357 103.019 58.7425 103.519 59.2564C104.033 59.7704 104.439 60.4128 104.739 61.1837L101.356 62.1901C101.242 61.8047 100.992 61.4549 100.606 61.1409C100.235 60.8268 99.7498 60.6698 99.1502 60.6698C98.5506 60.6698 98.0795 60.8054 97.7369 61.0766C97.4085 61.3479 97.2444 61.7404 97.2444 62.2544C97.2444 62.6113 97.38 62.9111 97.6512 63.1538C97.9225 63.3822 98.2936 63.5535 98.7647 63.6677L100.885 64.2031C102.098 64.5028 103.04 65.0667 103.711 65.8948C104.397 66.7085 104.739 67.6364 104.739 68.6786C104.739 69.6208 104.518 70.4274 104.075 71.0983C103.647 71.7693 103.019 72.2904 102.191 72.6616C101.363 73.0185 100.364 73.1969 99.193 73.1969ZM106.956 72.9399V57.9502H116.721V61.1194H110.404V63.8604H115.693V66.9226H110.404V69.7707H116.828V72.9399H106.956ZM119.525 72.9399V57.9502H125.413C126.498 57.9502 127.462 58.1643 128.304 58.5926C129.147 59.0066 129.803 59.5919 130.274 60.3485C130.76 61.0909 131.002 61.9475 131.002 62.9182C131.002 63.889 130.76 64.7527 130.274 65.5093C129.789 66.2659 129.118 66.8584 128.261 67.2867C127.419 67.7007 126.448 67.9077 125.349 67.9077H122.972V72.9399H119.525ZM127.662 72.9399L124.278 66.9869L126.87 65.081L131.602 72.9399H127.662ZM122.972 64.7384H125.306C125.706 64.7384 126.063 64.6599 126.377 64.5028C126.691 64.3458 126.934 64.1317 127.105 63.8604C127.291 63.5749 127.383 63.2608 127.383 62.9182C127.383 62.39 127.184 61.9546 126.784 61.612C126.398 61.2693 125.884 61.098 125.242 61.098H122.972V64.7384ZM133.536 72.9399V57.9502H143.3V61.1194H136.983V63.8604H142.273V66.9226H136.983V69.7707H143.407V72.9399H133.536ZM146.104 72.9399V57.9502H149.723L156.297 67.0939V57.9502H159.744V72.9399H156.297L149.551 63.5392V72.9399H146.104ZM162.666 72.9399V57.9502H172.431V61.1194H166.114V63.8604H171.403V66.9226H166.114V69.7707H172.538V72.9399H162.666ZM185.221 72.9399L190.682 57.9502H194.408L188.562 72.9399H185.221ZM184.836 72.9399L178.968 57.9502H182.673L188.176 72.9399H184.836ZM196.021 72.9399V57.9502H199.468V72.9399H196.021ZM202.378 72.9399V57.9502H205.826V69.7707H212.207V72.9399H202.378ZM214.047 72.9399V57.9502H217.495V69.7707H223.876V72.9399H214.047ZM236.123 72.9399L230.513 57.9502H233.939L239.764 72.9399H236.123ZM224.431 72.9399L230.256 57.9502H233.682L228.072 72.9399H224.431ZM227.172 70.0919V67.0511H237.044V70.0919H227.172ZM246.539 73.1969C245.811 73.1969 245.112 73.1041 244.441 72.9185C243.784 72.7187 243.184 72.4546 242.642 72.1262C242.114 71.7836 241.678 71.4053 241.336 70.9913C240.993 70.563 240.779 70.1062 240.693 69.6208L244.098 68.6572C244.255 69.0712 244.526 69.4352 244.912 69.7493C245.312 70.0491 245.811 70.2061 246.411 70.2204C246.996 70.2346 247.482 70.099 247.867 69.8135C248.267 69.528 248.467 69.1568 248.467 68.7C248.467 68.3431 248.324 68.029 248.038 67.7578C247.767 67.4865 247.374 67.2795 246.861 67.1368L244.741 66.6014C243.998 66.4158 243.349 66.1232 242.792 65.7234C242.249 65.3237 241.821 64.8383 241.507 64.2673C241.207 63.682 241.057 63.0181 241.057 62.2758C241.057 60.8339 241.536 59.7133 242.492 58.9138C243.449 58.1001 244.798 57.6932 246.539 57.6932C247.496 57.6932 248.331 57.8288 249.045 58.1001C249.759 58.357 250.365 58.7425 250.865 59.2564C251.379 59.7704 251.786 60.4128 252.086 61.1837L248.702 62.1901C248.588 61.8047 248.338 61.4549 247.953 61.1409C247.581 60.8268 247.096 60.6698 246.497 60.6698C245.897 60.6698 245.426 60.8054 245.083 61.0766C244.755 61.3479 244.591 61.7404 244.591 62.2544C244.591 62.6113 244.726 62.9111 244.998 63.1538C245.269 63.3822 245.64 63.5535 246.111 63.6677L248.231 64.2031C249.445 64.5028 250.387 65.0667 251.058 65.8948C251.743 66.7085 252.086 67.6364 252.086 68.6786C252.086 69.6208 251.864 70.4274 251.422 71.0983C250.993 71.7693 250.365 72.2904 249.537 72.6616C248.709 73.0185 247.71 73.1969 246.539 73.1969ZM111.832 98.9399V87.1194H107.464V83.9502H119.627V87.1194H115.258V98.9399H111.832ZM128.463 99.1969C126.921 99.1969 125.558 98.8686 124.373 98.2119C123.188 97.5409 122.26 96.6272 121.589 95.4709C120.918 94.3003 120.582 92.9655 120.582 91.4665C120.582 89.9532 120.918 88.6184 121.589 87.4621C122.26 86.2914 123.181 85.3778 124.351 84.7211C125.536 84.0501 126.892 83.7146 128.42 83.7146C129.947 83.7146 131.297 84.0501 132.467 84.7211C133.652 85.3778 134.58 86.2914 135.251 87.4621C135.922 88.6184 136.257 89.9532 136.257 91.4665C136.257 92.9655 135.922 94.3003 135.251 95.4709C134.594 96.6272 133.681 97.5409 132.51 98.2119C131.339 98.8686 129.99 99.1969 128.463 99.1969ZM128.463 96.0276C129.305 96.0276 130.047 95.8349 130.69 95.4495C131.332 95.064 131.832 94.5287 132.189 93.8434C132.546 93.1439 132.724 92.3516 132.724 91.4665C132.724 90.5671 132.539 89.7748 132.167 89.0895C131.796 88.39 131.289 87.8475 130.647 87.4621C130.005 87.0623 129.262 86.8625 128.42 86.8625C127.578 86.8625 126.835 87.0623 126.193 87.4621C125.55 87.8475 125.044 88.39 124.673 89.0895C124.301 89.7748 124.116 90.5671 124.116 91.4665C124.116 92.3516 124.301 93.1439 124.673 93.8434C125.044 94.5287 125.558 95.064 126.214 95.4495C126.871 95.8349 127.62 96.0276 128.463 96.0276ZM149.889 98.9399L154.043 83.9502H157.555L153.165 98.9399H149.889ZM140.917 98.9399L136.548 83.9502H140.06L144.193 98.9399H140.917ZM141.388 98.9399L145.328 83.9502H148.412L144.493 98.9399H141.388ZM149.568 98.9399L145.671 83.9502H148.754L152.844 98.9399H149.568ZM159.163 98.9399V83.9502H162.782L169.356 93.0939V83.9502H172.804V98.9399H169.356L162.611 89.5392V98.9399H159.163ZM185.405 98.9399V83.9502H188.852V98.9399H185.405ZM175.726 98.9399V83.9288H179.173V98.9399H175.726ZM178.167 92.8798V89.7105H187.246V92.8798H178.167ZM198.832 99.1969C197.29 99.1969 195.927 98.8686 194.742 98.2119C193.557 97.5409 192.629 96.6272 191.958 95.4709C191.287 94.3003 190.952 92.9655 190.952 91.4665C190.952 89.9532 191.287 88.6184 191.958 87.4621C192.629 86.2914 193.55 85.3778 194.72 84.7211C195.905 84.0501 197.261 83.7146 198.789 83.7146C200.317 83.7146 201.666 84.0501 202.836 84.7211C204.021 85.3778 204.949 86.2914 205.62 87.4621C206.291 88.6184 206.627 89.9532 206.627 91.4665C206.627 92.9655 206.291 94.3003 205.62 95.4709C204.963 96.6272 204.05 97.5409 202.879 98.2119C201.708 98.8686 200.359 99.1969 198.832 99.1969ZM198.832 96.0276C199.674 96.0276 200.416 95.8349 201.059 95.4495C201.701 95.064 202.201 94.5287 202.558 93.8434C202.915 93.1439 203.093 92.3516 203.093 91.4665C203.093 90.5671 202.908 89.7748 202.536 89.0895C202.165 88.39 201.658 87.8475 201.016 87.4621C200.374 87.0623 199.631 86.8625 198.789 86.8625C197.947 86.8625 197.204 87.0623 196.562 87.4621C195.92 87.8475 195.413 88.39 195.042 89.0895C194.67 89.7748 194.485 90.5671 194.485 91.4665C194.485 92.3516 194.67 93.1439 195.042 93.8434C195.413 94.5287 195.927 95.064 196.583 95.4495C197.24 95.8349 197.99 96.0276 198.832 96.0276ZM208.725 98.9399V83.9502H212.515L216.498 89.8604L220.503 83.9502H224.293V98.9399H220.845V89.3037L216.52 95.6422L212.173 89.3037V98.9399H208.725ZM227.211 98.9399V83.9502H236.976V87.1194H230.659V89.8604H235.948V92.9226H230.659V95.7707H237.083V98.9399H227.211Z" fill="white"/>
</svg>
