<svg width="281" height="101" viewBox="0 0 281 101" fill="none" xmlns="http://www.w3.org/2000/svg">
<path d="M270.303 100.779H26.1261C20.5015 100.779 15.9421 96.5715 15.9421 91.3808L15.9422 48.9077H280.487V91.3808C280.487 96.5715 275.927 100.779 270.303 100.779Z" fill="#48BBA9"/>
<path d="M66.044 80.6447C65.4209 80.6447 64.8389 80.5683 64.298 80.4155C63.7572 80.2626 63.2751 80.051 62.8518 79.7806C62.4286 79.4984 62.0758 79.1868 61.7937 78.8458C61.5232 78.5049 61.3469 78.1463 61.2646 77.77L63.6278 77.0646C63.7807 77.4643 64.0511 77.8112 64.4391 78.1051C64.8271 78.3873 65.315 78.5343 65.9029 78.546C66.5261 78.5578 67.0316 78.4226 67.4196 78.1404C67.8194 77.8582 68.0193 77.4937 68.0193 77.0469C68.0193 76.6589 67.8605 76.3356 67.5431 76.0769C67.2374 75.8065 66.8141 75.6008 66.2733 75.4597L64.6684 75.0364C64.0687 74.8835 63.5396 74.6543 63.0811 74.3486C62.6226 74.0311 62.264 73.6431 62.0053 73.1846C61.7466 72.726 61.6173 72.1911 61.6173 71.5797C61.6173 70.4157 61.9994 69.5103 62.7637 68.8637C63.5396 68.2053 64.6331 67.8761 66.044 67.8761C66.8318 67.8761 67.5196 67.9936 68.1075 68.2288C68.7071 68.4522 69.2068 68.7755 69.6065 69.1988C70.0063 69.622 70.312 70.1217 70.5236 70.6979L68.178 71.4209C68.0369 71.0212 67.7782 70.6802 67.402 70.398C67.0258 70.1159 66.5496 69.9748 65.9735 69.9748C65.3856 69.9748 64.9212 70.11 64.5802 70.3804C64.251 70.6508 64.0864 71.033 64.0864 71.5268C64.0864 71.9148 64.2157 72.2205 64.4744 72.4439C64.7448 72.6672 65.1093 72.8377 65.5678 72.9553L67.1904 73.3609C68.2485 73.6196 69.0716 74.084 69.6595 74.7542C70.2473 75.4244 70.5413 76.171 70.5413 76.994C70.5413 77.723 70.3649 78.3638 70.0122 78.9164C69.6595 79.4572 69.148 79.8805 68.4778 80.1862C67.8076 80.4919 66.9964 80.6447 66.044 80.6447ZM80.7425 80.4331V68.0877H83.1587V80.4331H80.7425ZM72.6122 80.4331V68.07H75.0283V80.4331H72.6122ZM74.4111 75.2304V73.0082H81.8889V75.2304H74.4111ZM91.483 80.6447C90.2367 80.6447 89.1315 80.3743 88.1674 79.8335C87.215 79.2809 86.4684 78.5284 85.9276 77.576C85.3867 76.6119 85.1163 75.5126 85.1163 74.278C85.1163 73.02 85.3867 71.9148 85.9276 70.9624C86.4684 69.9983 87.2091 69.2458 88.1497 68.705C89.1021 68.1641 90.1956 67.8937 91.4301 67.8937C92.6764 67.8937 93.7698 68.17 94.7105 68.7226C95.6628 69.2634 96.4094 70.0159 96.9503 70.98C97.4911 71.9324 97.7615 73.0317 97.7615 74.278C97.7615 75.5126 97.4911 76.6119 96.9503 77.576C96.4212 78.5284 95.6804 79.2809 94.7281 79.8335C93.7875 80.3743 92.7058 80.6447 91.483 80.6447ZM91.483 78.4402C92.2355 78.4402 92.8939 78.2638 93.4583 77.9111C94.0344 77.5466 94.4812 77.0528 94.7986 76.4297C95.1278 75.8065 95.2925 75.0893 95.2925 74.278C95.2925 73.455 95.1278 72.7319 94.7986 72.1088C94.4694 71.4856 94.0168 70.9977 93.4406 70.645C92.8645 70.2805 92.1943 70.0982 91.4301 70.0982C90.6894 70.0982 90.0251 70.2805 89.4372 70.645C88.8611 70.9977 88.4084 71.4856 88.0792 72.1088C87.75 72.7319 87.5854 73.455 87.5854 74.278C87.5854 75.0893 87.75 75.8065 88.0792 76.4297C88.4084 77.0528 88.867 77.5466 89.4548 77.9111C90.0427 78.2638 90.7188 78.4402 91.483 78.4402ZM99.7211 80.4331V68.0877H104.307C105.177 68.0877 105.947 68.264 106.617 68.6168C107.287 68.9577 107.81 69.4398 108.187 70.063C108.563 70.6743 108.751 71.3857 108.751 72.1969C108.751 72.9965 108.569 73.7078 108.204 74.3309C107.84 74.9541 107.34 75.4479 106.705 75.8124C106.07 76.1651 105.335 76.3415 104.501 76.3415H102.137V80.4331H99.7211ZM102.137 74.1193H104.448C104.988 74.1193 105.429 73.9429 105.77 73.5902C106.123 73.2257 106.299 72.7613 106.299 72.1969C106.299 71.6326 106.105 71.174 105.717 70.8213C105.341 70.4686 104.853 70.2922 104.254 70.2922H102.137V74.1193ZM117.689 80.6624C116.96 80.6624 116.314 80.5213 115.749 80.2391C115.185 79.9569 114.744 79.5689 114.427 79.0751C114.109 78.5813 113.95 78.0111 113.95 77.3644C113.95 76.9176 114.033 76.5061 114.197 76.1298C114.362 75.7536 114.591 75.4068 114.885 75.0893C115.179 74.7601 115.508 74.472 115.873 74.2251L118.201 72.6202C118.389 72.4909 118.589 72.3439 118.8 72.1793C119.024 72.0147 119.218 71.8207 119.382 71.5973C119.559 71.3622 119.647 71.0976 119.647 70.8037C119.647 70.4627 119.524 70.1982 119.277 70.01C119.03 69.8102 118.718 69.7102 118.342 69.7102C117.989 69.7102 117.689 69.8102 117.442 70.01C117.207 70.2099 117.09 70.4686 117.09 70.786C117.09 71.0917 117.184 71.3622 117.372 71.5973C117.56 71.8207 117.778 72.0853 118.024 72.3909L120.37 75.2128L124.691 80.4331H121.975L118.695 76.5178L116.226 73.5197C115.908 73.1082 115.644 72.7496 115.432 72.4439C115.232 72.1264 115.085 71.8383 114.991 71.5797C114.897 71.3093 114.85 71.0388 114.85 70.7684C114.85 70.204 114.997 69.7043 115.291 69.2693C115.596 68.8343 116.002 68.4933 116.508 68.2464C117.025 67.9877 117.601 67.8584 118.236 67.8584C118.93 67.8584 119.547 67.9877 120.088 68.2464C120.629 68.4933 121.052 68.8402 121.358 69.287C121.675 69.7337 121.834 70.257 121.834 70.8566C121.834 71.3386 121.71 71.7854 121.464 72.1969C121.217 72.5967 120.852 73.0023 120.37 73.4139C119.9 73.8254 119.324 74.2663 118.642 74.7366L117.39 75.6008C117.201 75.7301 117.025 75.8771 116.86 76.0417C116.708 76.2063 116.584 76.3944 116.49 76.606C116.396 76.8059 116.349 77.0411 116.349 77.3115C116.349 77.7112 116.484 78.0404 116.755 78.2991C117.037 78.5578 117.395 78.6871 117.83 78.6871C118.324 78.6871 118.812 78.6107 119.294 78.4578C119.776 78.305 120.211 78.0757 120.599 77.77C120.999 77.4643 121.311 77.0881 121.534 76.6413C121.757 76.1945 121.869 75.6831 121.869 75.1069H124.038C124.038 76.1886 123.768 77.1528 123.227 77.9993C122.686 78.8341 121.94 79.4866 120.987 79.9569C120.035 80.4272 118.936 80.6624 117.689 80.6624ZM138.725 80.4331L133.998 68.0877H136.415L141.282 80.4331H138.725ZM128.972 80.4331L133.84 68.0877H136.256L131.529 80.4331H128.972ZM131.265 77.7171V75.5831H139.007V77.7171H131.265ZM142.761 80.4331V68.0877H147.347C148.217 68.0877 148.987 68.264 149.657 68.6168C150.327 68.9577 150.85 69.4398 151.227 70.063C151.603 70.6743 151.791 71.3857 151.791 72.1969C151.791 72.9965 151.609 73.7078 151.244 74.3309C150.88 74.9541 150.38 75.4479 149.745 75.8124C149.11 76.1651 148.375 76.3415 147.541 76.3415H145.177V80.4331H142.761ZM145.177 74.1193H147.488C148.029 74.1193 148.47 73.9429 148.811 73.5902C149.163 73.2257 149.34 72.7613 149.34 72.1969C149.34 71.6326 149.146 71.174 148.758 70.8213C148.381 70.4686 147.893 70.2922 147.294 70.2922H145.177V74.1193ZM161.941 80.4331L157.215 68.0877H159.631L164.499 80.4331H161.941ZM152.189 80.4331L157.056 68.0877H159.472L154.746 80.4331H152.189ZM154.481 77.7171V75.5831H162.224V77.7171H154.481ZM165.978 80.4331V68.0877H170.563C171.433 68.0877 172.203 68.2582 172.874 68.5991C173.544 68.9401 174.067 69.4104 174.443 70.01C174.819 70.5979 175.008 71.2857 175.008 72.0735C175.008 72.8495 174.808 73.5432 174.408 74.1546C174.02 74.7542 173.485 75.2245 172.803 75.5655C172.121 75.8947 171.345 76.0593 170.475 76.0593H168.394V80.4331H165.978ZM172.768 80.4331L169.911 75.4773L171.763 74.1546L175.501 80.4331H172.768ZM168.394 73.8548H170.581C170.945 73.8548 171.269 73.7783 171.551 73.6255C171.845 73.4726 172.074 73.261 172.239 72.9906C172.415 72.7202 172.503 72.4145 172.503 72.0735C172.503 71.5444 172.309 71.1153 171.921 70.786C171.545 70.4568 171.057 70.2922 170.457 70.2922H168.394V73.8548ZM179.748 80.4331V70.2922H176.045V68.0877H185.851V70.2922H182.165V80.4331H179.748ZM187.438 80.4331V68.0877H190.065L193.663 73.4139L197.261 68.0877H199.871V80.4331H197.473V71.8619L193.663 77.4702L189.854 71.8795V80.4331H187.438ZM202.559 80.4331V68.0877H210.372V70.2922H204.976V73.0964H209.632V75.248H204.976V78.2286H210.443V80.4331H202.559ZM212.945 80.4331V68.0877H215.467L221.498 76.3768V68.0877H223.897V80.4331H221.498L215.361 71.9853V80.4331H212.945ZM229.196 80.4331V70.2922H225.492V68.0877H235.298V70.2922H231.612V80.4331H229.196Z" fill="white"/>
<path d="M280.487 47.8702H15.9421V14.8813C15.9421 6.7448 22.5053 0.148438 30.6016 0.148438H265.827C273.924 0.148438 280.487 6.7448 280.487 14.8813V47.8702Z" fill="#EEEFEF"/>
<path d="M105.273 31.4159C104.25 31.4159 103.363 31.216 102.61 30.8162C101.858 30.4165 101.276 29.858 100.864 29.1408C100.464 28.4118 100.265 27.5535 100.265 26.5659V18.8235H102.681V26.5659C102.681 27.095 102.787 27.5594 102.998 27.9591C103.222 28.3471 103.527 28.647 103.915 28.8586C104.315 29.0702 104.779 29.176 105.309 29.176C105.838 29.176 106.296 29.0702 106.684 28.8586C107.084 28.647 107.39 28.3471 107.601 27.9591C107.825 27.5594 107.936 27.095 107.936 26.5659V18.8235H110.352V26.5659C110.352 27.5535 110.141 28.4118 109.718 29.1408C109.306 29.858 108.718 30.4165 107.954 30.8162C107.201 31.216 106.308 31.4159 105.273 31.4159ZM112.859 31.1689V18.8235H117.444C118.314 18.8235 119.084 18.9999 119.754 19.3526C120.425 19.6936 120.948 20.1756 121.324 20.7988C121.7 21.4102 121.888 22.1215 121.888 22.9328C121.888 23.7323 121.706 24.4436 121.342 25.0668C120.977 25.6899 120.478 26.1837 119.843 26.5482C119.208 26.901 118.473 27.0773 117.638 27.0773H115.275V31.1689H112.859ZM115.275 24.8551H117.585C118.126 24.8551 118.567 24.6788 118.908 24.3261C119.261 23.9616 119.437 23.4971 119.437 22.9328C119.437 22.3684 119.243 21.9099 118.855 21.5572C118.479 21.2044 117.991 21.0281 117.391 21.0281H115.275V24.8551ZM128.935 31.3806C127.736 31.3806 126.672 31.1102 125.743 30.5693C124.814 30.0167 124.085 29.2642 123.556 28.3119C123.027 27.3477 122.762 26.2425 122.762 24.9962C122.762 23.7499 123.027 22.6506 123.556 21.6982C124.085 20.7341 124.808 19.9816 125.725 19.4408C126.654 18.8882 127.718 18.6119 128.917 18.6119C129.764 18.6119 130.551 18.7647 131.28 19.0704C132.009 19.3644 132.644 19.7818 133.185 20.3226C133.738 20.8517 134.161 21.4631 134.455 22.1568L132.215 22.9857C132.015 22.5507 131.751 22.1744 131.422 21.857C131.092 21.5278 130.716 21.275 130.293 21.0986C129.87 20.9105 129.411 20.8164 128.917 20.8164C128.2 20.8164 127.559 20.9987 126.995 21.3632C126.442 21.7159 126.007 22.2038 125.69 22.827C125.384 23.4501 125.231 24.1732 125.231 24.9962C125.231 25.8193 125.39 26.5482 125.707 27.1831C126.025 27.8063 126.466 28.3001 127.03 28.6646C127.594 29.0173 128.241 29.1937 128.97 29.1937C129.476 29.1937 129.934 29.0996 130.346 28.9115C130.769 28.7116 131.139 28.4412 131.457 28.1002C131.786 27.7593 132.051 27.3654 132.25 26.9186L134.49 27.7299C134.196 28.4471 133.773 29.082 133.22 29.6346C132.68 30.1872 132.045 30.6163 131.316 30.922C130.587 31.2277 129.793 31.3806 128.935 31.3806ZM141.908 31.3806C140.662 31.3806 139.557 31.1102 138.593 30.5693C137.64 30.0167 136.894 29.2642 136.353 28.3119C135.812 27.3477 135.542 26.2484 135.542 25.0139C135.542 23.7558 135.812 22.6506 136.353 21.6982C136.894 20.7341 137.634 19.9816 138.575 19.4408C139.527 18.9 140.621 18.6295 141.855 18.6295C143.102 18.6295 144.195 18.9058 145.136 19.4584C146.088 19.9993 146.835 20.7518 147.376 21.7159C147.916 22.6682 148.187 23.7676 148.187 25.0139C148.187 26.2484 147.916 27.3477 147.376 28.3119C146.846 29.2642 146.106 30.0167 145.153 30.5693C144.213 31.1102 143.131 31.3806 141.908 31.3806ZM141.908 29.176C142.661 29.176 143.319 28.9997 143.884 28.647C144.46 28.2825 144.906 27.7887 145.224 27.1655C145.553 26.5424 145.718 25.8251 145.718 25.0139C145.718 24.1908 145.553 23.4678 145.224 22.8446C144.895 22.2215 144.442 21.7335 143.866 21.3808C143.29 21.0163 142.62 20.8341 141.855 20.8341C141.115 20.8341 140.45 21.0163 139.862 21.3808C139.286 21.7335 138.834 22.2215 138.504 22.8446C138.175 23.4678 138.011 24.1908 138.011 25.0139C138.011 25.8251 138.175 26.5424 138.504 27.1655C138.834 27.7887 139.292 28.2825 139.88 28.647C140.468 28.9997 141.144 29.176 141.908 29.176ZM150.146 31.1689V18.8235H152.774L156.372 24.1497L159.97 18.8235H162.58V31.1689H160.181V22.5977L156.372 28.206L152.563 22.6153V31.1689H150.146ZM165.268 31.1689V18.8235H167.684V31.1689H165.268ZM170.366 31.1689V18.8235H172.888L178.92 27.1126V18.8235H181.318V31.1689H178.92L172.782 22.7212V31.1689H170.366ZM189.738 31.3806C188.48 31.3806 187.363 31.1102 186.388 30.5693C185.423 30.0167 184.665 29.2642 184.113 28.3119C183.56 27.3477 183.284 26.2425 183.284 24.9962C183.284 23.7499 183.56 22.6506 184.113 21.6982C184.665 20.7341 185.423 19.9816 186.388 19.4408C187.363 18.8882 188.48 18.6119 189.738 18.6119C190.491 18.6119 191.185 18.7236 191.82 18.947C192.454 19.1704 193.013 19.4819 193.495 19.8817C193.989 20.2697 194.4 20.7165 194.73 21.2221L192.754 22.4566C192.554 22.1392 192.29 21.857 191.961 21.6101C191.643 21.3632 191.29 21.1692 190.902 21.0281C190.514 20.887 190.126 20.8164 189.738 20.8164C188.962 20.8164 188.275 20.9987 187.675 21.3632C187.075 21.7159 186.605 22.2038 186.264 22.827C185.923 23.4501 185.753 24.1732 185.753 24.9962C185.753 25.8075 185.917 26.5306 186.247 27.1655C186.587 27.8004 187.064 28.3001 187.675 28.6646C188.286 29.0173 188.992 29.1937 189.791 29.1937C190.415 29.1937 190.967 29.0702 191.449 28.8233C191.943 28.5764 192.331 28.2296 192.613 27.7828C192.895 27.336 193.036 26.8187 193.036 26.2308L195.329 25.8781C195.329 27.042 195.088 28.0356 194.606 28.8586C194.136 29.6816 193.477 30.3106 192.631 30.7457C191.796 31.1689 190.832 31.3806 189.738 31.3806ZM190.144 26.4424V24.5553H195.329V26.0544L194.024 26.4424H190.144Z" fill="#48BBA9"/>
<path d="M15.9329 88.563C7.96701 88.563 1.48633 82.0672 1.48633 74.0827C1.48633 66.0981 7.96701 59.6023 15.9329 59.6023C23.8992 59.6023 30.3799 66.0981 30.3799 74.0827C30.3799 82.0672 23.8992 88.563 15.9329 88.563Z" fill="#48BBA9"/>
<path d="M15.9358 58.2458C7.2225 58.2458 0.134033 65.3512 0.134033 74.0845C0.134033 82.8182 7.2225 89.9232 15.9358 89.9232C24.6491 89.9232 31.7376 82.8182 31.7376 74.0845C31.7376 65.3512 24.6491 58.2458 15.9358 58.2458ZM15.9358 60.9625C23.1659 60.9625 29.0272 66.8376 29.0272 74.0845C29.0272 81.3319 23.1659 87.2066 15.9358 87.2066C8.70537 87.2066 2.84434 81.3319 2.84434 74.0845C2.84434 66.8376 8.70537 60.9625 15.9358 60.9625Z" fill="white"/>
<path d="M15.8396 81.978C14.8104 81.978 13.9283 81.7942 13.1932 81.4267C12.4581 81.0591 11.8553 80.5519 11.3848 79.905C10.9144 79.2581 10.5615 78.5083 10.3263 77.6556C10.1058 76.7882 9.99549 75.8546 9.99549 74.8549C9.99549 73.7375 10.1058 72.6496 10.3263 71.591C10.5615 70.5325 10.9291 69.5842 11.4289 68.7462C11.9435 67.9082 12.6125 67.2466 13.4358 66.7614C14.2738 66.2615 15.2882 66.0116 16.4791 66.0116C17.3171 66.0116 18.1257 66.1292 18.9049 66.3644C19.6841 66.5997 20.3898 66.9378 21.022 67.3789L19.3019 69.9811C18.8461 69.6724 18.361 69.4519 17.8464 69.3196C17.3318 69.1725 16.876 69.099 16.4791 69.099C15.5088 69.099 14.7295 69.5474 14.1415 70.4443C13.5534 71.3264 13.2667 72.7451 13.2814 74.7005L12.5757 74.2815C12.9138 73.517 13.4211 72.8995 14.0974 72.429C14.7737 71.9586 15.5749 71.7233 16.5011 71.7233C17.4862 71.7233 18.3536 71.9586 19.1034 72.429C19.8532 72.8995 20.4413 73.5317 20.8676 74.3256C21.294 75.1195 21.5072 76.009 21.5072 76.994C21.5072 77.9497 21.272 78.8024 20.8015 79.5522C20.3457 80.302 19.6915 80.8974 18.8388 81.3385C18.0008 81.7648 17.001 81.978 15.8396 81.978ZM15.8616 79.0009C16.2586 79.0009 16.6188 78.9053 16.9422 78.7142C17.2656 78.523 17.5156 78.2657 17.692 77.9423C17.8831 77.6042 17.9787 77.2293 17.9787 76.8176C17.9787 76.3912 17.8831 76.009 17.692 75.6708C17.5156 75.3327 17.2656 75.0681 16.9422 74.8769C16.6188 74.6711 16.2586 74.5682 15.8616 74.5682C15.4499 74.5682 15.075 74.6711 14.7369 74.8769C14.4135 75.0681 14.1562 75.3327 13.965 75.6708C13.7739 76.009 13.6784 76.3912 13.6784 76.8176C13.6784 77.2293 13.7739 77.6042 13.965 77.9423C14.1562 78.2657 14.4135 78.523 14.7369 78.7142C15.075 78.9053 15.4499 79.0009 15.8616 79.0009Z" fill="white"/>
</svg>
