<svg width="81" height="81" viewBox="0 0 81 81" fill="none" xmlns="http://www.w3.org/2000/svg">
<path d="M2.13071 22.0836C2.99231 22.0836 3.69062 21.3853 3.69062 20.5237V3.67842H20.5359C21.3975 3.67842 22.0958 2.9801 22.0958 2.1185C22.0958 1.25691 21.3975 0.558594 20.5359 0.558594H2.13071C1.26911 0.558594 0.570801 1.25691 0.570801 2.1185V20.5237C0.570801 21.3853 1.26911 22.0836 2.13071 22.0836Z" fill="white"/>
<path d="M78.868 0.55957H60.4627C59.6011 0.55957 58.9028 1.25788 58.9028 2.11948C58.9028 2.98073 59.6011 3.67905 60.4627 3.67905H77.308V20.5247C77.308 21.3863 78.0064 22.0846 78.868 22.0846C79.7296 22.0846 80.4279 21.3863 80.4279 20.5247V2.11948C80.4279 1.25788 79.7296 0.55957 78.868 0.55957Z" fill="white"/>
<path d="M20.534 77.2993H3.68832V60.4536C3.68832 59.592 2.99001 58.894 2.12876 58.894C1.26716 58.894 0.568848 59.592 0.568848 60.4536V78.8592C0.568848 79.7204 1.26716 80.4187 2.12876 80.4187H20.534C21.3956 80.4187 22.0939 79.7204 22.0939 78.8592C22.0939 77.9976 21.3956 77.2993 20.534 77.2993Z" fill="white"/>
<path d="M60.4666 77.3C60.0567 77.3 59.6537 77.4668 59.3639 77.7569C59.0738 78.047 58.9067 78.4497 58.9067 78.86C58.9067 79.2699 59.0738 79.6726 59.3639 79.9627C59.6537 80.2528 60.0567 80.4195 60.4666 80.4195C60.8766 80.4195 61.2793 80.2528 61.5694 79.9627C61.8595 79.6726 62.0266 79.2699 62.0266 78.86C62.0266 78.4497 61.8595 78.047 61.5694 77.7569C61.2793 77.4668 60.8766 77.3 60.4666 77.3Z" fill="white"/>
<path d="M78.8673 58.8948C78.0057 58.8948 77.3074 59.5931 77.3074 60.4547V77.3H66.701C65.8394 77.3 65.1411 77.9983 65.1411 78.8599C65.1411 79.7215 65.8394 80.4198 66.701 80.4198H78.8673C79.7289 80.4198 80.4272 79.7215 80.4272 78.8599V60.4547C80.4272 59.5931 79.7289 58.8948 78.8673 58.8948Z" fill="white"/>
<path d="M77.3114 50.5455H60.4651V42.1206H77.3114V50.5455ZM50.2336 45.765C51.057 44.8235 51.5816 43.611 51.6546 42.2804L57.3453 44.1843V48.3811L50.2336 45.765ZM30.1285 55.5067L11.0482 46.6371L21.5507 36.1381L35.5239 50.1112L30.1285 55.5067ZM21.3423 56.6879C20.2027 57.1013 18.9693 57.0457 17.8715 56.5315C16.7771 56.0174 15.9433 55.1071 15.5299 53.9675C15.3041 53.3422 15.2207 52.6856 15.2763 52.0428L23.0029 55.6352C22.5373 56.0972 21.9746 56.4586 21.3423 56.6879ZM39.6373 18.0479C41.5029 16.1823 43.987 15.1539 46.6239 15.1539C49.2643 15.1539 51.7449 16.1823 53.614 18.0479C55.4796 19.9136 56.508 22.3976 56.508 25.0345C56.508 27.6749 55.4796 30.159 53.614 32.0246L48.7119 36.9232C47.8711 36.4507 46.9053 36.1797 45.877 36.1797C42.6877 36.1797 40.089 38.7749 40.089 41.9642C40.089 42.996 40.36 43.9619 40.8359 44.7992L37.73 47.9051L28.9368 39.1119L39.0641 28.9812C39.6755 28.3697 39.6755 27.383 39.0641 26.7751C38.4561 26.1671 37.4694 26.1671 36.858 26.7751L26.7307 36.9058L23.7568 33.9284L39.6373 18.0479ZM43.2088 41.9642C43.2088 40.4946 44.4074 39.2995 45.877 39.2995C47.3466 39.2995 48.5417 40.4946 48.5417 41.9642C48.5417 43.4373 47.3466 44.6324 45.877 44.6324C44.4074 44.6324 43.2088 43.4373 43.2088 41.9642ZM78.8713 39.0008H58.9052C58.0436 39.0008 57.3453 39.6991 57.3453 40.5607V40.8942L51.3314 38.8826C51.2897 38.8687 51.2446 38.8583 51.1994 38.8479L55.8166 34.2307C60.8889 29.1583 60.8889 20.9106 55.8166 15.8418C50.7478 10.773 42.5 10.773 37.4312 15.8418L7.26484 46.0082C6.90352 46.3695 6.74371 46.8837 6.83056 47.384C6.92089 47.8843 7.24743 48.3116 7.7095 48.527L12.3406 50.6775C12.0036 52.1123 12.0835 53.6132 12.5977 55.0307C13.296 56.9519 14.6996 58.491 16.5513 59.356C17.5832 59.8389 18.6845 60.0822 19.7893 60.0822C20.6717 60.0822 21.5507 59.9293 22.4019 59.6201C23.8332 59.1024 25.0492 58.1922 25.9351 56.997L29.8054 58.7967C30.0138 58.894 30.2397 58.9391 30.462 58.9391C30.865 58.9391 31.2645 58.7828 31.5633 58.484L43.042 47.0053C43.8793 47.4812 44.8451 47.7523 45.877 47.7523C46.0854 47.7523 46.2939 47.7383 46.4988 47.7175L57.3453 51.7024V52.1054C57.3453 52.9636 58.0436 53.6653 58.9052 53.6653H78.8713C79.7329 53.6653 80.4313 52.9636 80.4313 52.1054V40.5607C80.4313 39.6991 79.7329 39.0008 78.8713 39.0008Z" fill="#2E565B"/>
<path d="M42.3768 25.0238C42.7868 25.0238 43.1894 24.857 43.4795 24.5669C43.7696 24.2761 43.9367 23.8742 43.9367 23.4639C43.9367 23.0539 43.7696 22.6512 43.4795 22.3612C43.1894 22.0711 42.7868 21.9043 42.3768 21.9043C41.9648 21.9043 41.5638 22.0711 41.2741 22.3612C40.984 22.6512 40.8169 23.0539 40.8169 23.4639C40.8169 23.8742 40.984 24.2768 41.2741 24.5669C41.5638 24.857 41.9669 25.0238 42.3768 25.0238Z" fill="#2E565B"/>
</svg>
