<svg width="114" height="93" viewBox="0 0 114 93" fill="none" xmlns="http://www.w3.org/2000/svg">
<path d="M72.7957 56.8239V40.0989" stroke="white" stroke-width="2" stroke-miterlimit="10" stroke-linecap="round" stroke-linejoin="round"/>
<path d="M72.7957 36.2809V21.0103" stroke="white" stroke-width="2" stroke-miterlimit="10" stroke-linecap="round" stroke-linejoin="round"/>
<path d="M4.23926 56.8239V40.0989" stroke="white" stroke-width="2" stroke-miterlimit="10" stroke-linecap="round" stroke-linejoin="round"/>
<path d="M4.23926 36.2809V21.0103" stroke="white" stroke-width="2" stroke-miterlimit="10" stroke-linecap="round" stroke-linejoin="round"/>
<path d="M1.14038 16.4656L38.5171 1.55859L75.6873 16.4656V22.283L38.5171 7.19418L1.14038 22.283V16.4656Z" stroke="white" stroke-width="2" stroke-miterlimit="10" stroke-linecap="round" stroke-linejoin="round"/>
<path d="M72.7971 62.0955H4.23875C3.41274 62.0955 2.79321 61.5501 2.79321 60.8229V58.096C2.79321 57.3689 3.41274 56.8235 4.23875 56.8235H72.7971C73.6231 56.8235 74.2426 57.3689 74.2426 58.096V60.6411C74.2426 61.3683 73.6231 62.0955 72.7971 62.0955Z" stroke="white" stroke-width="2" stroke-miterlimit="10" stroke-linecap="round" stroke-linejoin="round"/>
<path d="M82.7089 68.8221V62.2776C82.7089 57.3692 78.1659 53.5515 72.7968 53.5515C67.4278 53.5515 62.8848 57.551 62.8848 62.2776V73.0034H67.0148V62.2776C67.0148 59.3689 69.6993 57.1874 72.7968 57.1874C75.8943 57.1874 78.5789 59.5507 78.5789 62.2776V68.6403L82.7089 68.8221Z" fill="#9FCEBF"/>
<path d="M86.839 82.4566V62.2776C86.839 59.3689 89.5235 57.1874 92.621 57.1874C95.7185 57.1874 98.4031 59.5507 98.4031 62.2776V68.8221H102.533V62.2776C102.533 57.3692 97.99 53.5515 92.621 53.5515C87.252 53.5515 82.709 57.551 82.709 62.2776V84.6381L86.839 82.4566Z" fill="#9FCEBF"/>
<path d="M102.742 68.8225V62.278C102.742 57.3695 98.1991 53.5519 92.83 53.5519C87.461 53.5519 82.918 57.5513 82.918 62.278V84.6385" stroke="#2E565B" stroke-width="2" stroke-miterlimit="10" stroke-linecap="round" stroke-linejoin="round"/>
<path d="M82.7111 68.8225V62.278C82.7111 57.3695 78.1681 53.5519 72.799 53.5519C67.43 53.5519 62.887 57.5513 62.887 62.278V73.0038" stroke="#2E565B" stroke-width="2" stroke-miterlimit="10" stroke-linecap="round" stroke-linejoin="round"/>
<path d="M98.6111 66.0953V68.8222" stroke="#2E565B" stroke-width="2" stroke-miterlimit="10" stroke-linecap="round" stroke-linejoin="round"/>
<path d="M86.8403 68.8221H111.207" stroke="#2E565B" stroke-width="2" stroke-miterlimit="10" stroke-linecap="round" stroke-linejoin="round"/>
<path d="M67.4299 68.8221H82.711" stroke="#2E565B" stroke-width="2" stroke-miterlimit="10" stroke-linecap="round" stroke-linejoin="round"/>
<path d="M43.4746 68.8221H62.6792" stroke="#2E565B" stroke-width="2" stroke-miterlimit="10" stroke-linecap="round" stroke-linejoin="round"/>
<path d="M62.6802 75.7305V81.9114" stroke="#2E565B" stroke-width="2" stroke-miterlimit="10" stroke-linecap="round" stroke-linejoin="round"/>
<path d="M67.4299 74.2758H82.711" stroke="#2E565B" stroke-width="2" stroke-miterlimit="10" stroke-linecap="round" stroke-linejoin="round"/>
<path d="M82.711 77.912H67.4299" stroke="#2E565B" stroke-width="2" stroke-miterlimit="10" stroke-linecap="round" stroke-linejoin="round"/>
<path d="M26.5422 81.0027C27.5747 83.1842 29.8463 84.6385 32.7373 84.6385C35.4218 84.6385 37.8998 83.1842 38.9323 81.0027C39.9648 83.1842 42.2363 84.6385 45.1273 84.6385C47.8119 84.6385 50.2899 83.1842 51.3224 81.0027" stroke="white" stroke-width="2" stroke-miterlimit="10" stroke-linecap="round" stroke-linejoin="round"/>
<path d="M63.5056 89.7286C63.9186 89.3651 64.3316 88.8197 64.5381 88.2743C66.8096 93.0009 74.4502 93.0009 76.7217 88.2743C78.9932 93.0009 86.8402 93.0009 89.1117 88.2743" stroke="white" stroke-width="2" stroke-miterlimit="10" stroke-linecap="round" stroke-linejoin="round"/>
<path d="M39.9639 88.2743C42.2354 92.8191 49.8759 93.0009 52.1475 88.2743C53.3865 90.6376 56.2775 92.092 59.375 91.7284" stroke="white" stroke-width="2" stroke-miterlimit="10" stroke-linecap="round" stroke-linejoin="round"/>
<path d="M66.8093 84.0928V62.2776C66.8093 59.3689 69.4938 57.1874 72.5914 57.1874C75.6889 57.1874 78.3734 59.5507 78.3734 62.2776V68.6403" stroke="#2E565B" stroke-width="2" stroke-miterlimit="10" stroke-linecap="round" stroke-linejoin="round"/>
<path d="M86.8403 82.4566V62.2776C86.8403 59.3689 89.5248 57.1874 92.6223 57.1874C95.7199 57.1874 98.4044 59.5507 98.4044 62.2776V63.1866" stroke="#2E565B" stroke-width="2" stroke-miterlimit="10" stroke-linecap="round" stroke-linejoin="round"/>
<path d="M50.9094 81.0027C51.9419 83.1842 54.2134 84.6385 57.1045 84.6385C59.789 84.6385 62.267 83.1842 63.2995 81.0027C64.332 83.1842 66.6035 84.6385 69.4945 84.6385C72.179 84.6385 74.6571 83.1842 75.6896 81.0027C76.7221 83.1842 78.9936 84.6385 81.8846 84.6385C84.7756 84.6385 87.0471 83.1842 88.0796 81.0027C89.1121 83.1842 91.3836 84.6385 94.2747 84.6385C96.9592 84.6385 99.4372 83.1842 100.47 81.0027C101.502 83.1842 103.774 84.6385 106.665 84.6385C109.349 84.6385 111.827 83.1842 112.86 81.0027" stroke="white" stroke-width="2" stroke-miterlimit="10" stroke-linecap="round" stroke-linejoin="round"/>
<path d="M58.754 21.3745H55.6565V29.1916H58.754V21.3745Z" stroke="#2E565B" stroke-width="2" stroke-miterlimit="10" stroke-linecap="round" stroke-linejoin="round"/>
<path d="M17.8878 29.002L20.9854 29.002L20.9854 21.1848L17.8878 21.1848L17.8878 29.002Z" stroke="#2E565B" stroke-width="2" stroke-miterlimit="10" stroke-linecap="round" stroke-linejoin="round"/>
<path d="M14.1521 25.1919H15.5976" stroke="#2E565B" stroke-width="2" stroke-miterlimit="10" stroke-linecap="round" stroke-linejoin="round"/>
<path d="M20.9683 25.1919H49.6719H55.6605" stroke="#2E565B" stroke-width="2" stroke-miterlimit="10" stroke-linecap="round" stroke-linejoin="round"/>
<path d="M15.5962 22.6467V27.7369" stroke="#2E565B" stroke-width="2" stroke-miterlimit="10" stroke-linecap="round" stroke-linejoin="round"/>
<path d="M62.6814 25.1919H61.4424" stroke="#2E565B" stroke-width="2" stroke-miterlimit="10" stroke-linecap="round" stroke-linejoin="round"/>
<path d="M61.4424 22.6467V27.7369" stroke="#2E565B" stroke-width="2" stroke-miterlimit="10" stroke-linecap="round" stroke-linejoin="round"/>
<path d="M38.1072 35.3722C40.16 35.3722 41.8242 33.9071 41.8242 32.0999C41.8242 30.2927 40.16 28.8276 38.1072 28.8276C36.0543 28.8276 34.3901 30.2927 34.3901 32.0999C34.3901 33.9071 36.0543 35.3722 38.1072 35.3722Z" stroke="#2E565B" stroke-width="2" stroke-miterlimit="10"/>
<path d="M48.8433 24.1013C47.8108 23.9195 46.9847 24.6467 46.7782 25.5556L46.3653 30.8276C46.3653 31.5548 45.9523 32.4638 45.5393 33.0092C44.5068 34.4635 42.8547 35.1907 40.9962 35.1907H38.5182H36.0402C34.1817 35.1907 32.5297 34.4635 31.4972 33.0092C31.0842 32.282 30.6712 31.5548 30.6712 30.8276L30.2582 25.5556C30.2582 24.6467 29.2257 23.9195 28.1931 24.1013C27.1606 24.1013 26.3346 25.0103 26.5411 25.9192L26.9542 31.0094C27.1607 32.4638 27.5736 33.9181 28.6061 35.1907C29.8452 36.8268 31.7037 37.9176 33.9752 38.4629V44.4621L31.7037 49.007C31.7037 49.1887 31.4972 49.3705 31.4972 49.5523L31.0842 57.5512C31.0842 58.4602 31.9102 59.1874 32.9427 59.3692C33.9752 59.3692 34.8012 58.642 34.8012 57.733L35.2142 50.0977L37.2792 46.0983C37.4857 45.7347 37.8987 45.3711 38.5182 45.3711C38.9312 45.3711 39.5507 45.5529 39.7572 46.0983L41.8222 50.0977L42.2352 57.733C42.2352 58.642 43.0612 59.3692 44.0937 59.3692C45.1262 59.3692 45.9523 58.642 45.9523 57.5512L45.5393 49.5523C45.5393 49.3705 45.5392 49.1887 45.3327 49.007L43.0612 44.4621V38.6447C45.3327 38.2812 47.3978 37.1904 48.8433 35.3725C49.8758 34.0999 50.4953 32.6456 50.4953 31.0094L50.9083 25.9192C50.7018 25.0103 49.8758 24.2831 48.8433 24.1013Z" fill="#9FCEBF" stroke="#2E565B" stroke-width="2" stroke-miterlimit="10" stroke-linecap="round" stroke-linejoin="round"/>
</svg>
