<svg width="91" height="82" viewBox="0 0 91 82" fill="none" xmlns="http://www.w3.org/2000/svg">
<g clip-path="url(#clip0_995_13500)">
<path d="M53.9796 69.7805H35.366C33.5046 69.7805 31.8501 71.4336 31.8501 73.2933V75.7729H57.2887V73.2933C57.2887 71.2269 55.841 69.7805 53.9796 69.7805Z" stroke="white" stroke-width="2" stroke-miterlimit="10" stroke-linecap="round" stroke-linejoin="round"/>
<path d="M40.5364 69.7806V47.2576C40.5364 46.2245 41.3636 45.3979 42.3977 45.3979H46.5341C47.5682 45.3979 48.3955 46.2245 48.3955 47.2576V69.7806" stroke="white" stroke-width="2" stroke-miterlimit="10" stroke-linecap="round" stroke-linejoin="round"/>
<path d="M32.6773 62.5485H29.1614V48.4974H32.6773C33.7114 48.4974 34.5387 49.324 34.5387 50.3571V60.4821C34.5387 61.5153 33.7114 62.5485 32.6773 62.5485Z" stroke="white" stroke-width="2" stroke-miterlimit="10" stroke-linecap="round" stroke-linejoin="round"/>
<path d="M42.0486 45.1815H47.0122V41.8754H42.0486V45.1815Z" stroke="white" stroke-width="2" stroke-miterlimit="10" stroke-linecap="round" stroke-linejoin="round"/>
<path d="M32.2636 38.7856H44.6727V42.0918H32.2636V48.4974H29.1614V42.0918V38.7856H32.2636Z" stroke="white" stroke-width="2" stroke-miterlimit="10" stroke-linecap="round" stroke-linejoin="round"/>
<path d="M56.6683 62.5485H59.9774V48.4974H56.4615C55.4274 48.4974 54.6001 49.324 54.6001 50.3571V60.4821C54.6001 61.5153 55.6342 62.5485 56.6683 62.5485Z" stroke="white" stroke-width="2" stroke-miterlimit="10" stroke-linecap="round" stroke-linejoin="round"/>
<path d="M56.8751 38.7856H44.6729V42.0918H56.8751V48.4974H59.9774V42.0918V38.7856H56.8751Z" stroke="white" stroke-width="2" stroke-miterlimit="10" stroke-linecap="round" stroke-linejoin="round"/>
<path d="M49.6363 34.2397H39.5022C38.4681 34.2397 37.6409 35.0663 37.6409 36.0994V38.7857H51.4977V36.0994C51.4977 35.0663 50.6704 34.2397 49.6363 34.2397Z" stroke="white" stroke-width="2" stroke-miterlimit="10" stroke-linecap="round" stroke-linejoin="round"/>
<path d="M68.4569 52.8366L61.4251 70.1938C61.0115 71.4336 61.6319 72.6734 62.666 73.2933C62.8728 73.4999 63.2865 73.4999 63.4933 73.4999C64.5274 73.4999 65.3547 72.88 65.7683 72.0535L73.8342 52.0101L74.4547 50.7703C77.1433 50.357 79.8319 52.2167 80.2456 54.903L83.141 71.6402C83.3478 72.88 84.3819 73.4999 85.416 73.4999C85.6228 73.4999 85.6228 73.4999 85.8297 73.4999C87.0706 73.2933 87.8979 72.0535 87.691 70.8137L83.9683 49.5305L83.7615 48.704C83.7615 48.4973 83.7615 48.2907 83.5547 48.2907L80.6592 35.0662C79.8319 30.3137 80.6592 20.3953 80.6592 19.982L82.3138 13.1632C83.141 9.65041 81.2797 5.93102 77.7638 4.89786L67.8365 1.59173C66.3888 1.17847 64.941 2.005 64.7342 3.45143C64.5274 4.69122 65.3547 5.72439 66.3888 6.13765L76.316 9.44378C77.3501 9.85704 78.1774 11.0968 77.7638 12.13L76.1092 18.9489C74.6615 21.8417 72.3865 24.3213 69.491 25.5611C68.2501 26.181 67.216 26.8009 65.9751 27.6275L63.7001 29.4871L61.2183 31.5535C58.7365 33.6198 58.116 37.3392 60.1842 40.0254L66.5956 49.1172C67.0092 49.7371 67.8365 50.1504 68.4569 50.1504C69.0774 50.1504 69.491 49.9438 69.9047 49.5305C70.9388 48.704 70.9388 47.2576 70.1115 46.2244L63.7001 37.3392C63.2865 36.7193 63.2865 35.6861 63.9069 35.0662L66.3888 32.1734L67.6297 38.579" fill="#9FCEBF"/>
<path d="M68.4569 52.8366L61.4251 70.1938C61.0115 71.4336 61.6319 72.6734 62.666 73.2933C62.8728 73.4999 63.2865 73.4999 63.4933 73.4999C64.5274 73.4999 65.3547 72.88 65.7683 72.0535L73.8342 52.0101L74.4547 50.7703C77.1433 50.357 79.8319 52.2167 80.2456 54.903L83.141 71.6402C83.3478 72.88 84.3819 73.4999 85.416 73.4999C85.6228 73.4999 85.6228 73.4999 85.8297 73.4999C87.0706 73.2933 87.8978 72.0535 87.691 70.8137L83.9683 49.5305L83.7615 48.704C83.7615 48.4973 83.7615 48.2907 83.5547 48.2907L80.6592 35.0662C79.8319 30.3137 80.6592 20.3953 80.6592 19.982L82.3138 13.1632C83.141 9.65041 81.2797 5.93102 77.7638 4.89786L67.8365 1.59173C66.3888 1.17847 64.941 2.005 64.7342 3.45143C64.5274 4.69122 65.3547 5.72439 66.3888 6.13765L76.316 9.44378C77.3501 9.85704 78.1774 11.0968 77.7638 12.13L76.1092 18.9489C74.6615 21.8417 72.3865 24.3213 69.491 25.5611C68.2501 26.181 67.216 26.8009 65.9751 27.6275L63.7001 29.4871L61.2183 31.5535C58.7365 33.6198 58.116 37.3392 60.1842 40.0254L66.5956 49.1172C67.0092 49.7371 67.8365 50.1504 68.4569 50.1504C69.0774 50.1504 69.491 49.9438 69.9047 49.5305C70.9388 48.704 70.9388 47.2576 70.1115 46.2244L63.7001 37.3392C63.2865 36.7193 63.2865 35.6861 63.9069 35.0662L66.3888 32.1734L67.6297 38.579" stroke="#2E565B" stroke-width="2" stroke-miterlimit="10" stroke-linecap="round" stroke-linejoin="round"/>
<path d="M68.2502 24.9412C71.6769 24.9412 74.4547 22.1658 74.4547 18.7422C74.4547 15.3186 71.6769 12.5432 68.2502 12.5432C64.8235 12.5432 62.0457 15.3186 62.0457 18.7422C62.0457 22.1658 64.8235 24.9412 68.2502 24.9412Z" fill="#9FCEBF" stroke="#2E565B" stroke-width="2" stroke-miterlimit="10" stroke-linecap="round" stroke-linejoin="round"/>
<path d="M17.3728 55.523C26.3964 55.523 33.7115 48.2145 33.7115 39.199C33.7115 30.1835 26.3964 22.875 17.3728 22.875C8.34924 22.875 1.03418 30.1835 1.03418 39.199C1.03418 48.2145 8.34924 55.523 17.3728 55.523Z" fill="#9FCEBF" stroke="#2E565B" stroke-width="2" stroke-miterlimit="10" stroke-linecap="round" stroke-linejoin="round"/>
<path d="M1.03418 38.3724C1.65463 38.9923 9.72054 47.6709 18.8205 42.2985C19.6478 41.8852 20.2683 41.2653 20.6819 40.4388C25.8524 31.5536 17.166 23.2883 16.5455 22.875" stroke="#2E565B" stroke-width="2" stroke-miterlimit="10" stroke-linecap="round" stroke-linejoin="round"/>
<path d="M32.8843 44.3648C30.8161 44.1582 28.5411 44.5715 26.0593 46.0179C25.232 46.4312 24.6115 47.0511 24.1979 47.8776C22.7502 50.1505 22.3365 52.4235 22.5433 54.6965" stroke="#2E565B" stroke-width="2" stroke-miterlimit="10" stroke-linecap="round" stroke-linejoin="round"/>
<path d="M28.7478 50.7703L5.79102 27.6274" stroke="#2E565B" stroke-width="2" stroke-miterlimit="10" stroke-linecap="round" stroke-linejoin="round"/>
<path d="M32.6774 33.8265L11.9956 54.4898" stroke="#2E565B" stroke-width="2" stroke-miterlimit="10" stroke-linecap="round" stroke-linejoin="round"/>
<path d="M10.3411 75.7728H89.9661" stroke="white" stroke-width="2" stroke-miterlimit="10" stroke-linecap="round" stroke-linejoin="round"/>
<path d="M1.03418 80.5254H80.6592" stroke="white" stroke-width="2" stroke-miterlimit="10" stroke-linecap="round" stroke-linejoin="round"/>
</g>
<defs>
<clipPath id="clip0_995_13500">
<rect width="91" height="81" fill="white" transform="translate(0 0.558594)"/>
</clipPath>
</defs>
</svg>
