<svg width="111" height="74" viewBox="0 0 111 74" fill="none" xmlns="http://www.w3.org/2000/svg">
<g clip-path="url(#clip0_995_13606)">
<path d="M84.4372 72.0177C90.9992 72.0177 96.3187 66.6711 96.3187 60.0757C96.3187 53.4804 90.9992 48.1338 84.4372 48.1338C77.8752 48.1338 72.5557 53.4804 72.5557 60.0757C72.5557 66.6711 77.8752 72.0177 84.4372 72.0177Z" stroke="white" stroke-width="2" stroke-miterlimit="10" stroke-linecap="round" stroke-linejoin="round"/>
<path d="M110.308 20.3976C98.6185 21.3606 90.1864 23.8646 84.4373 26.3686C78.3049 29.0651 75.4303 31.5691 75.4303 31.5691L59.3328 33.8804V58.3422L72.3641 62.0018" stroke="white" stroke-width="2" stroke-miterlimit="10" stroke-linejoin="round"/>
<path d="M84.4373 26.5612L91.9111 34.4583H110.308" stroke="white" stroke-width="2" stroke-miterlimit="10" stroke-linejoin="round"/>
<path d="M59.5244 42.548H66.2317C67.3816 42.548 68.1481 43.511 68.1481 44.4741C68.1481 45.6298 67.1899 46.4002 66.2317 46.4002H59.5244" stroke="white" stroke-width="2" stroke-miterlimit="10" stroke-linecap="round" stroke-linejoin="round"/>
<path d="M101.11 41.0071H92.2944" stroke="white" stroke-width="2" stroke-miterlimit="10" stroke-linecap="round" stroke-linejoin="round"/>
<path d="M110.308 62.0018H96.5105" stroke="white" stroke-width="2" stroke-miterlimit="10" stroke-linejoin="round"/>
<path d="M39.9774 1.52161H1.45825V72.5955H39.9774V1.52161Z" stroke="white" stroke-width="2" stroke-miterlimit="10" stroke-linecap="round" stroke-linejoin="round"/>
<path d="M1.45825 72.5955L30.9704 66.6245V7.29997L1.45825 1.52161" stroke="white" stroke-width="2" stroke-miterlimit="10" stroke-linecap="round" stroke-linejoin="round"/>
<path d="M23.8799 34.6509V41.1997" stroke="white" stroke-width="2" stroke-miterlimit="10" stroke-linecap="round" stroke-linejoin="round"/>
<path d="M49.9425 18.4715C53.3293 18.4715 56.0749 15.7119 56.0749 12.3079C56.0749 8.90382 53.3293 6.14429 49.9425 6.14429C46.5556 6.14429 43.8101 8.90382 43.8101 12.3079C43.8101 15.7119 46.5556 18.4715 49.9425 18.4715Z" fill="#9FCEBF" stroke="#2E565B" stroke-width="2" stroke-miterlimit="10" stroke-linecap="round" stroke-linejoin="round"/>
<path d="M55.3083 34.2657L60.8658 36.7697C61.2491 36.9623 61.4408 36.9623 61.824 36.9623C62.7822 36.9623 63.7404 36.3844 64.1237 35.4214C64.6986 34.0731 63.932 32.5322 62.7822 32.147L55.3083 28.8726" fill="#9FCEBF"/>
<path d="M55.3083 34.2657L60.8658 36.7697C61.2491 36.9623 61.4408 36.9623 61.824 36.9623C62.7822 36.9623 63.7404 36.3844 64.1237 35.4214C64.6986 34.0731 63.932 32.5322 62.7822 32.147L55.3083 28.8726" stroke="#2E565B" stroke-width="2" stroke-miterlimit="10" stroke-linecap="round" stroke-linejoin="round"/>
<path d="M48.7928 25.0203L42.8521 28.6799L41.319 35.9992C41.1273 37.1549 39.9775 38.1179 38.8277 38.1179C38.636 38.1179 38.4444 38.1179 38.2528 38.1179C36.9113 37.9253 35.9531 36.577 36.3364 35.0361L38.0611 26.5612C38.2528 25.7908 38.636 25.2129 39.2109 24.8277L47.4514 19.6272C48.0263 19.2419 48.6012 19.2419 48.6012 19.2419H51.2841C53.3921 19.2419 55.3085 20.9755 55.3085 23.2868V43.5111L63.3573 51.7934C63.7406 52.1786 64.1238 52.9491 64.3155 53.5269L67.19 67.7802C67.5733 69.7063 66.4235 71.4398 64.5071 71.8251C64.3155 71.8251 64.1238 71.8251 63.7406 71.8251C62.2075 71.8251 60.6744 70.6694 60.4827 69.1285L57.7998 55.8382L44.7684 44.8594V27.5243" fill="#9FCEBF"/>
<path d="M48.7928 25.0203L42.8521 28.6799L41.319 35.9992C41.1273 37.1549 39.9775 38.1179 38.8277 38.1179C38.636 38.1179 38.4444 38.1179 38.2528 38.1179C36.9113 37.9253 35.9531 36.577 36.3364 35.0361L38.0611 26.5612C38.2528 25.7908 38.636 25.2129 39.2109 24.8277L47.4514 19.6272C48.0263 19.2419 48.6012 19.2419 48.6012 19.2419H51.2841C53.3921 19.2419 55.3085 20.9755 55.3085 23.2868V43.5111L63.3573 51.7934C63.7406 52.1786 64.1238 52.9491 64.3155 53.5269L67.19 67.7802C67.5733 69.7063 66.4235 71.4398 64.5071 71.8251C64.3155 71.8251 64.1238 71.8251 63.7406 71.8251C62.2075 71.8251 60.6744 70.6694 60.4827 69.1285L57.7998 55.8382L44.7684 44.8594V27.5243" stroke="#2E565B" stroke-width="2" stroke-miterlimit="10" stroke-linecap="round" stroke-linejoin="round"/>
<path d="M42.4687 47.9412L33.845 67.395C33.0784 69.1285 33.845 71.2472 35.5697 71.8251C35.953 72.0177 36.5279 72.2103 36.9112 72.2103C38.2527 72.2103 39.4025 71.4398 39.9774 70.0916L47.6429 52.7565" fill="#9FCEBF"/>
<path d="M42.4687 47.9412L33.845 67.395C33.0784 69.1285 33.845 71.2472 35.5697 71.8251C35.953 72.0177 36.5279 72.2103 36.9112 72.2103C38.2527 72.2103 39.4025 71.4398 39.9774 70.0916L47.6429 52.7565" stroke="#2E565B" stroke-width="2" stroke-miterlimit="10" stroke-linecap="round" stroke-linejoin="round"/>
</g>
<defs>
<clipPath id="clip0_995_13606">
<rect width="110" height="73" fill="white" transform="translate(0.5 0.558594)"/>
</clipPath>
</defs>
</svg>
