<svg width="89" height="87" viewBox="0 0 89 87" fill="none" xmlns="http://www.w3.org/2000/svg">
<path d="M83.6714 85.3386H5.32845C3.03549 85.3386 1.15942 83.4625 1.15942 81.1696V43.0327C1.15942 40.7397 3.03549 38.8636 5.32845 38.8636H83.6714C85.9644 38.8636 87.8405 40.7397 87.8405 43.0327V81.1696C87.8405 83.4625 85.9644 85.3386 83.6714 85.3386Z" stroke="#2E565B" stroke-width="2" stroke-miterlimit="10"/>
<path d="M44.3445 80.2044C42.7269 80.2044 41.4036 78.881 41.4036 77.2635V46.5089C41.4036 44.8917 42.7269 43.568 44.3445 43.568C45.962 43.568 47.2854 44.8917 47.2854 46.5089V77.2635C47.2854 78.881 45.962 80.2044 44.3445 80.2044Z" stroke="white" stroke-width="2" stroke-miterlimit="10"/>
<path d="M27.6316 80.2046C26.014 80.2046 24.6907 78.8813 24.6907 77.2637V46.5091C24.6907 44.8919 26.014 43.5682 27.6316 43.5682C29.2492 43.5682 30.5725 44.8919 30.5725 46.5091V77.2637C30.5725 78.8813 29.2492 80.2046 27.6316 80.2046Z" stroke="white" stroke-width="2" stroke-miterlimit="10"/>
<path d="M78.4011 80.2046C76.7835 80.2046 75.4602 78.8813 75.4602 77.2637V46.5091C75.4602 44.8919 76.7835 43.5682 78.4011 43.5682C80.0187 43.5682 81.342 44.8919 81.342 46.5091V77.2637C81.342 78.8813 80.0187 80.2046 78.4011 80.2046Z" stroke="white" stroke-width="2" stroke-miterlimit="10"/>
<path d="M61.9929 80.2046C60.3753 80.2046 59.052 78.8813 59.052 77.2637V46.5091C59.052 44.8919 60.3753 43.5682 61.9929 43.5682C63.6105 43.5682 64.9338 44.8919 64.9338 46.5091V77.2637C64.9338 78.8813 63.6105 80.2046 61.9929 80.2046Z" stroke="white" stroke-width="2" stroke-miterlimit="10"/>
<path d="M10.2956 80.2044C8.67806 80.2044 7.35474 78.881 7.35474 77.2635V46.5089C7.35474 44.8917 8.67806 43.568 10.2956 43.568C11.9132 43.568 13.2365 44.8917 13.2365 46.5089V77.2635C13.2365 78.881 11.9132 80.2044 10.2956 80.2044Z" stroke="white" stroke-width="2" stroke-miterlimit="10"/>
<path d="M44.2395 21.3193C44.2395 26.6918 39.8843 31.047 34.5118 31.047C29.1393 31.047 24.784 26.6918 24.784 21.3193C24.784 15.9468 34.5118 2.55865 34.5118 2.55865C34.5118 2.55865 44.2395 15.9468 44.2395 21.3193Z" stroke="#2E565B" stroke-width="2" stroke-miterlimit="10"/>
<path d="M64.2141 20.5407C64.2141 23.8495 61.532 26.5316 58.2232 26.5316C54.9147 26.5316 52.2323 23.8495 52.2323 20.5407C52.2323 17.2323 58.2232 8.98696 58.2232 8.98696C58.2232 8.98696 64.2141 17.2323 64.2141 20.5407Z" stroke="#2E565B" stroke-width="2" stroke-miterlimit="10"/>
</svg>
