<svg width="91" height="88" viewBox="0 0 91 88" fill="none" xmlns="http://www.w3.org/2000/svg">
<path d="M89.7581 63.8778L76.8517 22.5774C76.2986 20.918 75.008 19.8118 73.533 19.8118H17.4824C16.0074 19.8118 14.7168 20.918 14.1637 22.5774L1.2573 63.8778C0.33542 66.6434 1.99481 69.7778 4.57608 69.7778H86.4393C88.8362 69.7778 90.68 66.6434 89.7581 63.8778Z" stroke="white" stroke-width="2" stroke-linecap="round" stroke-linejoin="round" stroke-dasharray="2.94 2.94"/>
<path d="M26.1495 1.55859C16.0088 1.55859 7.89624 9.67117 7.89624 19.8119C7.89624 23.1307 8.81812 26.2651 10.4775 29.0307L25.0433 52.9997C25.5964 53.9216 26.887 53.9216 27.4402 52.9997L42.0059 29.0307C43.6653 26.2651 44.5872 23.1307 44.5872 19.8119C44.4028 9.67117 36.2902 1.55859 26.1495 1.55859ZM26.1495 28.1088C21.5401 28.1088 17.8526 24.4213 17.8526 19.8119C17.8526 15.2025 21.5401 11.5149 26.1495 11.5149C30.7589 11.5149 34.4465 15.2025 34.4465 19.8119C34.4465 24.4213 30.7589 28.1088 26.1495 28.1088Z" fill="#9FCEBF" stroke="#2E565B" stroke-width="2" stroke-miterlimit="10" stroke-linecap="round" stroke-linejoin="round"/>
<path d="M82.3836 31.2434H56.2021C51.9614 31.2434 48.4583 34.7466 48.4583 38.9872V71.6219C48.4583 73.65 50.1176 75.1251 51.9614 75.1251H86.2555C88.2836 75.1251 89.7586 73.4657 89.7586 71.6219V38.8029C89.943 34.5622 86.4398 31.2434 82.3836 31.2434Z" fill="#9FCEBF" stroke="#2E565B" stroke-width="2" stroke-miterlimit="10" stroke-linecap="round" stroke-linejoin="round"/>
<path d="M72.9805 39.9092H65.421C64.1304 39.9092 63.2085 38.8029 63.2085 37.6967C63.2085 36.406 64.3148 35.4841 65.421 35.4841H72.9805C74.2711 35.4841 75.193 36.5904 75.193 37.6967C75.3774 38.9873 74.2711 39.9092 72.9805 39.9092Z" fill="#9FCEBF" stroke="#2E565B" stroke-width="2" stroke-miterlimit="10" stroke-linecap="round" stroke-linejoin="round"/>
<path d="M82.5687 58.5311H55.4653C53.9903 58.5311 52.884 57.4248 52.884 55.9498V46.1778C52.884 44.7028 53.9903 43.5966 55.4653 43.5966H82.5687C84.0437 43.5966 85.1499 44.7028 85.1499 46.1778V55.9498C85.1499 57.4248 84.0437 58.5311 82.5687 58.5311Z" fill="#9FCEBF" stroke="#2E565B" stroke-width="2" stroke-miterlimit="10" stroke-linecap="round" stroke-linejoin="round"/>
<path d="M82.3827 70.1468C84.2157 70.1468 85.7015 68.661 85.7015 66.8281C85.7015 64.9952 84.2157 63.5093 82.3827 63.5093C80.5498 63.5093 79.064 64.9952 79.064 66.8281C79.064 68.661 80.5498 70.1468 82.3827 70.1468Z" fill="#9FCEBF" stroke="#2E565B" stroke-width="2" stroke-miterlimit="10" stroke-linecap="round" stroke-linejoin="round"/>
<path d="M56.0192 70.1468C57.8521 70.1468 59.338 68.661 59.338 66.8281C59.338 64.9952 57.8521 63.5093 56.0192 63.5093C54.1863 63.5093 52.7004 64.9952 52.7004 66.8281C52.7004 68.661 54.1863 70.1468 56.0192 70.1468Z" fill="#9FCEBF" stroke="#2E565B" stroke-width="2" stroke-miterlimit="10" stroke-linecap="round" stroke-linejoin="round"/>
<path d="M52.6981 66.8282H48.6418" stroke="#2E565B" stroke-width="2" stroke-miterlimit="10" stroke-linecap="round" stroke-linejoin="round"/>
<path d="M89.9453 66.8282H85.7046" stroke="#2E565B" stroke-width="2" stroke-miterlimit="10" stroke-linecap="round" stroke-linejoin="round"/>
<path d="M56.0171 63.6938H82.5673" stroke="#2E565B" stroke-width="2" stroke-miterlimit="10" stroke-linecap="round" stroke-linejoin="round"/>
<path d="M56.0171 70.1471H82.5673" stroke="#2E565B" stroke-width="2" stroke-miterlimit="10" stroke-linecap="round" stroke-linejoin="round"/>
<path d="M84.782 74.9406L89.5758 82.8687C90.3133 83.975 89.9445 85.2656 88.8383 86.0032C88.4695 86.1875 88.1008 86.3719 87.5476 86.3719C86.8101 86.3719 86.0726 86.0032 85.5195 85.2656L79.4351 74.9406" fill="#9FCEBF"/>
<path d="M84.782 74.9406L89.5758 82.8687C90.3133 83.975 89.9445 85.2656 88.8383 86.0032C88.4695 86.1875 88.1008 86.3719 87.5476 86.3719C86.8101 86.3719 86.0726 86.0032 85.5195 85.2656L79.4351 74.9406" stroke="#2E565B" stroke-width="2" stroke-miterlimit="10" stroke-linecap="round" stroke-linejoin="round"/>
<path d="M59.1526 74.9406L52.8838 85.2656C52.5151 86.0032 51.7776 86.3719 50.8557 86.3719C50.4869 86.3719 50.1182 86.1875 49.565 86.0032C48.4588 85.2656 48.09 83.975 48.8275 82.8687L53.6213 74.9406" fill="#9FCEBF"/>
<path d="M59.1526 74.9406L52.8838 85.2656C52.5151 86.0032 51.7776 86.3719 50.8557 86.3719C50.4869 86.3719 50.1182 86.1875 49.565 86.0032C48.4588 85.2656 48.09 83.975 48.8275 82.8687L53.6213 74.9406" stroke="#2E565B" stroke-width="2" stroke-miterlimit="10" stroke-linecap="round" stroke-linejoin="round"/>
<path d="M56.3879 79.3658H82.0163" stroke="#2E565B" stroke-width="2" stroke-miterlimit="10" stroke-linecap="round" stroke-linejoin="round"/>
<path d="M54.3604 82.8689H84.2294" stroke="#2E565B" stroke-width="2" stroke-miterlimit="10" stroke-linecap="round" stroke-linejoin="round"/>
</svg>
