<svg width="79" height="79" viewBox="0 0 79 79" fill="none" xmlns="http://www.w3.org/2000/svg">
<path d="M75.9963 29.6783C76.8246 32.8194 77.2439 36.0542 77.2439 39.3025C77.2439 60.1477 60.3454 77.0461 39.4999 77.0461C18.6548 77.0461 1.75635 60.1477 1.75635 39.3025C1.75635 18.457 18.6548 1.55859 39.4999 1.55859C45.1417 1.55859 50.7118 2.8232 55.8001 5.25965" stroke="white" stroke-width="2" stroke-miterlimit="10" stroke-linecap="round" stroke-linejoin="round"/>
<path d="M72.4957 7.00917L64.4193 18.7519L58.5482 14.7135C55.319 12.4925 54.4939 8.03301 56.7149 4.8041C58.936 1.57484 63.3951 0.749721 66.6243 2.97077L72.4957 7.00917Z" stroke="#2E565B" stroke-width="2" stroke-miterlimit="10" stroke-linecap="round" stroke-linejoin="round"/>
<path d="M65.9948 17.5568L70.5111 20.6634" stroke="#2E565B" stroke-width="2" stroke-miterlimit="10" stroke-linecap="round" stroke-linejoin="round"/>
<path d="M71.944 8.9128L76.4603 12.0194" stroke="#2E565B" stroke-width="2" stroke-miterlimit="10" stroke-linecap="round" stroke-linejoin="round"/>
<path d="M32.2796 51.8824H21.3853V26.7227H32.2796" stroke="#263B3A" stroke-width="2" stroke-miterlimit="10" stroke-linecap="round" stroke-linejoin="round"/>
<path d="M22.9478 39.3024H32.2374" stroke="#263B3A" stroke-width="2" stroke-miterlimit="10" stroke-linecap="round" stroke-linejoin="round"/>
<path d="M41.9146 26.7195L51.5631 51.8792L61.2119 26.7195" stroke="#263B3A" stroke-width="2" stroke-miterlimit="10" stroke-linecap="round" stroke-linejoin="round"/>
</svg>
