<svg width="65" height="86" viewBox="0 0 65 86" fill="none" xmlns="http://www.w3.org/2000/svg">
<path d="M21.2568 77.8364H48.8242" stroke="#2E565B" stroke-width="2" stroke-miterlimit="10" stroke-linecap="round" stroke-linejoin="round"/>
<path d="M46.6088 16.2803V32.272C46.6088 34.7223 44.352 36.7089 41.5678 36.7089H33.7686C30.9847 36.7089 28.7275 34.7223 28.7275 32.272V19.5088" stroke="#2E565B" stroke-width="2" stroke-miterlimit="10" stroke-linecap="round" stroke-linejoin="round"/>
<path d="M52.9405 84.0871H21.8322L18.0127 49.6055" stroke="#2E565B" stroke-width="2" stroke-miterlimit="10" stroke-linecap="round" stroke-linejoin="round"/>
<path d="M23.1787 84.0859H54.2869L58.1134 49.5393" stroke="#2E565B" stroke-width="2" stroke-miterlimit="10" stroke-linecap="round" stroke-linejoin="round"/>
<path d="M63.9189 49.603V84.0851" stroke="#2E565B" stroke-width="2" stroke-miterlimit="10" stroke-linecap="round" stroke-linejoin="round"/>
<path d="M63.9147 49.6044C63.9147 45.8054 60.4159 42.7259 56.0999 42.7259H4.98031C3.57292 42.7259 2.27357 42.1373 1.5836 41.1861C0.891885 40.2335 0.916206 39.0668 1.6444 38.133L15.044 20.967C15.7506 20.0616 17.0166 19.5085 18.3799 19.5085H23.4734" stroke="#2E565B" stroke-width="2" stroke-miterlimit="10" stroke-linecap="round" stroke-linejoin="round"/>
<path d="M21.3115 23.8862L11.4666 36.4989" stroke="#2E565B" stroke-width="2" stroke-miterlimit="10" stroke-linecap="round" stroke-linejoin="round"/>
<path d="M19.4407 23.8862H27.7158" stroke="#2E565B" stroke-width="2" stroke-miterlimit="10" stroke-linecap="round" stroke-linejoin="round"/>
<path d="M53.4443 7.75464L46.8924 6.07176C41.42 4.66614 35.6048 4.66611 30.132 6.07185L23.58 7.7546L26.3674 12.154" stroke="#2E565B" stroke-width="2" stroke-miterlimit="10" stroke-linecap="round" stroke-linejoin="round"/>
<path d="M48.0369 12.1548H26.3705L24.2189 16.2811H50.1885L48.0369 12.1548Z" stroke="#2E565B" stroke-width="2" stroke-miterlimit="10" stroke-linecap="round" stroke-linejoin="round"/>
<path d="M52.938 49.6057V56.3411C52.938 58.6845 48.1179 60.5838 48.1179 60.5838C48.1179 60.5838 43.2979 58.6845 43.2979 56.3411V49.6057H52.938Z" stroke="white" stroke-width="2" stroke-miterlimit="10" stroke-linecap="round" stroke-linejoin="round"/>
</svg>
