<svg width="83" height="85" viewBox="0 0 83 85" fill="none" xmlns="http://www.w3.org/2000/svg">
<path d="M43.2827 2.46141C39.2474 2.46141 35.9633 6.35319 35.9633 11.1365V23.2478C35.9633 28.0307 39.2474 31.9225 43.2827 31.9225C47.3183 31.9225 50.6021 28.0307 50.6021 23.2478V11.1365C50.6021 6.35319 47.3183 2.46141 43.2827 2.46141ZM43.2827 33.8253C38.1979 33.8253 34.0608 29.08 34.0608 23.2478V11.1365C34.0608 5.30434 38.1979 0.558594 43.2827 0.558594C48.3675 0.558594 52.5049 5.30434 52.5049 11.1365V23.2478C52.5049 29.08 48.3675 33.8253 43.2827 33.8253Z" fill="#2E565B"/>
<path d="M30.4309 40.6312H14.5098C14.4545 40.6312 14.3993 40.626 14.3451 40.6167C13.537 40.4746 12.3804 40.1779 11.672 39.2426C10.5808 37.8019 11.2749 35.9168 11.7342 34.6702C11.8044 34.4795 11.8715 34.2992 11.9274 34.1317C12.1275 33.5335 12.9311 31.0654 13.948 27.9442C16.7732 19.2726 19.3312 11.4338 19.5963 10.764C19.9156 9.95728 20.6695 8.09685 22.4705 8.14201C22.5011 8.14132 22.5306 8.14062 22.5608 8.14062C24.3066 8.14062 25.031 9.97083 25.3454 10.7647C25.6112 11.4369 28.1835 19.3209 31.025 28.0418C32.0266 31.1168 32.8163 33.5397 33.0136 34.1324C33.0696 34.2978 33.1359 34.4781 33.2054 34.6675C33.3433 35.0409 33.4993 35.4641 33.6227 35.907C33.7644 36.4129 33.4684 36.9375 32.9622 37.0785C32.4574 37.2213 31.9311 36.9243 31.7907 36.4188C31.6872 36.0498 31.5513 35.6819 31.4204 35.3255C31.3432 35.1167 31.2703 34.9186 31.2088 34.7352C31.0108 34.1411 30.22 31.7127 29.216 28.6314C27.2062 22.4623 23.8425 12.1377 23.5763 11.4647C23.3933 11.0013 23.0132 10.0438 22.5435 10.0438C22.5198 10.0445 22.4955 10.0459 22.4705 10.0459C22.4465 10.0459 22.4212 10.0434 22.3986 10.0438C21.9278 10.0438 21.5488 11.0013 21.3654 11.4647C21.0999 12.1349 17.7557 22.3997 15.757 28.5331C14.7384 31.6612 13.9316 34.1352 13.7322 34.7352C13.6707 34.919 13.5971 35.1181 13.52 35.3279C13.1656 36.2878 12.7254 37.4833 13.1882 38.093C13.4088 38.3841 13.8695 38.5922 14.5952 38.7284H30.4309C30.9562 38.7284 31.3825 39.1547 31.3825 39.68C31.3825 40.2053 30.9562 40.6312 30.4309 40.6312Z" fill="#2E565B"/>
<path d="M67.2151 21.1688C62.6552 21.1688 58.7562 24.4238 57.9422 28.9086C57.8734 29.2908 57.5791 29.5916 57.1987 29.6705C53.7238 30.3897 51.2012 33.4904 51.2012 37.0441C51.2012 41.1968 54.5798 44.5755 58.7325 44.5755H74.3754C74.4095 44.5703 74.4442 44.5675 74.4797 44.5668C77.2792 44.4806 79.4724 42.2207 79.4724 39.4226C79.4724 37.4586 78.3756 35.6927 76.61 34.8134C76.1827 34.6011 75.9791 34.1046 76.1344 33.654C76.4756 32.6555 76.6486 31.6289 76.6486 30.6026C76.6486 25.4007 72.4167 21.1688 67.2151 21.1688ZM74.5088 46.4779H58.7325C53.531 46.4779 49.2991 42.246 49.2991 37.0441C49.2991 32.8049 52.1653 29.0802 56.1992 27.956C57.4085 22.8851 61.9455 19.2664 67.2151 19.2664C73.4662 19.2664 78.5514 24.3515 78.5514 30.6026C78.5514 31.5799 78.4211 32.5562 78.1647 33.5133C80.1634 34.8074 81.3752 37.0052 81.3752 39.4226C81.3752 43.2084 78.4451 46.2744 74.6777 46.4627C74.6228 46.4724 74.5669 46.4779 74.5088 46.4779Z" fill="#2E565B"/>
<path d="M22.4651 60.2016C21.9402 60.2016 21.5139 59.7754 21.5139 59.2504V29.0767C21.5139 28.5514 21.9402 28.1255 22.4651 28.1255C22.9904 28.1255 23.4167 28.5514 23.4167 29.0767V59.2504C23.4167 59.7754 22.9904 60.2016 22.4651 60.2016Z" fill="#2E565B"/>
<path d="M43.2839 60.2007C42.7586 60.2007 42.3323 59.7744 42.3323 59.2494V22.8924C42.3323 22.3671 42.7586 21.9412 43.2839 21.9412C43.8088 21.9412 44.2351 22.3671 44.2351 22.8924V59.2494C44.2351 59.7744 43.8088 60.2007 43.2839 60.2007Z" fill="#2E565B"/>
<path d="M36.0717 35.7347C33.9531 35.7347 32.2289 37.4583 32.2289 39.5765C32.2289 41.6954 33.9531 43.4186 36.0717 43.4186C38.1895 43.4186 39.9134 41.6954 39.9134 39.5765C39.9134 37.4583 38.1895 35.7347 36.0717 35.7347ZM36.0717 45.3214C32.9036 45.3214 30.3264 42.7446 30.3264 39.5765C30.3264 36.4091 32.9036 33.8323 36.0717 33.8323C39.2388 33.8323 41.8159 36.4091 41.8159 39.5765C41.8159 42.7446 39.2388 45.3214 36.0717 45.3214Z" fill="#2E565B"/>
<path d="M43.0142 47.5502C42.7689 47.5502 42.5243 47.4561 42.3385 47.2685L35.3904 40.2496C35.0211 39.8761 35.0243 39.2733 35.3974 38.9037C35.7712 38.5343 36.3726 38.5375 36.7426 38.9103L43.6906 45.9292C44.0599 46.3026 44.0568 46.9054 43.6837 47.2751C43.4981 47.4585 43.2567 47.5502 43.0142 47.5502Z" fill="#2E565B"/>
<path d="M65.3416 60.2029C64.8163 60.2029 64.3907 59.7766 64.3907 59.2517V39.9994L60.4829 36.4408C60.0945 36.0865 60.0664 35.4854 60.4197 35.0967C60.7741 34.7079 61.3768 34.6812 61.7639 35.0334L65.9822 38.8755C66.1806 39.0555 66.2928 39.3116 66.2928 39.5787V59.2517C66.2928 59.7766 65.8669 60.2029 65.3416 60.2029Z" fill="#2E565B"/>
<path d="M65.3368 40.5276C65.0429 40.5276 64.7525 40.3914 64.5662 40.135C64.2581 39.7094 64.3522 39.115 64.7778 38.8065L70.0721 34.9647C70.4967 34.6569 71.0925 34.751 71.401 35.1759C71.7092 35.6012 71.615 36.1959 71.1898 36.5045L65.8948 40.3462C65.7266 40.4689 65.531 40.5276 65.3368 40.5276Z" fill="#2E565B"/>
<path d="M30.0359 59.3999C29.7923 59.3999 29.5491 59.3072 29.3629 59.1213L26.9119 56.6699C26.5401 56.2985 26.5401 55.6964 26.9119 55.3247C27.2836 54.953 27.8853 54.953 28.2567 55.3247L30.7081 57.7761C31.0802 58.1478 31.0802 58.7499 30.7081 59.1213C30.5226 59.3072 30.279 59.3999 30.0359 59.3999Z" fill="#2E565B"/>
<path d="M29.7226 59.3999C29.4794 59.3999 29.2359 59.3072 29.05 59.1213C28.679 58.7499 28.679 58.1478 29.05 57.7761L31.5017 55.3247C31.8731 54.953 32.4749 54.953 32.8466 55.3247C33.2183 55.6964 33.2183 56.2985 32.8466 56.6699L30.3956 59.1213C30.2093 59.3072 29.9662 59.3999 29.7226 59.3999Z" fill="#2E565B"/>
<path d="M51.1288 59.4C50.8852 59.4 50.642 59.3072 50.4565 59.1214L46.5876 55.2522C46.2159 54.8804 46.2159 54.279 46.5876 53.907C46.9587 53.5356 47.5608 53.5356 47.9325 53.907L51.8014 57.7762C52.1731 58.1479 52.1731 58.75 51.8014 59.1214C51.6158 59.3072 51.3726 59.4 51.1288 59.4Z" fill="#2E565B"/>
<path d="M50.641 59.4002C50.3975 59.4002 50.1543 59.3075 49.9688 59.1216C49.5967 58.7502 49.5967 58.1481 49.9688 57.7764L53.8376 53.9072C54.2094 53.5358 54.8111 53.5358 55.1825 53.9072C55.5542 54.2793 55.5542 54.8807 55.1825 55.2524L51.3136 59.1216C51.1278 59.3075 50.8842 59.4002 50.641 59.4002Z" fill="#2E565B"/>
<path d="M59.4503 59.3999C59.2071 59.3999 58.9635 59.3072 58.7773 59.1213L56.3259 56.6699C55.9542 56.2985 55.9542 55.6964 56.3259 55.3247C56.6977 54.953 57.2994 54.953 57.6708 55.3247L60.1232 57.7761C60.4946 58.1478 60.4946 58.7499 60.1232 59.1213C59.9373 59.3072 59.6938 59.3999 59.4503 59.3999Z" fill="#2E565B"/>
<path d="M59.1372 59.3999C58.894 59.3999 58.6505 59.3072 58.4646 59.1213C58.0929 58.7499 58.0929 58.1478 58.4646 57.7761L60.9163 55.3247C61.2877 54.953 61.8895 54.953 62.2612 55.3247C62.6329 55.6964 62.6329 56.2985 62.2612 56.6699L59.8101 59.1213C59.6239 59.3072 59.3807 59.3999 59.1372 59.3999Z" fill="#2E565B"/>
<path d="M81.9788 58.5149H8.40131C4.55434 58.5149 0.0705566 60.0098 0.0705566 65.7433C0.0705566 71.4771 5.30025 72.6878 8.79876 72.6878H65.5059C68.3825 72.6878 71.806 74.5514 71.806 77.3356C71.806 80.1202 69.2674 82.4701 65.9544 82.4701H35.3669C35.1488 82.4701 34.9716 82.8964 34.9716 83.4217C34.9716 83.9467 35.1488 84.3729 35.3669 84.3729H65.9544C71.3394 84.3729 73.8033 81.0808 73.8033 77.4096C73.8033 73.7384 70.2429 70.7854 65.5059 70.7854H8.79876C7.82529 70.7854 2.15194 70.5919 2.15194 65.7183C2.15194 60.8447 6.94493 60.4174 8.40131 60.4174H81.9788C82.5037 60.4174 82.9296 59.9914 82.9296 59.4661C82.9296 58.9408 82.5037 58.5149 81.9788 58.5149Z" fill="white"/>
</svg>
