<svg width="121" height="81" viewBox="0 0 121 81" fill="none" xmlns="http://www.w3.org/2000/svg">
<path d="M30.0254 56.1293V68.2948H44.5682V56.1293C44.5682 52.1018 41.305 48.8301 37.2994 48.8301C33.2938 48.8301 30.0305 52.107 30.0305 56.1293H30.0254Z" stroke="white" stroke-width="2" stroke-linecap="round" stroke-linejoin="round"/>
<path d="M3.52249 72.3274H71.066C72.1022 72.3274 72.9425 73.1712 72.9425 74.2117V77.9804C72.9425 79.021 72.1022 79.8648 71.066 79.8648H3.52249C2.48629 79.8648 1.646 79.021 1.646 77.9804V74.2117C1.646 73.1712 2.48629 72.3274 3.52249 72.3274Z" stroke="white" stroke-width="2" stroke-linecap="round" stroke-linejoin="round"/>
<path d="M36.0054 8.78762C36.7272 8.09911 37.8613 8.09911 38.583 8.78762L72.9528 42.183V46.5937C72.9528 48.2502 70.9783 49.0992 69.7823 47.9603L38.5933 18.2094C37.8665 17.5157 36.7323 17.5157 36.0054 18.2094L4.81645 47.9603C3.62044 49.0992 1.646 48.2502 1.646 46.5937V42.183C1.646 42.183 30.075 14.412 36.0054 8.78762Z" stroke="white" stroke-width="2" stroke-linecap="round" stroke-linejoin="round"/>
<path d="M37.2941 22.1696L67.3129 50.8075L67.3181 68.5639H7.27539V50.8127L37.2941 22.1696Z" stroke="white" stroke-width="2" stroke-linecap="round" stroke-linejoin="round"/>
<path d="M99.6841 23.1911C101.128 21.6621 102.496 20.0647 103.749 18.3655L103.675 18.292C102.457 19.1567 101.324 20.1048 100.217 21.0796C99.7964 21.4585 99.3772 21.8424 98.963 22.228C98.8457 18.2971 98.4935 14.3544 97.5378 10.532H97.3701C97.2091 11.1162 97.0817 11.7004 96.966 12.2846C96.6222 14.0239 96.3942 15.7866 96.2248 17.5442C96.089 19.0966 95.9934 20.6506 95.9414 22.2063C94.4491 20.8175 92.888 19.5005 91.233 18.292L91.1592 18.3655C92.0278 19.5773 92.9802 20.7057 93.9595 21.8074C94.3787 22.2681 94.8012 22.7237 95.2271 23.1778C92.4403 23.2412 89.6568 23.4448 86.8867 23.8204C85.7046 23.994 84.5291 24.1843 83.3638 24.4764V24.6433C87.2506 25.5363 91.2447 25.8468 95.2255 25.9319C93.7851 27.4626 92.4185 29.0616 91.1592 30.7525L91.233 30.826C92.4453 29.9563 93.5772 29.0066 94.6838 28.0318C95.0997 27.6579 95.5139 27.2806 95.923 26.9C95.9985 29.6358 96.2248 32.365 96.6373 35.0791C96.8318 36.2575 97.0431 37.4276 97.3684 38.586H97.5361C98.5187 34.7753 98.8708 30.8343 98.9714 26.9084C100.467 28.2938 102.027 29.6091 103.671 30.826L103.745 30.7525C102.872 29.5457 101.918 28.419 100.938 27.3173C100.512 26.85 100.083 26.3843 99.6505 25.9236C103.64 25.8234 107.632 25.513 111.541 24.645V24.4781C109.212 23.9339 106.862 23.6635 104.495 23.4515C102.892 23.3263 101.287 23.2395 99.6807 23.1944L99.6841 23.1911Z" fill="#2F565B"/>
<path d="M96.2869 7.51744V2.656L100.012 7.66659L100.087 7.76744H100.212H101.061H101.311V7.51744V0.558594V0.308594H101.061H100.212H99.9622V0.558594V5.39178L96.2474 0.409166L96.1724 0.308594H96.047H95.1885H94.9385V0.558594V7.51744V7.76744H95.1885H96.0369H96.2869V7.51744Z" fill="#2F565B" stroke="#2F565B" stroke-width="0.5"/>
<path d="M95.0329 48.5286C95.109 48.7616 95.2249 48.9804 95.3826 49.1843C95.5409 49.3911 95.7427 49.5737 95.9795 49.7356C96.2259 49.9041 96.5121 50.0297 96.834 50.1175C97.1609 50.2083 97.5262 50.25 97.9299 50.25C98.4956 50.25 98.9865 50.1575 99.392 49.9613C99.7909 49.7683 100.105 49.4994 100.319 49.1513C100.53 48.8091 100.636 48.4314 100.636 48.0203C100.636 47.5168 100.419 47.0611 100.019 46.6563C99.6145 46.2457 99.0452 45.9647 98.3361 45.7974L98.0963 45.7408L98.0952 45.7454L97.5669 45.6159L97.5669 45.6159L97.5657 45.6156C97.2584 45.5419 97.0273 45.4319 96.8574 45.2929C96.7204 45.181 96.6389 45.015 96.6389 44.7554C96.6389 44.4515 96.7422 44.2321 96.9413 44.0693C97.1479 43.9002 97.4402 43.8019 97.8461 43.8019C98.2532 43.8019 98.5488 43.8878 98.8008 44.047L98.8013 44.0473C99.0552 44.2069 99.2329 44.424 99.3394 44.7054L99.4256 44.9332L99.6556 44.8529L100.454 44.5741L100.685 44.4932L100.609 44.2601C100.51 43.9578 100.343 43.6803 100.111 43.4281C99.8749 43.1701 99.5737 42.9632 99.2168 42.8017L99.2168 42.8017L99.2154 42.8011C98.8429 42.6352 98.4111 42.5558 97.9249 42.5558C97.1173 42.5558 96.4595 42.7404 95.9887 43.1494C95.5156 43.5587 95.2888 44.1253 95.2888 44.8138C95.2888 45.1928 95.3775 45.5303 95.5634 45.8189C95.7417 46.0957 95.9806 46.3209 96.2754 46.4947C96.5595 46.6623 96.8699 46.7897 97.2041 46.8738C97.2044 46.8739 97.2047 46.8739 97.2049 46.874L97.9731 47.0723L97.9739 47.0725C98.3992 47.1807 98.7254 47.3265 98.9652 47.5036C99.1776 47.6606 99.2729 47.8512 99.2729 48.0938C99.2729 48.3568 99.1652 48.5642 98.9213 48.7327C98.6708 48.9058 98.3044 49.0072 97.7958 49.0072C97.3992 49.0072 97.0814 48.9099 96.827 48.7295C96.5574 48.5382 96.3943 48.3246 96.3155 48.092L96.2349 47.8539L95.9972 47.9359L95.189 48.2146L94.9565 48.2948L95.0329 48.5286Z" fill="#2F565B" stroke="#2F565B" stroke-width="0.5"/>
<path d="M120.354 27.0875H117.297V25.1621H120.044H120.294V24.9121V24.156V23.906H120.044H117.297V22.1593H120.334H120.584V21.9093V21.1448V20.8948H120.334H116.199H115.949V21.1448V28.1036V28.3536H116.199H120.354H120.604V28.1036V27.3375V27.0875H120.354Z" fill="#2F565B" stroke="#2F565B" stroke-width="0.5"/>
<path d="M81.1965 21.0707L79.6799 25.9619L78.2495 21.0746L78.1969 20.8948H78.0096H77.9794H77.1997H77.1695H76.9827L76.9297 21.0739L75.4725 26.0016L73.9729 21.072L73.919 20.8948H73.7337H72.8853H72.5469L72.6463 21.2182L74.7842 28.177L74.8384 28.3536H75.0232H75.112H75.8515H75.9219H76.1087L76.1617 28.1745L77.5823 23.3704L78.9666 28.1729L79.0187 28.3536H79.2068H79.2772H80.0469H80.1156H80.2996L80.3543 28.178L82.5224 21.2191L82.6235 20.8948H82.2837H81.4353H81.251L81.1965 21.0707Z" fill="#2F565B" stroke="#2F565B" stroke-width="0.5"/>
</svg>
