<svg width="81" height="82" viewBox="0 0 81 82" fill="none" xmlns="http://www.w3.org/2000/svg">
<g clip-path="url(#clip0_2088_18420)">
<path d="M25.2275 60.3295V70.8124H37.7591V60.3295C37.7591 56.8589 34.9472 54.0397 31.4956 54.0397C28.0439 54.0397 25.232 56.8634 25.232 60.3295H25.2275Z" stroke="white" stroke-width="1.93965" stroke-linecap="round" stroke-linejoin="round"/>
<path d="M2.38993 74.2875H60.5923C61.4852 74.2875 62.2093 75.0146 62.2093 75.9112V79.1587C62.2093 80.0553 61.4852 80.7825 60.5923 80.7825H2.38993C1.49704 80.7825 0.772949 80.0553 0.772949 79.1587V75.9112C0.772949 75.0146 1.49704 74.2875 2.38993 74.2875Z" stroke="white" stroke-width="1.49902" stroke-linecap="round" stroke-linejoin="round"/>
<path d="M61.7029 47.1343L32.6017 19.5351C31.9798 18.9418 31.0025 18.9418 30.3806 19.5351L1.27937 47.1343C0.955082 47.4421 0.772949 47.8659 0.772949 48.312V52.1126C0.772949 53.5401 2.47433 54.2716 3.50493 53.2903L30.3806 27.6538C31.0069 27.056 31.9842 27.056 32.6106 27.6538L59.4862 53.2903C60.5168 54.2716 62.2182 53.5401 62.2182 52.1126V48.312C62.2182 47.8659 62.036 47.4376 61.7117 47.1343H61.7029Z" stroke="white" stroke-width="1.49902" stroke-linecap="round" stroke-linejoin="round"/>
<path d="M57.3582 71.0399V55.7437L31.491 31.0663L5.62378 55.7481V71.0444H57.3627L57.3582 71.0399ZM36.5463 47.5045C36.5463 48.0666 36.0932 48.5216 35.5335 48.5216H27.4441C26.8844 48.5216 26.4313 48.0666 26.4313 47.5045V43.4451C26.4313 43.1775 26.5379 42.9187 26.7289 42.7269L30.7714 38.6676C31.1578 38.2795 31.8153 38.2795 32.2018 38.6676L36.2442 42.7269C36.4352 42.9187 36.5418 43.173 36.5418 43.4451V47.5045H36.5463Z" stroke="white" stroke-width="1.49902" stroke-linecap="round" stroke-linejoin="round"/>
<circle cx="63.5" cy="18.5" r="16.8269" stroke="#2F565B" stroke-width="1.34615"/>
<path d="M63.5617 33.4308C71.7737 33.4308 78.431 26.7736 78.431 18.5615C78.431 10.3495 71.7737 3.69226 63.5617 3.69226C55.3496 3.69226 48.6924 10.3495 48.6924 18.5615C48.6924 26.7736 55.3496 33.4308 63.5617 33.4308Z" stroke="#2F565B" stroke-width="1.07692" stroke-linecap="round" stroke-linejoin="round"/>
<path d="M63.5615 3.69226V6.11389" stroke="#2F565B" stroke-width="1.07692" stroke-linecap="round" stroke-linejoin="round"/>
<path d="M63.5615 31.0093V33.4309" stroke="#2F565B" stroke-width="1.07692" stroke-linecap="round" stroke-linejoin="round"/>
<path d="M74.0769 8.04614L73.0383 9.0797" stroke="#2F565B" stroke-width="1.07692" stroke-linecap="round" stroke-linejoin="round"/>
<path d="M54.0849 28.0383L53.0464 29.0719" stroke="#2F565B" stroke-width="1.07692" stroke-linecap="round" stroke-linejoin="round"/>
<path d="M54.0849 9.0797L53.0464 8.04614" stroke="#2F565B" stroke-width="1.07692" stroke-linecap="round" stroke-linejoin="round"/>
<path d="M74.0769 29.0719L73.0383 28.0383" stroke="#2F565B" stroke-width="1.07692" stroke-linecap="round" stroke-linejoin="round"/>
<path d="M78.4309 18.5616H76.0093" stroke="#2F565B" stroke-width="1.07692" stroke-linecap="round" stroke-linejoin="round"/>
<path d="M51.114 18.5616H48.6924" stroke="#2F565B" stroke-width="1.07692" stroke-linecap="round" stroke-linejoin="round"/>
<path d="M62.7568 11.2283V8.87939L64.4522 11.2283V8.87939" stroke="#2F565B" stroke-width="0.922647" stroke-linecap="round" stroke-linejoin="round"/>
<path d="M64.4522 25.7947H63.345C63.0221 25.7947 62.7568 26.0561 62.7568 26.3829C62.7568 26.7058 63.0183 26.9711 63.345 26.9711H63.8679C64.1908 26.9711 64.456 27.2325 64.456 27.5592C64.456 27.8822 64.1946 28.1474 63.8679 28.1474H62.7607" stroke="#2F565B" stroke-width="0.922647" stroke-linecap="round" stroke-linejoin="round"/>
<path d="M64.3925 19.6577C64.9044 19.1457 64.9044 18.3157 64.3925 17.8037C63.8805 17.2918 63.0505 17.2918 62.5385 17.8037C62.0266 18.3157 62.0266 19.1457 62.5385 19.6577C63.0505 20.1696 63.8805 20.1696 64.3925 19.6577Z" stroke="#2F565B" stroke-width="0.922647" stroke-linecap="round" stroke-linejoin="round"/>
<path d="M64.7757 15.235L63.4654 13.0548L62.1525 15.2377L64.7757 15.235Z" stroke="#2F565B" stroke-width="0.922647" stroke-linecap="round" stroke-linejoin="round"/>
<path d="M63.4653 17.4205L63.4653 15.235" stroke="#2F565B" stroke-width="0.922647" stroke-linecap="round" stroke-linejoin="round"/>
<path d="M63.4629 23.7624L63.4656 20.041" stroke="#2F565B" stroke-width="0.922647" stroke-linecap="round" stroke-linejoin="round"/>
<path d="M62.1526 23.7625L64.7785 23.7625" stroke="#2F565B" stroke-width="0.922647" stroke-linecap="round" stroke-linejoin="round"/>
</g>
<defs>
<clipPath id="clip0_2088_18420">
<rect width="81" height="81" fill="white" transform="translate(0 0.558594)"/>
</clipPath>
</defs>
</svg>
