<svg width="90" height="87" viewBox="0 0 90 87" fill="none" xmlns="http://www.w3.org/2000/svg">
<path d="M34.2678 9.00409C34.2692 4.89203 37.6039 1.55972 41.7159 1.56116C45.828 1.5626 49.1603 4.89724 49.1589 9.0093C49.1574 13.1214 45.8228 16.4537 41.7107 16.4522C37.5987 16.4508 34.2663 13.1161 34.2678 9.00409Z" stroke="#2E565B" stroke-width="1.65036" stroke-miterlimit="10"/>
<path d="M50.0549 36.0392L50.5344 36.1785L54.0339 37.1971C55.8231 37.7328 57.7075 36.6829 58.1828 34.8597C58.6358 33.124 57.572 31.3511 55.854 30.8376L50.0577 29.1689" stroke="#2E565B" stroke-width="1.65036" stroke-miterlimit="10"/>
<path d="M37.6306 17.9858C38.2643 17.4487 39.1176 16.9408 39.9281 16.6997C39.9281 16.6997 40.0479 16.682 40.2293 16.6455C40.4534 16.5941 40.6785 16.5489 40.9075 16.5225C41.1927 16.4846 41.4852 16.4516 41.7065 16.4527C44.6353 16.4561 47.0689 18.5306 47.6234 21.2884C47.6998 21.6699 47.7391 22.059 47.7408 22.4554V22.488C47.7408 22.488 47.7346 27.7657 47.7322 33.0624C47.7235 38.3602 47.7221 43.6632 47.7134 43.7167C47.7117 44.29 47.9833 44.8337 48.444 45.1835L56.8766 53.2089C57.6291 53.7797 58.1526 54.6048 58.3399 55.5366L61.7686 71.193C62.1896 73.288 60.8431 75.3284 58.7505 75.7619L58.738 75.7647C56.6393 76.1993 54.5916 74.8479 54.1691 72.7467L51.4683 60.6784C51.281 59.7466 50.7571 58.9215 49.9987 58.3517L40.5503 50.4594C40.5503 50.4594 36.3646 47.4942 35.6882 44.1298C35.6368 43.8734 35.6104 43.6121 35.6038 43.353V43.3207L35.6111 27.5819" stroke="#2E565B" stroke-width="1.65036" stroke-miterlimit="10"/>
<path d="M34.3266 47.0047L34.3256 47.0037L24.477 70.3217C23.5379 72.2353 24.3234 74.5463 26.2307 75.4927C28.1492 76.4342 30.5839 75.4045 31.5254 73.4864L39.9913 53.0088" stroke="#2E565B" stroke-width="1.65036" stroke-miterlimit="10"/>
<path d="M40.8113 23.8053L35.6598 27.2996L35.1008 27.6793C34.5151 28.0625 34.0697 28.6167 33.8206 29.2667C33.7858 29.357 33.7553 29.4484 33.7292 29.5411L31.9522 36.0295C31.4609 37.7538 29.7019 38.8405 27.9603 38.4101C26.1315 37.9584 25.0573 36.0879 25.5694 34.2921L26.5425 30.7797L27.007 29.0985L28.0538 25.3193C28.2726 24.5526 28.7608 23.8886 29.4292 23.4547L37.4428 18.176" stroke="#2E565B" stroke-width="1.65036" stroke-miterlimit="10"/>
<path d="M1.2854 79.3937H88.7144" stroke="white" stroke-width="1.65036" stroke-miterlimit="10" stroke-linecap="round"/>
<path d="M27.8577 85.6121H75.4541" stroke="white" stroke-width="1.65036" stroke-miterlimit="10" stroke-linecap="round"/>
</svg>
