<svg width="29" height="28" viewBox="0 0 29 28" fill="none" xmlns="http://www.w3.org/2000/svg">
<g clip-path="url(#clip0_700_4156)">
<circle cx="10.7573" cy="10.1899" r="8.49558" fill="white"/>
<path d="M27.6553 23.3234L22.882 18.5501C22.8819 18.55 22.8819 18.55 22.8817 18.5498C22.8815 18.5497 22.8815 18.5497 22.8814 18.5495L21.1751 16.8432C20.5987 16.2668 19.6607 16.2666 19.0841 16.8432L18.8749 17.0524L18.1543 16.3318C19.566 14.6391 20.4167 12.463 20.4167 10.0918C20.4165 4.71189 16.0396 0.334961 10.6596 0.334961C5.27965 0.334961 0.902832 4.71189 0.902832 10.0918C0.902832 15.4718 5.27965 19.8487 10.6596 19.8487C13.0309 19.8487 15.207 18.9981 16.8996 17.5864L17.6202 18.3069L17.411 18.5161C16.8347 19.0926 16.8347 20.0306 17.4111 20.6072L23.8912 27.0873C24.469 27.6652 25.4045 27.6654 25.9824 27.0874L27.6553 25.4145C28.2318 24.838 28.2318 23.9 27.6553 23.3234ZM10.6596 18.0743C6.25808 18.0743 2.67713 14.4934 2.67713 10.0918C2.67713 5.69026 6.25808 2.10932 10.6596 2.10932C15.0612 2.10932 18.6422 5.69026 18.6422 10.0918C18.6422 14.4934 15.0612 18.0743 10.6596 18.0743ZM18.8749 19.5617L20.1295 18.3071L20.9997 19.1772L19.745 20.4319L18.8749 19.5617ZM24.9368 25.6236L20.9997 21.6864L22.2543 20.4318L26.1915 24.369L24.9368 25.6236Z" fill="black"/>
<path d="M10.6594 3.88354C10.1694 3.88354 9.77222 4.28077 9.77222 4.77075C9.77222 5.26073 10.1694 5.65795 10.6594 5.65795C13.1043 5.65795 15.0933 7.64682 15.0933 10.0916C15.0933 10.5816 15.4905 10.9788 15.9805 10.9788C16.4705 10.9788 16.8677 10.5816 16.8677 10.0916C16.8677 6.66845 14.0827 3.88354 10.6594 3.88354Z" fill="black"/>
</g>
<defs>
<clipPath id="clip0_700_4156">
<rect width="27.1859" height="27.1859" fill="white" transform="translate(0.902588 0.334961)"/>
</clipPath>
</defs>
</svg>
