<svg width="156" height="68" viewBox="0 0 156 68" fill="none" xmlns="http://www.w3.org/2000/svg">
<g clip-path="url(#clip0_671_2008)">
<path d="M138.226 37.4915H128.307L129.858 31.8002H139.776L142.358 21.9194H148.299L145.665 31.8002H155.583L154.033 37.4915H144.115L141.48 47.3722H135.591L138.226 37.4915Z" fill="#E18C82"/>
<path d="M43.593 45.9623C39.2291 50.6862 34.4413 54.989 29.2314 58.759C24.8303 61.9454 19.7859 65.6443 14.5185 67.1902C10.3437 68.4147 5.98663 67.6892 3.20009 64.1019C-0.0187714 59.9598 0.71586 53.7881 1.47582 48.9492C3.25245 37.641 8.37798 26.6846 14.8512 17.3264C17.9603 12.8309 21.4645 8.35902 25.744 4.91885C29.3513 2.01992 34.3518 -1.15809 38.6144 2.31082C42.2284 5.25205 42.3568 9.81187 41.7724 14.0757C40.9703 19.9362 39.1464 25.5243 36.3868 30.7522C35.2351 32.9357 30.9877 29.2622 31.9284 27.4812C34.3873 22.825 36.1656 17.8423 37.0387 12.6381C37.3832 10.5865 37.8358 8.17297 37.3326 6.09602C37.113 5.19454 37.2228 5.18608 36.3294 5.25205C35.9005 5.28418 35.2283 5.60215 34.8179 5.77128C33.6273 6.26177 32.5026 6.93492 31.442 7.6605C24.3744 12.4943 18.9364 20.4419 14.8157 27.8144C10.5228 35.4998 7.00667 44.1492 5.84139 52.9239C5.52727 55.29 5.36852 57.7425 5.57287 60.1255C5.77721 62.5019 6.51691 63.3814 8.93697 63.1885C12.9732 62.8706 16.8203 60.271 20.1473 58.1771C27.3247 53.6613 33.8334 48.1746 39.5854 41.9471C41.0547 40.3573 45.0876 44.3404 43.5913 45.9573L43.593 45.9623Z" fill="#E18C82"/>
<path d="M78.4498 42.6371C74.5149 46.2125 70.4448 49.7559 65.8665 52.4925C63.7538 53.7542 61.2223 55.1292 58.6688 54.8299C56.1001 54.5288 53.93 52.4265 53.1903 49.9927C52.6972 48.369 52.9336 46.8806 53.3828 45.4244C48.7758 48.484 44.9557 52.9694 39.717 55.0294C37.8931 55.7466 35.4832 52.829 35.8547 51.1614C37.0031 46.013 39.8031 40.6836 44.1045 37.4751C47.5125 34.9331 51.9254 35.5521 54.3539 38.7605C54.8234 38.5897 55.3064 38.4375 55.8012 38.309C56.3872 38.1567 57.0847 38.4155 57.7315 38.8739C58.7414 39.5402 59.6736 40.6413 59.7277 41.5462C59.7935 41.8472 59.78 42.1178 59.6703 42.3343C59.4963 43.6992 59.042 44.9779 58.5759 46.2819C58.0946 47.6299 57.8784 48.8882 57.6217 50.2092C57.6876 50.2007 57.7535 50.1855 57.8244 50.177C63.0073 49.5563 72.1505 42.7098 75.3981 39.7584C77.043 38.2633 80.0373 41.1978 78.4498 42.6388V42.6371ZM51.0438 40.3605C51.0185 40.3538 50.9982 40.3487 50.9712 40.3419C50.6402 40.3978 50.3075 40.4536 49.9765 40.5094C49.0139 40.736 48.1847 41.4007 47.4416 42.0248C46.2763 43.0058 45.2462 44.188 44.3325 45.4024C44.2987 45.4481 44.27 45.4937 44.2362 45.5394C46.452 43.7161 48.6187 41.8185 51.0421 40.3605H51.0438Z" fill="#E18C82"/>
<path d="M91.1157 41.7017C90.2004 41.7914 89.3357 41.1165 88.6906 40.3639C87.5371 40.3639 85.0141 42.27 84.3791 42.7571C83.1158 43.7246 81.9573 44.8239 80.8731 45.9876C78.4801 48.555 76.4704 51.4675 74.9994 54.6573C73.9709 56.8899 69.8317 53.2687 70.541 51.3863C72.4578 46.2988 74.5232 41.2671 76.3758 36.1542C77.0463 34.3022 80.1672 36.4417 80.7971 38.336C84.7354 35.3271 88.9473 34.429 91.9314 39.4472C92.4988 40.4028 92.3266 41.585 91.1157 41.7034V41.7017Z" fill="#E18C82"/>
<path d="M122.297 42.7103C115.467 47.1737 108.303 52.3018 100.548 55.0637C97.6977 56.0785 94.7676 56.273 92.7511 53.5788C89.6235 49.3995 93.6732 43.2633 96.5054 40.1479C99.069 37.3285 103.617 34.1758 107.016 37.7327C111.906 42.849 100.405 47.3022 97.294 48.7923C97.2856 48.7957 97.2771 48.7974 97.2704 48.8007C97.0002 49.4316 96.7705 50.0794 96.5932 50.7441C101.724 50.0709 114.212 43.9246 119.319 39.972C121.126 38.5733 123.962 41.6211 122.295 42.7103H122.297Z" fill="#E18C82"/>
</g>
<defs>
<clipPath id="clip0_671_2008">
<rect width="154.762" height="66.9462" fill="white" transform="translate(0.820312 0.797363)"/>
</clipPath>
</defs>
</svg>
