<svg width="86" height="101" viewBox="0 0 86 101" fill="none" xmlns="http://www.w3.org/2000/svg">
<path d="M22.9766 5.51066C22.9766 5.51066 22.9766 1.10303 27.9027 1.10303C32.8289 1.10303 32.8289 5.51066 32.8289 5.51066V71.8844H22.9766V5.51066Z" stroke="black" stroke-width="2.07418"/>
<path fill-rule="evenodd" clip-rule="evenodd" d="M40.4797 63.5433L40.7138 70.8472H42.7891L42.5564 63.5878H41.127C40.9073 63.5878 40.6913 63.5727 40.4797 63.5433ZM46.1524 100.923C46.1675 100.923 46.1825 100.923 46.1975 100.923H75.0572C77.5187 100.923 79.5571 99.0113 79.7145 96.5548L81.8319 63.5234C81.5792 63.5658 81.3196 63.5878 81.0549 63.5878H79.7494L77.6446 96.4221C77.5571 97.7868 76.4247 98.849 75.0572 98.849H51.6683L51.753 99.7931L51.8544 100.923H50.7201H46.1524Z" fill="black"/>
<rect x="37.4976" y="54.7725" width="47.1876" height="7.77817" rx="3.62981" stroke="black" stroke-width="2.07418"/>
<rect x="1.71802" y="71.8843" width="51.3359" height="7.77817" rx="3.62981" stroke="black" stroke-width="2.07418"/>
<path d="M37.4977 99.8858H50.7205L48.9056 79.6626H6.38497L4.57007 99.8858H12.6075L15.4595 94.4411L18.5708 99.8858H37.4977ZM37.4977 99.8858V91.5891" stroke="black" stroke-width="2.07418"/>
<path fill-rule="evenodd" clip-rule="evenodd" d="M68.8688 38.0492V41.2901H70.943V38.0492H74.1839V35.975L70.943 35.975V32.7341H68.8688V35.975L65.6279 35.975V38.0492H68.8688Z" fill="black"/>
<path fill-rule="evenodd" clip-rule="evenodd" d="M51.6279 20.6781V23.919H53.702V20.6781H56.943V18.6039L53.702 18.6039V15.363H51.6279V18.6039L48.387 18.6039L48.387 20.6781H51.6279Z" fill="black"/>
<path fill-rule="evenodd" clip-rule="evenodd" d="M9.10785 55.9391V59.18H11.182V55.9391H14.4229V53.8649L11.182 53.8649V50.624H9.10785V53.8649L5.86694 53.8649V55.9391H9.10785Z" fill="black"/>
</svg>
