<svg width="151" height="70" viewBox="0 0 151 70" fill="none" xmlns="http://www.w3.org/2000/svg">
<g clip-path="url(#clip0_671_1984)">
<path d="M134.435 43.0863H125.011L126.482 37.6872H135.906L138.362 28.312H144.008L141.503 37.6872H150.927L149.456 43.0863H140.032L137.527 52.4614H131.93L134.435 43.0863Z" fill="#64AAE1"/>
<path d="M20.5225 42.4604C20.2921 43.0837 20.0726 43.7125 19.8503 44.3414C23.4117 47.2143 27.2957 49.7269 31.1715 51.9277C39.5683 56.6952 49.1413 60.4057 58.9501 59.6929C60.243 59.598 59.9882 61.1619 59.6088 61.8558C58.9989 62.967 57.7955 63.8127 56.5325 63.9048C46.4635 64.6366 36.5001 60.8665 27.8757 55.9688C24.5718 54.0933 21.2489 51.9981 18.113 49.6618C17.1535 52.8329 16.3133 56.0447 15.6086 59.2891C15.1614 61.3408 10.982 58.1317 11.4021 56.2074C12.1257 52.8736 12.9958 49.5832 13.9878 46.3362C12.0309 44.6178 10.1987 42.7856 8.55347 40.8233C7.21184 39.2242 11.2232 35.6898 12.5269 37.2456C12.7573 37.5193 12.9931 37.7877 13.2316 38.0587C14.248 38.4951 15.427 38.5981 16.671 38.4924C20.1213 29.4153 24.6233 20.7557 30.0928 12.6625C31.1607 11.0824 35.0718 14.6709 33.8711 16.4435C29.4938 22.9186 25.7671 29.7921 22.7179 36.9529C23.8346 36.5517 24.8753 36.1506 25.7643 35.8552C29.8706 34.4783 33.8982 32.8467 37.7469 30.86C44.5201 27.3663 50.7702 22.6584 55.4023 16.5546C57.2399 14.1342 60.7146 8.57527 56.7358 6.48828C53.8113 4.95421 50.0791 5.17104 46.8944 5.37432C38.6061 5.90284 30.4262 8.01964 22.8615 11.4401C19.0074 13.1829 15.3131 15.2672 11.852 17.6984C9.62407 19.2623 3.32516 23.1869 4.76979 26.6887C6.10058 29.9195 1.86969 28.6374 1.0349 26.6074C-1.22013 21.1324 3.32787 17.3271 7.40698 14.3917C11.9414 11.1284 16.8689 8.38554 22.0349 6.26061C30.6403 2.71544 41.1809 0.00236017 50.5643 1.07025C54.3832 1.50391 58.2292 2.8862 60.6902 5.98686C63.6499 9.71363 63.1675 14.1044 60.7851 18.0047C55.9308 25.9569 47.6967 31.7219 39.4653 35.7522C35.1151 37.8798 30.5617 39.5874 25.9297 40.994C24.1896 41.5226 22.3601 42.1134 20.5225 42.4631V42.4604Z" fill="#64AAE1"/>
<path d="M75.6521 41.5844C69.2068 45.7909 62.4471 50.6208 55.1291 53.2228C52.4404 54.1795 49.6758 54.3639 47.7732 51.8242C44.8216 47.8861 48.6432 42.1048 51.3156 39.1695C53.736 36.5133 58.0265 33.5428 61.2356 36.8955C65.8486 41.7145 54.9963 45.9102 52.061 47.3169C52.0528 47.3196 52.0447 47.3223 52.0393 47.325C51.7845 47.9186 51.5677 48.5311 51.3996 49.1572C56.2404 48.523 68.0251 42.7336 72.8441 39.0069C74.5489 37.6896 77.2241 40.5599 75.6521 41.5872V41.5844Z" fill="#64AAE1"/>
<path d="M107.479 41.669C103.256 43.6584 99.2884 46.1168 95.3258 48.5724C92.8675 50.0956 90.1327 52.2693 87.2624 52.9388C84.4437 53.5974 81.7983 50.8951 82.2293 48.1035C82.4786 46.4881 83.1156 44.8673 83.9287 43.2844C79.2885 45.8511 75.166 49.2554 71.6995 53.4104C70.3362 55.0447 67.3358 51.4345 67.7071 49.979C68.7696 45.8105 70.7536 41.8208 72.8568 38.0832C74.0033 36.045 77.9875 39.5224 77.0633 41.1649C77.0064 41.2652 76.9522 41.3655 76.898 41.4658C80.5543 38.9559 84.5765 36.9909 88.8561 35.652C90.6558 35.0882 93.3147 37.9721 92.2875 39.6444C90.8618 41.9645 89.6449 44.3062 88.4686 46.6832C94.1305 43.8427 100.307 41.3086 105.888 38.6795C107.639 37.8528 109.55 40.6933 107.482 41.6663L107.479 41.669Z" fill="#64AAE1"/>
<path d="M148.922 20.9184C148.808 22.0893 147.699 22.1625 146.797 21.6882C142.544 19.4494 137.798 18.9914 133.074 18.6824C128.426 18.3815 123.764 18.2731 119.108 18.3571C119.026 18.3571 118.945 18.3625 118.864 18.3653C111.716 34.1342 105.724 50.5916 106.006 68.0898C106.046 70.6727 101.704 67.7537 101.674 65.8944C101.406 49.2825 106.624 33.6219 113.202 18.5794C105.393 18.9968 97.6251 19.9535 89.9439 21.4388C87.9924 21.8156 84.843 17.6226 86.8622 17.2323C96.213 15.4245 105.697 14.3485 115.215 14.0774C116.934 10.31 118.715 6.58326 120.487 2.88631C121.485 0.807457 125.523 4.23879 124.694 5.96801C123.422 8.61875 122.146 11.2858 120.888 13.9717C129.526 13.8606 139.099 13.9446 146.715 17.9533C147.645 18.4411 149.038 19.7232 148.922 20.9184Z" fill="#64AAE1"/>
</g>
<defs>
<clipPath id="clip0_671_1984">
<rect width="150.499" height="68.2743" fill="white" transform="translate(0.427734 0.834229)"/>
</clipPath>
</defs>
</svg>
