<svg width="108" height="104" viewBox="0 0 108 104" fill="none" xmlns="http://www.w3.org/2000/svg">
<rect width="90.7446" height="7.25958" transform="matrix(1 0 0 -1 4.15576 102.96)" stroke="black" stroke-width="2.07415"/>
<path d="M49.528 16.1037L1.04443 51.6238V37.8824L49.528 2.10303L98.7893 37.8824V51.6238L49.528 16.1037Z" stroke="black" stroke-width="2.07415"/>
<ellipse cx="49.2728" cy="37.1048" rx="8.2967" ry="8.29668" stroke="black" stroke-width="2.07415"/>
<path fill-rule="evenodd" clip-rule="evenodd" d="M23.8647 56.291H22.8276V57.3281V95.7002V96.7373H23.8647H40.9766H42.0137V95.7002V82.1623L41.1683 79.9883L40.1056 82.3792L39.9396 82.7529V94.6632H24.9018V58.3652H39.9396V69.2537H42.0137V57.3281V56.291H40.9766H23.8647Z" fill="black"/>
<path d="M73.0359 68.735V69.7721H73.712L73.9848 69.1534L73.0359 68.735ZM64.3076 68.735V67.6979H63.878L63.5743 68.0017L64.3076 68.735ZM62.752 70.2906V71.3277H63.1815L63.4853 71.0239L62.752 70.2906ZM33.195 70.2906V69.2535H32.6669L32.3563 69.6806L33.195 70.2906ZM29.0466 75.9946L28.2079 75.3846L27.774 75.9812L28.1953 76.5868L29.0466 75.9946ZM33.195 81.9578L32.3436 82.5501L32.6531 82.9949H33.195V81.9578ZM39.1582 81.9578V82.9949H39.8322L40.1059 82.379L39.1582 81.9578ZM41.2324 77.2909L42.199 76.9151L41.2962 74.5938L40.2847 76.8697L41.2324 77.2909ZM43.0473 81.9578L42.0808 82.3337L42.3379 82.9949H43.0473V81.9578ZM45.64 81.9578V82.9949H46.281L46.5676 82.4216L45.64 81.9578ZM47.9735 77.2909L48.88 76.7873L47.9252 75.0686L47.0459 76.8271L47.9735 77.2909ZM50.5662 81.9578L49.6596 82.4615L49.956 82.9949H50.5662V81.9578ZM61.9741 81.9578L62.7075 81.2245L62.4037 80.9207H61.9741V81.9578ZM63.5298 83.5134L62.7965 84.2468L63.1002 84.5505H63.5298V83.5134ZM73.4013 83.5134L74.3283 83.0485L74.0414 82.4764H73.4013V83.5134ZM105.273 75.7362C105.273 84.7572 97.9596 92.0703 88.9385 92.0703V94.1444C99.1051 94.1444 107.347 85.9028 107.347 75.7362H105.273ZM88.9385 59.4021C97.9596 59.4021 105.273 66.7151 105.273 75.7362H107.347C107.347 65.5696 99.1051 57.3279 88.9385 57.3279V59.4021ZM73.9848 69.1534C76.5176 63.4088 82.2613 59.4021 88.9385 59.4021V57.3279C81.41 57.3279 74.9393 61.8472 72.0869 68.3166L73.9848 69.1534ZM73.0359 67.6979H64.3076V69.7721H73.0359V67.6979ZM63.5743 68.0017L62.0186 69.5573L63.4853 71.0239L65.0409 69.4683L63.5743 68.0017ZM62.752 69.2535H33.195V71.3277H62.752V69.2535ZM32.3563 69.6806L28.2079 75.3846L29.8853 76.6046L34.0337 70.9006L32.3563 69.6806ZM28.1953 76.5868L32.3436 82.5501L34.0463 81.3656L29.898 75.4023L28.1953 76.5868ZM33.195 82.9949H39.1582V80.9207H33.195V82.9949ZM40.1059 82.379L42.1801 77.7121L40.2847 76.8697L38.2105 81.5366L40.1059 82.379ZM40.2658 77.6668L42.0808 82.3337L44.0139 81.5819L42.199 76.9151L40.2658 77.6668ZM43.0473 82.9949H45.64V80.9207H43.0473V82.9949ZM46.5676 82.4216L48.9011 77.7547L47.0459 76.8271L44.7124 81.494L46.5676 82.4216ZM47.0669 77.7946L49.6596 82.4615L51.4728 81.4542L48.88 76.7873L47.0669 77.7946ZM50.5662 82.9949H61.9741V80.9207H50.5662V82.9949ZM61.2408 82.6911L62.7965 84.2468L64.2631 82.7801L62.7075 81.2245L61.2408 82.6911ZM63.5298 84.5505H73.4013V82.4764H63.5298V84.5505ZM88.9385 92.0703C82.5479 92.0703 77.0125 88.4004 74.3283 83.0485L72.4743 83.9784C75.4966 90.0045 81.7332 94.1444 88.9385 94.1444V92.0703Z" fill="black"/>
<path fill-rule="evenodd" clip-rule="evenodd" d="M50.3542 15.0917L49.7481 14.6558L49.1419 15.0917L10.678 42.7559L10.248 43.0651V43.5937V95.6227V96.6558H11.2841H88.2119H89.248V95.6227V93.7085C89.133 93.7106 89.0176 93.7117 88.902 93.7117C88.3199 93.7117 87.7441 93.6847 87.1758 93.632V94.5896H12.3203V44.1224L49.7481 17.2034L87.1758 44.1224V57.1161C87.7441 57.0634 88.3199 57.0364 88.902 57.0364C89.0176 57.0364 89.133 57.0375 89.248 57.0396V43.5937V43.0651L88.8181 42.7559L50.3542 15.0917Z" fill="black"/>
<ellipse cx="95.1566" cy="75.7355" rx="5.96325" ry="5.96324" stroke="black" stroke-width="2.07415"/>
</svg>
