<svg width="105" height="101" viewBox="0 0 105 101" fill="none" xmlns="http://www.w3.org/2000/svg">
<rect x="28.4221" y="19.8076" width="47.1876" height="33.7054" stroke="black" stroke-width="2.07418"/>
<path fill-rule="evenodd" clip-rule="evenodd" d="M47.0498 1.69775C44.9236 -0.428545 41.4761 -0.428548 39.3498 1.69775C37.2236 3.82404 37.2236 7.27145 39.3498 9.39774L39.9074 9.95527H42.8407L40.8165 7.93108C39.5002 6.6148 39.5002 4.48069 40.8165 3.16441C42.1328 1.84814 44.2669 1.84814 45.5832 3.16442L51.8117 9.39289L58.0401 3.16442C59.3564 1.84814 61.4905 1.84814 62.8068 3.16441C64.1231 4.48069 64.1231 6.6148 62.8068 7.93108L60.7826 9.95527H63.716L64.2735 9.39774C66.3998 7.27145 66.3998 3.82404 64.2735 1.69775C62.1472 -0.428548 58.6998 -0.428545 56.5735 1.69775L51.8117 6.45956L47.0498 1.69775Z" fill="black"/>
<rect x="48.1267" y="19.8076" width="7.77817" height="33.7054" stroke="black" stroke-width="2.07418"/>
<rect width="56.5214" height="8.81526" transform="matrix(1 0 0 -1 23.7551 19.8076)" stroke="black" stroke-width="2.07418"/>
<rect width="10.8894" height="8.81526" transform="matrix(1 0 0 -1 46.571 19.8076)" stroke="black" stroke-width="2.07418"/>
<path fill-rule="evenodd" clip-rule="evenodd" d="M2.4886 63.7299C2.86597 59.5789 5.04322 50.6395 8.06987 42.905C9.58258 39.0394 11.2797 35.5482 13.0263 33.1292C13.9007 31.9182 14.7507 31.028 15.5505 30.4857C16.3405 29.95 17.0107 29.7975 17.5993 29.9078C18.3832 30.0547 18.9019 30.4169 19.2646 30.8958C19.6439 31.3966 19.8904 32.0783 20.0042 32.8894C20.2344 34.53 19.883 36.4228 19.4198 37.583C18.9871 38.6671 18.3414 40.1294 17.6001 41.8083L17.5021 42.0302C16.724 43.7927 15.8552 45.7659 15.0479 47.7273C14.2416 49.6863 13.4888 51.6522 12.9457 53.4013C12.4154 55.1088 12.047 56.7244 12.0863 57.9495V58.5326C12.0648 58.7317 12.0491 58.9176 12.0383 59.0872C12.0098 59.5328 12.0094 59.9383 12.0451 60.1762C12.0505 60.2124 12.0607 60.2727 12.0802 60.3415L12.0863 60.3623V71.9322H14.1605V59.9636C14.1652 59.9054 14.1683 59.8502 14.1708 59.802C14.1851 59.522 14.1903 59.0995 14.1777 58.5105C14.2087 58.2717 14.2496 58.0138 14.3029 57.7439C14.5303 56.5915 14.9643 55.3127 15.7256 54.3431C16.4548 53.4144 17.4951 52.7465 19.0867 52.7465C20.5915 52.7465 21.5348 53.455 22.1817 54.6469C22.8672 55.91 23.1895 57.6902 23.2683 59.6269C23.3461 61.5406 23.1826 63.4946 22.9806 65.0277C22.8799 65.7917 22.7706 66.444 22.6794 66.9253C22.6338 67.1662 22.5932 67.3617 22.561 67.505C22.5331 67.6296 22.5164 67.6925 22.5116 67.7106C22.5103 67.7157 22.5104 67.7156 22.5104 67.7156C22.3524 68.1895 22.5456 68.5834 22.6255 68.7273C22.7223 68.9019 22.8502 69.0554 22.9498 69.1677C23.0851 69.3203 23.274 69.5109 23.4686 69.7075C23.5553 69.7949 23.6431 69.8836 23.7279 69.9706C24.3223 70.5805 25.0747 71.4104 25.7426 72.5532C27.0566 74.8016 28.1284 78.4069 26.6391 84.1159C26.1893 85.8405 25.7181 87.1982 25.2521 88.2611H27.4962C27.9005 87.2241 28.2853 86.0229 28.6461 84.6395C30.2681 78.422 29.1362 74.2492 27.5334 71.5066C26.7428 70.1539 25.8586 69.185 25.2133 68.5229C25.0869 68.3932 24.9782 68.2836 24.8836 68.1882C24.7703 68.074 24.6772 67.9801 24.5984 67.8967C24.7202 67.3437 24.8902 66.4124 25.037 65.2987C25.2482 63.6962 25.425 61.6154 25.3407 59.5427C25.2574 57.4932 24.9154 55.3357 24.0047 53.6576C23.0555 51.9084 21.4709 50.6723 19.0867 50.6723C17.7657 50.6723 16.6697 51.0086 15.7717 51.5553C16.1356 50.5731 16.5407 49.55 16.966 48.5167C17.7619 46.5829 18.6207 44.6322 19.3996 42.8679L19.5079 42.6226C20.2396 40.9655 20.8991 39.4721 21.3462 38.352C21.9201 36.9144 22.3466 34.6563 22.0582 32.6012C21.9128 31.5644 21.5758 30.5119 20.9181 29.6435C20.2437 28.7531 19.2715 28.1108 17.9813 27.8691C16.6961 27.6283 15.4749 28.0309 14.3864 28.769C13.3077 29.5004 12.2922 30.6027 11.3446 31.915C9.44738 34.5426 7.67514 38.2219 6.13832 42.1492C3.06591 50.0006 0.823392 59.1372 0.422943 63.5422C0.0102489 68.0818 1.65893 72.9683 3.22945 77.5516L3.30475 77.7713C4.58234 81.4989 5.79026 85.0232 6.0832 88.2611H8.16318C7.87176 84.6911 6.58286 80.9344 5.34362 77.3225L5.19163 76.8793C3.58607 72.1936 2.12348 67.7463 2.4886 63.7299Z" fill="black"/>
<rect x="1.45654" y="89.2986" width="30.0756" height="10.3709" rx="2.59272" stroke="black" stroke-width="2.07418"/>
<path fill-rule="evenodd" clip-rule="evenodd" d="M102.057 63.7299C101.68 59.5789 99.5027 50.6395 96.476 42.905C94.9633 39.0394 93.2662 35.5482 91.5196 33.1292C90.6452 31.9182 89.7952 31.028 88.9954 30.4857C88.2054 29.95 87.5352 29.7975 86.9466 29.9078C86.1627 30.0547 85.644 30.4169 85.2813 30.8958C84.902 31.3966 84.6555 32.0783 84.5417 32.8894C84.3115 34.53 84.6629 36.4228 85.1261 37.583C85.5588 38.6671 86.2044 40.1293 86.9457 41.8081L87.0438 42.0302C87.8219 43.7927 88.6907 45.7659 89.498 47.7273C90.3043 49.6863 91.0571 51.6522 91.6002 53.4013C92.1305 55.1088 92.4989 56.7244 92.4596 57.9495V58.5326C92.4811 58.7317 92.4968 58.9176 92.5076 59.0872C92.5361 59.5328 92.5365 59.9383 92.5008 60.1762C92.4954 60.2124 92.4852 60.2727 92.4657 60.3415L92.4596 60.3623V71.9322H90.3854V59.9636C90.3807 59.9054 90.3776 59.8502 90.3751 59.802C90.3608 59.522 90.3556 59.0995 90.3682 58.5105C90.3372 58.2717 90.2963 58.0138 90.243 57.7439C90.0156 56.5915 89.5816 55.3127 88.8203 54.3431C88.0911 53.4144 87.0508 52.7465 85.4592 52.7465C83.9544 52.7465 83.0111 53.455 82.3642 54.6469C81.6787 55.91 81.3564 57.6902 81.2776 59.6269C81.1998 61.5406 81.3633 63.4946 81.5653 65.0277C81.666 65.7917 81.7753 66.444 81.8665 66.9253C81.9121 67.1662 81.9527 67.3617 81.9849 67.505C82.0128 67.6295 82.0295 67.6924 82.0343 67.7106C82.0356 67.7158 82.0355 67.7156 82.0355 67.7156C82.1935 68.1895 82.0003 68.5834 81.9205 68.7273C81.8236 68.9019 81.6957 69.0554 81.5961 69.1677C81.4607 69.3203 81.2719 69.511 81.0772 69.7075C80.9906 69.7949 80.9027 69.8837 80.818 69.9706C80.2236 70.5805 79.4712 71.4104 78.8033 72.5532C77.4893 74.8016 76.4174 78.4069 77.9068 84.1159C78.3566 85.8405 78.8278 87.1982 79.2938 88.2611H77.0497C76.6454 87.2241 76.2606 86.0229 75.8997 84.6395C74.2778 78.422 75.4097 74.2492 77.0125 71.5066C77.8031 70.1539 78.6873 69.185 79.3326 68.5229C79.4589 68.3933 79.5676 68.2837 79.6622 68.1883C79.7755 68.074 79.8687 67.9801 79.9475 67.8967C79.8257 67.3437 79.6557 66.4124 79.5089 65.2987C79.2977 63.6962 79.1209 61.6154 79.2052 59.5427C79.2885 57.4932 79.6305 55.3357 80.5412 53.6576C81.4904 51.9084 83.075 50.6723 85.4592 50.6723C86.7802 50.6723 87.8762 51.0086 88.7741 51.5553C88.4103 50.5731 88.0052 49.55 87.5799 48.5167C86.784 46.5829 85.9252 44.6322 85.1463 42.8679L85.038 42.6226C84.3063 40.9655 83.6468 39.4721 83.1997 38.352C82.6258 36.9144 82.1993 34.6563 82.4877 32.6012C82.6331 31.5644 82.9701 30.5119 83.6278 29.6435C84.3022 28.7531 85.2744 28.1108 86.5646 27.8691C87.8498 27.6283 89.071 28.0309 90.1595 28.769C91.2382 29.5004 92.2537 30.6027 93.2013 31.915C95.0985 34.5426 96.8708 38.2219 98.4076 42.1492C101.48 50.0006 103.723 59.1372 104.123 63.5422C104.536 68.0818 102.887 72.9683 101.316 77.5516L101.241 77.7713C99.9636 81.4989 98.7556 85.0232 98.4627 88.2611H96.3827C96.6741 84.6911 97.963 80.9344 99.2023 77.3224L99.3543 76.8793C100.96 72.1936 102.422 67.7463 102.057 63.7299Z" fill="black"/>
<rect width="30.0756" height="10.3709" rx="2.59272" transform="matrix(-1 0 0 1 103.089 89.2986)" stroke="black" stroke-width="2.07418"/>
</svg>
