<svg width="200" height="60" viewBox="0 0 200 60" fill="none" xmlns="http://www.w3.org/2000/svg">
<g clip-path="url(#clip0_671_2030)">
<path d="M184.906 38.6357H176.374L177.707 33.7489H186.239L188.462 25.2627H193.571L191.305 33.7489H199.837L198.504 38.6357H189.971L187.706 47.1219H182.64L184.906 38.6357Z" fill="#64AA6E"/>
<path d="M19.3798 39.2313C19.1657 39.8113 18.9597 40.3968 18.7537 40.9795C22.0631 43.6492 25.6733 45.9856 29.2754 48.0319C37.0786 52.4634 45.9767 55.911 55.0917 55.2469C56.2951 55.1602 56.0566 56.6129 55.7042 57.258C55.1378 58.2907 54.0184 59.0767 52.8448 59.1607C43.4859 59.841 34.2272 56.3365 26.21 51.7858C23.1391 50.043 20.052 48.0969 17.1356 45.9232C16.2439 48.8694 15.4633 51.8535 14.8074 54.8702C14.3927 56.7783 10.5088 53.7942 10.8964 52.0053C11.5685 48.9073 12.3762 45.8501 13.3005 42.8307C11.4818 41.2343 9.77697 39.5295 8.25103 37.7081C7.00426 36.2201 10.731 32.9378 11.9426 34.3852C12.1567 34.6399 12.3762 34.8893 12.5985 35.1387C13.5444 35.5452 14.6394 35.6401 15.7967 35.5425C19.0031 27.1078 23.1879 19.058 28.2726 11.5367C29.2645 10.0677 32.8992 13.4015 31.7852 15.0494C27.7169 21.0691 24.2531 27.4548 21.418 34.1087C22.4561 33.7374 23.4237 33.3634 24.2476 33.0869C28.0639 31.8076 31.8069 30.2898 35.3846 28.444C41.6808 25.197 47.4891 20.8225 51.7932 15.1469C53.5007 12.8973 56.7315 7.73136 53.0318 5.79074C50.3133 4.36508 46.844 4.56565 43.8843 4.75537C36.1814 5.24595 28.5788 7.21368 21.5481 10.393C17.9677 12.011 14.5337 13.949 11.3165 16.2094C9.24574 17.6622 3.39133 21.3103 4.73296 24.5655C5.9716 27.5686 2.03885 26.376 1.26098 24.4896C-0.836852 19.4022 3.39133 15.8652 7.18314 13.1358C11.3978 10.1029 15.9756 7.55248 20.7784 5.57933C28.7848 2.29165 38.5828 -0.229002 47.3021 0.762995C50.85 1.16684 54.4249 2.45156 56.7125 5.32997C59.4635 8.79383 59.0136 12.8757 56.7992 16.4994C52.2865 23.8906 44.6351 29.249 36.9864 32.992C32.9425 34.9706 28.7116 36.5562 24.4076 37.8626C22.7895 38.3532 21.0901 38.9034 19.3825 39.2286L19.3798 39.2313Z" fill="#64AA6E"/>
<path d="M70.6194 38.4185C64.6295 42.3268 58.3468 46.8179 51.5465 49.2356C49.0475 50.1246 46.4781 50.2953 44.7082 47.9346C41.9653 44.2756 45.5159 38.9009 48.0013 36.1716C50.2509 33.7024 54.2379 30.9406 57.2193 34.0575C61.5071 38.5377 51.4191 42.438 48.6925 43.7417C48.6871 43.7444 48.6789 43.7471 48.6708 43.7498C48.4323 44.3027 48.2317 44.8692 48.0772 45.4519C52.5764 44.8638 63.5291 39.481 68.0093 36.0171C69.5949 34.792 72.0803 37.4617 70.6194 38.4158V38.4185Z" fill="#64AA6E"/>
<path d="M92.884 31.8293C91.9246 35.2525 90.5667 38.5158 88.7561 41.5758C87.4253 43.8281 85.4468 47.8151 82.5196 48.181C79.7306 48.5306 77.5433 45.6956 77.4376 43.137C77.3997 42.2181 77.4295 41.2804 77.5054 40.329C76.2342 41.6273 74.9603 42.9256 73.6892 44.2265C71.9464 46.0045 69.2469 49.4819 66.3197 49.0239C63.509 48.5848 62.4709 45.3324 63.1214 42.9662C64.0213 39.6975 66.0866 36.5724 68.263 34.022C69.4745 32.6017 73.0414 36.0493 71.7756 37.5346C70.518 39.0091 69.4095 40.5648 68.5178 42.2859C68.4527 42.4133 68.3524 42.5949 68.2386 42.8063C69.3905 41.7276 70.4205 40.4645 71.4206 39.4427C74.0171 36.792 76.611 34.1439 79.2075 31.4932C80.6223 30.0513 83.227 33.2983 82.918 34.6833C82.4789 36.6646 82.1049 38.654 81.8501 40.6678C81.7932 41.1286 81.4788 42.4567 81.3406 43.6059C83.0264 42.0826 85.2516 38.0171 85.5904 37.3937C87.0432 34.7185 88.1463 31.8943 88.9676 28.9644C89.5096 27.0292 93.3719 30.0675 92.8786 31.8293H92.884Z" fill="#64AA6E"/>
<path d="M128.055 38.3534C124.605 41.4839 121.035 44.5873 117.018 46.9832C115.167 48.0891 112.945 49.2925 110.706 49.0296C108.454 48.7667 106.551 46.9236 105.901 44.7933C105.47 43.3703 105.676 42.0693 106.069 40.7928C102.027 43.4706 98.6774 47.4006 94.0833 49.203C92.4842 49.8318 90.3701 47.276 90.6953 45.8151C91.7009 41.305 94.1565 36.6405 97.932 33.8298C100.922 31.6019 104.792 32.1467 106.92 34.9546C107.332 34.8055 107.754 34.6727 108.188 34.5589C108.7 34.4261 109.313 34.6538 109.879 35.0522C110.766 35.6349 111.581 36.5998 111.63 37.3939C111.69 37.6569 111.676 37.8954 111.579 38.0851C111.424 39.2804 111.026 40.3998 110.619 41.5435C110.196 42.7253 110.007 43.8257 109.782 44.983C109.839 44.9749 109.898 44.964 109.958 44.9559C114.503 44.4138 122.523 38.4158 125.369 35.8328C126.811 34.5237 129.437 37.0931 128.047 38.3534H128.055ZM104.02 36.3613C103.998 36.3559 103.979 36.3505 103.957 36.345C103.667 36.3938 103.374 36.4426 103.084 36.4914C102.242 36.6893 101.512 37.272 100.862 37.8195C99.8401 38.6787 98.9376 39.714 98.1353 40.7765C98.1055 40.8171 98.0811 40.8578 98.0513 40.8958C99.9946 39.2993 101.895 37.6379 104.02 36.3613Z" fill="#64AA6E"/>
<path d="M139.165 37.5347C138.362 37.6133 137.604 37.0224 137.04 36.3638C136.029 36.3638 133.814 38.0334 133.259 38.4589C132.15 39.3045 131.134 40.2694 130.183 41.2885C128.085 43.5381 126.32 46.0859 125.033 48.8803C124.13 50.8372 120.501 47.666 121.122 46.0154C122.802 41.5596 124.615 37.1525 126.239 32.6777C126.827 31.0569 129.565 32.9297 130.117 34.5885C133.571 31.954 137.265 31.1653 139.883 35.5615C140.382 36.399 140.23 37.4344 139.167 37.5374L139.165 37.5347Z" fill="#64AA6E"/>
<path d="M176.79 5.28639C176.773 5.39481 176.741 5.50051 176.692 5.6008C168.992 20.8168 161.308 36.0952 155.817 52.2788C155.155 54.2276 151.323 51.1378 151.906 49.414C153.022 46.1236 154.234 42.8738 155.513 39.6512C151.708 43.7764 147.271 47.1942 141.747 49.2053C140.137 49.7907 138.029 47.3053 138.359 45.8173C139.365 41.3072 141.82 36.6427 145.593 33.832C148.241 31.8589 151.575 32.0676 153.784 34.0895C154.055 33.7561 154.321 33.4228 154.584 33.0894C161.877 23.8226 167.477 13.2224 172.781 2.73593C172.811 2.6763 172.843 2.62209 172.881 2.5706C173.095 2.26975 173.396 2.13965 173.741 2.13965C173.749 2.13965 173.757 2.13965 173.762 2.13965C173.914 2.13965 174.071 2.16946 174.234 2.21554C175.486 2.57873 176.958 4.17243 176.79 5.28368V5.28639ZM151.83 36.4015C151.762 36.3852 151.694 36.3662 151.613 36.3446C151.323 36.3933 151.033 36.4421 150.74 36.4909C149.895 36.6888 149.168 37.2715 148.518 37.819C147.496 38.6782 146.593 39.7136 145.791 40.776C145.309 41.4184 144.878 42.0905 144.487 42.7817C147.255 41.1094 149.664 38.8408 151.83 36.4015Z" fill="#64AA6E"/>
</g>
<defs>
<clipPath id="clip0_671_2030">
<rect width="199.126" height="58.7013" fill="white" transform="translate(0.710205 0.543701)"/>
</clipPath>
</defs>
</svg>
